<?xml version="1.0" encoding="UTF-8" standalone="no"?><svg xmlns="http://www.w3.org/2000/svg" xmlns:xlink="http://www.w3.org/1999/xlink" contentScriptType="application/ecmascript" contentStyleType="text/css" height="565px" preserveAspectRatio="none" style="width:580px;height:565px;" version="1.1" viewBox="0 0 580 565" width="580px" zoomAndPan="magnify"><defs><filter height="300%" id="f5bsq0bmsyj55" width="300%" x="-1" y="-1"><feGaussianBlur result="blurOut" stdDeviation="2.0"/><feColorMatrix in="blurOut" result="blurOut2" type="matrix" values="0 0 0 0 0 0 0 0 0 0 0 0 0 0 0 0 0 0 .4 0"/><feOffset dx="4.0" dy="4.0" in="blurOut2" result="blurOut3"/><feBlend in="SourceGraphic" in2="blurOut3" mode="normal"/></filter></defs><g><text fill="#000000" font-family="sans-serif" font-size="18" lengthAdjust="spacingAndGlyphs" textLength="153" x="217.5" y="16.708">Observer Pattern</text><!--class Subject--><rect fill="#FEFECE" filter="url(#f5bsq0bmsyj55)" height="99.2188" id="Subject" style="stroke: #A80036; stroke-width: 1.5;" width="171" x="46.5" y="28.9531"/><ellipse cx="104.25" cy="44.9531" fill="#B4A7E5" rx="11" ry="11" style="stroke: #A80036; stroke-width: 1.0;"/><path d="M105.2031,41.7344 L105.2031,48.25 L106.9219,48.25 C107.375,48.25 107.5156,48.2813 107.6875,48.4063 C107.9219,48.5781 108.0313,48.8281 108.0313,49.1094 C108.0313,49.6719 107.6719,49.9531 106.9219,49.9531 L101.7813,49.9531 C101.375,49.9531 101.1719,49.9063 101.0156,49.7813 C100.7969,49.625 100.6563,49.3594 100.6563,49.1094 C100.6563,48.8125 100.8125,48.5313 101.0625,48.375 C101.2188,48.2656 101.3438,48.25 101.7813,48.25 L103.5,48.25 L103.5,41.7344 L101.7813,41.7344 C101.3594,41.7344 101.1719,41.7031 101.0156,41.5938 C100.7969,41.4219 100.6563,41.1719 100.6563,40.8906 C100.6563,40.6094 100.8125,40.3125 101.0625,40.1563 C101.2188,40.0625 101.3438,40.0469 101.7813,40.0469 L106.9219,40.0469 C107.375,40.0469 107.5156,40.0781 107.6875,40.1875 C107.9219,40.3594 108.0313,40.625 108.0313,40.8906 C108.0313,41.1875 107.8906,41.4688 107.625,41.625 C107.5,41.7031 107.3125,41.7344 106.9219,41.7344 Z "/><text fill="#000000" font-family="sans-serif" font-size="12" font-style="italic" lengthAdjust="spacingAndGlyphs" textLength="47" x="124.75" y="49.1074">Subject</text><line style="stroke: #A80036; stroke-width: 1.5;" x1="47.5" x2="216.5" y1="60.9531" y2="60.9531"/><text fill="#000000" font-family="sans-serif" font-size="11" lengthAdjust="spacingAndGlyphs" textLength="131" x="52.5" y="75.1636">observers : Observer[]</text><line style="stroke: #A80036; stroke-width: 1.5;" x1="47.5" x2="216.5" y1="81.7578" y2="81.7578"/><text fill="#000000" font-family="sans-serif" font-size="11" lengthAdjust="spacingAndGlyphs" textLength="159" x="52.5" y="95.9683">registerObserver(Observer)</text><text fill="#000000" font-family="sans-serif" font-size="11" lengthAdjust="spacingAndGlyphs" textLength="157" x="52.5" y="108.7729">removeObserver(Observer)</text><text fill="#000000" font-family="sans-serif" font-size="11" lengthAdjust="spacingAndGlyphs" textLength="99" x="52.5" y="121.5776">notifyObservers()</text><!--class Observer--><rect fill="#FEFECE" filter="url(#f5bsq0bmsyj55)" height="60.8047" id="Observer" style="stroke: #A80036; stroke-width: 1.5;" width="103" x="259.5" y="219.9531"/><ellipse cx="282.15" cy="235.9531" fill="#B4A7E5" rx="11" ry="11" style="stroke: #A80036; stroke-width: 1.0;"/><path d="M283.1031,232.7344 L283.1031,239.25 L284.8219,239.25 C285.275,239.25 285.4156,239.2813 285.5875,239.4063 C285.8219,239.5781 285.9313,239.8281 285.9313,240.1094 C285.9313,240.6719 285.5719,240.9531 284.8219,240.9531 L279.6813,240.9531 C279.275,240.9531 279.0719,240.9063 278.9156,240.7813 C278.6969,240.625 278.5563,240.3594 278.5563,240.1094 C278.5563,239.8125 278.7125,239.5313 278.9625,239.375 C279.1188,239.2656 279.2438,239.25 279.6813,239.25 L281.4,239.25 L281.4,232.7344 L279.6813,232.7344 C279.2594,232.7344 279.0719,232.7031 278.9156,232.5938 C278.6969,232.4219 278.5563,232.1719 278.5563,231.8906 C278.5563,231.6094 278.7125,231.3125 278.9625,231.1563 C279.1188,231.0625 279.2438,231.0469 279.6813,231.0469 L284.8219,231.0469 C285.275,231.0469 285.4156,231.0781 285.5875,231.1875 C285.8219,231.3594 285.9313,231.625 285.9313,231.8906 C285.9313,232.1875 285.7906,232.4688 285.525,232.625 C285.4,232.7031 285.2125,232.7344 284.8219,232.7344 Z "/><text fill="#000000" font-family="sans-serif" font-size="12" font-style="italic" lengthAdjust="spacingAndGlyphs" textLength="54" x="297.85" y="240.1074">Observer</text><line style="stroke: #A80036; stroke-width: 1.5;" x1="260.5" x2="361.5" y1="251.9531" y2="251.9531"/><line style="stroke: #A80036; stroke-width: 1.5;" x1="260.5" x2="361.5" y1="259.9531" y2="259.9531"/><text fill="#000000" font-family="sans-serif" font-size="11" lengthAdjust="spacingAndGlyphs" textLength="91" x="265.5" y="274.1636">update(Payload)</text><!--class Payload--><rect fill="#FEFECE" filter="url(#f5bsq0bmsyj55)" height="48" id="Payload" style="stroke: #A80036; stroke-width: 1.5;" width="81" x="347.5" y="54.4531"/><ellipse cx="362.5" cy="70.4531" fill="#B4A7E5" rx="11" ry="11" style="stroke: #A80036; stroke-width: 1.0;"/><path d="M363.4531,67.2344 L363.4531,73.75 L365.1719,73.75 C365.625,73.75 365.7656,73.7813 365.9375,73.9063 C366.1719,74.0781 366.2813,74.3281 366.2813,74.6094 C366.2813,75.1719 365.9219,75.4531 365.1719,75.4531 L360.0313,75.4531 C359.625,75.4531 359.4219,75.4063 359.2656,75.2813 C359.0469,75.125 358.9063,74.8594 358.9063,74.6094 C358.9063,74.3125 359.0625,74.0313 359.3125,73.875 C359.4688,73.7656 359.5938,73.75 360.0313,73.75 L361.75,73.75 L361.75,67.2344 L360.0313,67.2344 C359.6094,67.2344 359.4219,67.2031 359.2656,67.0938 C359.0469,66.9219 358.9063,66.6719 358.9063,66.3906 C358.9063,66.1094 359.0625,65.8125 359.3125,65.6563 C359.4688,65.5625 359.5938,65.5469 360.0313,65.5469 L365.1719,65.5469 C365.625,65.5469 365.7656,65.5781 365.9375,65.6875 C366.1719,65.8594 366.2813,66.125 366.2813,66.3906 C366.2813,66.6875 366.1406,66.9688 365.875,67.125 C365.75,67.2031 365.5625,67.2344 365.1719,67.2344 Z "/><text fill="#000000" font-family="sans-serif" font-size="12" font-style="italic" lengthAdjust="spacingAndGlyphs" textLength="49" x="376.5" y="74.6074">Payload</text><line style="stroke: #A80036; stroke-width: 1.5;" x1="348.5" x2="427.5" y1="86.4531" y2="86.4531"/><line style="stroke: #A80036; stroke-width: 1.5;" x1="348.5" x2="427.5" y1="94.4531" y2="94.4531"/><!--class WeatherStation--><rect fill="#FEFECE" filter="url(#f5bsq0bmsyj55)" height="112.0234" id="WeatherStation" style="stroke: #A80036; stroke-width: 1.5;" width="218" x="6" y="194.4531"/><ellipse cx="61.75" cy="210.4531" fill="#ADD1B2" rx="11" ry="11" style="stroke: #A80036; stroke-width: 1.0;"/><path d="M64.0938,206.125 L64.2656,206.2031 C64.4844,205.8906 64.6875,205.7969 64.9844,205.7969 C65.2813,205.7969 65.5625,205.9375 65.7188,206.2031 C65.8125,206.3594 65.8281,206.4844 65.8281,206.9219 L65.8281,208.3438 C65.8281,208.7656 65.7969,208.9531 65.6875,209.1094 C65.5156,209.3281 65.25,209.4688 64.9844,209.4688 C64.7656,209.4688 64.5313,209.3594 64.3906,209.2188 C64.25,209.0938 64.2188,208.9688 64.1563,208.5625 C64.0625,208.1563 63.8906,207.9375 63.4063,207.6563 C62.9375,207.4063 62.3281,207.25 61.75,207.25 C60.0156,207.25 58.7656,208.5625 58.7656,210.3438 L58.7656,211.4375 C58.7656,213.1406 60.0625,214.2344 62.1094,214.2344 C62.875,214.2344 63.5625,214.1094 63.9844,213.8438 C64.1719,213.75 64.1719,213.75 64.625,213.2656 C64.8125,213.0781 65.0156,213 65.2344,213 C65.7031,213 66.0938,213.3906 66.0938,213.8438 C66.0938,214.2344 65.7656,214.6875 65.1875,215.0938 C64.4375,215.6406 63.2813,215.9375 62.0625,215.9375 C59.1719,215.9375 57.0625,214.0469 57.0625,211.4688 L57.0625,210.3438 C57.0625,207.625 59.0625,205.5469 61.6875,205.5469 C62.5625,205.5469 63.1563,205.6875 64.0938,206.125 Z "/><text fill="#000000" font-family="sans-serif" font-size="12" lengthAdjust="spacingAndGlyphs" textLength="98" x="82.25" y="214.6074">WeatherStation</text><line style="stroke: #A80036; stroke-width: 1.5;" x1="7" x2="223" y1="226.4531" y2="226.4531"/><line style="stroke: #A80036; stroke-width: 1.5;" x1="7" x2="223" y1="234.4531" y2="234.4531"/><text fill="#000000" font-family="sans-serif" font-size="11" lengthAdjust="spacingAndGlyphs" textLength="206" x="12" y="248.6636">registerObserver(WeatherScreen){}</text><text fill="#000000" font-family="sans-serif" font-size="11" lengthAdjust="spacingAndGlyphs" textLength="204" x="12" y="261.4683">removeObserver(WeatherScreen){}</text><text fill="#000000" font-family="sans-serif" font-size="11" lengthAdjust="spacingAndGlyphs" textLength="113" x="12" y="274.2729">notifyObservers(){}</text><text fill="#000000" font-family="sans-serif" font-size="11" lengthAdjust="spacingAndGlyphs" textLength="66" x="12" y="287.0776">getData(){}</text><text fill="#000000" font-family="sans-serif" font-size="11" lengthAdjust="spacingAndGlyphs" textLength="156" x="12" y="299.8823">setData(WeatherPayload){}</text><!--class WeatherScreen--><rect fill="#FEFECE" filter="url(#f5bsq0bmsyj55)" height="60.8047" id="WeatherScreen" style="stroke: #A80036; stroke-width: 1.5;" width="149" x="236.5" y="372.9531"/><ellipse cx="260.05" cy="388.9531" fill="#A9DCDF" rx="11" ry="11" style="stroke: #A80036; stroke-width: 1.0;"/><path d="M261.6281,390.7656 L257.5813,390.7656 L257.1906,391.75 L257.5813,391.75 C258.0344,391.75 258.175,391.7813 258.3469,391.9063 C258.5656,392.0781 258.6906,392.3281 258.6906,392.6094 C258.6906,392.8906 258.55,393.1875 258.2844,393.3281 C258.1594,393.4219 257.9406,393.4531 257.5813,393.4531 L255.3156,393.4531 C254.5656,393.4531 254.1906,393.1719 254.1906,392.6094 C254.1906,392.3125 254.3469,392.0313 254.5969,391.875 C254.7531,391.7656 254.9094,391.75 255.3313,391.75 L257.9719,385.2344 L256.8938,385.2344 C256.4563,385.2344 256.2844,385.2031 256.1125,385.0938 C255.8938,384.9219 255.7531,384.6719 255.7531,384.3906 C255.7531,384.1094 255.9094,383.8281 256.1594,383.6563 C256.3156,383.5625 256.4406,383.5469 256.8938,383.5469 L260.5656,383.5469 L263.9563,391.75 C264.425,391.75 264.5813,391.7813 264.7531,391.9219 C264.9719,392.0781 265.1125,392.3281 265.1125,392.6094 C265.1125,392.8906 264.9563,393.1875 264.7063,393.3281 C264.5656,393.4219 264.3469,393.4531 263.9875,393.4531 L261.6281,393.4531 C261.2063,393.4531 261.0031,393.4063 260.8625,393.2813 C260.6438,393.125 260.5031,392.875 260.5031,392.6094 C260.5031,392.3125 260.6594,392.0313 260.9094,391.875 C261.0656,391.7656 261.175,391.75 261.6281,391.75 L262.0188,391.75 Z M260.925,389.0625 L259.5969,385.7969 L258.2531,389.0625 Z "/><text fill="#000000" font-family="sans-serif" font-size="12" font-style="italic" lengthAdjust="spacingAndGlyphs" textLength="98" x="275.95" y="393.1074">WeatherScreen</text><line style="stroke: #A80036; stroke-width: 1.5;" x1="237.5" x2="384.5" y1="404.9531" y2="404.9531"/><line style="stroke: #A80036; stroke-width: 1.5;" x1="237.5" x2="384.5" y1="412.9531" y2="412.9531"/><text fill="#000000" font-family="sans-serif" font-size="11" lengthAdjust="spacingAndGlyphs" textLength="137" x="242.5" y="427.1636">update(WeatherPayload)</text><!--class CurrentScreen--><rect fill="#FEFECE" filter="url(#f5bsq0bmsyj55)" height="60.8047" id="CurrentScreen" style="stroke: #A80036; stroke-width: 1.5;" width="149" x="52.5" y="493.9531"/><ellipse cx="79.2" cy="509.9531" fill="#ADD1B2" rx="11" ry="11" style="stroke: #A80036; stroke-width: 1.0;"/><path d="M81.5438,505.625 L81.7156,505.7031 C81.9344,505.3906 82.1375,505.2969 82.4344,505.2969 C82.7313,505.2969 83.0125,505.4375 83.1688,505.7031 C83.2625,505.8594 83.2781,505.9844 83.2781,506.4219 L83.2781,507.8438 C83.2781,508.2656 83.2469,508.4531 83.1375,508.6094 C82.9656,508.8281 82.7,508.9688 82.4344,508.9688 C82.2156,508.9688 81.9813,508.8594 81.8406,508.7188 C81.7,508.5938 81.6688,508.4688 81.6063,508.0625 C81.5125,507.6563 81.3406,507.4375 80.8563,507.1563 C80.3875,506.9063 79.7781,506.75 79.2,506.75 C77.4656,506.75 76.2156,508.0625 76.2156,509.8438 L76.2156,510.9375 C76.2156,512.6406 77.5125,513.7344 79.5594,513.7344 C80.325,513.7344 81.0125,513.6094 81.4344,513.3438 C81.6219,513.25 81.6219,513.25 82.075,512.7656 C82.2625,512.5781 82.4656,512.5 82.6844,512.5 C83.1531,512.5 83.5438,512.8906 83.5438,513.3438 C83.5438,513.7344 83.2156,514.1875 82.6375,514.5938 C81.8875,515.1406 80.7313,515.4375 79.5125,515.4375 C76.6219,515.4375 74.5125,513.5469 74.5125,510.9688 L74.5125,509.8438 C74.5125,507.125 76.5125,505.0469 79.1375,505.0469 C80.0125,505.0469 80.6063,505.1875 81.5438,505.625 Z "/><text fill="#000000" font-family="sans-serif" font-size="12" lengthAdjust="spacingAndGlyphs" textLength="91" x="95.8" y="514.1074">CurrentScreen</text><line style="stroke: #A80036; stroke-width: 1.5;" x1="53.5" x2="200.5" y1="525.9531" y2="525.9531"/><line style="stroke: #A80036; stroke-width: 1.5;" x1="53.5" x2="200.5" y1="533.9531" y2="533.9531"/><text fill="#000000" font-family="sans-serif" font-size="11" lengthAdjust="spacingAndGlyphs" textLength="137" x="58.5" y="548.1636">update(WeatherPayload)</text><!--class StatsScreen--><rect fill="#FEFECE" filter="url(#f5bsq0bmsyj55)" height="60.8047" id="StatsScreen" style="stroke: #A80036; stroke-width: 1.5;" width="149" x="236.5" y="493.9531"/><ellipse cx="269.5" cy="509.9531" fill="#ADD1B2" rx="11" ry="11" style="stroke: #A80036; stroke-width: 1.0;"/><path d="M271.8438,505.625 L272.0156,505.7031 C272.2344,505.3906 272.4375,505.2969 272.7344,505.2969 C273.0313,505.2969 273.3125,505.4375 273.4688,505.7031 C273.5625,505.8594 273.5781,505.9844 273.5781,506.4219 L273.5781,507.8438 C273.5781,508.2656 273.5469,508.4531 273.4375,508.6094 C273.2656,508.8281 273,508.9688 272.7344,508.9688 C272.5156,508.9688 272.2813,508.8594 272.1406,508.7188 C272,508.5938 271.9688,508.4688 271.9063,508.0625 C271.8125,507.6563 271.6406,507.4375 271.1563,507.1563 C270.6875,506.9063 270.0781,506.75 269.5,506.75 C267.7656,506.75 266.5156,508.0625 266.5156,509.8438 L266.5156,510.9375 C266.5156,512.6406 267.8125,513.7344 269.8594,513.7344 C270.625,513.7344 271.3125,513.6094 271.7344,513.3438 C271.9219,513.25 271.9219,513.25 272.375,512.7656 C272.5625,512.5781 272.7656,512.5 272.9844,512.5 C273.4531,512.5 273.8438,512.8906 273.8438,513.3438 C273.8438,513.7344 273.5156,514.1875 272.9375,514.5938 C272.1875,515.1406 271.0313,515.4375 269.8125,515.4375 C266.9219,515.4375 264.8125,513.5469 264.8125,510.9688 L264.8125,509.8438 C264.8125,507.125 266.8125,505.0469 269.4375,505.0469 C270.3125,505.0469 270.9063,505.1875 271.8438,505.625 Z "/><text fill="#000000" font-family="sans-serif" font-size="12" lengthAdjust="spacingAndGlyphs" textLength="77" x="287.5" y="514.1074">StatsScreen</text><line style="stroke: #A80036; stroke-width: 1.5;" x1="237.5" x2="384.5" y1="525.9531" y2="525.9531"/><line style="stroke: #A80036; stroke-width: 1.5;" x1="237.5" x2="384.5" y1="533.9531" y2="533.9531"/><text fill="#000000" font-family="sans-serif" font-size="11" lengthAdjust="spacingAndGlyphs" textLength="137" x="242.5" y="548.1636">update(WeatherPayload)</text><!--class ForecastScreen--><rect fill="#FEFECE" filter="url(#f5bsq0bmsyj55)" height="60.8047" id="ForecastScreen" style="stroke: #A80036; stroke-width: 1.5;" width="149" x="420.5" y="493.9531"/><ellipse cx="443.6" cy="509.9531" fill="#ADD1B2" rx="11" ry="11" style="stroke: #A80036; stroke-width: 1.0;"/><path d="M445.9438,505.625 L446.1156,505.7031 C446.3344,505.3906 446.5375,505.2969 446.8344,505.2969 C447.1313,505.2969 447.4125,505.4375 447.5688,505.7031 C447.6625,505.8594 447.6781,505.9844 447.6781,506.4219 L447.6781,507.8438 C447.6781,508.2656 447.6469,508.4531 447.5375,508.6094 C447.3656,508.8281 447.1,508.9688 446.8344,508.9688 C446.6156,508.9688 446.3813,508.8594 446.2406,508.7188 C446.1,508.5938 446.0688,508.4688 446.0063,508.0625 C445.9125,507.6563 445.7406,507.4375 445.2563,507.1563 C444.7875,506.9063 444.1781,506.75 443.6,506.75 C441.8656,506.75 440.6156,508.0625 440.6156,509.8438 L440.6156,510.9375 C440.6156,512.6406 441.9125,513.7344 443.9594,513.7344 C444.725,513.7344 445.4125,513.6094 445.8344,513.3438 C446.0219,513.25 446.0219,513.25 446.475,512.7656 C446.6625,512.5781 446.8656,512.5 447.0844,512.5 C447.5531,512.5 447.9438,512.8906 447.9438,513.3438 C447.9438,513.7344 447.6156,514.1875 447.0375,514.5938 C446.2875,515.1406 445.1313,515.4375 443.9125,515.4375 C441.0219,515.4375 438.9125,513.5469 438.9125,510.9688 L438.9125,509.8438 C438.9125,507.125 440.9125,505.0469 443.5375,505.0469 C444.4125,505.0469 445.0063,505.1875 445.9438,505.625 Z "/><text fill="#000000" font-family="sans-serif" font-size="12" lengthAdjust="spacingAndGlyphs" textLength="99" x="459.4" y="514.1074">ForecastScreen</text><line style="stroke: #A80036; stroke-width: 1.5;" x1="421.5" x2="568.5" y1="525.9531" y2="525.9531"/><line style="stroke: #A80036; stroke-width: 1.5;" x1="421.5" x2="568.5" y1="533.9531" y2="533.9531"/><text fill="#000000" font-family="sans-serif" font-size="11" lengthAdjust="spacingAndGlyphs" textLength="137" x="426.5" y="548.1636">update(WeatherPayload)</text><!--class WeatherPayload--><rect fill="#FEFECE" filter="url(#f5bsq0bmsyj55)" height="124.8281" id="WeatherPayload" style="stroke: #A80036; stroke-width: 1.5;" width="134" x="398" y="187.9531"/><ellipse cx="413" cy="203.9531" fill="#ADD1B2" rx="11" ry="11" style="stroke: #A80036; stroke-width: 1.0;"/><path d="M415.3438,199.625 L415.5156,199.7031 C415.7344,199.3906 415.9375,199.2969 416.2344,199.2969 C416.5313,199.2969 416.8125,199.4375 416.9688,199.7031 C417.0625,199.8594 417.0781,199.9844 417.0781,200.4219 L417.0781,201.8438 C417.0781,202.2656 417.0469,202.4531 416.9375,202.6094 C416.7656,202.8281 416.5,202.9688 416.2344,202.9688 C416.0156,202.9688 415.7813,202.8594 415.6406,202.7188 C415.5,202.5938 415.4688,202.4688 415.4063,202.0625 C415.3125,201.6563 415.1406,201.4375 414.6563,201.1563 C414.1875,200.9063 413.5781,200.75 413,200.75 C411.2656,200.75 410.0156,202.0625 410.0156,203.8438 L410.0156,204.9375 C410.0156,206.6406 411.3125,207.7344 413.3594,207.7344 C414.125,207.7344 414.8125,207.6094 415.2344,207.3438 C415.4219,207.25 415.4219,207.25 415.875,206.7656 C416.0625,206.5781 416.2656,206.5 416.4844,206.5 C416.9531,206.5 417.3438,206.8906 417.3438,207.3438 C417.3438,207.7344 417.0156,208.1875 416.4375,208.5938 C415.6875,209.1406 414.5313,209.4375 413.3125,209.4375 C410.4219,209.4375 408.3125,207.5469 408.3125,204.9688 L408.3125,203.8438 C408.3125,201.125 410.3125,199.0469 412.9375,199.0469 C413.8125,199.0469 414.4063,199.1875 415.3438,199.625 Z "/><text fill="#000000" font-family="sans-serif" font-size="12" lengthAdjust="spacingAndGlyphs" textLength="102" x="427" y="208.1074">WeatherPayload</text><line style="stroke: #A80036; stroke-width: 1.5;" x1="399" x2="531" y1="219.9531" y2="219.9531"/><text fill="#000000" font-family="sans-serif" font-size="11" lengthAdjust="spacingAndGlyphs" textLength="108" x="404" y="234.1636">temperature : float</text><text fill="#000000" font-family="sans-serif" font-size="11" lengthAdjust="spacingAndGlyphs" textLength="89" x="404" y="246.9683">pressure : float</text><text fill="#000000" font-family="sans-serif" font-size="11" lengthAdjust="spacingAndGlyphs" textLength="85" x="404" y="259.7729">humidity : float</text><line style="stroke: #A80036; stroke-width: 1.5;" x1="399" x2="531" y1="266.3672" y2="266.3672"/><text fill="#000000" font-family="sans-serif" font-size="11" lengthAdjust="spacingAndGlyphs" textLength="100" x="404" y="280.5776">getTemperature()</text><text fill="#000000" font-family="sans-serif" font-size="11" lengthAdjust="spacingAndGlyphs" textLength="78" x="404" y="293.3823">getPressure()</text><text fill="#000000" font-family="sans-serif" font-size="11" lengthAdjust="spacingAndGlyphs" textLength="75" x="404" y="306.187">getHumidity()</text><!--link Subject to Observer--><path d="M183.294,128.1681 C214.494,157.7991 253.318,194.6711 279.918,219.9341 " fill="none" id="Subject-Observer" style="stroke: #A80036; stroke-width: 1.0;"/><!--link Payload to Observer--><path d="M377.455,102.7341 C363.657,133.1981 339.465,186.6081 324.388,219.8951 " fill="none" id="Payload-Observer" style="stroke: #A80036; stroke-width: 1.0;"/><!--link Subject to WeatherStation--><path d="M125.13,148.1551 C123.59,163.5541 121.976,179.6941 120.5,194.4511 " fill="none" id="Subject-WeatherStation" style="stroke: #A80036; stroke-width: 1.0; stroke-dasharray: 7.0,7.0;"/><polygon fill="none" points="118.173,147.3721,127.128,128.1681,132.104,148.7651,118.173,147.3721" style="stroke: #A80036; stroke-width: 1.0;"/><!--link Observer to WeatherScreen--><path d="M311,301.6371 C311,325.2851 311,352.6801 311,372.9401 " fill="none" id="Observer-WeatherScreen" style="stroke: #A80036; stroke-width: 1.0; stroke-dasharray: 7.0,7.0;"/><polygon fill="none" points="304,301.2861,311,281.2861,318,301.2861,304,301.2861" style="stroke: #A80036; stroke-width: 1.0;"/><!--link WeatherScreen to CurrentScreen--><path d="M248.101,445.1331 C223.346,461.1424 195.458,479.1788 172.689,493.9042 " fill="none" id="WeatherScreen-CurrentScreen" style="stroke: #A80036; stroke-width: 1.0; stroke-dasharray: 7.0,7.0;"/><polygon fill="none" points="244.448,439.1581,265.044,434.1751,252.051,450.9141,244.448,439.1581" style="stroke: #A80036; stroke-width: 1.0;"/><!--link WeatherScreen to StatsScreen--><path d="M311,454.2821 C311,467.6879 311,481.767 311,493.6978 " fill="none" id="WeatherScreen-StatsScreen" style="stroke: #A80036; stroke-width: 1.0; stroke-dasharray: 7.0,7.0;"/><polygon fill="none" points="304,454.1751,311,434.1751,318,454.1751,304,454.1751" style="stroke: #A80036; stroke-width: 1.0;"/><!--link WeatherScreen to ForecastScreen--><path d="M373.899,445.1331 C398.654,461.1424 426.542,479.1788 449.311,493.9042 " fill="none" id="WeatherScreen-ForecastScreen" style="stroke: #A80036; stroke-width: 1.0; stroke-dasharray: 7.0,7.0;"/><polygon fill="none" points="369.949,450.9141,356.956,434.1751,377.552,439.1581,369.949,450.9141" style="stroke: #A80036; stroke-width: 1.0;"/><!--link Payload to WeatherPayload--><path d="M406.847,121.0631 C415.925,141.1061 426.995,165.5461 437.031,187.7031 " fill="none" id="Payload-WeatherPayload" style="stroke: #A80036; stroke-width: 1.0; stroke-dasharray: 7.0,7.0;"/><polygon fill="none" points="400.421,123.8411,398.545,102.7341,413.173,118.0641,400.421,123.8411" style="stroke: #A80036; stroke-width: 1.0;"/><!--
@startuml
title Observer Pattern


interface Subject{
  observers : Observer[]
  registerObserver(Observer)
  removeObserver(Observer)
  notifyObservers()
}


interface Observer{
  update(Payload)
}


interface Payload{

}


class WeatherStation{
  registerObserver(WeatherScreen){}
  removeObserver(WeatherScreen){}
  notifyObservers(){}
  getData(){}
  setData(WeatherPayload){}
}


Abstract WeatherScreen{
  update(WeatherPayload)
}


class CurrentScreen{
  update(WeatherPayload)
}


class StatsScreen{
  update(WeatherPayload)
}


class ForecastScreen{
  update(WeatherPayload)
}


class WeatherPayload{
  temperature : float
  pressure : float
  humidity : float
  getTemperature()
  getPressure()
  getHumidity()
}

Subject - - Observer

Payload - - Observer

Subject <|.. WeatherStation

Observer <|.. WeatherScreen

WeatherScreen <|.. CurrentScreen
WeatherScreen <|.. StatsScreen
WeatherScreen <|.. ForecastScreen

Payload <|.. WeatherPayload
@enduml

PlantUML version 1.2018.02beta13(Unknown compile time)
(GPL source distribution)
Java Runtime: Java(TM) SE Runtime Environment
JVM: Java HotSpot(TM) 64-Bit Server VM
Java Version: 1.7.0_25-b15
Operating System: Linux
Default Encoding: UTF-8
Language: en
Country: US
--></g></svg>