<?xml version="1.0" encoding="UTF-8" standalone="no"?><svg xmlns="http://www.w3.org/2000/svg" xmlns:xlink="http://www.w3.org/1999/xlink" contentScriptType="application/ecmascript" contentStyleType="text/css" height="544px" preserveAspectRatio="none" style="width:580px;height:544px;" version="1.1" viewBox="0 0 580 544" width="580px" zoomAndPan="magnify"><defs><filter height="300%" id="f1c2y8pgfq9u9a" width="300%" x="-1" y="-1"><feGaussianBlur result="blurOut" stdDeviation="2.0"/><feColorMatrix in="blurOut" result="blurOut2" type="matrix" values="0 0 0 0 0 0 0 0 0 0 0 0 0 0 0 0 0 0 .4 0"/><feOffset dx="4.0" dy="4.0" in="blurOut2" result="blurOut3"/><feBlend in="SourceGraphic" in2="blurOut3" mode="normal"/></filter></defs><g><!--class Subject--><rect fill="#FEFECE" filter="url(#f1c2y8pgfq9u9a)" height="99.2188" id="Subject" style="stroke: #A80036; stroke-width: 1.5;" width="171" x="46.5" y="8"/><ellipse cx="104.25" cy="24" fill="#B4A7E5" rx="11" ry="11" style="stroke: #A80036; stroke-width: 1.0;"/><path d="M105.2031,20.7813 L105.2031,27.2969 L106.9219,27.2969 C107.375,27.2969 107.5156,27.3281 107.6875,27.4531 C107.9219,27.625 108.0313,27.875 108.0313,28.1563 C108.0313,28.7188 107.6719,29 106.9219,29 L101.7813,29 C101.375,29 101.1719,28.9531 101.0156,28.8281 C100.7969,28.6719 100.6563,28.4063 100.6563,28.1563 C100.6563,27.8594 100.8125,27.5781 101.0625,27.4219 C101.2188,27.3125 101.3438,27.2969 101.7813,27.2969 L103.5,27.2969 L103.5,20.7813 L101.7813,20.7813 C101.3594,20.7813 101.1719,20.75 101.0156,20.6406 C100.7969,20.4688 100.6563,20.2188 100.6563,19.9375 C100.6563,19.6563 100.8125,19.3594 101.0625,19.2031 C101.2188,19.1094 101.3438,19.0938 101.7813,19.0938 L106.9219,19.0938 C107.375,19.0938 107.5156,19.125 107.6875,19.2344 C107.9219,19.4063 108.0313,19.6719 108.0313,19.9375 C108.0313,20.2344 107.8906,20.5156 107.625,20.6719 C107.5,20.75 107.3125,20.7813 106.9219,20.7813 Z "/><text fill="#000000" font-family="sans-serif" font-size="12" font-style="italic" lengthAdjust="spacingAndGlyphs" textLength="47" x="124.75" y="28.1543">Subject</text><line style="stroke: #A80036; stroke-width: 1.5;" x1="47.5" x2="216.5" y1="40" y2="40"/><text fill="#000000" font-family="sans-serif" font-size="11" lengthAdjust="spacingAndGlyphs" textLength="131" x="52.5" y="54.2104">observers : Observer[]</text><line style="stroke: #A80036; stroke-width: 1.5;" x1="47.5" x2="216.5" y1="60.8047" y2="60.8047"/><text fill="#000000" font-family="sans-serif" font-size="11" lengthAdjust="spacingAndGlyphs" textLength="159" x="52.5" y="75.0151">registerObserver(Observer)</text><text fill="#000000" font-family="sans-serif" font-size="11" lengthAdjust="spacingAndGlyphs" textLength="157" x="52.5" y="87.8198">removeObserver(Observer)</text><text fill="#000000" font-family="sans-serif" font-size="11" lengthAdjust="spacingAndGlyphs" textLength="99" x="52.5" y="100.6245">notifyObservers()</text><!--class Observer--><rect fill="#FEFECE" filter="url(#f1c2y8pgfq9u9a)" height="60.8047" id="Observer" style="stroke: #A80036; stroke-width: 1.5;" width="103" x="259.5" y="199"/><ellipse cx="282.15" cy="215" fill="#B4A7E5" rx="11" ry="11" style="stroke: #A80036; stroke-width: 1.0;"/><path d="M283.1031,211.7813 L283.1031,218.2969 L284.8219,218.2969 C285.275,218.2969 285.4156,218.3281 285.5875,218.4531 C285.8219,218.625 285.9313,218.875 285.9313,219.1563 C285.9313,219.7188 285.5719,220 284.8219,220 L279.6813,220 C279.275,220 279.0719,219.9531 278.9156,219.8281 C278.6969,219.6719 278.5563,219.4063 278.5563,219.1563 C278.5563,218.8594 278.7125,218.5781 278.9625,218.4219 C279.1188,218.3125 279.2438,218.2969 279.6813,218.2969 L281.4,218.2969 L281.4,211.7813 L279.6813,211.7813 C279.2594,211.7813 279.0719,211.75 278.9156,211.6406 C278.6969,211.4688 278.5563,211.2188 278.5563,210.9375 C278.5563,210.6563 278.7125,210.3594 278.9625,210.2031 C279.1188,210.1094 279.2438,210.0938 279.6813,210.0938 L284.8219,210.0938 C285.275,210.0938 285.4156,210.125 285.5875,210.2344 C285.8219,210.4063 285.9313,210.6719 285.9313,210.9375 C285.9313,211.2344 285.7906,211.5156 285.525,211.6719 C285.4,211.75 285.2125,211.7813 284.8219,211.7813 Z "/><text fill="#000000" font-family="sans-serif" font-size="12" font-style="italic" lengthAdjust="spacingAndGlyphs" textLength="54" x="297.85" y="219.1543">Observer</text><line style="stroke: #A80036; stroke-width: 1.5;" x1="260.5" x2="361.5" y1="231" y2="231"/><line style="stroke: #A80036; stroke-width: 1.5;" x1="260.5" x2="361.5" y1="239" y2="239"/><text fill="#000000" font-family="sans-serif" font-size="11" lengthAdjust="spacingAndGlyphs" textLength="91" x="265.5" y="253.2104">update(Payload)</text><!--class Payload--><rect fill="#FEFECE" filter="url(#f1c2y8pgfq9u9a)" height="48" id="Payload" style="stroke: #A80036; stroke-width: 1.5;" width="81" x="347.5" y="33.5"/><ellipse cx="362.5" cy="49.5" fill="#B4A7E5" rx="11" ry="11" style="stroke: #A80036; stroke-width: 1.0;"/><path d="M363.4531,46.2813 L363.4531,52.7969 L365.1719,52.7969 C365.625,52.7969 365.7656,52.8281 365.9375,52.9531 C366.1719,53.125 366.2813,53.375 366.2813,53.6563 C366.2813,54.2188 365.9219,54.5 365.1719,54.5 L360.0313,54.5 C359.625,54.5 359.4219,54.4531 359.2656,54.3281 C359.0469,54.1719 358.9063,53.9063 358.9063,53.6563 C358.9063,53.3594 359.0625,53.0781 359.3125,52.9219 C359.4688,52.8125 359.5938,52.7969 360.0313,52.7969 L361.75,52.7969 L361.75,46.2813 L360.0313,46.2813 C359.6094,46.2813 359.4219,46.25 359.2656,46.1406 C359.0469,45.9688 358.9063,45.7188 358.9063,45.4375 C358.9063,45.1563 359.0625,44.8594 359.3125,44.7031 C359.4688,44.6094 359.5938,44.5938 360.0313,44.5938 L365.1719,44.5938 C365.625,44.5938 365.7656,44.625 365.9375,44.7344 C366.1719,44.9063 366.2813,45.1719 366.2813,45.4375 C366.2813,45.7344 366.1406,46.0156 365.875,46.1719 C365.75,46.25 365.5625,46.2813 365.1719,46.2813 Z "/><text fill="#000000" font-family="sans-serif" font-size="12" font-style="italic" lengthAdjust="spacingAndGlyphs" textLength="49" x="376.5" y="53.6543">Payload</text><line style="stroke: #A80036; stroke-width: 1.5;" x1="348.5" x2="427.5" y1="65.5" y2="65.5"/><line style="stroke: #A80036; stroke-width: 1.5;" x1="348.5" x2="427.5" y1="73.5" y2="73.5"/><!--class WeatherStation--><rect fill="#FEFECE" filter="url(#f1c2y8pgfq9u9a)" height="112.0234" id="WeatherStation" style="stroke: #A80036; stroke-width: 1.5;" width="218" x="6" y="173.5"/><ellipse cx="61.75" cy="189.5" fill="#ADD1B2" rx="11" ry="11" style="stroke: #A80036; stroke-width: 1.0;"/><path d="M64.0938,185.1719 L64.2656,185.25 C64.4844,184.9375 64.6875,184.8438 64.9844,184.8438 C65.2813,184.8438 65.5625,184.9844 65.7188,185.25 C65.8125,185.4063 65.8281,185.5313 65.8281,185.9688 L65.8281,187.3906 C65.8281,187.8125 65.7969,188 65.6875,188.1563 C65.5156,188.375 65.25,188.5156 64.9844,188.5156 C64.7656,188.5156 64.5313,188.4063 64.3906,188.2656 C64.25,188.1406 64.2188,188.0156 64.1563,187.6094 C64.0625,187.2031 63.8906,186.9844 63.4063,186.7031 C62.9375,186.4531 62.3281,186.2969 61.75,186.2969 C60.0156,186.2969 58.7656,187.6094 58.7656,189.3906 L58.7656,190.4844 C58.7656,192.1875 60.0625,193.2813 62.1094,193.2813 C62.875,193.2813 63.5625,193.1563 63.9844,192.8906 C64.1719,192.7969 64.1719,192.7969 64.625,192.3125 C64.8125,192.125 65.0156,192.0469 65.2344,192.0469 C65.7031,192.0469 66.0938,192.4375 66.0938,192.8906 C66.0938,193.2813 65.7656,193.7344 65.1875,194.1406 C64.4375,194.6875 63.2813,194.9844 62.0625,194.9844 C59.1719,194.9844 57.0625,193.0938 57.0625,190.5156 L57.0625,189.3906 C57.0625,186.6719 59.0625,184.5938 61.6875,184.5938 C62.5625,184.5938 63.1563,184.7344 64.0938,185.1719 Z "/><text fill="#000000" font-family="sans-serif" font-size="12" lengthAdjust="spacingAndGlyphs" textLength="98" x="82.25" y="193.6543">WeatherStation</text><line style="stroke: #A80036; stroke-width: 1.5;" x1="7" x2="223" y1="205.5" y2="205.5"/><line style="stroke: #A80036; stroke-width: 1.5;" x1="7" x2="223" y1="213.5" y2="213.5"/><text fill="#000000" font-family="sans-serif" font-size="11" lengthAdjust="spacingAndGlyphs" textLength="206" x="12" y="227.7104">registerObserver(WeatherScreen){}</text><text fill="#000000" font-family="sans-serif" font-size="11" lengthAdjust="spacingAndGlyphs" textLength="204" x="12" y="240.5151">removeObserver(WeatherScreen){}</text><text fill="#000000" font-family="sans-serif" font-size="11" lengthAdjust="spacingAndGlyphs" textLength="113" x="12" y="253.3198">notifyObservers(){}</text><text fill="#000000" font-family="sans-serif" font-size="11" lengthAdjust="spacingAndGlyphs" textLength="66" x="12" y="266.1245">getData(){}</text><text fill="#000000" font-family="sans-serif" font-size="11" lengthAdjust="spacingAndGlyphs" textLength="156" x="12" y="278.9292">setData(WeatherPayload){}</text><!--class WeatherScreen--><rect fill="#FEFECE" filter="url(#f1c2y8pgfq9u9a)" height="60.8047" id="WeatherScreen" style="stroke: #A80036; stroke-width: 1.5;" width="149" x="236.5" y="352"/><ellipse cx="260.05" cy="368" fill="#A9DCDF" rx="11" ry="11" style="stroke: #A80036; stroke-width: 1.0;"/><path d="M261.6281,369.8125 L257.5813,369.8125 L257.1906,370.7969 L257.5813,370.7969 C258.0344,370.7969 258.175,370.8281 258.3469,370.9531 C258.5656,371.125 258.6906,371.375 258.6906,371.6563 C258.6906,371.9375 258.55,372.2344 258.2844,372.375 C258.1594,372.4688 257.9406,372.5 257.5813,372.5 L255.3156,372.5 C254.5656,372.5 254.1906,372.2188 254.1906,371.6563 C254.1906,371.3594 254.3469,371.0781 254.5969,370.9219 C254.7531,370.8125 254.9094,370.7969 255.3313,370.7969 L257.9719,364.2813 L256.8938,364.2813 C256.4563,364.2813 256.2844,364.25 256.1125,364.1406 C255.8938,363.9688 255.7531,363.7188 255.7531,363.4375 C255.7531,363.1563 255.9094,362.875 256.1594,362.7031 C256.3156,362.6094 256.4406,362.5938 256.8938,362.5938 L260.5656,362.5938 L263.9563,370.7969 C264.425,370.7969 264.5813,370.8281 264.7531,370.9688 C264.9719,371.125 265.1125,371.375 265.1125,371.6563 C265.1125,371.9375 264.9563,372.2344 264.7063,372.375 C264.5656,372.4688 264.3469,372.5 263.9875,372.5 L261.6281,372.5 C261.2063,372.5 261.0031,372.4531 260.8625,372.3281 C260.6438,372.1719 260.5031,371.9219 260.5031,371.6563 C260.5031,371.3594 260.6594,371.0781 260.9094,370.9219 C261.0656,370.8125 261.175,370.7969 261.6281,370.7969 L262.0188,370.7969 Z M260.925,368.1094 L259.5969,364.8438 L258.2531,368.1094 Z "/><text fill="#000000" font-family="sans-serif" font-size="12" font-style="italic" lengthAdjust="spacingAndGlyphs" textLength="98" x="275.95" y="372.1543">WeatherScreen</text><line style="stroke: #A80036; stroke-width: 1.5;" x1="237.5" x2="384.5" y1="384" y2="384"/><line style="stroke: #A80036; stroke-width: 1.5;" x1="237.5" x2="384.5" y1="392" y2="392"/><text fill="#000000" font-family="sans-serif" font-size="11" lengthAdjust="spacingAndGlyphs" textLength="137" x="242.5" y="406.2104">update(WeatherPayload)</text><!--class CurrentScreen--><rect fill="#FEFECE" filter="url(#f1c2y8pgfq9u9a)" height="60.8047" id="CurrentScreen" style="stroke: #A80036; stroke-width: 1.5;" width="149" x="52.5" y="473"/><ellipse cx="79.2" cy="489" fill="#ADD1B2" rx="11" ry="11" style="stroke: #A80036; stroke-width: 1.0;"/><path d="M81.5438,484.6719 L81.7156,484.75 C81.9344,484.4375 82.1375,484.3438 82.4344,484.3438 C82.7313,484.3438 83.0125,484.4844 83.1688,484.75 C83.2625,484.9063 83.2781,485.0313 83.2781,485.4688 L83.2781,486.8906 C83.2781,487.3125 83.2469,487.5 83.1375,487.6563 C82.9656,487.875 82.7,488.0156 82.4344,488.0156 C82.2156,488.0156 81.9813,487.9063 81.8406,487.7656 C81.7,487.6406 81.6688,487.5156 81.6063,487.1094 C81.5125,486.7031 81.3406,486.4844 80.8563,486.2031 C80.3875,485.9531 79.7781,485.7969 79.2,485.7969 C77.4656,485.7969 76.2156,487.1094 76.2156,488.8906 L76.2156,489.9844 C76.2156,491.6875 77.5125,492.7813 79.5594,492.7813 C80.325,492.7813 81.0125,492.6563 81.4344,492.3906 C81.6219,492.2969 81.6219,492.2969 82.075,491.8125 C82.2625,491.625 82.4656,491.5469 82.6844,491.5469 C83.1531,491.5469 83.5438,491.9375 83.5438,492.3906 C83.5438,492.7813 83.2156,493.2344 82.6375,493.6406 C81.8875,494.1875 80.7313,494.4844 79.5125,494.4844 C76.6219,494.4844 74.5125,492.5938 74.5125,490.0156 L74.5125,488.8906 C74.5125,486.1719 76.5125,484.0938 79.1375,484.0938 C80.0125,484.0938 80.6063,484.2344 81.5438,484.6719 Z "/><text fill="#000000" font-family="sans-serif" font-size="12" lengthAdjust="spacingAndGlyphs" textLength="91" x="95.8" y="493.1543">CurrentScreen</text><line style="stroke: #A80036; stroke-width: 1.5;" x1="53.5" x2="200.5" y1="505" y2="505"/><line style="stroke: #A80036; stroke-width: 1.5;" x1="53.5" x2="200.5" y1="513" y2="513"/><text fill="#000000" font-family="sans-serif" font-size="11" lengthAdjust="spacingAndGlyphs" textLength="137" x="58.5" y="527.2104">update(WeatherPayload)</text><!--class StatsScreen--><rect fill="#FEFECE" filter="url(#f1c2y8pgfq9u9a)" height="60.8047" id="StatsScreen" style="stroke: #A80036; stroke-width: 1.5;" width="149" x="236.5" y="473"/><ellipse cx="269.5" cy="489" fill="#ADD1B2" rx="11" ry="11" style="stroke: #A80036; stroke-width: 1.0;"/><path d="M271.8438,484.6719 L272.0156,484.75 C272.2344,484.4375 272.4375,484.3438 272.7344,484.3438 C273.0313,484.3438 273.3125,484.4844 273.4688,484.75 C273.5625,484.9063 273.5781,485.0313 273.5781,485.4688 L273.5781,486.8906 C273.5781,487.3125 273.5469,487.5 273.4375,487.6563 C273.2656,487.875 273,488.0156 272.7344,488.0156 C272.5156,488.0156 272.2813,487.9063 272.1406,487.7656 C272,487.6406 271.9688,487.5156 271.9063,487.1094 C271.8125,486.7031 271.6406,486.4844 271.1563,486.2031 C270.6875,485.9531 270.0781,485.7969 269.5,485.7969 C267.7656,485.7969 266.5156,487.1094 266.5156,488.8906 L266.5156,489.9844 C266.5156,491.6875 267.8125,492.7813 269.8594,492.7813 C270.625,492.7813 271.3125,492.6563 271.7344,492.3906 C271.9219,492.2969 271.9219,492.2969 272.375,491.8125 C272.5625,491.625 272.7656,491.5469 272.9844,491.5469 C273.4531,491.5469 273.8438,491.9375 273.8438,492.3906 C273.8438,492.7813 273.5156,493.2344 272.9375,493.6406 C272.1875,494.1875 271.0313,494.4844 269.8125,494.4844 C266.9219,494.4844 264.8125,492.5938 264.8125,490.0156 L264.8125,488.8906 C264.8125,486.1719 266.8125,484.0938 269.4375,484.0938 C270.3125,484.0938 270.9063,484.2344 271.8438,484.6719 Z "/><text fill="#000000" font-family="sans-serif" font-size="12" lengthAdjust="spacingAndGlyphs" textLength="77" x="287.5" y="493.1543">StatsScreen</text><line style="stroke: #A80036; stroke-width: 1.5;" x1="237.5" x2="384.5" y1="505" y2="505"/><line style="stroke: #A80036; stroke-width: 1.5;" x1="237.5" x2="384.5" y1="513" y2="513"/><text fill="#000000" font-family="sans-serif" font-size="11" lengthAdjust="spacingAndGlyphs" textLength="137" x="242.5" y="527.2104">update(WeatherPayload)</text><!--class ForecastScreen--><rect fill="#FEFECE" filter="url(#f1c2y8pgfq9u9a)" height="60.8047" id="ForecastScreen" style="stroke: #A80036; stroke-width: 1.5;" width="149" x="420.5" y="473"/><ellipse cx="443.6" cy="489" fill="#ADD1B2" rx="11" ry="11" style="stroke: #A80036; stroke-width: 1.0;"/><path d="M445.9438,484.6719 L446.1156,484.75 C446.3344,484.4375 446.5375,484.3438 446.8344,484.3438 C447.1313,484.3438 447.4125,484.4844 447.5688,484.75 C447.6625,484.9063 447.6781,485.0313 447.6781,485.4688 L447.6781,486.8906 C447.6781,487.3125 447.6469,487.5 447.5375,487.6563 C447.3656,487.875 447.1,488.0156 446.8344,488.0156 C446.6156,488.0156 446.3813,487.9063 446.2406,487.7656 C446.1,487.6406 446.0688,487.5156 446.0063,487.1094 C445.9125,486.7031 445.7406,486.4844 445.2563,486.2031 C444.7875,485.9531 444.1781,485.7969 443.6,485.7969 C441.8656,485.7969 440.6156,487.1094 440.6156,488.8906 L440.6156,489.9844 C440.6156,491.6875 441.9125,492.7813 443.9594,492.7813 C444.725,492.7813 445.4125,492.6563 445.8344,492.3906 C446.0219,492.2969 446.0219,492.2969 446.475,491.8125 C446.6625,491.625 446.8656,491.5469 447.0844,491.5469 C447.5531,491.5469 447.9438,491.9375 447.9438,492.3906 C447.9438,492.7813 447.6156,493.2344 447.0375,493.6406 C446.2875,494.1875 445.1313,494.4844 443.9125,494.4844 C441.0219,494.4844 438.9125,492.5938 438.9125,490.0156 L438.9125,488.8906 C438.9125,486.1719 440.9125,484.0938 443.5375,484.0938 C444.4125,484.0938 445.0063,484.2344 445.9438,484.6719 Z "/><text fill="#000000" font-family="sans-serif" font-size="12" lengthAdjust="spacingAndGlyphs" textLength="99" x="459.4" y="493.1543">ForecastScreen</text><line style="stroke: #A80036; stroke-width: 1.5;" x1="421.5" x2="568.5" y1="505" y2="505"/><line style="stroke: #A80036; stroke-width: 1.5;" x1="421.5" x2="568.5" y1="513" y2="513"/><text fill="#000000" font-family="sans-serif" font-size="11" lengthAdjust="spacingAndGlyphs" textLength="137" x="426.5" y="527.2104">update(WeatherPayload)</text><!--class WeatherPayload--><rect fill="#FEFECE" filter="url(#f1c2y8pgfq9u9a)" height="124.8281" id="WeatherPayload" style="stroke: #A80036; stroke-width: 1.5;" width="134" x="398" y="167"/><ellipse cx="413" cy="183" fill="#ADD1B2" rx="11" ry="11" style="stroke: #A80036; stroke-width: 1.0;"/><path d="M415.3438,178.6719 L415.5156,178.75 C415.7344,178.4375 415.9375,178.3438 416.2344,178.3438 C416.5313,178.3438 416.8125,178.4844 416.9688,178.75 C417.0625,178.9063 417.0781,179.0313 417.0781,179.4688 L417.0781,180.8906 C417.0781,181.3125 417.0469,181.5 416.9375,181.6563 C416.7656,181.875 416.5,182.0156 416.2344,182.0156 C416.0156,182.0156 415.7813,181.9063 415.6406,181.7656 C415.5,181.6406 415.4688,181.5156 415.4063,181.1094 C415.3125,180.7031 415.1406,180.4844 414.6563,180.2031 C414.1875,179.9531 413.5781,179.7969 413,179.7969 C411.2656,179.7969 410.0156,181.1094 410.0156,182.8906 L410.0156,183.9844 C410.0156,185.6875 411.3125,186.7813 413.3594,186.7813 C414.125,186.7813 414.8125,186.6563 415.2344,186.3906 C415.4219,186.2969 415.4219,186.2969 415.875,185.8125 C416.0625,185.625 416.2656,185.5469 416.4844,185.5469 C416.9531,185.5469 417.3438,185.9375 417.3438,186.3906 C417.3438,186.7813 417.0156,187.2344 416.4375,187.6406 C415.6875,188.1875 414.5313,188.4844 413.3125,188.4844 C410.4219,188.4844 408.3125,186.5938 408.3125,184.0156 L408.3125,182.8906 C408.3125,180.1719 410.3125,178.0938 412.9375,178.0938 C413.8125,178.0938 414.4063,178.2344 415.3438,178.6719 Z "/><text fill="#000000" font-family="sans-serif" font-size="12" lengthAdjust="spacingAndGlyphs" textLength="102" x="427" y="187.1543">WeatherPayload</text><line style="stroke: #A80036; stroke-width: 1.5;" x1="399" x2="531" y1="199" y2="199"/><text fill="#000000" font-family="sans-serif" font-size="11" lengthAdjust="spacingAndGlyphs" textLength="108" x="404" y="213.2104">temperature : float</text><text fill="#000000" font-family="sans-serif" font-size="11" lengthAdjust="spacingAndGlyphs" textLength="89" x="404" y="226.0151">pressure : float</text><text fill="#000000" font-family="sans-serif" font-size="11" lengthAdjust="spacingAndGlyphs" textLength="85" x="404" y="238.8198">humidity : float</text><line style="stroke: #A80036; stroke-width: 1.5;" x1="399" x2="531" y1="245.4141" y2="245.4141"/><text fill="#000000" font-family="sans-serif" font-size="11" lengthAdjust="spacingAndGlyphs" textLength="100" x="404" y="259.6245">getTemperature()</text><text fill="#000000" font-family="sans-serif" font-size="11" lengthAdjust="spacingAndGlyphs" textLength="78" x="404" y="272.4292">getPressure()</text><text fill="#000000" font-family="sans-serif" font-size="11" lengthAdjust="spacingAndGlyphs" textLength="75" x="404" y="285.2339">getHumidity()</text><!--link Subject to Observer--><path d="M183.294,107.215 C214.494,136.846 253.318,173.718 279.918,198.981 " fill="none" id="Subject-Observer" style="stroke: #A80036; stroke-width: 1.0;"/><!--link Payload to Observer--><path d="M377.455,81.781 C363.657,112.245 339.465,165.655 324.388,198.942 " fill="none" id="Payload-Observer" style="stroke: #A80036; stroke-width: 1.0;"/><!--link Subject to WeatherStation--><path d="M125.13,127.202 C123.59,142.601 121.976,158.741 120.5,173.498 " fill="none" id="Subject-WeatherStation" style="stroke: #A80036; stroke-width: 1.0; stroke-dasharray: 7.0,7.0;"/><polygon fill="none" points="118.173,126.419,127.128,107.215,132.104,127.812,118.173,126.419" style="stroke: #A80036; stroke-width: 1.0;"/><!--link Observer to WeatherScreen--><path d="M311,280.684 C311,304.332 311,331.727 311,351.987 " fill="none" id="Observer-WeatherScreen" style="stroke: #A80036; stroke-width: 1.0; stroke-dasharray: 7.0,7.0;"/><polygon fill="none" points="304,280.333,311,260.333,318,280.333,304,280.333" style="stroke: #A80036; stroke-width: 1.0;"/><!--link WeatherScreen to CurrentScreen--><path d="M248.101,424.18 C223.346,440.1893 195.458,458.2257 172.689,472.9511 " fill="none" id="WeatherScreen-CurrentScreen" style="stroke: #A80036; stroke-width: 1.0; stroke-dasharray: 7.0,7.0;"/><polygon fill="none" points="244.448,418.205,265.044,413.222,252.051,429.961,244.448,418.205" style="stroke: #A80036; stroke-width: 1.0;"/><!--link WeatherScreen to StatsScreen--><path d="M311,433.329 C311,446.7348 311,460.8139 311,472.7447 " fill="none" id="WeatherScreen-StatsScreen" style="stroke: #A80036; stroke-width: 1.0; stroke-dasharray: 7.0,7.0;"/><polygon fill="none" points="304,433.222,311,413.222,318,433.222,304,433.222" style="stroke: #A80036; stroke-width: 1.0;"/><!--link WeatherScreen to ForecastScreen--><path d="M373.899,424.18 C398.654,440.1893 426.542,458.2257 449.311,472.9511 " fill="none" id="WeatherScreen-ForecastScreen" style="stroke: #A80036; stroke-width: 1.0; stroke-dasharray: 7.0,7.0;"/><polygon fill="none" points="369.949,429.961,356.956,413.222,377.552,418.205,369.949,429.961" style="stroke: #A80036; stroke-width: 1.0;"/><!--link Payload to WeatherPayload--><path d="M406.847,100.11 C415.925,120.153 426.995,144.593 437.031,166.75 " fill="none" id="Payload-WeatherPayload" style="stroke: #A80036; stroke-width: 1.0; stroke-dasharray: 7.0,7.0;"/><polygon fill="none" points="400.421,102.888,398.545,81.781,413.173,97.111,400.421,102.888" style="stroke: #A80036; stroke-width: 1.0;"/><!--
@startuml
interface Subject{
  observers : Observer[]
  registerObserver(Observer)
  removeObserver(Observer)
  notifyObservers()
}


interface Observer{
  update(Payload)
}


interface Payload{

}


class WeatherStation{
  registerObserver(WeatherScreen){}
  removeObserver(WeatherScreen){}
  notifyObservers(){}
  getData(){}
  setData(WeatherPayload){}
}


Abstract WeatherScreen{
  update(WeatherPayload)
}


class CurrentScreen{
  update(WeatherPayload)
}


class StatsScreen{
  update(WeatherPayload)
}


class ForecastScreen{
  update(WeatherPayload)
}


class WeatherPayload{
  temperature : float
  pressure : float
  humidity : float
  getTemperature()
  getPressure()
  getHumidity()
}

Subject - - Observer

Payload - - Observer

Subject <|.. WeatherStation

Observer <|.. WeatherScreen

WeatherScreen <|.. CurrentScreen
WeatherScreen <|.. StatsScreen
WeatherScreen <|.. ForecastScreen

Payload <|.. WeatherPayload
@enduml

PlantUML version 1.2018.02beta13(Unknown compile time)
(GPL source distribution)
Java Runtime: Java(TM) SE Runtime Environment
JVM: Java HotSpot(TM) 64-Bit Server VM
Java Version: 1.7.0_25-b15
Operating System: Linux
Default Encoding: UTF-8
Language: en
Country: US
--></g></svg>