<?xml version="1.0" encoding="UTF-8" standalone="no"?><svg xmlns="http://www.w3.org/2000/svg" xmlns:xlink="http://www.w3.org/1999/xlink" contentScriptType="application/ecmascript" contentStyleType="text/css" height="357px" preserveAspectRatio="none" style="width:1025px;height:357px;" version="1.1" viewBox="0 0 1025 357" width="1025px" zoomAndPan="magnify"><defs><filter height="300%" id="f1twurswkv3ts0" width="300%" x="-1" y="-1"><feGaussianBlur result="blurOut" stdDeviation="2.0"/><feColorMatrix in="blurOut" result="blurOut2" type="matrix" values="0 0 0 0 0 0 0 0 0 0 0 0 0 0 0 0 0 0 .4 0"/><feOffset dx="4.0" dy="4.0" in="blurOut2" result="blurOut3"/><feBlend in="SourceGraphic" in2="blurOut3" mode="normal"/></filter></defs><g><!--class Menu--><rect fill="#FEFECE" filter="url(#f1twurswkv3ts0)" height="60.8047" id="Menu" style="stroke: #A80036; stroke-width: 1.5;" width="112" x="237.5" y="33.5"/><ellipse cx="273.2" cy="49.5" fill="#B4A7E5" rx="11" ry="11" style="stroke: #A80036; stroke-width: 1.0;"/><path d="M274.1531,46.2813 L274.1531,52.7969 L275.8719,52.7969 C276.325,52.7969 276.4656,52.8281 276.6375,52.9531 C276.8719,53.125 276.9813,53.375 276.9813,53.6563 C276.9813,54.2188 276.6219,54.5 275.8719,54.5 L270.7313,54.5 C270.325,54.5 270.1219,54.4531 269.9656,54.3281 C269.7469,54.1719 269.6063,53.9063 269.6063,53.6563 C269.6063,53.3594 269.7625,53.0781 270.0125,52.9219 C270.1688,52.8125 270.2938,52.7969 270.7313,52.7969 L272.45,52.7969 L272.45,46.2813 L270.7313,46.2813 C270.3094,46.2813 270.1219,46.25 269.9656,46.1406 C269.7469,45.9688 269.6063,45.7188 269.6063,45.4375 C269.6063,45.1563 269.7625,44.8594 270.0125,44.7031 C270.1688,44.6094 270.2938,44.5938 270.7313,44.5938 L275.8719,44.5938 C276.325,44.5938 276.4656,44.625 276.6375,44.7344 C276.8719,44.9063 276.9813,45.1719 276.9813,45.4375 C276.9813,45.7344 276.8406,46.0156 276.575,46.1719 C276.45,46.25 276.2625,46.2813 275.8719,46.2813 Z "/><text fill="#000000" font-family="sans-serif" font-size="12" font-style="italic" lengthAdjust="spacingAndGlyphs" textLength="34" x="291.8" y="53.6543">Menu</text><line style="stroke: #A80036; stroke-width: 1.5;" x1="238.5" x2="348.5" y1="65.5" y2="65.5"/><line style="stroke: #A80036; stroke-width: 1.5;" x1="238.5" x2="348.5" y1="73.5" y2="73.5"/><ellipse cx="248.5" cy="85.4023" fill="#84BE84" rx="3" ry="3" style="stroke: #038048; stroke-width: 1.0;"/><text fill="#000000" font-family="sans-serif" font-size="11" lengthAdjust="spacingAndGlyphs" textLength="86" x="257.5" y="87.7104">createIterator()</text><!--class BreakfastMenu--><rect fill="#FEFECE" filter="url(#f1twurswkv3ts0)" height="73.6094" id="BreakfastMenu" style="stroke: #A80036; stroke-width: 1.5;" width="149" x="23" y="184"/><ellipse cx="48.35" cy="200" fill="#ADD1B2" rx="11" ry="11" style="stroke: #A80036; stroke-width: 1.0;"/><path d="M50.6938,195.6719 L50.8656,195.75 C51.0844,195.4375 51.2875,195.3438 51.5844,195.3438 C51.8813,195.3438 52.1625,195.4844 52.3188,195.75 C52.4125,195.9063 52.4281,196.0313 52.4281,196.4688 L52.4281,197.8906 C52.4281,198.3125 52.3969,198.5 52.2875,198.6563 C52.1156,198.875 51.85,199.0156 51.5844,199.0156 C51.3656,199.0156 51.1313,198.9063 50.9906,198.7656 C50.85,198.6406 50.8188,198.5156 50.7563,198.1094 C50.6625,197.7031 50.4906,197.4844 50.0063,197.2031 C49.5375,196.9531 48.9281,196.7969 48.35,196.7969 C46.6156,196.7969 45.3656,198.1094 45.3656,199.8906 L45.3656,200.9844 C45.3656,202.6875 46.6625,203.7813 48.7094,203.7813 C49.475,203.7813 50.1625,203.6563 50.5844,203.3906 C50.7719,203.2969 50.7719,203.2969 51.225,202.8125 C51.4125,202.625 51.6156,202.5469 51.8344,202.5469 C52.3031,202.5469 52.6938,202.9375 52.6938,203.3906 C52.6938,203.7813 52.3656,204.2344 51.7875,204.6406 C51.0375,205.1875 49.8813,205.4844 48.6625,205.4844 C45.7719,205.4844 43.6625,203.5938 43.6625,201.0156 L43.6625,199.8906 C43.6625,197.1719 45.6625,195.0938 48.2875,195.0938 C49.1625,195.0938 49.7563,195.2344 50.6938,195.6719 Z "/><text fill="#000000" font-family="sans-serif" font-size="12" lengthAdjust="spacingAndGlyphs" textLength="94" x="64.65" y="204.1543">BreakfastMenu</text><line style="stroke: #A80036; stroke-width: 1.5;" x1="24" x2="171" y1="216" y2="216"/><rect fill="none" height="6" style="stroke: #C82930; stroke-width: 1.0;" width="6" x="31" y="224.9023"/><text fill="#000000" font-family="sans-serif" font-size="11" lengthAdjust="spacingAndGlyphs" textLength="123" x="43" y="230.2104">items : std::vector&lt;&gt;</text><line style="stroke: #A80036; stroke-width: 1.5;" x1="24" x2="171" y1="236.8047" y2="236.8047"/><ellipse cx="34" cy="248.707" fill="#84BE84" rx="3" ry="3" style="stroke: #038048; stroke-width: 1.0;"/><text fill="#000000" font-family="sans-serif" font-size="11" lengthAdjust="spacingAndGlyphs" textLength="86" x="43" y="251.0151">createIterator()</text><!--class LunchMenu--><rect fill="#FEFECE" filter="url(#f1twurswkv3ts0)" height="73.6094" id="LunchMenu" style="stroke: #A80036; stroke-width: 1.5;" width="112" x="223.5" y="184"/><ellipse cx="242.55" cy="200" fill="#ADD1B2" rx="11" ry="11" style="stroke: #A80036; stroke-width: 1.0;"/><path d="M244.8938,195.6719 L245.0656,195.75 C245.2844,195.4375 245.4875,195.3438 245.7844,195.3438 C246.0813,195.3438 246.3625,195.4844 246.5188,195.75 C246.6125,195.9063 246.6281,196.0313 246.6281,196.4688 L246.6281,197.8906 C246.6281,198.3125 246.5969,198.5 246.4875,198.6563 C246.3156,198.875 246.05,199.0156 245.7844,199.0156 C245.5656,199.0156 245.3313,198.9063 245.1906,198.7656 C245.05,198.6406 245.0188,198.5156 244.9563,198.1094 C244.8625,197.7031 244.6906,197.4844 244.2063,197.2031 C243.7375,196.9531 243.1281,196.7969 242.55,196.7969 C240.8156,196.7969 239.5656,198.1094 239.5656,199.8906 L239.5656,200.9844 C239.5656,202.6875 240.8625,203.7813 242.9094,203.7813 C243.675,203.7813 244.3625,203.6563 244.7844,203.3906 C244.9719,203.2969 244.9719,203.2969 245.425,202.8125 C245.6125,202.625 245.8156,202.5469 246.0344,202.5469 C246.5031,202.5469 246.8938,202.9375 246.8938,203.3906 C246.8938,203.7813 246.5656,204.2344 245.9875,204.6406 C245.2375,205.1875 244.0813,205.4844 242.8625,205.4844 C239.9719,205.4844 237.8625,203.5938 237.8625,201.0156 L237.8625,199.8906 C237.8625,197.1719 239.8625,195.0938 242.4875,195.0938 C243.3625,195.0938 243.9563,195.2344 244.8938,195.6719 Z "/><text fill="#000000" font-family="sans-serif" font-size="12" lengthAdjust="spacingAndGlyphs" textLength="71" x="257.45" y="204.1543">LunchMenu</text><line style="stroke: #A80036; stroke-width: 1.5;" x1="224.5" x2="334.5" y1="216" y2="216"/><rect fill="none" height="6" style="stroke: #C82930; stroke-width: 1.0;" width="6" x="231.5" y="224.9023"/><text fill="#000000" font-family="sans-serif" font-size="11" lengthAdjust="spacingAndGlyphs" textLength="74" x="243.5" y="230.2104">items : Array</text><line style="stroke: #A80036; stroke-width: 1.5;" x1="224.5" x2="334.5" y1="236.8047" y2="236.8047"/><ellipse cx="234.5" cy="248.707" fill="#84BE84" rx="3" ry="3" style="stroke: #038048; stroke-width: 1.0;"/><text fill="#000000" font-family="sans-serif" font-size="11" lengthAdjust="spacingAndGlyphs" textLength="86" x="243.5" y="251.0151">createIterator()</text><!--class DinnerMenu--><rect fill="#FEFECE" filter="url(#f1twurswkv3ts0)" height="73.6094" id="DinnerMenu" style="stroke: #A80036; stroke-width: 1.5;" width="139" x="387" y="184"/><ellipse cx="416.4" cy="200" fill="#ADD1B2" rx="11" ry="11" style="stroke: #A80036; stroke-width: 1.0;"/><path d="M418.7438,195.6719 L418.9156,195.75 C419.1344,195.4375 419.3375,195.3438 419.6344,195.3438 C419.9313,195.3438 420.2125,195.4844 420.3688,195.75 C420.4625,195.9063 420.4781,196.0313 420.4781,196.4688 L420.4781,197.8906 C420.4781,198.3125 420.4469,198.5 420.3375,198.6563 C420.1656,198.875 419.9,199.0156 419.6344,199.0156 C419.4156,199.0156 419.1813,198.9063 419.0406,198.7656 C418.9,198.6406 418.8688,198.5156 418.8063,198.1094 C418.7125,197.7031 418.5406,197.4844 418.0563,197.2031 C417.5875,196.9531 416.9781,196.7969 416.4,196.7969 C414.6656,196.7969 413.4156,198.1094 413.4156,199.8906 L413.4156,200.9844 C413.4156,202.6875 414.7125,203.7813 416.7594,203.7813 C417.525,203.7813 418.2125,203.6563 418.6344,203.3906 C418.8219,203.2969 418.8219,203.2969 419.275,202.8125 C419.4625,202.625 419.6656,202.5469 419.8844,202.5469 C420.3531,202.5469 420.7438,202.9375 420.7438,203.3906 C420.7438,203.7813 420.4156,204.2344 419.8375,204.6406 C419.0875,205.1875 417.9313,205.4844 416.7125,205.4844 C413.8219,205.4844 411.7125,203.5938 411.7125,201.0156 L411.7125,199.8906 C411.7125,197.1719 413.7125,195.0938 416.3375,195.0938 C417.2125,195.0938 417.8063,195.2344 418.7438,195.6719 Z "/><text fill="#000000" font-family="sans-serif" font-size="12" lengthAdjust="spacingAndGlyphs" textLength="75" x="433.6" y="204.1543">DinnerMenu</text><line style="stroke: #A80036; stroke-width: 1.5;" x1="388" x2="525" y1="216" y2="216"/><rect fill="none" height="6" style="stroke: #C82930; stroke-width: 1.0;" width="6" x="395" y="224.9023"/><text fill="#000000" font-family="sans-serif" font-size="11" lengthAdjust="spacingAndGlyphs" textLength="113" x="407" y="230.2104">items : std::map&lt;&gt;</text><line style="stroke: #A80036; stroke-width: 1.5;" x1="388" x2="525" y1="236.8047" y2="236.8047"/><ellipse cx="398" cy="248.707" fill="#84BE84" rx="3" ry="3" style="stroke: #038048; stroke-width: 1.0;"/><text fill="#000000" font-family="sans-serif" font-size="11" lengthAdjust="spacingAndGlyphs" textLength="86" x="407" y="251.0151">createIterator()</text><!--class MenuIterator--><rect fill="#FEFECE" filter="url(#f1twurswkv3ts0)" height="73.6094" id="MenuIterator" style="stroke: #A80036; stroke-width: 1.5;" width="114" x="662.5" y="27"/><ellipse cx="677.5" cy="43" fill="#B4A7E5" rx="11" ry="11" style="stroke: #A80036; stroke-width: 1.0;"/><path d="M678.4531,39.7813 L678.4531,46.2969 L680.1719,46.2969 C680.625,46.2969 680.7656,46.3281 680.9375,46.4531 C681.1719,46.625 681.2813,46.875 681.2813,47.1563 C681.2813,47.7188 680.9219,48 680.1719,48 L675.0313,48 C674.625,48 674.4219,47.9531 674.2656,47.8281 C674.0469,47.6719 673.9063,47.4063 673.9063,47.1563 C673.9063,46.8594 674.0625,46.5781 674.3125,46.4219 C674.4688,46.3125 674.5938,46.2969 675.0313,46.2969 L676.75,46.2969 L676.75,39.7813 L675.0313,39.7813 C674.6094,39.7813 674.4219,39.75 674.2656,39.6406 C674.0469,39.4688 673.9063,39.2188 673.9063,38.9375 C673.9063,38.6563 674.0625,38.3594 674.3125,38.2031 C674.4688,38.1094 674.5938,38.0938 675.0313,38.0938 L680.1719,38.0938 C680.625,38.0938 680.7656,38.125 680.9375,38.2344 C681.1719,38.4063 681.2813,38.6719 681.2813,38.9375 C681.2813,39.2344 681.1406,39.5156 680.875,39.6719 C680.75,39.75 680.5625,39.7813 680.1719,39.7813 Z "/><text fill="#000000" font-family="sans-serif" font-size="12" font-style="italic" lengthAdjust="spacingAndGlyphs" textLength="82" x="691.5" y="47.1543">MenuIterator</text><line style="stroke: #A80036; stroke-width: 1.5;" x1="663.5" x2="775.5" y1="59" y2="59"/><line style="stroke: #A80036; stroke-width: 1.5;" x1="663.5" x2="775.5" y1="67" y2="67"/><ellipse cx="673.5" cy="78.9023" fill="#84BE84" rx="3" ry="3" style="stroke: #038048; stroke-width: 1.0;"/><text fill="#000000" font-family="sans-serif" font-size="11" lengthAdjust="spacingAndGlyphs" textLength="32" x="682.5" y="81.2104">next()</text><ellipse cx="673.5" cy="91.707" fill="#84BE84" rx="3" ry="3" style="stroke: #038048; stroke-width: 1.0;"/><text fill="#000000" font-family="sans-serif" font-size="11" lengthAdjust="spacingAndGlyphs" textLength="54" x="682.5" y="94.0151">hasNext()</text><!--class BreakfastIterator--><rect fill="#FEFECE" filter="url(#f1twurswkv3ts0)" height="73.6094" id="BreakfastIterator" style="stroke: #A80036; stroke-width: 1.5;" width="139" x="569" y="183"/><ellipse cx="584" cy="199" fill="#ADD1B2" rx="11" ry="11" style="stroke: #A80036; stroke-width: 1.0;"/><path d="M586.3438,194.6719 L586.5156,194.75 C586.7344,194.4375 586.9375,194.3438 587.2344,194.3438 C587.5313,194.3438 587.8125,194.4844 587.9688,194.75 C588.0625,194.9063 588.0781,195.0313 588.0781,195.4688 L588.0781,196.8906 C588.0781,197.3125 588.0469,197.5 587.9375,197.6563 C587.7656,197.875 587.5,198.0156 587.2344,198.0156 C587.0156,198.0156 586.7813,197.9063 586.6406,197.7656 C586.5,197.6406 586.4688,197.5156 586.4063,197.1094 C586.3125,196.7031 586.1406,196.4844 585.6563,196.2031 C585.1875,195.9531 584.5781,195.7969 584,195.7969 C582.2656,195.7969 581.0156,197.1094 581.0156,198.8906 L581.0156,199.9844 C581.0156,201.6875 582.3125,202.7813 584.3594,202.7813 C585.125,202.7813 585.8125,202.6563 586.2344,202.3906 C586.4219,202.2969 586.4219,202.2969 586.875,201.8125 C587.0625,201.625 587.2656,201.5469 587.4844,201.5469 C587.9531,201.5469 588.3438,201.9375 588.3438,202.3906 C588.3438,202.7813 588.0156,203.2344 587.4375,203.6406 C586.6875,204.1875 585.5313,204.4844 584.3125,204.4844 C581.4219,204.4844 579.3125,202.5938 579.3125,200.0156 L579.3125,198.8906 C579.3125,196.1719 581.3125,194.0938 583.9375,194.0938 C584.8125,194.0938 585.4063,194.2344 586.3438,194.6719 Z "/><text fill="#000000" font-family="sans-serif" font-size="12" lengthAdjust="spacingAndGlyphs" textLength="107" x="598" y="203.1543">BreakfastIterator</text><line style="stroke: #A80036; stroke-width: 1.5;" x1="570" x2="707" y1="215" y2="215"/><line style="stroke: #A80036; stroke-width: 1.5;" x1="570" x2="707" y1="223" y2="223"/><ellipse cx="580" cy="234.9023" fill="#84BE84" rx="3" ry="3" style="stroke: #038048; stroke-width: 1.0;"/><text fill="#000000" font-family="sans-serif" font-size="11" lengthAdjust="spacingAndGlyphs" textLength="32" x="589" y="237.2104">next()</text><ellipse cx="580" cy="247.707" fill="#84BE84" rx="3" ry="3" style="stroke: #038048; stroke-width: 1.0;"/><text fill="#000000" font-family="sans-serif" font-size="11" lengthAdjust="spacingAndGlyphs" textLength="54" x="589" y="250.0151">hasNext()</text><!--class LunchIterator--><rect fill="#FEFECE" filter="url(#f1twurswkv3ts0)" height="73.6094" id="LunchIterator" style="stroke: #A80036; stroke-width: 1.5;" width="116" x="743.5" y="183"/><ellipse cx="758.5" cy="199" fill="#ADD1B2" rx="11" ry="11" style="stroke: #A80036; stroke-width: 1.0;"/><path d="M760.8438,194.6719 L761.0156,194.75 C761.2344,194.4375 761.4375,194.3438 761.7344,194.3438 C762.0313,194.3438 762.3125,194.4844 762.4688,194.75 C762.5625,194.9063 762.5781,195.0313 762.5781,195.4688 L762.5781,196.8906 C762.5781,197.3125 762.5469,197.5 762.4375,197.6563 C762.2656,197.875 762,198.0156 761.7344,198.0156 C761.5156,198.0156 761.2813,197.9063 761.1406,197.7656 C761,197.6406 760.9688,197.5156 760.9063,197.1094 C760.8125,196.7031 760.6406,196.4844 760.1563,196.2031 C759.6875,195.9531 759.0781,195.7969 758.5,195.7969 C756.7656,195.7969 755.5156,197.1094 755.5156,198.8906 L755.5156,199.9844 C755.5156,201.6875 756.8125,202.7813 758.8594,202.7813 C759.625,202.7813 760.3125,202.6563 760.7344,202.3906 C760.9219,202.2969 760.9219,202.2969 761.375,201.8125 C761.5625,201.625 761.7656,201.5469 761.9844,201.5469 C762.4531,201.5469 762.8438,201.9375 762.8438,202.3906 C762.8438,202.7813 762.5156,203.2344 761.9375,203.6406 C761.1875,204.1875 760.0313,204.4844 758.8125,204.4844 C755.9219,204.4844 753.8125,202.5938 753.8125,200.0156 L753.8125,198.8906 C753.8125,196.1719 755.8125,194.0938 758.4375,194.0938 C759.3125,194.0938 759.9063,194.2344 760.8438,194.6719 Z "/><text fill="#000000" font-family="sans-serif" font-size="12" lengthAdjust="spacingAndGlyphs" textLength="84" x="772.5" y="203.1543">LunchIterator</text><line style="stroke: #A80036; stroke-width: 1.5;" x1="744.5" x2="858.5" y1="215" y2="215"/><line style="stroke: #A80036; stroke-width: 1.5;" x1="744.5" x2="858.5" y1="223" y2="223"/><ellipse cx="754.5" cy="234.9023" fill="#84BE84" rx="3" ry="3" style="stroke: #038048; stroke-width: 1.0;"/><text fill="#000000" font-family="sans-serif" font-size="11" lengthAdjust="spacingAndGlyphs" textLength="32" x="763.5" y="237.2104">next()</text><ellipse cx="754.5" cy="247.707" fill="#84BE84" rx="3" ry="3" style="stroke: #038048; stroke-width: 1.0;"/><text fill="#000000" font-family="sans-serif" font-size="11" lengthAdjust="spacingAndGlyphs" textLength="54" x="763.5" y="250.0151">hasNext()</text><!--class DinnerIterator--><rect fill="#FEFECE" filter="url(#f1twurswkv3ts0)" height="73.6094" id="DinnerIterator" style="stroke: #A80036; stroke-width: 1.5;" width="120" x="894.5" y="183"/><ellipse cx="909.5" cy="199" fill="#ADD1B2" rx="11" ry="11" style="stroke: #A80036; stroke-width: 1.0;"/><path d="M911.8438,194.6719 L912.0156,194.75 C912.2344,194.4375 912.4375,194.3438 912.7344,194.3438 C913.0313,194.3438 913.3125,194.4844 913.4688,194.75 C913.5625,194.9063 913.5781,195.0313 913.5781,195.4688 L913.5781,196.8906 C913.5781,197.3125 913.5469,197.5 913.4375,197.6563 C913.2656,197.875 913,198.0156 912.7344,198.0156 C912.5156,198.0156 912.2813,197.9063 912.1406,197.7656 C912,197.6406 911.9688,197.5156 911.9063,197.1094 C911.8125,196.7031 911.6406,196.4844 911.1563,196.2031 C910.6875,195.9531 910.0781,195.7969 909.5,195.7969 C907.7656,195.7969 906.5156,197.1094 906.5156,198.8906 L906.5156,199.9844 C906.5156,201.6875 907.8125,202.7813 909.8594,202.7813 C910.625,202.7813 911.3125,202.6563 911.7344,202.3906 C911.9219,202.2969 911.9219,202.2969 912.375,201.8125 C912.5625,201.625 912.7656,201.5469 912.9844,201.5469 C913.4531,201.5469 913.8438,201.9375 913.8438,202.3906 C913.8438,202.7813 913.5156,203.2344 912.9375,203.6406 C912.1875,204.1875 911.0313,204.4844 909.8125,204.4844 C906.9219,204.4844 904.8125,202.5938 904.8125,200.0156 L904.8125,198.8906 C904.8125,196.1719 906.8125,194.0938 909.4375,194.0938 C910.3125,194.0938 910.9063,194.2344 911.8438,194.6719 Z "/><text fill="#000000" font-family="sans-serif" font-size="12" lengthAdjust="spacingAndGlyphs" textLength="88" x="923.5" y="203.1543">DinnerIterator</text><line style="stroke: #A80036; stroke-width: 1.5;" x1="895.5" x2="1013.5" y1="215" y2="215"/><line style="stroke: #A80036; stroke-width: 1.5;" x1="895.5" x2="1013.5" y1="223" y2="223"/><ellipse cx="905.5" cy="234.9023" fill="#84BE84" rx="3" ry="3" style="stroke: #038048; stroke-width: 1.0;"/><text fill="#000000" font-family="sans-serif" font-size="11" lengthAdjust="spacingAndGlyphs" textLength="32" x="914.5" y="237.2104">next()</text><ellipse cx="905.5" cy="247.707" fill="#84BE84" rx="3" ry="3" style="stroke: #038048; stroke-width: 1.0;"/><text fill="#000000" font-family="sans-serif" font-size="11" lengthAdjust="spacingAndGlyphs" textLength="54" x="914.5" y="250.0151">hasNext()</text><!--class Waitress--><rect fill="#FEFECE" filter="url(#f1twurswkv3ts0)" height="112.0234" id="Waitress" style="stroke: #A80036; stroke-width: 1.5;" width="118" x="413.5" y="8"/><ellipse cx="442.9" cy="24" fill="#ADD1B2" rx="11" ry="11" style="stroke: #A80036; stroke-width: 1.0;"/><path d="M445.2438,19.6719 L445.4156,19.75 C445.6344,19.4375 445.8375,19.3438 446.1344,19.3438 C446.4313,19.3438 446.7125,19.4844 446.8688,19.75 C446.9625,19.9063 446.9781,20.0313 446.9781,20.4688 L446.9781,21.8906 C446.9781,22.3125 446.9469,22.5 446.8375,22.6563 C446.6656,22.875 446.4,23.0156 446.1344,23.0156 C445.9156,23.0156 445.6813,22.9063 445.5406,22.7656 C445.4,22.6406 445.3688,22.5156 445.3063,22.1094 C445.2125,21.7031 445.0406,21.4844 444.5563,21.2031 C444.0875,20.9531 443.4781,20.7969 442.9,20.7969 C441.1656,20.7969 439.9156,22.1094 439.9156,23.8906 L439.9156,24.9844 C439.9156,26.6875 441.2125,27.7813 443.2594,27.7813 C444.025,27.7813 444.7125,27.6563 445.1344,27.3906 C445.3219,27.2969 445.3219,27.2969 445.775,26.8125 C445.9625,26.625 446.1656,26.5469 446.3844,26.5469 C446.8531,26.5469 447.2438,26.9375 447.2438,27.3906 C447.2438,27.7813 446.9156,28.2344 446.3375,28.6406 C445.5875,29.1875 444.4313,29.4844 443.2125,29.4844 C440.3219,29.4844 438.2125,27.5938 438.2125,25.0156 L438.2125,23.8906 C438.2125,21.1719 440.2125,19.0938 442.8375,19.0938 C443.7125,19.0938 444.3063,19.2344 445.2438,19.6719 Z "/><text fill="#000000" font-family="sans-serif" font-size="12" lengthAdjust="spacingAndGlyphs" textLength="54" x="460.1" y="28.1543">Waitress</text><line style="stroke: #A80036; stroke-width: 1.5;" x1="414.5" x2="530.5" y1="40" y2="40"/><line style="stroke: #A80036; stroke-width: 1.5;" x1="414.5" x2="530.5" y1="48" y2="48"/><ellipse cx="424.5" cy="59.9023" fill="#84BE84" rx="3" ry="3" style="stroke: #038048; stroke-width: 1.0;"/><text fill="#000000" font-family="sans-serif" font-size="11" lengthAdjust="spacingAndGlyphs" textLength="71" x="433.5" y="62.2104">wholeMenu()</text><ellipse cx="424.5" cy="72.707" fill="#84BE84" rx="3" ry="3" style="stroke: #038048; stroke-width: 1.0;"/><text fill="#000000" font-family="sans-serif" font-size="11" lengthAdjust="spacingAndGlyphs" textLength="92" x="433.5" y="75.0151">breakfastMenu()</text><ellipse cx="424.5" cy="85.5117" fill="#84BE84" rx="3" ry="3" style="stroke: #038048; stroke-width: 1.0;"/><text fill="#000000" font-family="sans-serif" font-size="11" lengthAdjust="spacingAndGlyphs" textLength="68" x="433.5" y="87.8198">lunchMenu()</text><ellipse cx="424.5" cy="98.3164" fill="#84BE84" rx="3" ry="3" style="stroke: #038048; stroke-width: 1.0;"/><text fill="#000000" font-family="sans-serif" font-size="11" lengthAdjust="spacingAndGlyphs" textLength="74" x="433.5" y="100.6245">dinnerMenu()</text><ellipse cx="424.5" cy="111.1211" fill="#84BE84" rx="3" ry="3" style="stroke: #038048; stroke-width: 1.0;"/><text fill="#000000" font-family="sans-serif" font-size="11" lengthAdjust="spacingAndGlyphs" textLength="75" x="433.5" y="113.4292">veggieMenu()</text><path d="M6,320 L6,345.1328 L553,345.1328 L553,330 L543,320 L6,320 " fill="#FBFB77" filter="url(#f1twurswkv3ts0)" style="stroke: #A80036; stroke-width: 1.0;"/><path d="M543,320 L543,330 L553,330 L543,320 " fill="#FBFB77" style="stroke: #A80036; stroke-width: 1.0;"/><text fill="#000000" font-family="sans-serif" font-size="13" lengthAdjust="spacingAndGlyphs" textLength="526" x="12" y="337.0669">The Iterator provides a unified interface to iterate through different data structures</text><!--link Menu to Waitress--><path d="M349.787,64 C370.878,64 391.97,64 413.061,64 " fill="none" id="Menu-Waitress" style="stroke: #A80036; stroke-width: 1.0;"/><!--link Waitress to MenuIterator--><path d="M531.838,64 C575.332,64 618.827,64 662.322,64 " fill="none" id="Waitress-MenuIterator" style="stroke: #A80036; stroke-width: 1.0;"/><!--link Menu to BreakfastMenu--><path d="M239.598,107.352 C210.802,129.977 175.587,157.646 147.419,179.778 " fill="none" id="Menu-BreakfastMenu" style="stroke: #A80036; stroke-width: 1.0; stroke-dasharray: 7.0,7.0;"/><polygon fill="none" points="235.658,101.545,255.709,94.693,244.308,112.553,235.658,101.545" style="stroke: #A80036; stroke-width: 1.0;"/><!--link Menu to LunchMenu--><path d="M288.972,114.808 C287.058,135.861 284.861,160.024 283.066,179.778 " fill="none" id="Menu-LunchMenu" style="stroke: #A80036; stroke-width: 1.0; stroke-dasharray: 7.0,7.0;"/><polygon fill="none" points="282.019,113.977,290.801,94.693,295.961,115.244,282.019,113.977" style="stroke: #A80036; stroke-width: 1.0;"/><!--link Menu to DinnerMenu--><path d="M339.675,108.626 C363.367,131.01 391.998,158.059 414.986,179.778 " fill="none" id="Menu-DinnerMenu" style="stroke: #A80036; stroke-width: 1.0; stroke-dasharray: 7.0,7.0;"/><polygon fill="none" points="334.659,113.516,324.928,94.693,344.273,103.34,334.659,113.516" style="stroke: #A80036; stroke-width: 1.0;"/><!--link MenuIterator to BreakfastIterator--><path d="M691.165,118.872 C680.026,140.05 667.534,163.8 657.512,182.854 " fill="none" id="MenuIterator-BreakfastIterator" style="stroke: #A80036; stroke-width: 1.0; stroke-dasharray: 7.0,7.0;"/><polygon fill="none" points="685.004,115.548,700.509,101.106,697.394,122.066,685.004,115.548" style="stroke: #A80036; stroke-width: 1.0;"/><!--link MenuIterator to LunchIterator--><path d="M748.185,118.872 C759.462,140.05 772.108,163.8 782.253,182.854 " fill="none" id="MenuIterator-LunchIterator" style="stroke: #A80036; stroke-width: 1.0; stroke-dasharray: 7.0,7.0;"/><polygon fill="none" points="741.947,122.05,738.725,101.106,754.304,115.47,741.947,122.05" style="stroke: #A80036; stroke-width: 1.0;"/><!--link MenuIterator to DinnerIterator--><path d="M791.57,112.229 C826.255,134.959 867.183,161.78 899.341,182.854 " fill="none" id="MenuIterator-DinnerIterator" style="stroke: #A80036; stroke-width: 1.0; stroke-dasharray: 7.0,7.0;"/><polygon fill="none" points="787.488,117.923,774.597,101.106,795.162,106.214,787.488,117.923" style="stroke: #A80036; stroke-width: 1.0;"/><!--link BreakfastMenu to N0--><path d="M173.5,226 C191.997,226 185.108,246.2685 197.5,260 C218.506,283.2766 246.749,306.43 264.01,319.8329 " fill="none" id="BreakfastMenu-N0" style="stroke: #A80036; stroke-width: 1.0; stroke-dasharray: 7.0,7.0;"/><!--link LunchMenu to N0--><path d="M336.5,226 C378.761,226 318.157,292.3383 291.252,319.8066 " fill="none" id="LunchMenu-N0" style="stroke: #A80036; stroke-width: 1.0; stroke-dasharray: 7.0,7.0;"/><!--link DinnerMenu to N0--><path d="M386.5,226 C367.477,226 373.47,246.084 360.5,260 C339.142,282.9152 311.18,306.3602 294.319,319.8922 " fill="none" id="DinnerMenu-N0" style="stroke: #A80036; stroke-width: 1.0; stroke-dasharray: 7.0,7.0;"/><!--
@startuml
Interface Menu{
  + createIterator()
}

Class BreakfastMenu{
  + createIterator()
  - items : std::vector<>
}

Class LunchMenu{
  + createIterator()
  - items : Array
}

Class DinnerMenu{
  + createIterator()
  - items : std::map<>
}


Interface MenuIterator{
  + next()
  + hasNext()
}

Class BreakfastIterator{
  + next()
  + hasNext()
}

Class LunchIterator{
  + next()
  + hasNext()
}

Class DinnerIterator{
  + next()
  + hasNext()
}


Class Waitress{
  + wholeMenu()
  + breakfastMenu()
  + lunchMenu()
  + dinnerMenu()
  + veggieMenu()
}


Menu -right- Waitress
Waitress -right- MenuIterator


Menu <|..  BreakfastMenu 
Menu <|..  LunchMenu
Menu <|..  DinnerMenu

MenuIterator <|..  BreakfastIterator 
MenuIterator <|..  LunchIterator
MenuIterator <|..  DinnerIterator


note "The Iterator provides a unified interface to iterate through different data structures" as N0
BreakfastMenu::items .. N0
LunchMenu::items .. N0
DinnerMenu::items .. N0
@enduml

PlantUML version 1.2018.02beta13(Unknown compile time)
(GPL source distribution)
Java Runtime: Java(TM) SE Runtime Environment
JVM: Java HotSpot(TM) 64-Bit Server VM
Java Version: 1.7.0_25-b15
Operating System: Linux
Default Encoding: UTF-8
Language: en
Country: US
--></g></svg>