<?xml version="1.0" encoding="UTF-8" standalone="no"?><svg xmlns="http://www.w3.org/2000/svg" xmlns:xlink="http://www.w3.org/1999/xlink" contentScriptType="application/ecmascript" contentStyleType="text/css" height="344px" preserveAspectRatio="none" style="width:861px;height:344px;" version="1.1" viewBox="0 0 861 344" width="861px" zoomAndPan="magnify"><defs><filter height="300%" id="f1bar3q2859g87" width="300%" x="-1" y="-1"><feGaussianBlur result="blurOut" stdDeviation="2.0"/><feColorMatrix in="blurOut" result="blurOut2" type="matrix" values="0 0 0 0 0 0 0 0 0 0 0 0 0 0 0 0 0 0 .4 0"/><feOffset dx="4.0" dy="4.0" in="blurOut2" result="blurOut3"/><feBlend in="SourceGraphic" in2="blurOut3" mode="normal"/></filter></defs><g><!--class Menu--><rect fill="#FEFECE" filter="url(#f1bar3q2859g87)" height="60.8047" id="Menu" style="stroke: #A80036; stroke-width: 1.5;" width="112" x="302.5" y="27"/><ellipse cx="338.2" cy="43" fill="#B4A7E5" rx="11" ry="11" style="stroke: #A80036; stroke-width: 1.0;"/><path d="M339.1531,39.7813 L339.1531,46.2969 L340.8719,46.2969 C341.325,46.2969 341.4656,46.3281 341.6375,46.4531 C341.8719,46.625 341.9813,46.875 341.9813,47.1563 C341.9813,47.7188 341.6219,48 340.8719,48 L335.7313,48 C335.325,48 335.1219,47.9531 334.9656,47.8281 C334.7469,47.6719 334.6063,47.4063 334.6063,47.1563 C334.6063,46.8594 334.7625,46.5781 335.0125,46.4219 C335.1688,46.3125 335.2938,46.2969 335.7313,46.2969 L337.45,46.2969 L337.45,39.7813 L335.7313,39.7813 C335.3094,39.7813 335.1219,39.75 334.9656,39.6406 C334.7469,39.4688 334.6063,39.2188 334.6063,38.9375 C334.6063,38.6563 334.7625,38.3594 335.0125,38.2031 C335.1688,38.1094 335.2938,38.0938 335.7313,38.0938 L340.8719,38.0938 C341.325,38.0938 341.4656,38.125 341.6375,38.2344 C341.8719,38.4063 341.9813,38.6719 341.9813,38.9375 C341.9813,39.2344 341.8406,39.5156 341.575,39.6719 C341.45,39.75 341.2625,39.7813 340.8719,39.7813 Z "/><text fill="#000000" font-family="sans-serif" font-size="12" font-style="italic" lengthAdjust="spacingAndGlyphs" textLength="34" x="356.8" y="47.1543">Menu</text><line style="stroke: #A80036; stroke-width: 1.5;" x1="303.5" x2="413.5" y1="59" y2="59"/><line style="stroke: #A80036; stroke-width: 1.5;" x1="303.5" x2="413.5" y1="67" y2="67"/><ellipse cx="313.5" cy="78.9023" fill="#84BE84" rx="3" ry="3" style="stroke: #038048; stroke-width: 1.0;"/><text fill="#000000" font-family="sans-serif" font-size="11" lengthAdjust="spacingAndGlyphs" textLength="86" x="322.5" y="81.2104">createIterator()</text><!--class BreakfastMenu--><rect fill="#FEFECE" filter="url(#f1bar3q2859g87)" height="73.6094" id="BreakfastMenu" style="stroke: #A80036; stroke-width: 1.5;" width="204" x="67.5" y="171"/><ellipse cx="118.25" cy="187" fill="#ADD1B2" rx="11" ry="11" style="stroke: #A80036; stroke-width: 1.0;"/><path d="M120.5938,182.6719 L120.7656,182.75 C120.9844,182.4375 121.1875,182.3438 121.4844,182.3438 C121.7813,182.3438 122.0625,182.4844 122.2188,182.75 C122.3125,182.9063 122.3281,183.0313 122.3281,183.4688 L122.3281,184.8906 C122.3281,185.3125 122.2969,185.5 122.1875,185.6563 C122.0156,185.875 121.75,186.0156 121.4844,186.0156 C121.2656,186.0156 121.0313,185.9063 120.8906,185.7656 C120.75,185.6406 120.7188,185.5156 120.6563,185.1094 C120.5625,184.7031 120.3906,184.4844 119.9063,184.2031 C119.4375,183.9531 118.8281,183.7969 118.25,183.7969 C116.5156,183.7969 115.2656,185.1094 115.2656,186.8906 L115.2656,187.9844 C115.2656,189.6875 116.5625,190.7813 118.6094,190.7813 C119.375,190.7813 120.0625,190.6563 120.4844,190.3906 C120.6719,190.2969 120.6719,190.2969 121.125,189.8125 C121.3125,189.625 121.5156,189.5469 121.7344,189.5469 C122.2031,189.5469 122.5938,189.9375 122.5938,190.3906 C122.5938,190.7813 122.2656,191.2344 121.6875,191.6406 C120.9375,192.1875 119.7813,192.4844 118.5625,192.4844 C115.6719,192.4844 113.5625,190.5938 113.5625,188.0156 L113.5625,186.8906 C113.5625,184.1719 115.5625,182.0938 118.1875,182.0938 C119.0625,182.0938 119.6563,182.2344 120.5938,182.6719 Z "/><text fill="#000000" font-family="sans-serif" font-size="12" lengthAdjust="spacingAndGlyphs" textLength="94" x="138.75" y="191.1543">BreakfastMenu</text><line style="stroke: #A80036; stroke-width: 1.5;" x1="68.5" x2="270.5" y1="203" y2="203"/><rect fill="none" height="6" style="stroke: #C82930; stroke-width: 1.0;" width="6" x="75.5" y="211.9023"/><text fill="#000000" font-family="sans-serif" font-size="11" lengthAdjust="spacingAndGlyphs" textLength="178" x="87.5" y="217.2104">items : std::vector&lt;MenuItem&gt;</text><line style="stroke: #A80036; stroke-width: 1.5;" x1="68.5" x2="270.5" y1="223.8047" y2="223.8047"/><ellipse cx="78.5" cy="235.707" fill="#84BE84" rx="3" ry="3" style="stroke: #038048; stroke-width: 1.0;"/><text fill="#000000" font-family="sans-serif" font-size="11" lengthAdjust="spacingAndGlyphs" textLength="86" x="87.5" y="238.0151">createIterator()</text><!--class LunchMenu--><rect fill="#FEFECE" filter="url(#f1bar3q2859g87)" height="73.6094" id="LunchMenu" style="stroke: #A80036; stroke-width: 1.5;" width="133" x="323" y="171"/><ellipse cx="351.5" cy="187" fill="#ADD1B2" rx="11" ry="11" style="stroke: #A80036; stroke-width: 1.0;"/><path d="M353.8438,182.6719 L354.0156,182.75 C354.2344,182.4375 354.4375,182.3438 354.7344,182.3438 C355.0313,182.3438 355.3125,182.4844 355.4688,182.75 C355.5625,182.9063 355.5781,183.0313 355.5781,183.4688 L355.5781,184.8906 C355.5781,185.3125 355.5469,185.5 355.4375,185.6563 C355.2656,185.875 355,186.0156 354.7344,186.0156 C354.5156,186.0156 354.2813,185.9063 354.1406,185.7656 C354,185.6406 353.9688,185.5156 353.9063,185.1094 C353.8125,184.7031 353.6406,184.4844 353.1563,184.2031 C352.6875,183.9531 352.0781,183.7969 351.5,183.7969 C349.7656,183.7969 348.5156,185.1094 348.5156,186.8906 L348.5156,187.9844 C348.5156,189.6875 349.8125,190.7813 351.8594,190.7813 C352.625,190.7813 353.3125,190.6563 353.7344,190.3906 C353.9219,190.2969 353.9219,190.2969 354.375,189.8125 C354.5625,189.625 354.7656,189.5469 354.9844,189.5469 C355.4531,189.5469 355.8438,189.9375 355.8438,190.3906 C355.8438,190.7813 355.5156,191.2344 354.9375,191.6406 C354.1875,192.1875 353.0313,192.4844 351.8125,192.4844 C348.9219,192.4844 346.8125,190.5938 346.8125,188.0156 L346.8125,186.8906 C346.8125,184.1719 348.8125,182.0938 351.4375,182.0938 C352.3125,182.0938 352.9063,182.2344 353.8438,182.6719 Z "/><text fill="#000000" font-family="sans-serif" font-size="12" lengthAdjust="spacingAndGlyphs" textLength="71" x="368.5" y="191.1543">LunchMenu</text><line style="stroke: #A80036; stroke-width: 1.5;" x1="324" x2="455" y1="203" y2="203"/><rect fill="none" height="6" style="stroke: #C82930; stroke-width: 1.0;" width="6" x="331" y="211.9023"/><text fill="#000000" font-family="sans-serif" font-size="11" lengthAdjust="spacingAndGlyphs" textLength="107" x="343" y="217.2104">items : MenuItem[]</text><line style="stroke: #A80036; stroke-width: 1.5;" x1="324" x2="455" y1="223.8047" y2="223.8047"/><ellipse cx="334" cy="235.707" fill="#84BE84" rx="3" ry="3" style="stroke: #038048; stroke-width: 1.0;"/><text fill="#000000" font-family="sans-serif" font-size="11" lengthAdjust="spacingAndGlyphs" textLength="86" x="343" y="238.0151">createIterator()</text><!--class MenuIterator--><rect fill="#FEFECE" filter="url(#f1bar3q2859g87)" height="73.6094" id="MenuIterator" style="stroke: #A80036; stroke-width: 1.5;" width="114" x="602.5" y="20.5"/><ellipse cx="617.5" cy="36.5" fill="#B4A7E5" rx="11" ry="11" style="stroke: #A80036; stroke-width: 1.0;"/><path d="M618.4531,33.2813 L618.4531,39.7969 L620.1719,39.7969 C620.625,39.7969 620.7656,39.8281 620.9375,39.9531 C621.1719,40.125 621.2813,40.375 621.2813,40.6563 C621.2813,41.2188 620.9219,41.5 620.1719,41.5 L615.0313,41.5 C614.625,41.5 614.4219,41.4531 614.2656,41.3281 C614.0469,41.1719 613.9063,40.9063 613.9063,40.6563 C613.9063,40.3594 614.0625,40.0781 614.3125,39.9219 C614.4688,39.8125 614.5938,39.7969 615.0313,39.7969 L616.75,39.7969 L616.75,33.2813 L615.0313,33.2813 C614.6094,33.2813 614.4219,33.25 614.2656,33.1406 C614.0469,32.9688 613.9063,32.7188 613.9063,32.4375 C613.9063,32.1563 614.0625,31.8594 614.3125,31.7031 C614.4688,31.6094 614.5938,31.5938 615.0313,31.5938 L620.1719,31.5938 C620.625,31.5938 620.7656,31.625 620.9375,31.7344 C621.1719,31.9063 621.2813,32.1719 621.2813,32.4375 C621.2813,32.7344 621.1406,33.0156 620.875,33.1719 C620.75,33.25 620.5625,33.2813 620.1719,33.2813 Z "/><text fill="#000000" font-family="sans-serif" font-size="12" font-style="italic" lengthAdjust="spacingAndGlyphs" textLength="82" x="631.5" y="40.6543">MenuIterator</text><line style="stroke: #A80036; stroke-width: 1.5;" x1="603.5" x2="715.5" y1="52.5" y2="52.5"/><line style="stroke: #A80036; stroke-width: 1.5;" x1="603.5" x2="715.5" y1="60.5" y2="60.5"/><ellipse cx="613.5" cy="72.4023" fill="#84BE84" rx="3" ry="3" style="stroke: #038048; stroke-width: 1.0;"/><text fill="#000000" font-family="sans-serif" font-size="11" lengthAdjust="spacingAndGlyphs" textLength="32" x="622.5" y="74.7104">next()</text><ellipse cx="613.5" cy="85.207" fill="#84BE84" rx="3" ry="3" style="stroke: #038048; stroke-width: 1.0;"/><text fill="#000000" font-family="sans-serif" font-size="11" lengthAdjust="spacingAndGlyphs" textLength="54" x="622.5" y="87.5151">hasNext()</text><!--class BreakfastIterator--><rect fill="#FEFECE" filter="url(#f1bar3q2859g87)" height="73.6094" id="BreakfastIterator" style="stroke: #A80036; stroke-width: 1.5;" width="139" x="560" y="170"/><ellipse cx="575" cy="186" fill="#ADD1B2" rx="11" ry="11" style="stroke: #A80036; stroke-width: 1.0;"/><path d="M577.3438,181.6719 L577.5156,181.75 C577.7344,181.4375 577.9375,181.3438 578.2344,181.3438 C578.5313,181.3438 578.8125,181.4844 578.9688,181.75 C579.0625,181.9063 579.0781,182.0313 579.0781,182.4688 L579.0781,183.8906 C579.0781,184.3125 579.0469,184.5 578.9375,184.6563 C578.7656,184.875 578.5,185.0156 578.2344,185.0156 C578.0156,185.0156 577.7813,184.9063 577.6406,184.7656 C577.5,184.6406 577.4688,184.5156 577.4063,184.1094 C577.3125,183.7031 577.1406,183.4844 576.6563,183.2031 C576.1875,182.9531 575.5781,182.7969 575,182.7969 C573.2656,182.7969 572.0156,184.1094 572.0156,185.8906 L572.0156,186.9844 C572.0156,188.6875 573.3125,189.7813 575.3594,189.7813 C576.125,189.7813 576.8125,189.6563 577.2344,189.3906 C577.4219,189.2969 577.4219,189.2969 577.875,188.8125 C578.0625,188.625 578.2656,188.5469 578.4844,188.5469 C578.9531,188.5469 579.3438,188.9375 579.3438,189.3906 C579.3438,189.7813 579.0156,190.2344 578.4375,190.6406 C577.6875,191.1875 576.5313,191.4844 575.3125,191.4844 C572.4219,191.4844 570.3125,189.5938 570.3125,187.0156 L570.3125,185.8906 C570.3125,183.1719 572.3125,181.0938 574.9375,181.0938 C575.8125,181.0938 576.4063,181.2344 577.3438,181.6719 Z "/><text fill="#000000" font-family="sans-serif" font-size="12" lengthAdjust="spacingAndGlyphs" textLength="107" x="589" y="190.1543">BreakfastIterator</text><line style="stroke: #A80036; stroke-width: 1.5;" x1="561" x2="698" y1="202" y2="202"/><line style="stroke: #A80036; stroke-width: 1.5;" x1="561" x2="698" y1="210" y2="210"/><ellipse cx="571" cy="221.9023" fill="#84BE84" rx="3" ry="3" style="stroke: #038048; stroke-width: 1.0;"/><text fill="#000000" font-family="sans-serif" font-size="11" lengthAdjust="spacingAndGlyphs" textLength="32" x="580" y="224.2104">next()</text><ellipse cx="571" cy="234.707" fill="#84BE84" rx="3" ry="3" style="stroke: #038048; stroke-width: 1.0;"/><text fill="#000000" font-family="sans-serif" font-size="11" lengthAdjust="spacingAndGlyphs" textLength="54" x="580" y="237.0151">hasNext()</text><!--class LunchIterator--><rect fill="#FEFECE" filter="url(#f1bar3q2859g87)" height="73.6094" id="LunchIterator" style="stroke: #A80036; stroke-width: 1.5;" width="116" x="734.5" y="170"/><ellipse cx="749.5" cy="186" fill="#ADD1B2" rx="11" ry="11" style="stroke: #A80036; stroke-width: 1.0;"/><path d="M751.8438,181.6719 L752.0156,181.75 C752.2344,181.4375 752.4375,181.3438 752.7344,181.3438 C753.0313,181.3438 753.3125,181.4844 753.4688,181.75 C753.5625,181.9063 753.5781,182.0313 753.5781,182.4688 L753.5781,183.8906 C753.5781,184.3125 753.5469,184.5 753.4375,184.6563 C753.2656,184.875 753,185.0156 752.7344,185.0156 C752.5156,185.0156 752.2813,184.9063 752.1406,184.7656 C752,184.6406 751.9688,184.5156 751.9063,184.1094 C751.8125,183.7031 751.6406,183.4844 751.1563,183.2031 C750.6875,182.9531 750.0781,182.7969 749.5,182.7969 C747.7656,182.7969 746.5156,184.1094 746.5156,185.8906 L746.5156,186.9844 C746.5156,188.6875 747.8125,189.7813 749.8594,189.7813 C750.625,189.7813 751.3125,189.6563 751.7344,189.3906 C751.9219,189.2969 751.9219,189.2969 752.375,188.8125 C752.5625,188.625 752.7656,188.5469 752.9844,188.5469 C753.4531,188.5469 753.8438,188.9375 753.8438,189.3906 C753.8438,189.7813 753.5156,190.2344 752.9375,190.6406 C752.1875,191.1875 751.0313,191.4844 749.8125,191.4844 C746.9219,191.4844 744.8125,189.5938 744.8125,187.0156 L744.8125,185.8906 C744.8125,183.1719 746.8125,181.0938 749.4375,181.0938 C750.3125,181.0938 750.9063,181.2344 751.8438,181.6719 Z "/><text fill="#000000" font-family="sans-serif" font-size="12" lengthAdjust="spacingAndGlyphs" textLength="84" x="763.5" y="190.1543">LunchIterator</text><line style="stroke: #A80036; stroke-width: 1.5;" x1="735.5" x2="849.5" y1="202" y2="202"/><line style="stroke: #A80036; stroke-width: 1.5;" x1="735.5" x2="849.5" y1="210" y2="210"/><ellipse cx="745.5" cy="221.9023" fill="#84BE84" rx="3" ry="3" style="stroke: #038048; stroke-width: 1.0;"/><text fill="#000000" font-family="sans-serif" font-size="11" lengthAdjust="spacingAndGlyphs" textLength="32" x="754.5" y="224.2104">next()</text><ellipse cx="745.5" cy="234.707" fill="#84BE84" rx="3" ry="3" style="stroke: #038048; stroke-width: 1.0;"/><text fill="#000000" font-family="sans-serif" font-size="11" lengthAdjust="spacingAndGlyphs" textLength="54" x="754.5" y="237.0151">hasNext()</text><!--class Waitress--><rect fill="#FEFECE" filter="url(#f1bar3q2859g87)" height="99.2188" id="Waitress" style="stroke: #A80036; stroke-width: 1.5;" width="118" x="449.5" y="8"/><ellipse cx="478.9" cy="24" fill="#ADD1B2" rx="11" ry="11" style="stroke: #A80036; stroke-width: 1.0;"/><path d="M481.2438,19.6719 L481.4156,19.75 C481.6344,19.4375 481.8375,19.3438 482.1344,19.3438 C482.4313,19.3438 482.7125,19.4844 482.8688,19.75 C482.9625,19.9063 482.9781,20.0313 482.9781,20.4688 L482.9781,21.8906 C482.9781,22.3125 482.9469,22.5 482.8375,22.6563 C482.6656,22.875 482.4,23.0156 482.1344,23.0156 C481.9156,23.0156 481.6813,22.9063 481.5406,22.7656 C481.4,22.6406 481.3688,22.5156 481.3063,22.1094 C481.2125,21.7031 481.0406,21.4844 480.5563,21.2031 C480.0875,20.9531 479.4781,20.7969 478.9,20.7969 C477.1656,20.7969 475.9156,22.1094 475.9156,23.8906 L475.9156,24.9844 C475.9156,26.6875 477.2125,27.7813 479.2594,27.7813 C480.025,27.7813 480.7125,27.6563 481.1344,27.3906 C481.3219,27.2969 481.3219,27.2969 481.775,26.8125 C481.9625,26.625 482.1656,26.5469 482.3844,26.5469 C482.8531,26.5469 483.2438,26.9375 483.2438,27.3906 C483.2438,27.7813 482.9156,28.2344 482.3375,28.6406 C481.5875,29.1875 480.4313,29.4844 479.2125,29.4844 C476.3219,29.4844 474.2125,27.5938 474.2125,25.0156 L474.2125,23.8906 C474.2125,21.1719 476.2125,19.0938 478.8375,19.0938 C479.7125,19.0938 480.3063,19.2344 481.2438,19.6719 Z "/><text fill="#000000" font-family="sans-serif" font-size="12" lengthAdjust="spacingAndGlyphs" textLength="54" x="496.1" y="28.1543">Waitress</text><line style="stroke: #A80036; stroke-width: 1.5;" x1="450.5" x2="566.5" y1="40" y2="40"/><line style="stroke: #A80036; stroke-width: 1.5;" x1="450.5" x2="566.5" y1="48" y2="48"/><ellipse cx="460.5" cy="59.9023" fill="#84BE84" rx="3" ry="3" style="stroke: #038048; stroke-width: 1.0;"/><text fill="#000000" font-family="sans-serif" font-size="11" lengthAdjust="spacingAndGlyphs" textLength="92" x="469.5" y="62.2104">breakfastMenu()</text><ellipse cx="460.5" cy="72.707" fill="#84BE84" rx="3" ry="3" style="stroke: #038048; stroke-width: 1.0;"/><text fill="#000000" font-family="sans-serif" font-size="11" lengthAdjust="spacingAndGlyphs" textLength="68" x="469.5" y="75.0151">lunchMenu()</text><ellipse cx="460.5" cy="85.5117" fill="#84BE84" rx="3" ry="3" style="stroke: #038048; stroke-width: 1.0;"/><text fill="#000000" font-family="sans-serif" font-size="11" lengthAdjust="spacingAndGlyphs" textLength="71" x="469.5" y="87.8198">wholeMenu()</text><ellipse cx="460.5" cy="98.3164" fill="#84BE84" rx="3" ry="3" style="stroke: #038048; stroke-width: 1.0;"/><text fill="#000000" font-family="sans-serif" font-size="11" lengthAdjust="spacingAndGlyphs" textLength="75" x="469.5" y="100.6245">veggieMenu()</text><path d="M6,307 L6,332.1328 L553,332.1328 L553,317 L543,307 L6,307 " fill="#FBFB77" filter="url(#f1bar3q2859g87)" style="stroke: #A80036; stroke-width: 1.0;"/><path d="M543,307 L543,317 L553,317 L543,307 " fill="#FBFB77" style="stroke: #A80036; stroke-width: 1.0;"/><text fill="#000000" font-family="sans-serif" font-size="13" lengthAdjust="spacingAndGlyphs" textLength="526" x="12" y="324.0669">The Iterator provides a unified interface to iterate through different data structures</text><!--link Menu to Waitress--><path d="M414.75,57.5 C426.225,57.5 437.699,57.5 449.174,57.5 " fill="none" id="Menu-Waitress" style="stroke: #A80036; stroke-width: 1.0;"/><!--link Waitress to MenuIterator--><path d="M567.779,57.5 C579.244,57.5 590.709,57.5 602.175,57.5 " fill="none" id="Waitress-MenuIterator" style="stroke: #A80036; stroke-width: 1.0;"/><!--link Menu to BreakfastMenu--><path d="M304.406,100.716 C277.693,121.564 245.673,146.553 219.532,166.954 " fill="none" id="Menu-BreakfastMenu" style="stroke: #A80036; stroke-width: 1.0; stroke-dasharray: 7.0,7.0;"/><polygon fill="none" points="300.18,95.135,320.253,88.349,308.793,106.172,300.18,95.135" style="stroke: #A80036; stroke-width: 1.0;"/><!--link Menu to LunchMenu--><path d="M368.891,107.943 C372.931,127.163 377.491,148.863 381.294,166.954 " fill="none" id="Menu-LunchMenu" style="stroke: #A80036; stroke-width: 1.0; stroke-dasharray: 7.0,7.0;"/><polygon fill="none" points="362.037,109.361,364.773,88.349,375.737,106.481,362.037,109.361" style="stroke: #A80036; stroke-width: 1.0;"/><!--link MenuIterator to BreakfastIterator--><path d="M648.162,114.245 C644.38,132.841 640.267,153.063 636.867,169.779 " fill="none" id="MenuIterator-BreakfastIterator" style="stroke: #A80036; stroke-width: 1.0; stroke-dasharray: 7.0,7.0;"/><polygon fill="none" points="641.315,112.786,652.161,94.583,655.034,115.576,641.315,112.786" style="stroke: #A80036; stroke-width: 1.0;"/><!--link MenuIterator to LunchIterator--><path d="M705.496,109.511 C723.389,129.354 743.477,151.633 759.839,169.779 " fill="none" id="MenuIterator-LunchIterator" style="stroke: #A80036; stroke-width: 1.0; stroke-dasharray: 7.0,7.0;"/><polygon fill="none" points="700.23,114.124,692.035,94.583,710.627,104.748,700.23,114.124" style="stroke: #A80036; stroke-width: 1.0;"/><!--link BreakfastMenu to N0--><path d="M272.5,213 C309.763,213 292.331,279.3383 283.516,306.8066 " fill="none" id="BreakfastMenu-N0" style="stroke: #A80036; stroke-width: 1.0; stroke-dasharray: 7.0,7.0;"/><!--link LunchMenu to N0--><path d="M322.5,213 C302.424,213 287.149,279.3383 281.685,306.8066 " fill="none" id="LunchMenu-N0" style="stroke: #A80036; stroke-width: 1.0; stroke-dasharray: 7.0,7.0;"/><!--
@startuml
Interface Menu{
  + createIterator()
}

Class BreakfastMenu{
  + createIterator()
  - items : std::vector<MenuItem>
}

Class LunchMenu{
  + createIterator()
  - items : MenuItem[]
}


Interface MenuIterator{
  + next()
  + hasNext()
}

Class BreakfastIterator{
  + next()
  + hasNext()
}

Class LunchIterator{
  + next()
  + hasNext()
}


Class Waitress{
  + breakfastMenu()
  + lunchMenu()
  + wholeMenu()
  + veggieMenu()
}


Menu -right- Waitress
Waitress -right- MenuIterator


Menu <|..  BreakfastMenu 
Menu <|..  LunchMenu

MenuIterator <|..  BreakfastIterator 
MenuIterator <|..  LunchIterator


note "The Iterator provides a unified interface to iterate through different data structures" as N0
BreakfastMenu::items .. N0
LunchMenu::items .. N0
@enduml

PlantUML version 1.2018.02beta13(Unknown compile time)
(GPL source distribution)
Java Runtime: Java(TM) SE Runtime Environment
JVM: Java HotSpot(TM) 64-Bit Server VM
Java Version: 1.7.0_25-b15
Operating System: Linux
Default Encoding: UTF-8
Language: en
Country: US
--></g></svg>