<?xml version="1.0" encoding="UTF-8" standalone="no"?><svg xmlns="http://www.w3.org/2000/svg" xmlns:xlink="http://www.w3.org/1999/xlink" contentScriptType="application/ecmascript" contentStyleType="text/css" height="412px" preserveAspectRatio="none" style="width:1066px;height:412px;" version="1.1" viewBox="0 0 1066 412" width="1066px" zoomAndPan="magnify"><defs><filter height="300%" id="fd4csnr3nd79i" width="300%" x="-1" y="-1"><feGaussianBlur result="blurOut" stdDeviation="2.0"/><feColorMatrix in="blurOut" result="blurOut2" type="matrix" values="0 0 0 0 0 0 0 0 0 0 0 0 0 0 0 0 0 0 .4 0"/><feOffset dx="4.0" dy="4.0" in="blurOut2" result="blurOut3"/><feBlend in="SourceGraphic" in2="blurOut3" mode="normal"/></filter></defs><g><!--class Duck--><rect fill="#FEFECE" filter="url(#fd4csnr3nd79i)" height="137.6328" id="Duck" style="stroke: #A80036; stroke-width: 1.5;" width="192" x="357.25" y="130"/><ellipse cx="433.5" cy="146" fill="#A9DCDF" rx="11" ry="11" style="stroke: #A80036; stroke-width: 1.0;"/><path d="M435.0781,147.8125 L431.0313,147.8125 L430.6406,148.7969 L431.0313,148.7969 C431.4844,148.7969 431.625,148.8281 431.7969,148.9531 C432.0156,149.125 432.1406,149.375 432.1406,149.6563 C432.1406,149.9375 432,150.2344 431.7344,150.375 C431.6094,150.4688 431.3906,150.5 431.0313,150.5 L428.7656,150.5 C428.0156,150.5 427.6406,150.2188 427.6406,149.6563 C427.6406,149.3594 427.7969,149.0781 428.0469,148.9219 C428.2031,148.8125 428.3594,148.7969 428.7813,148.7969 L431.4219,142.2813 L430.3438,142.2813 C429.9063,142.2813 429.7344,142.25 429.5625,142.1406 C429.3438,141.9688 429.2031,141.7188 429.2031,141.4375 C429.2031,141.1563 429.3594,140.875 429.6094,140.7031 C429.7656,140.6094 429.8906,140.5938 430.3438,140.5938 L434.0156,140.5938 L437.4063,148.7969 C437.875,148.7969 438.0313,148.8281 438.2031,148.9688 C438.4219,149.125 438.5625,149.375 438.5625,149.6563 C438.5625,149.9375 438.4063,150.2344 438.1563,150.375 C438.0156,150.4688 437.7969,150.5 437.4375,150.5 L435.0781,150.5 C434.6563,150.5 434.4531,150.4531 434.3125,150.3281 C434.0938,150.1719 433.9531,149.9219 433.9531,149.6563 C433.9531,149.3594 434.1094,149.0781 434.3594,148.9219 C434.5156,148.8125 434.625,148.7969 435.0781,148.7969 L435.4688,148.7969 Z M434.375,146.1094 L433.0469,142.8438 L431.7031,146.1094 Z "/><text fill="#000000" font-family="sans-serif" font-size="12" font-style="italic" lengthAdjust="spacingAndGlyphs" textLength="31" x="454" y="150.1543">Duck</text><line style="stroke: #A80036; stroke-width: 1.5;" x1="358.25" x2="548.25" y1="162" y2="162"/><text fill="#000000" font-family="sans-serif" font-size="11" lengthAdjust="spacingAndGlyphs" textLength="140" x="363.25" y="176.2104">flyBehavior : FlyBehavior</text><text fill="#000000" font-family="sans-serif" font-size="11" lengthAdjust="spacingAndGlyphs" textLength="180" x="363.25" y="189.0151">quackBehavior : QuackBehavior</text><line style="stroke: #A80036; stroke-width: 1.5;" x1="358.25" x2="548.25" y1="195.6094" y2="195.6094"/><text fill="#000000" font-family="sans-serif" font-size="11" lengthAdjust="spacingAndGlyphs" textLength="48" x="363.25" y="209.8198">display()</text><text fill="#000000" font-family="sans-serif" font-size="11" lengthAdjust="spacingAndGlyphs" textLength="69" x="363.25" y="222.6245">performFly()</text><text fill="#000000" font-family="sans-serif" font-size="11" lengthAdjust="spacingAndGlyphs" textLength="89" x="363.25" y="235.4292">performQuack()</text><text fill="#000000" font-family="sans-serif" font-size="11" lengthAdjust="spacingAndGlyphs" textLength="91" x="363.25" y="248.2339">setFlyBehavior()</text><text fill="#000000" font-family="sans-serif" font-size="11" lengthAdjust="spacingAndGlyphs" textLength="111" x="363.25" y="261.0386">setQuackBehavior()</text><!--class MallardDuck--><rect fill="#FEFECE" filter="url(#fd4csnr3nd79i)" height="60.8047" id="MallardDuck" style="stroke: #A80036; stroke-width: 1.5;" width="108" x="186.25" y="334.5"/><ellipse cx="201.25" cy="350.5" fill="#ADD1B2" rx="11" ry="11" style="stroke: #A80036; stroke-width: 1.0;"/><path d="M203.5938,346.1719 L203.7656,346.25 C203.9844,345.9375 204.1875,345.8438 204.4844,345.8438 C204.7813,345.8438 205.0625,345.9844 205.2188,346.25 C205.3125,346.4063 205.3281,346.5313 205.3281,346.9688 L205.3281,348.3906 C205.3281,348.8125 205.2969,349 205.1875,349.1563 C205.0156,349.375 204.75,349.5156 204.4844,349.5156 C204.2656,349.5156 204.0313,349.4063 203.8906,349.2656 C203.75,349.1406 203.7188,349.0156 203.6563,348.6094 C203.5625,348.2031 203.3906,347.9844 202.9063,347.7031 C202.4375,347.4531 201.8281,347.2969 201.25,347.2969 C199.5156,347.2969 198.2656,348.6094 198.2656,350.3906 L198.2656,351.4844 C198.2656,353.1875 199.5625,354.2813 201.6094,354.2813 C202.375,354.2813 203.0625,354.1563 203.4844,353.8906 C203.6719,353.7969 203.6719,353.7969 204.125,353.3125 C204.3125,353.125 204.5156,353.0469 204.7344,353.0469 C205.2031,353.0469 205.5938,353.4375 205.5938,353.8906 C205.5938,354.2813 205.2656,354.7344 204.6875,355.1406 C203.9375,355.6875 202.7813,355.9844 201.5625,355.9844 C198.6719,355.9844 196.5625,354.0938 196.5625,351.5156 L196.5625,350.3906 C196.5625,347.6719 198.5625,345.5938 201.1875,345.5938 C202.0625,345.5938 202.6563,345.7344 203.5938,346.1719 Z "/><text fill="#000000" font-family="sans-serif" font-size="12" lengthAdjust="spacingAndGlyphs" textLength="76" x="215.25" y="354.6543">MallardDuck</text><line style="stroke: #A80036; stroke-width: 1.5;" x1="187.25" x2="293.25" y1="366.5" y2="366.5"/><line style="stroke: #A80036; stroke-width: 1.5;" x1="187.25" x2="293.25" y1="374.5" y2="374.5"/><text fill="#000000" font-family="sans-serif" font-size="11" lengthAdjust="spacingAndGlyphs" textLength="48" x="192.25" y="388.7104">display()</text><!--class RubberDuck--><rect fill="#FEFECE" filter="url(#fd4csnr3nd79i)" height="60.8047" id="RubberDuck" style="stroke: #A80036; stroke-width: 1.5;" width="108" x="329.25" y="334.5"/><ellipse cx="344.25" cy="350.5" fill="#ADD1B2" rx="11" ry="11" style="stroke: #A80036; stroke-width: 1.0;"/><path d="M346.5938,346.1719 L346.7656,346.25 C346.9844,345.9375 347.1875,345.8438 347.4844,345.8438 C347.7813,345.8438 348.0625,345.9844 348.2188,346.25 C348.3125,346.4063 348.3281,346.5313 348.3281,346.9688 L348.3281,348.3906 C348.3281,348.8125 348.2969,349 348.1875,349.1563 C348.0156,349.375 347.75,349.5156 347.4844,349.5156 C347.2656,349.5156 347.0313,349.4063 346.8906,349.2656 C346.75,349.1406 346.7188,349.0156 346.6563,348.6094 C346.5625,348.2031 346.3906,347.9844 345.9063,347.7031 C345.4375,347.4531 344.8281,347.2969 344.25,347.2969 C342.5156,347.2969 341.2656,348.6094 341.2656,350.3906 L341.2656,351.4844 C341.2656,353.1875 342.5625,354.2813 344.6094,354.2813 C345.375,354.2813 346.0625,354.1563 346.4844,353.8906 C346.6719,353.7969 346.6719,353.7969 347.125,353.3125 C347.3125,353.125 347.5156,353.0469 347.7344,353.0469 C348.2031,353.0469 348.5938,353.4375 348.5938,353.8906 C348.5938,354.2813 348.2656,354.7344 347.6875,355.1406 C346.9375,355.6875 345.7813,355.9844 344.5625,355.9844 C341.6719,355.9844 339.5625,354.0938 339.5625,351.5156 L339.5625,350.3906 C339.5625,347.6719 341.5625,345.5938 344.1875,345.5938 C345.0625,345.5938 345.6563,345.7344 346.5938,346.1719 Z "/><text fill="#000000" font-family="sans-serif" font-size="12" lengthAdjust="spacingAndGlyphs" textLength="76" x="358.25" y="354.6543">RubberDuck</text><line style="stroke: #A80036; stroke-width: 1.5;" x1="330.25" x2="436.25" y1="366.5" y2="366.5"/><line style="stroke: #A80036; stroke-width: 1.5;" x1="330.25" x2="436.25" y1="374.5" y2="374.5"/><text fill="#000000" font-family="sans-serif" font-size="11" lengthAdjust="spacingAndGlyphs" textLength="48" x="335.25" y="388.7104">display()</text><!--class DecoyDuck--><rect fill="#FEFECE" filter="url(#fd4csnr3nd79i)" height="60.8047" id="DecoyDuck" style="stroke: #A80036; stroke-width: 1.5;" width="101" x="473" y="334.5"/><ellipse cx="488" cy="350.5" fill="#ADD1B2" rx="11" ry="11" style="stroke: #A80036; stroke-width: 1.0;"/><path d="M490.3438,346.1719 L490.5156,346.25 C490.7344,345.9375 490.9375,345.8438 491.2344,345.8438 C491.5313,345.8438 491.8125,345.9844 491.9688,346.25 C492.0625,346.4063 492.0781,346.5313 492.0781,346.9688 L492.0781,348.3906 C492.0781,348.8125 492.0469,349 491.9375,349.1563 C491.7656,349.375 491.5,349.5156 491.2344,349.5156 C491.0156,349.5156 490.7813,349.4063 490.6406,349.2656 C490.5,349.1406 490.4688,349.0156 490.4063,348.6094 C490.3125,348.2031 490.1406,347.9844 489.6563,347.7031 C489.1875,347.4531 488.5781,347.2969 488,347.2969 C486.2656,347.2969 485.0156,348.6094 485.0156,350.3906 L485.0156,351.4844 C485.0156,353.1875 486.3125,354.2813 488.3594,354.2813 C489.125,354.2813 489.8125,354.1563 490.2344,353.8906 C490.4219,353.7969 490.4219,353.7969 490.875,353.3125 C491.0625,353.125 491.2656,353.0469 491.4844,353.0469 C491.9531,353.0469 492.3438,353.4375 492.3438,353.8906 C492.3438,354.2813 492.0156,354.7344 491.4375,355.1406 C490.6875,355.6875 489.5313,355.9844 488.3125,355.9844 C485.4219,355.9844 483.3125,354.0938 483.3125,351.5156 L483.3125,350.3906 C483.3125,347.6719 485.3125,345.5938 487.9375,345.5938 C488.8125,345.5938 489.4063,345.7344 490.3438,346.1719 Z "/><text fill="#000000" font-family="sans-serif" font-size="12" lengthAdjust="spacingAndGlyphs" textLength="69" x="502" y="354.6543">DecoyDuck</text><line style="stroke: #A80036; stroke-width: 1.5;" x1="474" x2="573" y1="366.5" y2="366.5"/><line style="stroke: #A80036; stroke-width: 1.5;" x1="474" x2="573" y1="374.5" y2="374.5"/><text fill="#000000" font-family="sans-serif" font-size="11" lengthAdjust="spacingAndGlyphs" textLength="48" x="479" y="388.7104">display()</text><!--class ModelDuck--><rect fill="#FEFECE" filter="url(#fd4csnr3nd79i)" height="60.8047" id="ModelDuck" style="stroke: #A80036; stroke-width: 1.5;" width="100" x="609.25" y="334.5"/><ellipse cx="624.25" cy="350.5" fill="#ADD1B2" rx="11" ry="11" style="stroke: #A80036; stroke-width: 1.0;"/><path d="M626.5938,346.1719 L626.7656,346.25 C626.9844,345.9375 627.1875,345.8438 627.4844,345.8438 C627.7813,345.8438 628.0625,345.9844 628.2188,346.25 C628.3125,346.4063 628.3281,346.5313 628.3281,346.9688 L628.3281,348.3906 C628.3281,348.8125 628.2969,349 628.1875,349.1563 C628.0156,349.375 627.75,349.5156 627.4844,349.5156 C627.2656,349.5156 627.0313,349.4063 626.8906,349.2656 C626.75,349.1406 626.7188,349.0156 626.6563,348.6094 C626.5625,348.2031 626.3906,347.9844 625.9063,347.7031 C625.4375,347.4531 624.8281,347.2969 624.25,347.2969 C622.5156,347.2969 621.2656,348.6094 621.2656,350.3906 L621.2656,351.4844 C621.2656,353.1875 622.5625,354.2813 624.6094,354.2813 C625.375,354.2813 626.0625,354.1563 626.4844,353.8906 C626.6719,353.7969 626.6719,353.7969 627.125,353.3125 C627.3125,353.125 627.5156,353.0469 627.7344,353.0469 C628.2031,353.0469 628.5938,353.4375 628.5938,353.8906 C628.5938,354.2813 628.2656,354.7344 627.6875,355.1406 C626.9375,355.6875 625.7813,355.9844 624.5625,355.9844 C621.6719,355.9844 619.5625,354.0938 619.5625,351.5156 L619.5625,350.3906 C619.5625,347.6719 621.5625,345.5938 624.1875,345.5938 C625.0625,345.5938 625.6563,345.7344 626.5938,346.1719 Z "/><text fill="#000000" font-family="sans-serif" font-size="12" lengthAdjust="spacingAndGlyphs" textLength="68" x="638.25" y="354.6543">ModelDuck</text><line style="stroke: #A80036; stroke-width: 1.5;" x1="610.25" x2="708.25" y1="366.5" y2="366.5"/><line style="stroke: #A80036; stroke-width: 1.5;" x1="610.25" x2="708.25" y1="374.5" y2="374.5"/><text fill="#000000" font-family="sans-serif" font-size="11" lengthAdjust="spacingAndGlyphs" textLength="48" x="615.25" y="388.7104">display()</text><!--class FlyBehavior--><rect fill="#FEFECE" filter="url(#fd4csnr3nd79i)" height="60.8047" id="FlyBehavior" style="stroke: #A80036; stroke-width: 1.5;" width="103" x="178" y="8.5"/><ellipse cx="193" cy="24.5" fill="#B4A7E5" rx="11" ry="11" style="stroke: #A80036; stroke-width: 1.0;"/><path d="M193.9531,21.2813 L193.9531,27.7969 L195.6719,27.7969 C196.125,27.7969 196.2656,27.8281 196.4375,27.9531 C196.6719,28.125 196.7813,28.375 196.7813,28.6563 C196.7813,29.2188 196.4219,29.5 195.6719,29.5 L190.5313,29.5 C190.125,29.5 189.9219,29.4531 189.7656,29.3281 C189.5469,29.1719 189.4063,28.9063 189.4063,28.6563 C189.4063,28.3594 189.5625,28.0781 189.8125,27.9219 C189.9688,27.8125 190.0938,27.7969 190.5313,27.7969 L192.25,27.7969 L192.25,21.2813 L190.5313,21.2813 C190.1094,21.2813 189.9219,21.25 189.7656,21.1406 C189.5469,20.9688 189.4063,20.7188 189.4063,20.4375 C189.4063,20.1563 189.5625,19.8594 189.8125,19.7031 C189.9688,19.6094 190.0938,19.5938 190.5313,19.5938 L195.6719,19.5938 C196.125,19.5938 196.2656,19.625 196.4375,19.7344 C196.6719,19.9063 196.7813,20.1719 196.7813,20.4375 C196.7813,20.7344 196.6406,21.0156 196.375,21.1719 C196.25,21.25 196.0625,21.2813 195.6719,21.2813 Z "/><text fill="#000000" font-family="sans-serif" font-size="12" font-style="italic" lengthAdjust="spacingAndGlyphs" textLength="71" x="207" y="28.6543">FlyBehavior</text><line style="stroke: #A80036; stroke-width: 1.5;" x1="179" x2="280" y1="40.5" y2="40.5"/><line style="stroke: #A80036; stroke-width: 1.5;" x1="179" x2="280" y1="48.5" y2="48.5"/><text fill="#000000" font-family="sans-serif" font-size="11" lengthAdjust="spacingAndGlyphs" textLength="21" x="184" y="62.7104">fly()</text><!--class WingsFly--><rect fill="#FEFECE" filter="url(#fd4csnr3nd79i)" height="60.8047" id="WingsFly" style="stroke: #A80036; stroke-width: 1.5;" width="85" x="6" y="168.5"/><ellipse cx="21" cy="184.5" fill="#ADD1B2" rx="11" ry="11" style="stroke: #A80036; stroke-width: 1.0;"/><path d="M23.3438,180.1719 L23.5156,180.25 C23.7344,179.9375 23.9375,179.8438 24.2344,179.8438 C24.5313,179.8438 24.8125,179.9844 24.9688,180.25 C25.0625,180.4063 25.0781,180.5313 25.0781,180.9688 L25.0781,182.3906 C25.0781,182.8125 25.0469,183 24.9375,183.1563 C24.7656,183.375 24.5,183.5156 24.2344,183.5156 C24.0156,183.5156 23.7813,183.4063 23.6406,183.2656 C23.5,183.1406 23.4688,183.0156 23.4063,182.6094 C23.3125,182.2031 23.1406,181.9844 22.6563,181.7031 C22.1875,181.4531 21.5781,181.2969 21,181.2969 C19.2656,181.2969 18.0156,182.6094 18.0156,184.3906 L18.0156,185.4844 C18.0156,187.1875 19.3125,188.2813 21.3594,188.2813 C22.125,188.2813 22.8125,188.1563 23.2344,187.8906 C23.4219,187.7969 23.4219,187.7969 23.875,187.3125 C24.0625,187.125 24.2656,187.0469 24.4844,187.0469 C24.9531,187.0469 25.3438,187.4375 25.3438,187.8906 C25.3438,188.2813 25.0156,188.7344 24.4375,189.1406 C23.6875,189.6875 22.5313,189.9844 21.3125,189.9844 C18.4219,189.9844 16.3125,188.0938 16.3125,185.5156 L16.3125,184.3906 C16.3125,181.6719 18.3125,179.5938 20.9375,179.5938 C21.8125,179.5938 22.4063,179.7344 23.3438,180.1719 Z "/><text fill="#000000" font-family="sans-serif" font-size="12" lengthAdjust="spacingAndGlyphs" textLength="53" x="35" y="188.6543">WingsFly</text><line style="stroke: #A80036; stroke-width: 1.5;" x1="7" x2="90" y1="200.5" y2="200.5"/><line style="stroke: #A80036; stroke-width: 1.5;" x1="7" x2="90" y1="208.5" y2="208.5"/><text fill="#000000" font-family="sans-serif" font-size="11" lengthAdjust="spacingAndGlyphs" textLength="21" x="12" y="222.7104">fly()</text><!--class RocketFly--><rect fill="#FEFECE" filter="url(#fd4csnr3nd79i)" height="60.8047" id="RocketFly" style="stroke: #A80036; stroke-width: 1.5;" width="91" x="126" y="168.5"/><ellipse cx="141" cy="184.5" fill="#ADD1B2" rx="11" ry="11" style="stroke: #A80036; stroke-width: 1.0;"/><path d="M143.3438,180.1719 L143.5156,180.25 C143.7344,179.9375 143.9375,179.8438 144.2344,179.8438 C144.5313,179.8438 144.8125,179.9844 144.9688,180.25 C145.0625,180.4063 145.0781,180.5313 145.0781,180.9688 L145.0781,182.3906 C145.0781,182.8125 145.0469,183 144.9375,183.1563 C144.7656,183.375 144.5,183.5156 144.2344,183.5156 C144.0156,183.5156 143.7813,183.4063 143.6406,183.2656 C143.5,183.1406 143.4688,183.0156 143.4063,182.6094 C143.3125,182.2031 143.1406,181.9844 142.6563,181.7031 C142.1875,181.4531 141.5781,181.2969 141,181.2969 C139.2656,181.2969 138.0156,182.6094 138.0156,184.3906 L138.0156,185.4844 C138.0156,187.1875 139.3125,188.2813 141.3594,188.2813 C142.125,188.2813 142.8125,188.1563 143.2344,187.8906 C143.4219,187.7969 143.4219,187.7969 143.875,187.3125 C144.0625,187.125 144.2656,187.0469 144.4844,187.0469 C144.9531,187.0469 145.3438,187.4375 145.3438,187.8906 C145.3438,188.2813 145.0156,188.7344 144.4375,189.1406 C143.6875,189.6875 142.5313,189.9844 141.3125,189.9844 C138.4219,189.9844 136.3125,188.0938 136.3125,185.5156 L136.3125,184.3906 C136.3125,181.6719 138.3125,179.5938 140.9375,179.5938 C141.8125,179.5938 142.4063,179.7344 143.3438,180.1719 Z "/><text fill="#000000" font-family="sans-serif" font-size="12" lengthAdjust="spacingAndGlyphs" textLength="59" x="155" y="188.6543">RocketFly</text><line style="stroke: #A80036; stroke-width: 1.5;" x1="127" x2="216" y1="200.5" y2="200.5"/><line style="stroke: #A80036; stroke-width: 1.5;" x1="127" x2="216" y1="208.5" y2="208.5"/><text fill="#000000" font-family="sans-serif" font-size="11" lengthAdjust="spacingAndGlyphs" textLength="21" x="132" y="222.7104">fly()</text><!--class FlyNot--><rect fill="#FEFECE" filter="url(#fd4csnr3nd79i)" height="60.8047" id="FlyNot" style="stroke: #A80036; stroke-width: 1.5;" width="70" x="252.25" y="168.5"/><ellipse cx="267.25" cy="184.5" fill="#ADD1B2" rx="11" ry="11" style="stroke: #A80036; stroke-width: 1.0;"/><path d="M269.5938,180.1719 L269.7656,180.25 C269.9844,179.9375 270.1875,179.8438 270.4844,179.8438 C270.7813,179.8438 271.0625,179.9844 271.2188,180.25 C271.3125,180.4063 271.3281,180.5313 271.3281,180.9688 L271.3281,182.3906 C271.3281,182.8125 271.2969,183 271.1875,183.1563 C271.0156,183.375 270.75,183.5156 270.4844,183.5156 C270.2656,183.5156 270.0313,183.4063 269.8906,183.2656 C269.75,183.1406 269.7188,183.0156 269.6563,182.6094 C269.5625,182.2031 269.3906,181.9844 268.9063,181.7031 C268.4375,181.4531 267.8281,181.2969 267.25,181.2969 C265.5156,181.2969 264.2656,182.6094 264.2656,184.3906 L264.2656,185.4844 C264.2656,187.1875 265.5625,188.2813 267.6094,188.2813 C268.375,188.2813 269.0625,188.1563 269.4844,187.8906 C269.6719,187.7969 269.6719,187.7969 270.125,187.3125 C270.3125,187.125 270.5156,187.0469 270.7344,187.0469 C271.2031,187.0469 271.5938,187.4375 271.5938,187.8906 C271.5938,188.2813 271.2656,188.7344 270.6875,189.1406 C269.9375,189.6875 268.7813,189.9844 267.5625,189.9844 C264.6719,189.9844 262.5625,188.0938 262.5625,185.5156 L262.5625,184.3906 C262.5625,181.6719 264.5625,179.5938 267.1875,179.5938 C268.0625,179.5938 268.6563,179.7344 269.5938,180.1719 Z "/><text fill="#000000" font-family="sans-serif" font-size="12" lengthAdjust="spacingAndGlyphs" textLength="38" x="281.25" y="188.6543">FlyNot</text><line style="stroke: #A80036; stroke-width: 1.5;" x1="253.25" x2="321.25" y1="200.5" y2="200.5"/><line style="stroke: #A80036; stroke-width: 1.5;" x1="253.25" x2="321.25" y1="208.5" y2="208.5"/><text fill="#000000" font-family="sans-serif" font-size="11" lengthAdjust="spacingAndGlyphs" textLength="21" x="258.25" y="222.7104">fly()</text><!--class QuackBehavior--><rect fill="#FEFECE" filter="url(#fd4csnr3nd79i)" height="60.8047" id="QuackBehavior" style="stroke: #A80036; stroke-width: 1.5;" width="124" x="672.25" y="8.5"/><ellipse cx="687.25" cy="24.5" fill="#B4A7E5" rx="11" ry="11" style="stroke: #A80036; stroke-width: 1.0;"/><path d="M688.2031,21.2813 L688.2031,27.7969 L689.9219,27.7969 C690.375,27.7969 690.5156,27.8281 690.6875,27.9531 C690.9219,28.125 691.0313,28.375 691.0313,28.6563 C691.0313,29.2188 690.6719,29.5 689.9219,29.5 L684.7813,29.5 C684.375,29.5 684.1719,29.4531 684.0156,29.3281 C683.7969,29.1719 683.6563,28.9063 683.6563,28.6563 C683.6563,28.3594 683.8125,28.0781 684.0625,27.9219 C684.2188,27.8125 684.3438,27.7969 684.7813,27.7969 L686.5,27.7969 L686.5,21.2813 L684.7813,21.2813 C684.3594,21.2813 684.1719,21.25 684.0156,21.1406 C683.7969,20.9688 683.6563,20.7188 683.6563,20.4375 C683.6563,20.1563 683.8125,19.8594 684.0625,19.7031 C684.2188,19.6094 684.3438,19.5938 684.7813,19.5938 L689.9219,19.5938 C690.375,19.5938 690.5156,19.625 690.6875,19.7344 C690.9219,19.9063 691.0313,20.1719 691.0313,20.4375 C691.0313,20.7344 690.8906,21.0156 690.625,21.1719 C690.5,21.25 690.3125,21.2813 689.9219,21.2813 Z "/><text fill="#000000" font-family="sans-serif" font-size="12" font-style="italic" lengthAdjust="spacingAndGlyphs" textLength="92" x="701.25" y="28.6543">QuackBehavior</text><line style="stroke: #A80036; stroke-width: 1.5;" x1="673.25" x2="795.25" y1="40.5" y2="40.5"/><line style="stroke: #A80036; stroke-width: 1.5;" x1="673.25" x2="795.25" y1="48.5" y2="48.5"/><text fill="#000000" font-family="sans-serif" font-size="11" lengthAdjust="spacingAndGlyphs" textLength="41" x="678.25" y="62.7104">quack()</text><!--class Quack--><rect fill="#FEFECE" filter="url(#fd4csnr3nd79i)" height="60.8047" id="Quack" style="stroke: #A80036; stroke-width: 1.5;" width="71" x="585" y="168.5"/><ellipse cx="600" cy="184.5" fill="#ADD1B2" rx="11" ry="11" style="stroke: #A80036; stroke-width: 1.0;"/><path d="M602.3438,180.1719 L602.5156,180.25 C602.7344,179.9375 602.9375,179.8438 603.2344,179.8438 C603.5313,179.8438 603.8125,179.9844 603.9688,180.25 C604.0625,180.4063 604.0781,180.5313 604.0781,180.9688 L604.0781,182.3906 C604.0781,182.8125 604.0469,183 603.9375,183.1563 C603.7656,183.375 603.5,183.5156 603.2344,183.5156 C603.0156,183.5156 602.7813,183.4063 602.6406,183.2656 C602.5,183.1406 602.4688,183.0156 602.4063,182.6094 C602.3125,182.2031 602.1406,181.9844 601.6563,181.7031 C601.1875,181.4531 600.5781,181.2969 600,181.2969 C598.2656,181.2969 597.0156,182.6094 597.0156,184.3906 L597.0156,185.4844 C597.0156,187.1875 598.3125,188.2813 600.3594,188.2813 C601.125,188.2813 601.8125,188.1563 602.2344,187.8906 C602.4219,187.7969 602.4219,187.7969 602.875,187.3125 C603.0625,187.125 603.2656,187.0469 603.4844,187.0469 C603.9531,187.0469 604.3438,187.4375 604.3438,187.8906 C604.3438,188.2813 604.0156,188.7344 603.4375,189.1406 C602.6875,189.6875 601.5313,189.9844 600.3125,189.9844 C597.4219,189.9844 595.3125,188.0938 595.3125,185.5156 L595.3125,184.3906 C595.3125,181.6719 597.3125,179.5938 599.9375,179.5938 C600.8125,179.5938 601.4063,179.7344 602.3438,180.1719 Z "/><text fill="#000000" font-family="sans-serif" font-size="12" lengthAdjust="spacingAndGlyphs" textLength="39" x="614" y="188.6543">Quack</text><line style="stroke: #A80036; stroke-width: 1.5;" x1="586" x2="655" y1="200.5" y2="200.5"/><line style="stroke: #A80036; stroke-width: 1.5;" x1="586" x2="655" y1="208.5" y2="208.5"/><text fill="#000000" font-family="sans-serif" font-size="11" lengthAdjust="spacingAndGlyphs" textLength="41" x="591" y="222.7104">quack()</text><!--class Squeack--><rect fill="#FEFECE" filter="url(#fd4csnr3nd79i)" height="60.8047" id="Squeack" style="stroke: #A80036; stroke-width: 1.5;" width="86" x="691.25" y="168.5"/><ellipse cx="706.25" cy="184.5" fill="#ADD1B2" rx="11" ry="11" style="stroke: #A80036; stroke-width: 1.0;"/><path d="M708.5938,180.1719 L708.7656,180.25 C708.9844,179.9375 709.1875,179.8438 709.4844,179.8438 C709.7813,179.8438 710.0625,179.9844 710.2188,180.25 C710.3125,180.4063 710.3281,180.5313 710.3281,180.9688 L710.3281,182.3906 C710.3281,182.8125 710.2969,183 710.1875,183.1563 C710.0156,183.375 709.75,183.5156 709.4844,183.5156 C709.2656,183.5156 709.0313,183.4063 708.8906,183.2656 C708.75,183.1406 708.7188,183.0156 708.6563,182.6094 C708.5625,182.2031 708.3906,181.9844 707.9063,181.7031 C707.4375,181.4531 706.8281,181.2969 706.25,181.2969 C704.5156,181.2969 703.2656,182.6094 703.2656,184.3906 L703.2656,185.4844 C703.2656,187.1875 704.5625,188.2813 706.6094,188.2813 C707.375,188.2813 708.0625,188.1563 708.4844,187.8906 C708.6719,187.7969 708.6719,187.7969 709.125,187.3125 C709.3125,187.125 709.5156,187.0469 709.7344,187.0469 C710.2031,187.0469 710.5938,187.4375 710.5938,187.8906 C710.5938,188.2813 710.2656,188.7344 709.6875,189.1406 C708.9375,189.6875 707.7813,189.9844 706.5625,189.9844 C703.6719,189.9844 701.5625,188.0938 701.5625,185.5156 L701.5625,184.3906 C701.5625,181.6719 703.5625,179.5938 706.1875,179.5938 C707.0625,179.5938 707.6563,179.7344 708.5938,180.1719 Z "/><text fill="#000000" font-family="sans-serif" font-size="12" lengthAdjust="spacingAndGlyphs" textLength="54" x="720.25" y="188.6543">Squeack</text><line style="stroke: #A80036; stroke-width: 1.5;" x1="692.25" x2="776.25" y1="200.5" y2="200.5"/><line style="stroke: #A80036; stroke-width: 1.5;" x1="692.25" x2="776.25" y1="208.5" y2="208.5"/><text fill="#000000" font-family="sans-serif" font-size="11" lengthAdjust="spacingAndGlyphs" textLength="41" x="697.25" y="222.7104">quack()</text><!--class QuackNot--><rect fill="#FEFECE" filter="url(#fd4csnr3nd79i)" height="60.8047" id="QuackNot" style="stroke: #A80036; stroke-width: 1.5;" width="93" x="813" y="168.5"/><ellipse cx="828" cy="184.5" fill="#ADD1B2" rx="11" ry="11" style="stroke: #A80036; stroke-width: 1.0;"/><path d="M830.3438,180.1719 L830.5156,180.25 C830.7344,179.9375 830.9375,179.8438 831.2344,179.8438 C831.5313,179.8438 831.8125,179.9844 831.9688,180.25 C832.0625,180.4063 832.0781,180.5313 832.0781,180.9688 L832.0781,182.3906 C832.0781,182.8125 832.0469,183 831.9375,183.1563 C831.7656,183.375 831.5,183.5156 831.2344,183.5156 C831.0156,183.5156 830.7813,183.4063 830.6406,183.2656 C830.5,183.1406 830.4688,183.0156 830.4063,182.6094 C830.3125,182.2031 830.1406,181.9844 829.6563,181.7031 C829.1875,181.4531 828.5781,181.2969 828,181.2969 C826.2656,181.2969 825.0156,182.6094 825.0156,184.3906 L825.0156,185.4844 C825.0156,187.1875 826.3125,188.2813 828.3594,188.2813 C829.125,188.2813 829.8125,188.1563 830.2344,187.8906 C830.4219,187.7969 830.4219,187.7969 830.875,187.3125 C831.0625,187.125 831.2656,187.0469 831.4844,187.0469 C831.9531,187.0469 832.3438,187.4375 832.3438,187.8906 C832.3438,188.2813 832.0156,188.7344 831.4375,189.1406 C830.6875,189.6875 829.5313,189.9844 828.3125,189.9844 C825.4219,189.9844 823.3125,188.0938 823.3125,185.5156 L823.3125,184.3906 C823.3125,181.6719 825.3125,179.5938 827.9375,179.5938 C828.8125,179.5938 829.4063,179.7344 830.3438,180.1719 Z "/><text fill="#000000" font-family="sans-serif" font-size="12" lengthAdjust="spacingAndGlyphs" textLength="61" x="842" y="188.6543">QuackNot</text><line style="stroke: #A80036; stroke-width: 1.5;" x1="814" x2="905" y1="200.5" y2="200.5"/><line style="stroke: #A80036; stroke-width: 1.5;" x1="814" x2="905" y1="208.5" y2="208.5"/><text fill="#000000" font-family="sans-serif" font-size="11" lengthAdjust="spacingAndGlyphs" textLength="41" x="819" y="222.7104">quack()</text><!--class DuckCall--><rect fill="#FEFECE" filter="url(#fd4csnr3nd79i)" height="73.6094" id="DuckCall" style="stroke: #A80036; stroke-width: 1.5;" width="192" x="863.25" y="328"/><ellipse cx="928.5" cy="344" fill="#ADD1B2" rx="11" ry="11" style="stroke: #A80036; stroke-width: 1.0;"/><path d="M930.8438,339.6719 L931.0156,339.75 C931.2344,339.4375 931.4375,339.3438 931.7344,339.3438 C932.0313,339.3438 932.3125,339.4844 932.4688,339.75 C932.5625,339.9063 932.5781,340.0313 932.5781,340.4688 L932.5781,341.8906 C932.5781,342.3125 932.5469,342.5 932.4375,342.6563 C932.2656,342.875 932,343.0156 931.7344,343.0156 C931.5156,343.0156 931.2813,342.9063 931.1406,342.7656 C931,342.6406 930.9688,342.5156 930.9063,342.1094 C930.8125,341.7031 930.6406,341.4844 930.1563,341.2031 C929.6875,340.9531 929.0781,340.7969 928.5,340.7969 C926.7656,340.7969 925.5156,342.1094 925.5156,343.8906 L925.5156,344.9844 C925.5156,346.6875 926.8125,347.7813 928.8594,347.7813 C929.625,347.7813 930.3125,347.6563 930.7344,347.3906 C930.9219,347.2969 930.9219,347.2969 931.375,346.8125 C931.5625,346.625 931.7656,346.5469 931.9844,346.5469 C932.4531,346.5469 932.8438,346.9375 932.8438,347.3906 C932.8438,347.7813 932.5156,348.2344 931.9375,348.6406 C931.1875,349.1875 930.0313,349.4844 928.8125,349.4844 C925.9219,349.4844 923.8125,347.5938 923.8125,345.0156 L923.8125,343.8906 C923.8125,341.1719 925.8125,339.0938 928.4375,339.0938 C929.3125,339.0938 929.9063,339.2344 930.8438,339.6719 Z "/><text fill="#000000" font-family="sans-serif" font-size="12" lengthAdjust="spacingAndGlyphs" textLength="53" x="949" y="348.1543">DuckCall</text><line style="stroke: #A80036; stroke-width: 1.5;" x1="864.25" x2="1054.25" y1="360" y2="360"/><text fill="#000000" font-family="sans-serif" font-size="11" lengthAdjust="spacingAndGlyphs" textLength="180" x="869.25" y="374.2104">quackBehavior : QuackBehavior</text><line style="stroke: #A80036; stroke-width: 1.5;" x1="864.25" x2="1054.25" y1="380.8047" y2="380.8047"/><text fill="#000000" font-family="sans-serif" font-size="11" lengthAdjust="spacingAndGlyphs" textLength="89" x="869.25" y="395.0151">performQuack()</text><!--link Duck to MallardDuck--><path d="M348.788,280.431 C323.693,299.753 298.448,319.1905 278.627,334.4514 " fill="none" id="Duck-MallardDuck" style="stroke: #A80036; stroke-width: 1.0;"/><polygon fill="none" points="344.652,274.781,364.769,268.126,353.193,285.874,344.652,274.781" style="stroke: #A80036; stroke-width: 1.0;"/><!--link Duck to RubberDuck--><path d="M416.254,286.677 C408.943,303.805 401.749,320.6601 395.952,334.2399 " fill="none" id="Duck-RubberDuck" style="stroke: #A80036; stroke-width: 1.0;"/><polygon fill="none" points="409.882,283.773,424.172,268.126,422.759,289.268,409.882,283.773" style="stroke: #A80036; stroke-width: 1.0;"/><!--link Duck to DecoyDuck--><path d="M490.246,286.677 C497.557,303.805 504.751,320.6601 510.548,334.2399 " fill="none" id="Duck-DecoyDuck" style="stroke: #A80036; stroke-width: 1.0;"/><polygon fill="none" points="483.741,289.268,482.328,268.126,496.618,283.773,483.741,289.268" style="stroke: #A80036; stroke-width: 1.0;"/><!--link Duck to ModelDuck--><path d="M554.624,280.705 C578.78,299.937 603.056,319.2628 622.134,334.4514 " fill="none" id="Duck-ModelDuck" style="stroke: #A80036; stroke-width: 1.0;"/><polygon fill="none" points="550.11,286.059,538.823,268.126,558.83,275.106,550.11,286.059" style="stroke: #A80036; stroke-width: 1.0;"/><!--link FlyBehavior to WingsFly--><path d="M168.454,81.407 C148.564,95.937 126.823,112.916 108.25,130 C95.5037,141.725 82.6334,155.928 72.099,168.316 " fill="none" id="FlyBehavior-WingsFly" style="stroke: #A80036; stroke-width: 1.0; stroke-dasharray: 7.0,7.0;"/><polygon fill="none" points="164.636,75.532,184.972,69.579,172.787,86.914,164.636,75.532" style="stroke: #A80036; stroke-width: 1.0;"/><!--link FlyBehavior to RocketFly--><path d="M211.331,88.814 C201.771,114.857 190.32,146.05 182.11,168.415 " fill="none" id="FlyBehavior-RocketFly" style="stroke: #A80036; stroke-width: 1.0; stroke-dasharray: 7.0,7.0;"/><polygon fill="none" points="204.877,86.081,218.341,69.719,218.02,90.906,204.877,86.081" style="stroke: #A80036; stroke-width: 1.0;"/><!--link FlyBehavior to FlyNot--><path d="M247.169,88.814 C256.729,114.857 268.18,146.05 276.39,168.415 " fill="none" id="FlyBehavior-FlyNot" style="stroke: #A80036; stroke-width: 1.0; stroke-dasharray: 7.0,7.0;"/><polygon fill="none" points="240.48,90.906,240.159,69.719,253.623,86.081,240.48,90.906" style="stroke: #A80036; stroke-width: 1.0;"/><!--link QuackBehavior to Quack--><path d="M700.96,86.139 C681.799,112.695 658.289,145.279 641.596,168.415 " fill="none" id="QuackBehavior-Quack" style="stroke: #A80036; stroke-width: 1.0; stroke-dasharray: 7.0,7.0;"/><polygon fill="none" points="695.428,81.842,712.807,69.719,706.782,90.033,695.428,81.842" style="stroke: #A80036; stroke-width: 1.0;"/><!--link QuackBehavior to Squeack--><path d="M734.25,89.972 C734.25,115.777 734.25,146.38 734.25,168.415 " fill="none" id="QuackBehavior-Squeack" style="stroke: #A80036; stroke-width: 1.0; stroke-dasharray: 7.0,7.0;"/><polygon fill="none" points="727.25,89.719,734.25,69.719,741.25,89.719,727.25,89.719" style="stroke: #A80036; stroke-width: 1.0;"/><!--link QuackBehavior to QuackNot--><path d="M770.453,85.76 C791.516,112.384 817.453,145.169 835.844,168.415 " fill="none" id="QuackBehavior-QuackNot" style="stroke: #A80036; stroke-width: 1.0; stroke-dasharray: 7.0,7.0;"/><polygon fill="none" points="764.681,89.747,757.762,69.719,775.66,81.06,764.681,89.747" style="stroke: #A80036; stroke-width: 1.0;"/><!--link QuackBehavior to Duck--><path d="M677.868,69.601 C645.341,86.873 603.774,109.278 567.25,130 C561.437,133.298 555.479,136.721 549.482,140.199 " fill="none" id="QuackBehavior-Duck" style="stroke: #A80036; stroke-width: 1.0;"/><!--link FlyBehavior to Duck--><path d="M271.12,69.533 C295.433,86.682 327.123,109.035 357.238,130.278 " fill="none" id="FlyBehavior-Duck" style="stroke: #A80036; stroke-width: 1.0;"/><!--link QuackBehavior to DuckCall--><path d="M796.42,53.671 C838.586,66.274 891.973,89.383 922.25,130 C965.882,188.532 966.796,278.392 963.254,327.997 " fill="none" id="QuackBehavior-DuckCall" style="stroke: #A80036; stroke-width: 1.0;"/><!--
@startuml
Abstract Duck{
  flyBehavior : FlyBehavior
  quackBehavior : QuackBehavior
  display()
  performFly()
  performQuack()
  setFlyBehavior()
  setQuackBehavior()
  
}

Class MallardDuck{
  display()
}

Class RubberDuck{
  display()
}

Class DecoyDuck{
  display()
}

Class ModelDuck{
  display()
}

Interface FlyBehavior{
  fly()
}

Class WingsFly{
  fly()
}

Class RocketFly{
  fly()
}

Class FlyNot{
  fly()
}

Interface QuackBehavior{
  quack()
}

Class Quack{
  quack()
}

Class Squeack{
  quack()
}

Class QuackNot{
  quack()
}


Class DuckCall{
  quackBehavior : QuackBehavior
  performQuack()
}


Duck <|- - MallardDuck
Duck <|- - RubberDuck
Duck <|- - DecoyDuck
Duck <|- - ModelDuck

FlyBehavior <|.. WingsFly
FlyBehavior <|.. RocketFly
FlyBehavior <|.. FlyNot

QuackBehavior <|.. Quack
QuackBehavior <|.. Squeack
QuackBehavior <|.. QuackNot

QuackBehavior - - Duck
FlyBehavior - - Duck

QuackBehavior - - - DuckCall
@enduml

PlantUML version 1.2018.02beta13(Unknown compile time)
(GPL source distribution)
Java Runtime: Java(TM) SE Runtime Environment
JVM: Java HotSpot(TM) 64-Bit Server VM
Java Version: 1.7.0_25-b15
Operating System: Linux
Default Encoding: UTF-8
Language: en
Country: US
--></g></svg>