<?xml version="1.0" encoding="UTF-8" standalone="no"?><svg xmlns="http://www.w3.org/2000/svg" xmlns:xlink="http://www.w3.org/1999/xlink" contentScriptType="application/ecmascript" contentStyleType="text/css" height="411px" preserveAspectRatio="none" style="width:1066px;height:411px;" version="1.1" viewBox="0 0 1066 411" width="1066px" zoomAndPan="magnify"><defs><filter height="300%" id="fvsh6oygv892y" width="300%" x="-1" y="-1"><feGaussianBlur result="blurOut" stdDeviation="2.0"/><feColorMatrix in="blurOut" result="blurOut2" type="matrix" values="0 0 0 0 0 0 0 0 0 0 0 0 0 0 0 0 0 0 .4 0"/><feOffset dx="4.0" dy="4.0" in="blurOut2" result="blurOut3"/><feBlend in="SourceGraphic" in2="blurOut3" mode="normal"/></filter></defs><g><!--class Duck--><rect fill="#FEFECE" filter="url(#fvsh6oygv892y)" height="137.6328" id="Duck" style="stroke: #A80036; stroke-width: 1.5;" width="192" x="357.5" y="129"/><ellipse cx="433.75" cy="145" fill="#A9DCDF" rx="11" ry="11" style="stroke: #A80036; stroke-width: 1.0;"/><path d="M435.3281,146.8125 L431.2813,146.8125 L430.8906,147.7969 L431.2813,147.7969 C431.7344,147.7969 431.875,147.8281 432.0469,147.9531 C432.2656,148.125 432.3906,148.375 432.3906,148.6563 C432.3906,148.9375 432.25,149.2344 431.9844,149.375 C431.8594,149.4688 431.6406,149.5 431.2813,149.5 L429.0156,149.5 C428.2656,149.5 427.8906,149.2188 427.8906,148.6563 C427.8906,148.3594 428.0469,148.0781 428.2969,147.9219 C428.4531,147.8125 428.6094,147.7969 429.0313,147.7969 L431.6719,141.2813 L430.5938,141.2813 C430.1563,141.2813 429.9844,141.25 429.8125,141.1406 C429.5938,140.9688 429.4531,140.7188 429.4531,140.4375 C429.4531,140.1563 429.6094,139.875 429.8594,139.7031 C430.0156,139.6094 430.1406,139.5938 430.5938,139.5938 L434.2656,139.5938 L437.6563,147.7969 C438.125,147.7969 438.2813,147.8281 438.4531,147.9688 C438.6719,148.125 438.8125,148.375 438.8125,148.6563 C438.8125,148.9375 438.6563,149.2344 438.4063,149.375 C438.2656,149.4688 438.0469,149.5 437.6875,149.5 L435.3281,149.5 C434.9063,149.5 434.7031,149.4531 434.5625,149.3281 C434.3438,149.1719 434.2031,148.9219 434.2031,148.6563 C434.2031,148.3594 434.3594,148.0781 434.6094,147.9219 C434.7656,147.8125 434.875,147.7969 435.3281,147.7969 L435.7188,147.7969 Z M434.625,145.1094 L433.2969,141.8438 L431.9531,145.1094 Z "/><text fill="#000000" font-family="sans-serif" font-size="12" font-style="italic" lengthAdjust="spacingAndGlyphs" textLength="31" x="454.25" y="149.1543">Duck</text><line style="stroke: #A80036; stroke-width: 1.5;" x1="358.5" x2="548.5" y1="161" y2="161"/><text fill="#000000" font-family="sans-serif" font-size="11" lengthAdjust="spacingAndGlyphs" textLength="140" x="363.5" y="175.2104">flyBehavior : FlyBehavior</text><text fill="#000000" font-family="sans-serif" font-size="11" lengthAdjust="spacingAndGlyphs" textLength="180" x="363.5" y="188.0151">quackBehavior : QuackBehavior</text><line style="stroke: #A80036; stroke-width: 1.5;" x1="358.5" x2="548.5" y1="194.6094" y2="194.6094"/><text fill="#000000" font-family="sans-serif" font-size="11" lengthAdjust="spacingAndGlyphs" textLength="48" x="363.5" y="208.8198">display()</text><text fill="#000000" font-family="sans-serif" font-size="11" lengthAdjust="spacingAndGlyphs" textLength="69" x="363.5" y="221.6245">performFly()</text><text fill="#000000" font-family="sans-serif" font-size="11" lengthAdjust="spacingAndGlyphs" textLength="89" x="363.5" y="234.4292">performQuack()</text><text fill="#000000" font-family="sans-serif" font-size="11" lengthAdjust="spacingAndGlyphs" textLength="91" x="363.5" y="247.2339">setFlyBehavior()</text><text fill="#000000" font-family="sans-serif" font-size="11" lengthAdjust="spacingAndGlyphs" textLength="111" x="363.5" y="260.0386">setQuackBehavior()</text><!--class MallardDuck--><rect fill="#FEFECE" filter="url(#fvsh6oygv892y)" height="60.8047" id="MallardDuck" style="stroke: #A80036; stroke-width: 1.5;" width="108" x="186.5" y="333.5"/><ellipse cx="201.5" cy="349.5" fill="#ADD1B2" rx="11" ry="11" style="stroke: #A80036; stroke-width: 1.0;"/><path d="M203.8438,345.1719 L204.0156,345.25 C204.2344,344.9375 204.4375,344.8438 204.7344,344.8438 C205.0313,344.8438 205.3125,344.9844 205.4688,345.25 C205.5625,345.4063 205.5781,345.5313 205.5781,345.9688 L205.5781,347.3906 C205.5781,347.8125 205.5469,348 205.4375,348.1563 C205.2656,348.375 205,348.5156 204.7344,348.5156 C204.5156,348.5156 204.2813,348.4063 204.1406,348.2656 C204,348.1406 203.9688,348.0156 203.9063,347.6094 C203.8125,347.2031 203.6406,346.9844 203.1563,346.7031 C202.6875,346.4531 202.0781,346.2969 201.5,346.2969 C199.7656,346.2969 198.5156,347.6094 198.5156,349.3906 L198.5156,350.4844 C198.5156,352.1875 199.8125,353.2813 201.8594,353.2813 C202.625,353.2813 203.3125,353.1563 203.7344,352.8906 C203.9219,352.7969 203.9219,352.7969 204.375,352.3125 C204.5625,352.125 204.7656,352.0469 204.9844,352.0469 C205.4531,352.0469 205.8438,352.4375 205.8438,352.8906 C205.8438,353.2813 205.5156,353.7344 204.9375,354.1406 C204.1875,354.6875 203.0313,354.9844 201.8125,354.9844 C198.9219,354.9844 196.8125,353.0938 196.8125,350.5156 L196.8125,349.3906 C196.8125,346.6719 198.8125,344.5938 201.4375,344.5938 C202.3125,344.5938 202.9063,344.7344 203.8438,345.1719 Z "/><text fill="#000000" font-family="sans-serif" font-size="12" lengthAdjust="spacingAndGlyphs" textLength="76" x="215.5" y="353.6543">MallardDuck</text><line style="stroke: #A80036; stroke-width: 1.5;" x1="187.5" x2="293.5" y1="365.5" y2="365.5"/><line style="stroke: #A80036; stroke-width: 1.5;" x1="187.5" x2="293.5" y1="373.5" y2="373.5"/><text fill="#000000" font-family="sans-serif" font-size="11" lengthAdjust="spacingAndGlyphs" textLength="48" x="192.5" y="387.7104">display()</text><!--class RubberDuck--><rect fill="#FEFECE" filter="url(#fvsh6oygv892y)" height="60.8047" id="RubberDuck" style="stroke: #A80036; stroke-width: 1.5;" width="108" x="329.5" y="333.5"/><ellipse cx="344.5" cy="349.5" fill="#ADD1B2" rx="11" ry="11" style="stroke: #A80036; stroke-width: 1.0;"/><path d="M346.8438,345.1719 L347.0156,345.25 C347.2344,344.9375 347.4375,344.8438 347.7344,344.8438 C348.0313,344.8438 348.3125,344.9844 348.4688,345.25 C348.5625,345.4063 348.5781,345.5313 348.5781,345.9688 L348.5781,347.3906 C348.5781,347.8125 348.5469,348 348.4375,348.1563 C348.2656,348.375 348,348.5156 347.7344,348.5156 C347.5156,348.5156 347.2813,348.4063 347.1406,348.2656 C347,348.1406 346.9688,348.0156 346.9063,347.6094 C346.8125,347.2031 346.6406,346.9844 346.1563,346.7031 C345.6875,346.4531 345.0781,346.2969 344.5,346.2969 C342.7656,346.2969 341.5156,347.6094 341.5156,349.3906 L341.5156,350.4844 C341.5156,352.1875 342.8125,353.2813 344.8594,353.2813 C345.625,353.2813 346.3125,353.1563 346.7344,352.8906 C346.9219,352.7969 346.9219,352.7969 347.375,352.3125 C347.5625,352.125 347.7656,352.0469 347.9844,352.0469 C348.4531,352.0469 348.8438,352.4375 348.8438,352.8906 C348.8438,353.2813 348.5156,353.7344 347.9375,354.1406 C347.1875,354.6875 346.0313,354.9844 344.8125,354.9844 C341.9219,354.9844 339.8125,353.0938 339.8125,350.5156 L339.8125,349.3906 C339.8125,346.6719 341.8125,344.5938 344.4375,344.5938 C345.3125,344.5938 345.9063,344.7344 346.8438,345.1719 Z "/><text fill="#000000" font-family="sans-serif" font-size="12" lengthAdjust="spacingAndGlyphs" textLength="76" x="358.5" y="353.6543">RubberDuck</text><line style="stroke: #A80036; stroke-width: 1.5;" x1="330.5" x2="436.5" y1="365.5" y2="365.5"/><line style="stroke: #A80036; stroke-width: 1.5;" x1="330.5" x2="436.5" y1="373.5" y2="373.5"/><text fill="#000000" font-family="sans-serif" font-size="11" lengthAdjust="spacingAndGlyphs" textLength="48" x="335.5" y="387.7104">display()</text><!--class DecoyDuck--><rect fill="#FEFECE" filter="url(#fvsh6oygv892y)" height="60.8047" id="DecoyDuck" style="stroke: #A80036; stroke-width: 1.5;" width="101" x="473" y="333.5"/><ellipse cx="488" cy="349.5" fill="#ADD1B2" rx="11" ry="11" style="stroke: #A80036; stroke-width: 1.0;"/><path d="M490.3438,345.1719 L490.5156,345.25 C490.7344,344.9375 490.9375,344.8438 491.2344,344.8438 C491.5313,344.8438 491.8125,344.9844 491.9688,345.25 C492.0625,345.4063 492.0781,345.5313 492.0781,345.9688 L492.0781,347.3906 C492.0781,347.8125 492.0469,348 491.9375,348.1563 C491.7656,348.375 491.5,348.5156 491.2344,348.5156 C491.0156,348.5156 490.7813,348.4063 490.6406,348.2656 C490.5,348.1406 490.4688,348.0156 490.4063,347.6094 C490.3125,347.2031 490.1406,346.9844 489.6563,346.7031 C489.1875,346.4531 488.5781,346.2969 488,346.2969 C486.2656,346.2969 485.0156,347.6094 485.0156,349.3906 L485.0156,350.4844 C485.0156,352.1875 486.3125,353.2813 488.3594,353.2813 C489.125,353.2813 489.8125,353.1563 490.2344,352.8906 C490.4219,352.7969 490.4219,352.7969 490.875,352.3125 C491.0625,352.125 491.2656,352.0469 491.4844,352.0469 C491.9531,352.0469 492.3438,352.4375 492.3438,352.8906 C492.3438,353.2813 492.0156,353.7344 491.4375,354.1406 C490.6875,354.6875 489.5313,354.9844 488.3125,354.9844 C485.4219,354.9844 483.3125,353.0938 483.3125,350.5156 L483.3125,349.3906 C483.3125,346.6719 485.3125,344.5938 487.9375,344.5938 C488.8125,344.5938 489.4063,344.7344 490.3438,345.1719 Z "/><text fill="#000000" font-family="sans-serif" font-size="12" lengthAdjust="spacingAndGlyphs" textLength="69" x="502" y="353.6543">DecoyDuck</text><line style="stroke: #A80036; stroke-width: 1.5;" x1="474" x2="573" y1="365.5" y2="365.5"/><line style="stroke: #A80036; stroke-width: 1.5;" x1="474" x2="573" y1="373.5" y2="373.5"/><text fill="#000000" font-family="sans-serif" font-size="11" lengthAdjust="spacingAndGlyphs" textLength="48" x="479" y="387.7104">display()</text><!--class ModelDuck--><rect fill="#FEFECE" filter="url(#fvsh6oygv892y)" height="60.8047" id="ModelDuck" style="stroke: #A80036; stroke-width: 1.5;" width="100" x="609.5" y="333.5"/><ellipse cx="624.5" cy="349.5" fill="#ADD1B2" rx="11" ry="11" style="stroke: #A80036; stroke-width: 1.0;"/><path d="M626.8438,345.1719 L627.0156,345.25 C627.2344,344.9375 627.4375,344.8438 627.7344,344.8438 C628.0313,344.8438 628.3125,344.9844 628.4688,345.25 C628.5625,345.4063 628.5781,345.5313 628.5781,345.9688 L628.5781,347.3906 C628.5781,347.8125 628.5469,348 628.4375,348.1563 C628.2656,348.375 628,348.5156 627.7344,348.5156 C627.5156,348.5156 627.2813,348.4063 627.1406,348.2656 C627,348.1406 626.9688,348.0156 626.9063,347.6094 C626.8125,347.2031 626.6406,346.9844 626.1563,346.7031 C625.6875,346.4531 625.0781,346.2969 624.5,346.2969 C622.7656,346.2969 621.5156,347.6094 621.5156,349.3906 L621.5156,350.4844 C621.5156,352.1875 622.8125,353.2813 624.8594,353.2813 C625.625,353.2813 626.3125,353.1563 626.7344,352.8906 C626.9219,352.7969 626.9219,352.7969 627.375,352.3125 C627.5625,352.125 627.7656,352.0469 627.9844,352.0469 C628.4531,352.0469 628.8438,352.4375 628.8438,352.8906 C628.8438,353.2813 628.5156,353.7344 627.9375,354.1406 C627.1875,354.6875 626.0313,354.9844 624.8125,354.9844 C621.9219,354.9844 619.8125,353.0938 619.8125,350.5156 L619.8125,349.3906 C619.8125,346.6719 621.8125,344.5938 624.4375,344.5938 C625.3125,344.5938 625.9063,344.7344 626.8438,345.1719 Z "/><text fill="#000000" font-family="sans-serif" font-size="12" lengthAdjust="spacingAndGlyphs" textLength="68" x="638.5" y="353.6543">ModelDuck</text><line style="stroke: #A80036; stroke-width: 1.5;" x1="610.5" x2="708.5" y1="365.5" y2="365.5"/><line style="stroke: #A80036; stroke-width: 1.5;" x1="610.5" x2="708.5" y1="373.5" y2="373.5"/><text fill="#000000" font-family="sans-serif" font-size="11" lengthAdjust="spacingAndGlyphs" textLength="48" x="615.5" y="387.7104">display()</text><!--class FlyBehavior--><rect fill="#FEFECE" filter="url(#fvsh6oygv892y)" height="60.8047" id="FlyBehavior" style="stroke: #A80036; stroke-width: 1.5;" width="103" x="178" y="8"/><ellipse cx="193" cy="24" fill="#B4A7E5" rx="11" ry="11" style="stroke: #A80036; stroke-width: 1.0;"/><path d="M193.9531,20.7813 L193.9531,27.2969 L195.6719,27.2969 C196.125,27.2969 196.2656,27.3281 196.4375,27.4531 C196.6719,27.625 196.7813,27.875 196.7813,28.1563 C196.7813,28.7188 196.4219,29 195.6719,29 L190.5313,29 C190.125,29 189.9219,28.9531 189.7656,28.8281 C189.5469,28.6719 189.4063,28.4063 189.4063,28.1563 C189.4063,27.8594 189.5625,27.5781 189.8125,27.4219 C189.9688,27.3125 190.0938,27.2969 190.5313,27.2969 L192.25,27.2969 L192.25,20.7813 L190.5313,20.7813 C190.1094,20.7813 189.9219,20.75 189.7656,20.6406 C189.5469,20.4688 189.4063,20.2188 189.4063,19.9375 C189.4063,19.6563 189.5625,19.3594 189.8125,19.2031 C189.9688,19.1094 190.0938,19.0938 190.5313,19.0938 L195.6719,19.0938 C196.125,19.0938 196.2656,19.125 196.4375,19.2344 C196.6719,19.4063 196.7813,19.6719 196.7813,19.9375 C196.7813,20.2344 196.6406,20.5156 196.375,20.6719 C196.25,20.75 196.0625,20.7813 195.6719,20.7813 Z "/><text fill="#000000" font-family="sans-serif" font-size="12" font-style="italic" lengthAdjust="spacingAndGlyphs" textLength="71" x="207" y="28.1543">FlyBehavior</text><line style="stroke: #A80036; stroke-width: 1.5;" x1="179" x2="280" y1="40" y2="40"/><line style="stroke: #A80036; stroke-width: 1.5;" x1="179" x2="280" y1="48" y2="48"/><text fill="#000000" font-family="sans-serif" font-size="11" lengthAdjust="spacingAndGlyphs" textLength="21" x="184" y="62.2104">fly()</text><!--class WingsFly--><rect fill="#FEFECE" filter="url(#fvsh6oygv892y)" height="60.8047" id="WingsFly" style="stroke: #A80036; stroke-width: 1.5;" width="85" x="6" y="167.5"/><ellipse cx="21" cy="183.5" fill="#ADD1B2" rx="11" ry="11" style="stroke: #A80036; stroke-width: 1.0;"/><path d="M23.3438,179.1719 L23.5156,179.25 C23.7344,178.9375 23.9375,178.8438 24.2344,178.8438 C24.5313,178.8438 24.8125,178.9844 24.9688,179.25 C25.0625,179.4063 25.0781,179.5313 25.0781,179.9688 L25.0781,181.3906 C25.0781,181.8125 25.0469,182 24.9375,182.1563 C24.7656,182.375 24.5,182.5156 24.2344,182.5156 C24.0156,182.5156 23.7813,182.4063 23.6406,182.2656 C23.5,182.1406 23.4688,182.0156 23.4063,181.6094 C23.3125,181.2031 23.1406,180.9844 22.6563,180.7031 C22.1875,180.4531 21.5781,180.2969 21,180.2969 C19.2656,180.2969 18.0156,181.6094 18.0156,183.3906 L18.0156,184.4844 C18.0156,186.1875 19.3125,187.2813 21.3594,187.2813 C22.125,187.2813 22.8125,187.1563 23.2344,186.8906 C23.4219,186.7969 23.4219,186.7969 23.875,186.3125 C24.0625,186.125 24.2656,186.0469 24.4844,186.0469 C24.9531,186.0469 25.3438,186.4375 25.3438,186.8906 C25.3438,187.2813 25.0156,187.7344 24.4375,188.1406 C23.6875,188.6875 22.5313,188.9844 21.3125,188.9844 C18.4219,188.9844 16.3125,187.0938 16.3125,184.5156 L16.3125,183.3906 C16.3125,180.6719 18.3125,178.5938 20.9375,178.5938 C21.8125,178.5938 22.4063,178.7344 23.3438,179.1719 Z "/><text fill="#000000" font-family="sans-serif" font-size="12" lengthAdjust="spacingAndGlyphs" textLength="53" x="35" y="187.6543">WingsFly</text><line style="stroke: #A80036; stroke-width: 1.5;" x1="7" x2="90" y1="199.5" y2="199.5"/><line style="stroke: #A80036; stroke-width: 1.5;" x1="7" x2="90" y1="207.5" y2="207.5"/><text fill="#000000" font-family="sans-serif" font-size="11" lengthAdjust="spacingAndGlyphs" textLength="21" x="12" y="221.7104">fly()</text><!--class RocketFly--><rect fill="#FEFECE" filter="url(#fvsh6oygv892y)" height="60.8047" id="RocketFly" style="stroke: #A80036; stroke-width: 1.5;" width="91" x="126" y="167.5"/><ellipse cx="141" cy="183.5" fill="#ADD1B2" rx="11" ry="11" style="stroke: #A80036; stroke-width: 1.0;"/><path d="M143.3438,179.1719 L143.5156,179.25 C143.7344,178.9375 143.9375,178.8438 144.2344,178.8438 C144.5313,178.8438 144.8125,178.9844 144.9688,179.25 C145.0625,179.4063 145.0781,179.5313 145.0781,179.9688 L145.0781,181.3906 C145.0781,181.8125 145.0469,182 144.9375,182.1563 C144.7656,182.375 144.5,182.5156 144.2344,182.5156 C144.0156,182.5156 143.7813,182.4063 143.6406,182.2656 C143.5,182.1406 143.4688,182.0156 143.4063,181.6094 C143.3125,181.2031 143.1406,180.9844 142.6563,180.7031 C142.1875,180.4531 141.5781,180.2969 141,180.2969 C139.2656,180.2969 138.0156,181.6094 138.0156,183.3906 L138.0156,184.4844 C138.0156,186.1875 139.3125,187.2813 141.3594,187.2813 C142.125,187.2813 142.8125,187.1563 143.2344,186.8906 C143.4219,186.7969 143.4219,186.7969 143.875,186.3125 C144.0625,186.125 144.2656,186.0469 144.4844,186.0469 C144.9531,186.0469 145.3438,186.4375 145.3438,186.8906 C145.3438,187.2813 145.0156,187.7344 144.4375,188.1406 C143.6875,188.6875 142.5313,188.9844 141.3125,188.9844 C138.4219,188.9844 136.3125,187.0938 136.3125,184.5156 L136.3125,183.3906 C136.3125,180.6719 138.3125,178.5938 140.9375,178.5938 C141.8125,178.5938 142.4063,178.7344 143.3438,179.1719 Z "/><text fill="#000000" font-family="sans-serif" font-size="12" lengthAdjust="spacingAndGlyphs" textLength="59" x="155" y="187.6543">RocketFly</text><line style="stroke: #A80036; stroke-width: 1.5;" x1="127" x2="216" y1="199.5" y2="199.5"/><line style="stroke: #A80036; stroke-width: 1.5;" x1="127" x2="216" y1="207.5" y2="207.5"/><text fill="#000000" font-family="sans-serif" font-size="11" lengthAdjust="spacingAndGlyphs" textLength="21" x="132" y="221.7104">fly()</text><!--class FlyNot--><rect fill="#FEFECE" filter="url(#fvsh6oygv892y)" height="60.8047" id="FlyNot" style="stroke: #A80036; stroke-width: 1.5;" width="70" x="252.5" y="167.5"/><ellipse cx="267.5" cy="183.5" fill="#ADD1B2" rx="11" ry="11" style="stroke: #A80036; stroke-width: 1.0;"/><path d="M269.8438,179.1719 L270.0156,179.25 C270.2344,178.9375 270.4375,178.8438 270.7344,178.8438 C271.0313,178.8438 271.3125,178.9844 271.4688,179.25 C271.5625,179.4063 271.5781,179.5313 271.5781,179.9688 L271.5781,181.3906 C271.5781,181.8125 271.5469,182 271.4375,182.1563 C271.2656,182.375 271,182.5156 270.7344,182.5156 C270.5156,182.5156 270.2813,182.4063 270.1406,182.2656 C270,182.1406 269.9688,182.0156 269.9063,181.6094 C269.8125,181.2031 269.6406,180.9844 269.1563,180.7031 C268.6875,180.4531 268.0781,180.2969 267.5,180.2969 C265.7656,180.2969 264.5156,181.6094 264.5156,183.3906 L264.5156,184.4844 C264.5156,186.1875 265.8125,187.2813 267.8594,187.2813 C268.625,187.2813 269.3125,187.1563 269.7344,186.8906 C269.9219,186.7969 269.9219,186.7969 270.375,186.3125 C270.5625,186.125 270.7656,186.0469 270.9844,186.0469 C271.4531,186.0469 271.8438,186.4375 271.8438,186.8906 C271.8438,187.2813 271.5156,187.7344 270.9375,188.1406 C270.1875,188.6875 269.0313,188.9844 267.8125,188.9844 C264.9219,188.9844 262.8125,187.0938 262.8125,184.5156 L262.8125,183.3906 C262.8125,180.6719 264.8125,178.5938 267.4375,178.5938 C268.3125,178.5938 268.9063,178.7344 269.8438,179.1719 Z "/><text fill="#000000" font-family="sans-serif" font-size="12" lengthAdjust="spacingAndGlyphs" textLength="38" x="281.5" y="187.6543">FlyNot</text><line style="stroke: #A80036; stroke-width: 1.5;" x1="253.5" x2="321.5" y1="199.5" y2="199.5"/><line style="stroke: #A80036; stroke-width: 1.5;" x1="253.5" x2="321.5" y1="207.5" y2="207.5"/><text fill="#000000" font-family="sans-serif" font-size="11" lengthAdjust="spacingAndGlyphs" textLength="21" x="258.5" y="221.7104">fly()</text><!--class QuackBehavior--><rect fill="#FEFECE" filter="url(#fvsh6oygv892y)" height="60.8047" id="QuackBehavior" style="stroke: #A80036; stroke-width: 1.5;" width="124" x="672.5" y="8"/><ellipse cx="687.5" cy="24" fill="#B4A7E5" rx="11" ry="11" style="stroke: #A80036; stroke-width: 1.0;"/><path d="M688.4531,20.7813 L688.4531,27.2969 L690.1719,27.2969 C690.625,27.2969 690.7656,27.3281 690.9375,27.4531 C691.1719,27.625 691.2813,27.875 691.2813,28.1563 C691.2813,28.7188 690.9219,29 690.1719,29 L685.0313,29 C684.625,29 684.4219,28.9531 684.2656,28.8281 C684.0469,28.6719 683.9063,28.4063 683.9063,28.1563 C683.9063,27.8594 684.0625,27.5781 684.3125,27.4219 C684.4688,27.3125 684.5938,27.2969 685.0313,27.2969 L686.75,27.2969 L686.75,20.7813 L685.0313,20.7813 C684.6094,20.7813 684.4219,20.75 684.2656,20.6406 C684.0469,20.4688 683.9063,20.2188 683.9063,19.9375 C683.9063,19.6563 684.0625,19.3594 684.3125,19.2031 C684.4688,19.1094 684.5938,19.0938 685.0313,19.0938 L690.1719,19.0938 C690.625,19.0938 690.7656,19.125 690.9375,19.2344 C691.1719,19.4063 691.2813,19.6719 691.2813,19.9375 C691.2813,20.2344 691.1406,20.5156 690.875,20.6719 C690.75,20.75 690.5625,20.7813 690.1719,20.7813 Z "/><text fill="#000000" font-family="sans-serif" font-size="12" font-style="italic" lengthAdjust="spacingAndGlyphs" textLength="92" x="701.5" y="28.1543">QuackBehavior</text><line style="stroke: #A80036; stroke-width: 1.5;" x1="673.5" x2="795.5" y1="40" y2="40"/><line style="stroke: #A80036; stroke-width: 1.5;" x1="673.5" x2="795.5" y1="48" y2="48"/><text fill="#000000" font-family="sans-serif" font-size="11" lengthAdjust="spacingAndGlyphs" textLength="41" x="678.5" y="62.2104">quack()</text><!--class Quack--><rect fill="#FEFECE" filter="url(#fvsh6oygv892y)" height="60.8047" id="Quack" style="stroke: #A80036; stroke-width: 1.5;" width="71" x="585" y="167.5"/><ellipse cx="600" cy="183.5" fill="#ADD1B2" rx="11" ry="11" style="stroke: #A80036; stroke-width: 1.0;"/><path d="M602.3438,179.1719 L602.5156,179.25 C602.7344,178.9375 602.9375,178.8438 603.2344,178.8438 C603.5313,178.8438 603.8125,178.9844 603.9688,179.25 C604.0625,179.4063 604.0781,179.5313 604.0781,179.9688 L604.0781,181.3906 C604.0781,181.8125 604.0469,182 603.9375,182.1563 C603.7656,182.375 603.5,182.5156 603.2344,182.5156 C603.0156,182.5156 602.7813,182.4063 602.6406,182.2656 C602.5,182.1406 602.4688,182.0156 602.4063,181.6094 C602.3125,181.2031 602.1406,180.9844 601.6563,180.7031 C601.1875,180.4531 600.5781,180.2969 600,180.2969 C598.2656,180.2969 597.0156,181.6094 597.0156,183.3906 L597.0156,184.4844 C597.0156,186.1875 598.3125,187.2813 600.3594,187.2813 C601.125,187.2813 601.8125,187.1563 602.2344,186.8906 C602.4219,186.7969 602.4219,186.7969 602.875,186.3125 C603.0625,186.125 603.2656,186.0469 603.4844,186.0469 C603.9531,186.0469 604.3438,186.4375 604.3438,186.8906 C604.3438,187.2813 604.0156,187.7344 603.4375,188.1406 C602.6875,188.6875 601.5313,188.9844 600.3125,188.9844 C597.4219,188.9844 595.3125,187.0938 595.3125,184.5156 L595.3125,183.3906 C595.3125,180.6719 597.3125,178.5938 599.9375,178.5938 C600.8125,178.5938 601.4063,178.7344 602.3438,179.1719 Z "/><text fill="#000000" font-family="sans-serif" font-size="12" lengthAdjust="spacingAndGlyphs" textLength="39" x="614" y="187.6543">Quack</text><line style="stroke: #A80036; stroke-width: 1.5;" x1="586" x2="655" y1="199.5" y2="199.5"/><line style="stroke: #A80036; stroke-width: 1.5;" x1="586" x2="655" y1="207.5" y2="207.5"/><text fill="#000000" font-family="sans-serif" font-size="11" lengthAdjust="spacingAndGlyphs" textLength="41" x="591" y="221.7104">quack()</text><!--class Squeack--><rect fill="#FEFECE" filter="url(#fvsh6oygv892y)" height="60.8047" id="Squeack" style="stroke: #A80036; stroke-width: 1.5;" width="86" x="691.5" y="167.5"/><ellipse cx="706.5" cy="183.5" fill="#ADD1B2" rx="11" ry="11" style="stroke: #A80036; stroke-width: 1.0;"/><path d="M708.8438,179.1719 L709.0156,179.25 C709.2344,178.9375 709.4375,178.8438 709.7344,178.8438 C710.0313,178.8438 710.3125,178.9844 710.4688,179.25 C710.5625,179.4063 710.5781,179.5313 710.5781,179.9688 L710.5781,181.3906 C710.5781,181.8125 710.5469,182 710.4375,182.1563 C710.2656,182.375 710,182.5156 709.7344,182.5156 C709.5156,182.5156 709.2813,182.4063 709.1406,182.2656 C709,182.1406 708.9688,182.0156 708.9063,181.6094 C708.8125,181.2031 708.6406,180.9844 708.1563,180.7031 C707.6875,180.4531 707.0781,180.2969 706.5,180.2969 C704.7656,180.2969 703.5156,181.6094 703.5156,183.3906 L703.5156,184.4844 C703.5156,186.1875 704.8125,187.2813 706.8594,187.2813 C707.625,187.2813 708.3125,187.1563 708.7344,186.8906 C708.9219,186.7969 708.9219,186.7969 709.375,186.3125 C709.5625,186.125 709.7656,186.0469 709.9844,186.0469 C710.4531,186.0469 710.8438,186.4375 710.8438,186.8906 C710.8438,187.2813 710.5156,187.7344 709.9375,188.1406 C709.1875,188.6875 708.0313,188.9844 706.8125,188.9844 C703.9219,188.9844 701.8125,187.0938 701.8125,184.5156 L701.8125,183.3906 C701.8125,180.6719 703.8125,178.5938 706.4375,178.5938 C707.3125,178.5938 707.9063,178.7344 708.8438,179.1719 Z "/><text fill="#000000" font-family="sans-serif" font-size="12" lengthAdjust="spacingAndGlyphs" textLength="54" x="720.5" y="187.6543">Squeack</text><line style="stroke: #A80036; stroke-width: 1.5;" x1="692.5" x2="776.5" y1="199.5" y2="199.5"/><line style="stroke: #A80036; stroke-width: 1.5;" x1="692.5" x2="776.5" y1="207.5" y2="207.5"/><text fill="#000000" font-family="sans-serif" font-size="11" lengthAdjust="spacingAndGlyphs" textLength="41" x="697.5" y="221.7104">quack()</text><!--class QuackNot--><rect fill="#FEFECE" filter="url(#fvsh6oygv892y)" height="60.8047" id="QuackNot" style="stroke: #A80036; stroke-width: 1.5;" width="93" x="813" y="167.5"/><ellipse cx="828" cy="183.5" fill="#ADD1B2" rx="11" ry="11" style="stroke: #A80036; stroke-width: 1.0;"/><path d="M830.3438,179.1719 L830.5156,179.25 C830.7344,178.9375 830.9375,178.8438 831.2344,178.8438 C831.5313,178.8438 831.8125,178.9844 831.9688,179.25 C832.0625,179.4063 832.0781,179.5313 832.0781,179.9688 L832.0781,181.3906 C832.0781,181.8125 832.0469,182 831.9375,182.1563 C831.7656,182.375 831.5,182.5156 831.2344,182.5156 C831.0156,182.5156 830.7813,182.4063 830.6406,182.2656 C830.5,182.1406 830.4688,182.0156 830.4063,181.6094 C830.3125,181.2031 830.1406,180.9844 829.6563,180.7031 C829.1875,180.4531 828.5781,180.2969 828,180.2969 C826.2656,180.2969 825.0156,181.6094 825.0156,183.3906 L825.0156,184.4844 C825.0156,186.1875 826.3125,187.2813 828.3594,187.2813 C829.125,187.2813 829.8125,187.1563 830.2344,186.8906 C830.4219,186.7969 830.4219,186.7969 830.875,186.3125 C831.0625,186.125 831.2656,186.0469 831.4844,186.0469 C831.9531,186.0469 832.3438,186.4375 832.3438,186.8906 C832.3438,187.2813 832.0156,187.7344 831.4375,188.1406 C830.6875,188.6875 829.5313,188.9844 828.3125,188.9844 C825.4219,188.9844 823.3125,187.0938 823.3125,184.5156 L823.3125,183.3906 C823.3125,180.6719 825.3125,178.5938 827.9375,178.5938 C828.8125,178.5938 829.4063,178.7344 830.3438,179.1719 Z "/><text fill="#000000" font-family="sans-serif" font-size="12" lengthAdjust="spacingAndGlyphs" textLength="61" x="842" y="187.6543">QuackNot</text><line style="stroke: #A80036; stroke-width: 1.5;" x1="814" x2="905" y1="199.5" y2="199.5"/><line style="stroke: #A80036; stroke-width: 1.5;" x1="814" x2="905" y1="207.5" y2="207.5"/><text fill="#000000" font-family="sans-serif" font-size="11" lengthAdjust="spacingAndGlyphs" textLength="41" x="819" y="221.7104">quack()</text><!--class DuckCall--><rect fill="#FEFECE" filter="url(#fvsh6oygv892y)" height="73.6094" id="DuckCall" style="stroke: #A80036; stroke-width: 1.5;" width="192" x="863.5" y="327"/><ellipse cx="928.75" cy="343" fill="#ADD1B2" rx="11" ry="11" style="stroke: #A80036; stroke-width: 1.0;"/><path d="M931.0938,338.6719 L931.2656,338.75 C931.4844,338.4375 931.6875,338.3438 931.9844,338.3438 C932.2813,338.3438 932.5625,338.4844 932.7188,338.75 C932.8125,338.9063 932.8281,339.0313 932.8281,339.4688 L932.8281,340.8906 C932.8281,341.3125 932.7969,341.5 932.6875,341.6563 C932.5156,341.875 932.25,342.0156 931.9844,342.0156 C931.7656,342.0156 931.5313,341.9063 931.3906,341.7656 C931.25,341.6406 931.2188,341.5156 931.1563,341.1094 C931.0625,340.7031 930.8906,340.4844 930.4063,340.2031 C929.9375,339.9531 929.3281,339.7969 928.75,339.7969 C927.0156,339.7969 925.7656,341.1094 925.7656,342.8906 L925.7656,343.9844 C925.7656,345.6875 927.0625,346.7813 929.1094,346.7813 C929.875,346.7813 930.5625,346.6563 930.9844,346.3906 C931.1719,346.2969 931.1719,346.2969 931.625,345.8125 C931.8125,345.625 932.0156,345.5469 932.2344,345.5469 C932.7031,345.5469 933.0938,345.9375 933.0938,346.3906 C933.0938,346.7813 932.7656,347.2344 932.1875,347.6406 C931.4375,348.1875 930.2813,348.4844 929.0625,348.4844 C926.1719,348.4844 924.0625,346.5938 924.0625,344.0156 L924.0625,342.8906 C924.0625,340.1719 926.0625,338.0938 928.6875,338.0938 C929.5625,338.0938 930.1563,338.2344 931.0938,338.6719 Z "/><text fill="#000000" font-family="sans-serif" font-size="12" lengthAdjust="spacingAndGlyphs" textLength="53" x="949.25" y="347.1543">DuckCall</text><line style="stroke: #A80036; stroke-width: 1.5;" x1="864.5" x2="1054.5" y1="359" y2="359"/><text fill="#000000" font-family="sans-serif" font-size="11" lengthAdjust="spacingAndGlyphs" textLength="180" x="869.5" y="373.2104">quackBehavior : QuackBehavior</text><line style="stroke: #A80036; stroke-width: 1.5;" x1="864.5" x2="1054.5" y1="379.8047" y2="379.8047"/><text fill="#000000" font-family="sans-serif" font-size="11" lengthAdjust="spacingAndGlyphs" textLength="89" x="869.5" y="394.0151">performQuack()</text><!--link Duck to MallardDuck--><path d="M349.038,279.431 C323.943,298.753 298.698,318.1905 278.877,333.4514 " fill="none" id="Duck-MallardDuck" style="stroke: #A80036; stroke-width: 1.0; stroke-dasharray: 7.0,7.0;"/><polygon fill="none" points="344.902,273.781,365.019,267.126,353.443,284.874,344.902,273.781" style="stroke: #A80036; stroke-width: 1.0;"/><!--link Duck to RubberDuck--><path d="M416.504,285.677 C409.193,302.805 401.999,319.6601 396.202,333.2399 " fill="none" id="Duck-RubberDuck" style="stroke: #A80036; stroke-width: 1.0; stroke-dasharray: 7.0,7.0;"/><polygon fill="none" points="410.132,282.773,424.422,267.126,423.009,288.268,410.132,282.773" style="stroke: #A80036; stroke-width: 1.0;"/><!--link Duck to DecoyDuck--><path d="M490.496,285.677 C497.807,302.805 505.001,319.6601 510.798,333.2399 " fill="none" id="Duck-DecoyDuck" style="stroke: #A80036; stroke-width: 1.0; stroke-dasharray: 7.0,7.0;"/><polygon fill="none" points="483.991,288.268,482.578,267.126,496.868,282.773,483.991,288.268" style="stroke: #A80036; stroke-width: 1.0;"/><!--link Duck to ModelDuck--><path d="M554.874,279.705 C579.03,298.937 603.306,318.2628 622.384,333.4514 " fill="none" id="Duck-ModelDuck" style="stroke: #A80036; stroke-width: 1.0; stroke-dasharray: 7.0,7.0;"/><polygon fill="none" points="550.36,285.059,539.073,267.126,559.08,274.106,550.36,285.059" style="stroke: #A80036; stroke-width: 1.0;"/><!--link FlyBehavior to WingsFly--><path d="M168.447,80.809 C148.622,95.217 126.984,112.043 108.5,129 C95.7381,140.708 82.8656,154.909 72.3338,167.299 " fill="none" id="FlyBehavior-WingsFly" style="stroke: #A80036; stroke-width: 1.0; stroke-dasharray: 7.0,7.0;"/><polygon fill="none" points="164.569,74.977,184.921,69.077,172.691,86.381,164.569,74.977" style="stroke: #A80036; stroke-width: 1.0;"/><!--link FlyBehavior to RocketFly--><path d="M211.605,88.095 C202.078,113.965 190.668,144.948 182.459,167.241 " fill="none" id="FlyBehavior-RocketFly" style="stroke: #A80036; stroke-width: 1.0; stroke-dasharray: 7.0,7.0;"/><polygon fill="none" points="205.11,85.473,218.591,69.125,218.248,90.311,205.11,85.473" style="stroke: #A80036; stroke-width: 1.0;"/><!--link FlyBehavior to FlyNot--><path d="M247.395,88.095 C256.922,113.965 268.332,144.948 276.541,167.241 " fill="none" id="FlyBehavior-FlyNot" style="stroke: #A80036; stroke-width: 1.0; stroke-dasharray: 7.0,7.0;"/><polygon fill="none" points="240.752,90.311,240.409,69.125,253.89,85.473,240.752,90.311" style="stroke: #A80036; stroke-width: 1.0;"/><!--link QuackBehavior to Quack--><path d="M701.25,85.438 C682.156,111.818 658.732,144.179 642.04,167.241 " fill="none" id="QuackBehavior-Quack" style="stroke: #A80036; stroke-width: 1.0; stroke-dasharray: 7.0,7.0;"/><polygon fill="none" points="695.66,81.222,713.057,69.125,707.001,89.43,695.66,81.222" style="stroke: #A80036; stroke-width: 1.0;"/><!--link QuackBehavior to Squeack--><path d="M734.5,89.246 C734.5,114.879 734.5,145.277 734.5,167.241 " fill="none" id="QuackBehavior-Squeack" style="stroke: #A80036; stroke-width: 1.0; stroke-dasharray: 7.0,7.0;"/><polygon fill="none" points="727.5,89.125,734.5,69.125,741.5,89.125,727.5,89.125" style="stroke: #A80036; stroke-width: 1.0;"/><!--link QuackBehavior to QuackNot--><path d="M770.66,85.062 C791.65,111.509 817.491,144.069 835.882,167.241 " fill="none" id="QuackBehavior-QuackNot" style="stroke: #A80036; stroke-width: 1.0; stroke-dasharray: 7.0,7.0;"/><polygon fill="none" points="764.962,89.142,758.012,69.125,775.928,80.439,764.962,89.142" style="stroke: #A80036; stroke-width: 1.0;"/><!--link QuackBehavior to Duck--><path d="M677.719,69.103 C645.243,86.24 603.859,108.427 567.5,129 C561.683,132.291 555.722,135.709 549.722,139.183 " fill="none" id="QuackBehavior-Duck" style="stroke: #A80036; stroke-width: 1.0;"/><!--link FlyBehavior to Duck--><path d="M271.633,69.125 C295.839,86.144 327.294,108.262 357.222,129.304 " fill="none" id="FlyBehavior-Duck" style="stroke: #A80036; stroke-width: 1.0;"/><!--link QuackBehavior to DuckCall--><path d="M796.584,52.742 C839.061,65.139 893.013,88.104 923.5,129 C967.105,187.493 967.549,277.368 963.721,326.9859 " fill="none" id="QuackBehavior-DuckCall" style="stroke: #A80036; stroke-width: 1.0;"/><!--
@startuml
Abstract Duck{
  flyBehavior : FlyBehavior
  quackBehavior : QuackBehavior
  display()
  performFly()
  performQuack()
  setFlyBehavior()
  setQuackBehavior()
  
}

Class MallardDuck{
  display()
}

Class RubberDuck{
  display()
}

Class DecoyDuck{
  display()
}

Class ModelDuck{
  display()
}

Interface FlyBehavior{
  fly()
}

Class WingsFly{
  fly()
}

Class RocketFly{
  fly()
}

Class FlyNot{
  fly()
}

Interface QuackBehavior{
  quack()
}

Class Quack{
  quack()
}

Class Squeack{
  quack()
}

Class QuackNot{
  quack()
}


Class DuckCall{
  quackBehavior : QuackBehavior
  performQuack()
}


Duck <|.. MallardDuck
Duck <|.. RubberDuck
Duck <|.. DecoyDuck
Duck <|.. ModelDuck

FlyBehavior <|.. WingsFly
FlyBehavior <|.. RocketFly
FlyBehavior <|.. FlyNot

QuackBehavior <|.. Quack
QuackBehavior <|.. Squeack
QuackBehavior <|.. QuackNot

QuackBehavior - - Duck
FlyBehavior - - Duck

QuackBehavior - - - DuckCall
@enduml

PlantUML version 1.2018.02beta13(Unknown compile time)
(GPL source distribution)
Java Runtime: Java(TM) SE Runtime Environment
JVM: Java HotSpot(TM) 64-Bit Server VM
Java Version: 1.7.0_25-b15
Operating System: Linux
Default Encoding: UTF-8
Language: en
Country: US
--></g></svg>