<?xml version="1.0" encoding="UTF-8" standalone="no"?><svg xmlns="http://www.w3.org/2000/svg" xmlns:xlink="http://www.w3.org/1999/xlink" contentScriptType="application/ecmascript" contentStyleType="text/css" height="640px" preserveAspectRatio="none" style="width:966px;height:640px;" version="1.1" viewBox="0 0 966 640" width="966px" zoomAndPan="magnify"><defs><filter height="300%" id="fuv8n95ubjduf" width="300%" x="-1" y="-1"><feGaussianBlur result="blurOut" stdDeviation="2.0"/><feColorMatrix in="blurOut" result="blurOut2" type="matrix" values="0 0 0 0 0 0 0 0 0 0 0 0 0 0 0 0 0 0 .4 0"/><feOffset dx="4.0" dy="4.0" in="blurOut2" result="blurOut3"/><feBlend in="SourceGraphic" in2="blurOut3" mode="normal"/></filter></defs><g><!--class Pizza--><rect fill="#FEFECE" filter="url(#fuv8n95ubjduf)" height="73.6094" id="Pizza" style="stroke: #A80036; stroke-width: 1.5;" width="147" x="556.5" y="8"/><ellipse cx="610.75" cy="24" fill="#A9DCDF" rx="11" ry="11" style="stroke: #A80036; stroke-width: 1.0;"/><path d="M612.3281,25.8125 L608.2813,25.8125 L607.8906,26.7969 L608.2813,26.7969 C608.7344,26.7969 608.875,26.8281 609.0469,26.9531 C609.2656,27.125 609.3906,27.375 609.3906,27.6563 C609.3906,27.9375 609.25,28.2344 608.9844,28.375 C608.8594,28.4688 608.6406,28.5 608.2813,28.5 L606.0156,28.5 C605.2656,28.5 604.8906,28.2188 604.8906,27.6563 C604.8906,27.3594 605.0469,27.0781 605.2969,26.9219 C605.4531,26.8125 605.6094,26.7969 606.0313,26.7969 L608.6719,20.2813 L607.5938,20.2813 C607.1563,20.2813 606.9844,20.25 606.8125,20.1406 C606.5938,19.9688 606.4531,19.7188 606.4531,19.4375 C606.4531,19.1563 606.6094,18.875 606.8594,18.7031 C607.0156,18.6094 607.1406,18.5938 607.5938,18.5938 L611.2656,18.5938 L614.6563,26.7969 C615.125,26.7969 615.2813,26.8281 615.4531,26.9688 C615.6719,27.125 615.8125,27.375 615.8125,27.6563 C615.8125,27.9375 615.6563,28.2344 615.4063,28.375 C615.2656,28.4688 615.0469,28.5 614.6875,28.5 L612.3281,28.5 C611.9063,28.5 611.7031,28.4531 611.5625,28.3281 C611.3438,28.1719 611.2031,27.9219 611.2031,27.6563 C611.2031,27.3594 611.3594,27.0781 611.6094,26.9219 C611.7656,26.8125 611.875,26.7969 612.3281,26.7969 L612.7188,26.7969 Z M611.625,24.1094 L610.2969,20.8438 L608.9531,24.1094 Z "/><text fill="#000000" font-family="sans-serif" font-size="12" font-style="italic" lengthAdjust="spacingAndGlyphs" textLength="30" x="631.25" y="28.1543">Pizza</text><line style="stroke: #A80036; stroke-width: 1.5;" x1="557.5" x2="702.5" y1="40" y2="40"/><line style="stroke: #A80036; stroke-width: 1.5;" x1="557.5" x2="702.5" y1="48" y2="48"/><text fill="#000000" font-family="sans-serif" font-size="11" lengthAdjust="spacingAndGlyphs" textLength="89" x="562.5" y="62.2104">getCost() : float</text><text fill="#000000" font-family="sans-serif" font-size="11" lengthAdjust="spacingAndGlyphs" textLength="135" x="562.5" y="75.0151">getDescription() : string</text><!--class PizzaDecorator--><rect fill="#FEFECE" filter="url(#fuv8n95ubjduf)" height="86.4141" id="PizzaDecorator" style="stroke: #A80036; stroke-width: 1.5;" width="127" x="325.5" y="276"/><ellipse cx="341.4" cy="292" fill="#A9DCDF" rx="11" ry="11" style="stroke: #A80036; stroke-width: 1.0;"/><path d="M342.9781,293.8125 L338.9313,293.8125 L338.5406,294.7969 L338.9313,294.7969 C339.3844,294.7969 339.525,294.8281 339.6969,294.9531 C339.9156,295.125 340.0406,295.375 340.0406,295.6563 C340.0406,295.9375 339.9,296.2344 339.6344,296.375 C339.5094,296.4688 339.2906,296.5 338.9313,296.5 L336.6656,296.5 C335.9156,296.5 335.5406,296.2188 335.5406,295.6563 C335.5406,295.3594 335.6969,295.0781 335.9469,294.9219 C336.1031,294.8125 336.2594,294.7969 336.6813,294.7969 L339.3219,288.2813 L338.2438,288.2813 C337.8063,288.2813 337.6344,288.25 337.4625,288.1406 C337.2438,287.9688 337.1031,287.7188 337.1031,287.4375 C337.1031,287.1563 337.2594,286.875 337.5094,286.7031 C337.6656,286.6094 337.7906,286.5938 338.2438,286.5938 L341.9156,286.5938 L345.3063,294.7969 C345.775,294.7969 345.9313,294.8281 346.1031,294.9688 C346.3219,295.125 346.4625,295.375 346.4625,295.6563 C346.4625,295.9375 346.3063,296.2344 346.0563,296.375 C345.9156,296.4688 345.6969,296.5 345.3375,296.5 L342.9781,296.5 C342.5563,296.5 342.3531,296.4531 342.2125,296.3281 C341.9938,296.1719 341.8531,295.9219 341.8531,295.6563 C341.8531,295.3594 342.0094,295.0781 342.2594,294.9219 C342.4156,294.8125 342.525,294.7969 342.9781,294.7969 L343.3688,294.7969 Z M342.275,292.1094 L340.9469,288.8438 L339.6031,292.1094 Z "/><text fill="#000000" font-family="sans-serif" font-size="12" font-style="italic" lengthAdjust="spacingAndGlyphs" textLength="93" x="355.6" y="296.1543">PizzaDecorator</text><line style="stroke: #A80036; stroke-width: 1.5;" x1="326.5" x2="451.5" y1="308" y2="308"/><text fill="#000000" font-family="sans-serif" font-size="11" lengthAdjust="spacingAndGlyphs" textLength="115" x="331.5" y="322.2104">wrappedPizza : Pizza</text><line style="stroke: #A80036; stroke-width: 1.5;" x1="326.5" x2="451.5" y1="328.8047" y2="328.8047"/><text fill="#000000" font-family="sans-serif" font-size="11" lengthAdjust="spacingAndGlyphs" textLength="52" x="331.5" y="343.0151">getCost()</text><text fill="#000000" font-family="sans-serif" font-size="11" lengthAdjust="spacingAndGlyphs" textLength="90" x="331.5" y="355.8198">getDescription()</text><!--class ToppingDecorator--><rect fill="#FEFECE" filter="url(#fuv8n95ubjduf)" height="73.6094" id="ToppingDecorator" style="stroke: #A80036; stroke-width: 1.5;" width="145" x="176.5" y="422"/><ellipse cx="191.5" cy="438" fill="#A9DCDF" rx="11" ry="11" style="stroke: #A80036; stroke-width: 1.0;"/><path d="M193.0781,439.8125 L189.0313,439.8125 L188.6406,440.7969 L189.0313,440.7969 C189.4844,440.7969 189.625,440.8281 189.7969,440.9531 C190.0156,441.125 190.1406,441.375 190.1406,441.6563 C190.1406,441.9375 190,442.2344 189.7344,442.375 C189.6094,442.4688 189.3906,442.5 189.0313,442.5 L186.7656,442.5 C186.0156,442.5 185.6406,442.2188 185.6406,441.6563 C185.6406,441.3594 185.7969,441.0781 186.0469,440.9219 C186.2031,440.8125 186.3594,440.7969 186.7813,440.7969 L189.4219,434.2813 L188.3438,434.2813 C187.9063,434.2813 187.7344,434.25 187.5625,434.1406 C187.3438,433.9688 187.2031,433.7188 187.2031,433.4375 C187.2031,433.1563 187.3594,432.875 187.6094,432.7031 C187.7656,432.6094 187.8906,432.5938 188.3438,432.5938 L192.0156,432.5938 L195.4063,440.7969 C195.875,440.7969 196.0313,440.8281 196.2031,440.9688 C196.4219,441.125 196.5625,441.375 196.5625,441.6563 C196.5625,441.9375 196.4063,442.2344 196.1563,442.375 C196.0156,442.4688 195.7969,442.5 195.4375,442.5 L193.0781,442.5 C192.6563,442.5 192.4531,442.4531 192.3125,442.3281 C192.0938,442.1719 191.9531,441.9219 191.9531,441.6563 C191.9531,441.3594 192.1094,441.0781 192.3594,440.9219 C192.5156,440.8125 192.625,440.7969 193.0781,440.7969 L193.4688,440.7969 Z M192.375,438.1094 L191.0469,434.8438 L189.7031,438.1094 Z "/><text fill="#000000" font-family="sans-serif" font-size="12" font-style="italic" lengthAdjust="spacingAndGlyphs" textLength="113" x="205.5" y="442.1543">ToppingDecorator</text><line style="stroke: #A80036; stroke-width: 1.5;" x1="177.5" x2="320.5" y1="454" y2="454"/><line style="stroke: #A80036; stroke-width: 1.5;" x1="177.5" x2="320.5" y1="462" y2="462"/><text fill="#000000" font-family="sans-serif" font-size="11" lengthAdjust="spacingAndGlyphs" textLength="52" x="182.5" y="476.2104">getCost()</text><text fill="#000000" font-family="sans-serif" font-size="11" lengthAdjust="spacingAndGlyphs" textLength="90" x="182.5" y="489.0151">getDescription()</text><!--class Margherita--><rect fill="#FEFECE" filter="url(#fuv8n95ubjduf)" height="73.6094" id="Margherita" style="stroke: #A80036; stroke-width: 1.5;" width="102" x="442" y="142"/><ellipse cx="457.9" cy="158" fill="#ADD1B2" rx="11" ry="11" style="stroke: #A80036; stroke-width: 1.0;"/><path d="M460.2438,153.6719 L460.4156,153.75 C460.6344,153.4375 460.8375,153.3438 461.1344,153.3438 C461.4313,153.3438 461.7125,153.4844 461.8688,153.75 C461.9625,153.9063 461.9781,154.0313 461.9781,154.4688 L461.9781,155.8906 C461.9781,156.3125 461.9469,156.5 461.8375,156.6563 C461.6656,156.875 461.4,157.0156 461.1344,157.0156 C460.9156,157.0156 460.6813,156.9063 460.5406,156.7656 C460.4,156.6406 460.3688,156.5156 460.3063,156.1094 C460.2125,155.7031 460.0406,155.4844 459.5563,155.2031 C459.0875,154.9531 458.4781,154.7969 457.9,154.7969 C456.1656,154.7969 454.9156,156.1094 454.9156,157.8906 L454.9156,158.9844 C454.9156,160.6875 456.2125,161.7813 458.2594,161.7813 C459.025,161.7813 459.7125,161.6563 460.1344,161.3906 C460.3219,161.2969 460.3219,161.2969 460.775,160.8125 C460.9625,160.625 461.1656,160.5469 461.3844,160.5469 C461.8531,160.5469 462.2438,160.9375 462.2438,161.3906 C462.2438,161.7813 461.9156,162.2344 461.3375,162.6406 C460.5875,163.1875 459.4313,163.4844 458.2125,163.4844 C455.3219,163.4844 453.2125,161.5938 453.2125,159.0156 L453.2125,157.8906 C453.2125,155.1719 455.2125,153.0938 457.8375,153.0938 C458.7125,153.0938 459.3063,153.2344 460.2438,153.6719 Z "/><text fill="#000000" font-family="sans-serif" font-size="12" lengthAdjust="spacingAndGlyphs" textLength="68" x="472.1" y="162.1543">Margherita</text><line style="stroke: #A80036; stroke-width: 1.5;" x1="443" x2="543" y1="174" y2="174"/><line style="stroke: #A80036; stroke-width: 1.5;" x1="443" x2="543" y1="182" y2="182"/><text fill="#000000" font-family="sans-serif" font-size="11" lengthAdjust="spacingAndGlyphs" textLength="52" x="448" y="196.2104">getCost()</text><text fill="#000000" font-family="sans-serif" font-size="11" lengthAdjust="spacingAndGlyphs" textLength="90" x="448" y="209.0151">getDescription()</text><!--class Calzone--><rect fill="#FEFECE" filter="url(#fuv8n95ubjduf)" height="73.6094" id="Calzone" style="stroke: #A80036; stroke-width: 1.5;" width="102" x="579" y="142"/><ellipse cx="603.9" cy="158" fill="#ADD1B2" rx="11" ry="11" style="stroke: #A80036; stroke-width: 1.0;"/><path d="M606.2438,153.6719 L606.4156,153.75 C606.6344,153.4375 606.8375,153.3438 607.1344,153.3438 C607.4313,153.3438 607.7125,153.4844 607.8688,153.75 C607.9625,153.9063 607.9781,154.0313 607.9781,154.4688 L607.9781,155.8906 C607.9781,156.3125 607.9469,156.5 607.8375,156.6563 C607.6656,156.875 607.4,157.0156 607.1344,157.0156 C606.9156,157.0156 606.6813,156.9063 606.5406,156.7656 C606.4,156.6406 606.3688,156.5156 606.3063,156.1094 C606.2125,155.7031 606.0406,155.4844 605.5563,155.2031 C605.0875,154.9531 604.4781,154.7969 603.9,154.7969 C602.1656,154.7969 600.9156,156.1094 600.9156,157.8906 L600.9156,158.9844 C600.9156,160.6875 602.2125,161.7813 604.2594,161.7813 C605.025,161.7813 605.7125,161.6563 606.1344,161.3906 C606.3219,161.2969 606.3219,161.2969 606.775,160.8125 C606.9625,160.625 607.1656,160.5469 607.3844,160.5469 C607.8531,160.5469 608.2438,160.9375 608.2438,161.3906 C608.2438,161.7813 607.9156,162.2344 607.3375,162.6406 C606.5875,163.1875 605.4313,163.4844 604.2125,163.4844 C601.3219,163.4844 599.2125,161.5938 599.2125,159.0156 L599.2125,157.8906 C599.2125,155.1719 601.2125,153.0938 603.8375,153.0938 C604.7125,153.0938 605.3063,153.2344 606.2438,153.6719 Z "/><text fill="#000000" font-family="sans-serif" font-size="12" lengthAdjust="spacingAndGlyphs" textLength="48" x="620.1" y="162.1543">Calzone</text><line style="stroke: #A80036; stroke-width: 1.5;" x1="580" x2="680" y1="174" y2="174"/><line style="stroke: #A80036; stroke-width: 1.5;" x1="580" x2="680" y1="182" y2="182"/><text fill="#000000" font-family="sans-serif" font-size="11" lengthAdjust="spacingAndGlyphs" textLength="52" x="585" y="196.2104">getCost()</text><text fill="#000000" font-family="sans-serif" font-size="11" lengthAdjust="spacingAndGlyphs" textLength="90" x="585" y="209.0151">getDescription()</text><!--class FlatBread--><rect fill="#FEFECE" filter="url(#fuv8n95ubjduf)" height="73.6094" id="FlatBread" style="stroke: #A80036; stroke-width: 1.5;" width="102" x="716" y="142"/><ellipse cx="735.5" cy="158" fill="#ADD1B2" rx="11" ry="11" style="stroke: #A80036; stroke-width: 1.0;"/><path d="M737.8438,153.6719 L738.0156,153.75 C738.2344,153.4375 738.4375,153.3438 738.7344,153.3438 C739.0313,153.3438 739.3125,153.4844 739.4688,153.75 C739.5625,153.9063 739.5781,154.0313 739.5781,154.4688 L739.5781,155.8906 C739.5781,156.3125 739.5469,156.5 739.4375,156.6563 C739.2656,156.875 739,157.0156 738.7344,157.0156 C738.5156,157.0156 738.2813,156.9063 738.1406,156.7656 C738,156.6406 737.9688,156.5156 737.9063,156.1094 C737.8125,155.7031 737.6406,155.4844 737.1563,155.2031 C736.6875,154.9531 736.0781,154.7969 735.5,154.7969 C733.7656,154.7969 732.5156,156.1094 732.5156,157.8906 L732.5156,158.9844 C732.5156,160.6875 733.8125,161.7813 735.8594,161.7813 C736.625,161.7813 737.3125,161.6563 737.7344,161.3906 C737.9219,161.2969 737.9219,161.2969 738.375,160.8125 C738.5625,160.625 738.7656,160.5469 738.9844,160.5469 C739.4531,160.5469 739.8438,160.9375 739.8438,161.3906 C739.8438,161.7813 739.5156,162.2344 738.9375,162.6406 C738.1875,163.1875 737.0313,163.4844 735.8125,163.4844 C732.9219,163.4844 730.8125,161.5938 730.8125,159.0156 L730.8125,157.8906 C730.8125,155.1719 732.8125,153.0938 735.4375,153.0938 C736.3125,153.0938 736.9063,153.2344 737.8438,153.6719 Z "/><text fill="#000000" font-family="sans-serif" font-size="12" lengthAdjust="spacingAndGlyphs" textLength="60" x="750.5" y="162.1543">FlatBread</text><line style="stroke: #A80036; stroke-width: 1.5;" x1="717" x2="817" y1="174" y2="174"/><line style="stroke: #A80036; stroke-width: 1.5;" x1="717" x2="817" y1="182" y2="182"/><text fill="#000000" font-family="sans-serif" font-size="11" lengthAdjust="spacingAndGlyphs" textLength="52" x="722" y="196.2104">getCost()</text><text fill="#000000" font-family="sans-serif" font-size="11" lengthAdjust="spacingAndGlyphs" textLength="90" x="722" y="209.0151">getDescription()</text><!--class BasicPizza--><rect fill="#FEFECE" filter="url(#fuv8n95ubjduf)" height="73.6094" id="BasicPizza" style="stroke: #A80036; stroke-width: 1.5;" width="102" x="853" y="142"/><ellipse cx="871.6" cy="158" fill="#ADD1B2" rx="11" ry="11" style="stroke: #A80036; stroke-width: 1.0;"/><path d="M873.9438,153.6719 L874.1156,153.75 C874.3344,153.4375 874.5375,153.3438 874.8344,153.3438 C875.1313,153.3438 875.4125,153.4844 875.5688,153.75 C875.6625,153.9063 875.6781,154.0313 875.6781,154.4688 L875.6781,155.8906 C875.6781,156.3125 875.6469,156.5 875.5375,156.6563 C875.3656,156.875 875.1,157.0156 874.8344,157.0156 C874.6156,157.0156 874.3813,156.9063 874.2406,156.7656 C874.1,156.6406 874.0688,156.5156 874.0063,156.1094 C873.9125,155.7031 873.7406,155.4844 873.2563,155.2031 C872.7875,154.9531 872.1781,154.7969 871.6,154.7969 C869.8656,154.7969 868.6156,156.1094 868.6156,157.8906 L868.6156,158.9844 C868.6156,160.6875 869.9125,161.7813 871.9594,161.7813 C872.725,161.7813 873.4125,161.6563 873.8344,161.3906 C874.0219,161.2969 874.0219,161.2969 874.475,160.8125 C874.6625,160.625 874.8656,160.5469 875.0844,160.5469 C875.5531,160.5469 875.9438,160.9375 875.9438,161.3906 C875.9438,161.7813 875.6156,162.2344 875.0375,162.6406 C874.2875,163.1875 873.1313,163.4844 871.9125,163.4844 C869.0219,163.4844 866.9125,161.5938 866.9125,159.0156 L866.9125,157.8906 C866.9125,155.1719 868.9125,153.0938 871.5375,153.0938 C872.4125,153.0938 873.0063,153.2344 873.9438,153.6719 Z "/><text fill="#000000" font-family="sans-serif" font-size="12" lengthAdjust="spacingAndGlyphs" textLength="62" x="886.4" y="162.1543">BasicPizza</text><line style="stroke: #A80036; stroke-width: 1.5;" x1="854" x2="954" y1="174" y2="174"/><line style="stroke: #A80036; stroke-width: 1.5;" x1="854" x2="954" y1="182" y2="182"/><text fill="#000000" font-family="sans-serif" font-size="11" lengthAdjust="spacingAndGlyphs" textLength="52" x="859" y="196.2104">getCost()</text><text fill="#000000" font-family="sans-serif" font-size="11" lengthAdjust="spacingAndGlyphs" textLength="90" x="859" y="209.0151">getDescription()</text><!--class Pepperoni--><rect fill="#FEFECE" filter="url(#fuv8n95ubjduf)" height="73.6094" id="Pepperoni" style="stroke: #A80036; stroke-width: 1.5;" width="102" x="6" y="556"/><ellipse cx="23.7" cy="572" fill="#ADD1B2" rx="11" ry="11" style="stroke: #A80036; stroke-width: 1.0;"/><path d="M26.0438,567.6719 L26.2156,567.75 C26.4344,567.4375 26.6375,567.3438 26.9344,567.3438 C27.2313,567.3438 27.5125,567.4844 27.6688,567.75 C27.7625,567.9063 27.7781,568.0313 27.7781,568.4688 L27.7781,569.8906 C27.7781,570.3125 27.7469,570.5 27.6375,570.6563 C27.4656,570.875 27.2,571.0156 26.9344,571.0156 C26.7156,571.0156 26.4813,570.9063 26.3406,570.7656 C26.2,570.6406 26.1688,570.5156 26.1063,570.1094 C26.0125,569.7031 25.8406,569.4844 25.3563,569.2031 C24.8875,568.9531 24.2781,568.7969 23.7,568.7969 C21.9656,568.7969 20.7156,570.1094 20.7156,571.8906 L20.7156,572.9844 C20.7156,574.6875 22.0125,575.7813 24.0594,575.7813 C24.825,575.7813 25.5125,575.6563 25.9344,575.3906 C26.1219,575.2969 26.1219,575.2969 26.575,574.8125 C26.7625,574.625 26.9656,574.5469 27.1844,574.5469 C27.6531,574.5469 28.0438,574.9375 28.0438,575.3906 C28.0438,575.7813 27.7156,576.2344 27.1375,576.6406 C26.3875,577.1875 25.2313,577.4844 24.0125,577.4844 C21.1219,577.4844 19.0125,575.5938 19.0125,573.0156 L19.0125,571.8906 C19.0125,569.1719 21.0125,567.0938 23.6375,567.0938 C24.5125,567.0938 25.1063,567.2344 26.0438,567.6719 Z "/><text fill="#000000" font-family="sans-serif" font-size="12" lengthAdjust="spacingAndGlyphs" textLength="64" x="38.3" y="576.1543">Pepperoni</text><line style="stroke: #A80036; stroke-width: 1.5;" x1="7" x2="107" y1="588" y2="588"/><line style="stroke: #A80036; stroke-width: 1.5;" x1="7" x2="107" y1="596" y2="596"/><text fill="#000000" font-family="sans-serif" font-size="11" lengthAdjust="spacingAndGlyphs" textLength="52" x="12" y="610.2104">getCost()</text><text fill="#000000" font-family="sans-serif" font-size="11" lengthAdjust="spacingAndGlyphs" textLength="90" x="12" y="623.0151">getDescription()</text><!--class Mozzarella--><rect fill="#FEFECE" filter="url(#fuv8n95ubjduf)" height="73.6094" id="Mozzarella" style="stroke: #A80036; stroke-width: 1.5;" width="102" x="143" y="556"/><ellipse cx="161.15" cy="572" fill="#ADD1B2" rx="11" ry="11" style="stroke: #A80036; stroke-width: 1.0;"/><path d="M163.4938,567.6719 L163.6656,567.75 C163.8844,567.4375 164.0875,567.3438 164.3844,567.3438 C164.6813,567.3438 164.9625,567.4844 165.1188,567.75 C165.2125,567.9063 165.2281,568.0313 165.2281,568.4688 L165.2281,569.8906 C165.2281,570.3125 165.1969,570.5 165.0875,570.6563 C164.9156,570.875 164.65,571.0156 164.3844,571.0156 C164.1656,571.0156 163.9313,570.9063 163.7906,570.7656 C163.65,570.6406 163.6188,570.5156 163.5563,570.1094 C163.4625,569.7031 163.2906,569.4844 162.8063,569.2031 C162.3375,568.9531 161.7281,568.7969 161.15,568.7969 C159.4156,568.7969 158.1656,570.1094 158.1656,571.8906 L158.1656,572.9844 C158.1656,574.6875 159.4625,575.7813 161.5094,575.7813 C162.275,575.7813 162.9625,575.6563 163.3844,575.3906 C163.5719,575.2969 163.5719,575.2969 164.025,574.8125 C164.2125,574.625 164.4156,574.5469 164.6344,574.5469 C165.1031,574.5469 165.4938,574.9375 165.4938,575.3906 C165.4938,575.7813 165.1656,576.2344 164.5875,576.6406 C163.8375,577.1875 162.6813,577.4844 161.4625,577.4844 C158.5719,577.4844 156.4625,575.5938 156.4625,573.0156 L156.4625,571.8906 C156.4625,569.1719 158.4625,567.0938 161.0875,567.0938 C161.9625,567.0938 162.5563,567.2344 163.4938,567.6719 Z "/><text fill="#000000" font-family="sans-serif" font-size="12" lengthAdjust="spacingAndGlyphs" textLength="63" x="175.85" y="576.1543">Mozzarella</text><line style="stroke: #A80036; stroke-width: 1.5;" x1="144" x2="244" y1="588" y2="588"/><line style="stroke: #A80036; stroke-width: 1.5;" x1="144" x2="244" y1="596" y2="596"/><text fill="#000000" font-family="sans-serif" font-size="11" lengthAdjust="spacingAndGlyphs" textLength="52" x="149" y="610.2104">getCost()</text><text fill="#000000" font-family="sans-serif" font-size="11" lengthAdjust="spacingAndGlyphs" textLength="90" x="149" y="623.0151">getDescription()</text><!--class Arugula--><rect fill="#FEFECE" filter="url(#fuv8n95ubjduf)" height="73.6094" id="Arugula" style="stroke: #A80036; stroke-width: 1.5;" width="102" x="280" y="556"/><ellipse cx="304.9" cy="572" fill="#ADD1B2" rx="11" ry="11" style="stroke: #A80036; stroke-width: 1.0;"/><path d="M307.2438,567.6719 L307.4156,567.75 C307.6344,567.4375 307.8375,567.3438 308.1344,567.3438 C308.4313,567.3438 308.7125,567.4844 308.8688,567.75 C308.9625,567.9063 308.9781,568.0313 308.9781,568.4688 L308.9781,569.8906 C308.9781,570.3125 308.9469,570.5 308.8375,570.6563 C308.6656,570.875 308.4,571.0156 308.1344,571.0156 C307.9156,571.0156 307.6813,570.9063 307.5406,570.7656 C307.4,570.6406 307.3688,570.5156 307.3063,570.1094 C307.2125,569.7031 307.0406,569.4844 306.5563,569.2031 C306.0875,568.9531 305.4781,568.7969 304.9,568.7969 C303.1656,568.7969 301.9156,570.1094 301.9156,571.8906 L301.9156,572.9844 C301.9156,574.6875 303.2125,575.7813 305.2594,575.7813 C306.025,575.7813 306.7125,575.6563 307.1344,575.3906 C307.3219,575.2969 307.3219,575.2969 307.775,574.8125 C307.9625,574.625 308.1656,574.5469 308.3844,574.5469 C308.8531,574.5469 309.2438,574.9375 309.2438,575.3906 C309.2438,575.7813 308.9156,576.2344 308.3375,576.6406 C307.5875,577.1875 306.4313,577.4844 305.2125,577.4844 C302.3219,577.4844 300.2125,575.5938 300.2125,573.0156 L300.2125,571.8906 C300.2125,569.1719 302.2125,567.0938 304.8375,567.0938 C305.7125,567.0938 306.3063,567.2344 307.2438,567.6719 Z "/><text fill="#000000" font-family="sans-serif" font-size="12" lengthAdjust="spacingAndGlyphs" textLength="48" x="321.1" y="576.1543">Arugula</text><line style="stroke: #A80036; stroke-width: 1.5;" x1="281" x2="381" y1="588" y2="588"/><line style="stroke: #A80036; stroke-width: 1.5;" x1="281" x2="381" y1="596" y2="596"/><text fill="#000000" font-family="sans-serif" font-size="11" lengthAdjust="spacingAndGlyphs" textLength="52" x="286" y="610.2104">getCost()</text><text fill="#000000" font-family="sans-serif" font-size="11" lengthAdjust="spacingAndGlyphs" textLength="90" x="286" y="623.0151">getDescription()</text><!--class StyleDecorator--><rect fill="#FEFECE" filter="url(#fuv8n95ubjduf)" height="73.6094" id="StyleDecorator" style="stroke: #A80036; stroke-width: 1.5;" width="126" x="412" y="422"/><ellipse cx="427" cy="438" fill="#A9DCDF" rx="11" ry="11" style="stroke: #A80036; stroke-width: 1.0;"/><path d="M428.5781,439.8125 L424.5313,439.8125 L424.1406,440.7969 L424.5313,440.7969 C424.9844,440.7969 425.125,440.8281 425.2969,440.9531 C425.5156,441.125 425.6406,441.375 425.6406,441.6563 C425.6406,441.9375 425.5,442.2344 425.2344,442.375 C425.1094,442.4688 424.8906,442.5 424.5313,442.5 L422.2656,442.5 C421.5156,442.5 421.1406,442.2188 421.1406,441.6563 C421.1406,441.3594 421.2969,441.0781 421.5469,440.9219 C421.7031,440.8125 421.8594,440.7969 422.2813,440.7969 L424.9219,434.2813 L423.8438,434.2813 C423.4063,434.2813 423.2344,434.25 423.0625,434.1406 C422.8438,433.9688 422.7031,433.7188 422.7031,433.4375 C422.7031,433.1563 422.8594,432.875 423.1094,432.7031 C423.2656,432.6094 423.3906,432.5938 423.8438,432.5938 L427.5156,432.5938 L430.9063,440.7969 C431.375,440.7969 431.5313,440.8281 431.7031,440.9688 C431.9219,441.125 432.0625,441.375 432.0625,441.6563 C432.0625,441.9375 431.9063,442.2344 431.6563,442.375 C431.5156,442.4688 431.2969,442.5 430.9375,442.5 L428.5781,442.5 C428.1563,442.5 427.9531,442.4531 427.8125,442.3281 C427.5938,442.1719 427.4531,441.9219 427.4531,441.6563 C427.4531,441.3594 427.6094,441.0781 427.8594,440.9219 C428.0156,440.8125 428.125,440.7969 428.5781,440.7969 L428.9688,440.7969 Z M427.875,438.1094 L426.5469,434.8438 L425.2031,438.1094 Z "/><text fill="#000000" font-family="sans-serif" font-size="12" font-style="italic" lengthAdjust="spacingAndGlyphs" textLength="94" x="441" y="442.1543">StyleDecorator</text><line style="stroke: #A80036; stroke-width: 1.5;" x1="413" x2="537" y1="454" y2="454"/><line style="stroke: #A80036; stroke-width: 1.5;" x1="413" x2="537" y1="462" y2="462"/><text fill="#000000" font-family="sans-serif" font-size="11" lengthAdjust="spacingAndGlyphs" textLength="52" x="418" y="476.2104">getCost()</text><text fill="#000000" font-family="sans-serif" font-size="11" lengthAdjust="spacingAndGlyphs" textLength="90" x="418" y="489.0151">getDescription()</text><!--class NewYorkStyle--><rect fill="#FEFECE" filter="url(#fuv8n95ubjduf)" height="73.6094" id="NewYorkStyle" style="stroke: #A80036; stroke-width: 1.5;" width="115" x="417.5" y="556"/><ellipse cx="432.5" cy="572" fill="#ADD1B2" rx="11" ry="11" style="stroke: #A80036; stroke-width: 1.0;"/><path d="M434.8438,567.6719 L435.0156,567.75 C435.2344,567.4375 435.4375,567.3438 435.7344,567.3438 C436.0313,567.3438 436.3125,567.4844 436.4688,567.75 C436.5625,567.9063 436.5781,568.0313 436.5781,568.4688 L436.5781,569.8906 C436.5781,570.3125 436.5469,570.5 436.4375,570.6563 C436.2656,570.875 436,571.0156 435.7344,571.0156 C435.5156,571.0156 435.2813,570.9063 435.1406,570.7656 C435,570.6406 434.9688,570.5156 434.9063,570.1094 C434.8125,569.7031 434.6406,569.4844 434.1563,569.2031 C433.6875,568.9531 433.0781,568.7969 432.5,568.7969 C430.7656,568.7969 429.5156,570.1094 429.5156,571.8906 L429.5156,572.9844 C429.5156,574.6875 430.8125,575.7813 432.8594,575.7813 C433.625,575.7813 434.3125,575.6563 434.7344,575.3906 C434.9219,575.2969 434.9219,575.2969 435.375,574.8125 C435.5625,574.625 435.7656,574.5469 435.9844,574.5469 C436.4531,574.5469 436.8438,574.9375 436.8438,575.3906 C436.8438,575.7813 436.5156,576.2344 435.9375,576.6406 C435.1875,577.1875 434.0313,577.4844 432.8125,577.4844 C429.9219,577.4844 427.8125,575.5938 427.8125,573.0156 L427.8125,571.8906 C427.8125,569.1719 429.8125,567.0938 432.4375,567.0938 C433.3125,567.0938 433.9063,567.2344 434.8438,567.6719 Z "/><text fill="#000000" font-family="sans-serif" font-size="12" lengthAdjust="spacingAndGlyphs" textLength="83" x="446.5" y="576.1543">NewYorkStyle</text><line style="stroke: #A80036; stroke-width: 1.5;" x1="418.5" x2="531.5" y1="588" y2="588"/><line style="stroke: #A80036; stroke-width: 1.5;" x1="418.5" x2="531.5" y1="596" y2="596"/><text fill="#000000" font-family="sans-serif" font-size="11" lengthAdjust="spacingAndGlyphs" textLength="52" x="423.5" y="610.2104">getCost()</text><text fill="#000000" font-family="sans-serif" font-size="11" lengthAdjust="spacingAndGlyphs" textLength="90" x="423.5" y="623.0151">getDescription()</text><!--class ChicagoStyle--><rect fill="#FEFECE" filter="url(#fuv8n95ubjduf)" height="73.6094" id="ChicagoStyle" style="stroke: #A80036; stroke-width: 1.5;" width="112" x="568" y="556"/><ellipse cx="583" cy="572" fill="#ADD1B2" rx="11" ry="11" style="stroke: #A80036; stroke-width: 1.0;"/><path d="M585.3438,567.6719 L585.5156,567.75 C585.7344,567.4375 585.9375,567.3438 586.2344,567.3438 C586.5313,567.3438 586.8125,567.4844 586.9688,567.75 C587.0625,567.9063 587.0781,568.0313 587.0781,568.4688 L587.0781,569.8906 C587.0781,570.3125 587.0469,570.5 586.9375,570.6563 C586.7656,570.875 586.5,571.0156 586.2344,571.0156 C586.0156,571.0156 585.7813,570.9063 585.6406,570.7656 C585.5,570.6406 585.4688,570.5156 585.4063,570.1094 C585.3125,569.7031 585.1406,569.4844 584.6563,569.2031 C584.1875,568.9531 583.5781,568.7969 583,568.7969 C581.2656,568.7969 580.0156,570.1094 580.0156,571.8906 L580.0156,572.9844 C580.0156,574.6875 581.3125,575.7813 583.3594,575.7813 C584.125,575.7813 584.8125,575.6563 585.2344,575.3906 C585.4219,575.2969 585.4219,575.2969 585.875,574.8125 C586.0625,574.625 586.2656,574.5469 586.4844,574.5469 C586.9531,574.5469 587.3438,574.9375 587.3438,575.3906 C587.3438,575.7813 587.0156,576.2344 586.4375,576.6406 C585.6875,577.1875 584.5313,577.4844 583.3125,577.4844 C580.4219,577.4844 578.3125,575.5938 578.3125,573.0156 L578.3125,571.8906 C578.3125,569.1719 580.3125,567.0938 582.9375,567.0938 C583.8125,567.0938 584.4063,567.2344 585.3438,567.6719 Z "/><text fill="#000000" font-family="sans-serif" font-size="12" lengthAdjust="spacingAndGlyphs" textLength="80" x="597" y="576.1543">ChicagoStyle</text><line style="stroke: #A80036; stroke-width: 1.5;" x1="569" x2="679" y1="588" y2="588"/><line style="stroke: #A80036; stroke-width: 1.5;" x1="569" x2="679" y1="596" y2="596"/><text fill="#000000" font-family="sans-serif" font-size="11" lengthAdjust="spacingAndGlyphs" textLength="52" x="574" y="610.2104">getCost()</text><text fill="#000000" font-family="sans-serif" font-size="11" lengthAdjust="spacingAndGlyphs" textLength="90" x="574" y="623.0151">getDescription()</text><!--link Pizza to Margherita--><path d="M577.901,96.197 C562.088,111.434 545.035,127.864 530.391,141.974 " fill="none" id="Pizza-Margherita" style="stroke: #A80036; stroke-width: 1.0;"/><polygon fill="none" points="573.305,90.906,592.564,82.07,583.019,100.987,573.305,90.906" style="stroke: #A80036; stroke-width: 1.0;"/><!--link Pizza to Calzone--><path d="M630,102.379 C630,115.796 630,129.755 630,141.974 " fill="none" id="Pizza-Calzone" style="stroke: #A80036; stroke-width: 1.0;"/><polygon fill="none" points="623,102.07,630,82.07,637,102.07,623,102.07" style="stroke: #A80036; stroke-width: 1.0;"/><!--link Pizza to FlatBread--><path d="M682.099,96.197 C697.912,111.434 714.965,127.864 729.609,141.974 " fill="none" id="Pizza-FlatBread" style="stroke: #A80036; stroke-width: 1.0;"/><polygon fill="none" points="676.981,100.987,667.436,82.07,686.695,90.906,676.981,100.987" style="stroke: #A80036; stroke-width: 1.0;"/><!--link Pizza to BasicPizza--><path d="M722.501,87.892 C758.165,104.361 799.165,123.682 836,142 C841.502,144.736 847.222,147.651 852.904,150.593 " fill="none" id="Pizza-BasicPizza" style="stroke: #A80036; stroke-width: 1.0;"/><polygon fill="none" points="719.091,94.029,703.845,79.312,724.94,81.309,719.091,94.029" style="stroke: #A80036; stroke-width: 1.0;"/><!--link Pizza to PizzaDecorator--><path d="M537.301,68.647 C496.756,83.143 452.119,106.178 424,142 C393.992,180.229 387.559,237.222 387.113,275.914 " fill="none" id="Pizza-PizzaDecorator" style="stroke: #A80036; stroke-width: 1.0;"/><polygon fill="none" points="535.293,61.938,556.48,62.291,539.697,75.227,535.293,61.938" style="stroke: #A80036; stroke-width: 1.0;"/><!--link PizzaDecorator to ToppingDecorator--><path d="M331.741,376.441 C316.239,391.721 299.875,407.851 285.829,421.697 " fill="none" id="PizzaDecorator-ToppingDecorator" style="stroke: #A80036; stroke-width: 1.0;"/><polygon fill="none" points="327.077,371.209,346.235,362.154,336.905,381.18,327.077,371.209" style="stroke: #A80036; stroke-width: 1.0;"/><!--link PizzaDecorator to StyleDecorator--><path d="M425.946,379.286 C434.934,393.708 444.282,408.708 452.376,421.697 " fill="none" id="PizzaDecorator-StyleDecorator" style="stroke: #A80036; stroke-width: 1.0;"/><polygon fill="none" points="419.907,382.83,415.27,362.154,431.789,375.426,419.907,382.83" style="stroke: #A80036; stroke-width: 1.0;"/><!--link StyleDecorator to NewYorkStyle--><path d="M475,516.379 C475,529.796 475,543.7553 475,555.974 " fill="none" id="StyleDecorator-NewYorkStyle" style="stroke: #A80036; stroke-width: 1.0;"/><polygon fill="none" points="468,516.07,475,496.07,482,516.07,468,516.07" style="stroke: #A80036; stroke-width: 1.0;"/><!--link StyleDecorator to ChicagoStyle--><path d="M530.865,509.491 C548.287,524.925 567.161,541.6461 583.334,555.974 " fill="none" id="StyleDecorator-ChicagoStyle" style="stroke: #A80036; stroke-width: 1.0;"/><polygon fill="none" points="526.043,514.572,515.715,496.07,535.327,504.092,526.043,514.572" style="stroke: #A80036; stroke-width: 1.0;"/><!--link ToppingDecorator to Mozzarella--><path d="M226.107,514.944 C220.335,528.797 214.284,543.3189 209.011,555.974 " fill="none" id="ToppingDecorator-Mozzarella" style="stroke: #A80036; stroke-width: 1.0;"/><polygon fill="none" points="219.817,511.839,233.971,496.07,232.74,517.223,219.817,511.839" style="stroke: #A80036; stroke-width: 1.0;"/><!--link ToppingDecorator to Pepperoni--><path d="M179.799,507.576 C156.115,523.859 130.064,541.7684 108.074,556.8864 " fill="none" id="ToppingDecorator-Pepperoni" style="stroke: #A80036; stroke-width: 1.0;"/><polygon fill="none" points="176.089,501.632,196.535,496.07,184.02,513.168,176.089,501.632" style="stroke: #A80036; stroke-width: 1.0;"/><!--link ToppingDecorator to Arugula--><path d="M282.243,513.513 C291.114,527.793 300.488,542.8825 308.62,555.974 " fill="none" id="ToppingDecorator-Arugula" style="stroke: #A80036; stroke-width: 1.0;"/><polygon fill="none" points="276.014,516.752,271.407,496.07,287.907,509.365,276.014,516.752" style="stroke: #A80036; stroke-width: 1.0;"/><!--
@startuml
Abstract Pizza{
  getCost() : float
  getDescription() : string
}

Abstract PizzaDecorator{
  getCost()
  getDescription()
  wrappedPizza : Pizza
}

Abstract ToppingDecorator{
  getCost()
  getDescription()
}

Class Margherita{
  getCost()
  getDescription()
}

Class Calzone{
  getCost()
  getDescription()
}

Class FlatBread{
  getCost()
  getDescription()
}

Class BasicPizza{
  getCost()
  getDescription()
}

Class Pepperoni{
  getCost()
  getDescription()
}

Class Mozzarella{
  getCost()
  getDescription()
}

Class Arugula{
  getCost()
  getDescription()
}

Abstract StyleDecorator{
  getCost()
  getDescription()
}

Class NewYorkStyle{
  getCost()
  getDescription()
}

Class ChicagoStyle{
  getCost()
  getDescription()
}

Pizza <|- - Margherita
Pizza <|- - Calzone
Pizza <|- - FlatBread
Pizza <|- - BasicPizza

Pizza <|- - - PizzaDecorator

PizzaDecorator <|- - ToppingDecorator

PizzaDecorator <|- - StyleDecorator

StyleDecorator <|- - NewYorkStyle
StyleDecorator <|- - ChicagoStyle

ToppingDecorator <|- - Mozzarella
ToppingDecorator <|- - Pepperoni
ToppingDecorator <|- - Arugula
@enduml

PlantUML version 1.2018.02beta13(Unknown compile time)
(GPL source distribution)
Java Runtime: Java(TM) SE Runtime Environment
JVM: Java HotSpot(TM) 64-Bit Server VM
Java Version: 1.7.0_25-b15
Operating System: Linux
Default Encoding: UTF-8
Language: en
Country: US
--></g></svg>