<?xml version="1.0" encoding="UTF-8" standalone="no"?><svg xmlns="http://www.w3.org/2000/svg" xmlns:xlink="http://www.w3.org/1999/xlink" contentScriptType="application/ecmascript" contentStyleType="text/css" height="506px" preserveAspectRatio="none" style="width:771px;height:506px;" version="1.1" viewBox="0 0 771 506" width="771px" zoomAndPan="magnify"><defs><filter height="300%" id="f1ouojmnquzp08" width="300%" x="-1" y="-1"><feGaussianBlur result="blurOut" stdDeviation="2.0"/><feColorMatrix in="blurOut" result="blurOut2" type="matrix" values="0 0 0 0 0 0 0 0 0 0 0 0 0 0 0 0 0 0 .4 0"/><feOffset dx="4.0" dy="4.0" in="blurOut2" result="blurOut3"/><feBlend in="SourceGraphic" in2="blurOut3" mode="normal"/></filter></defs><g><!--class Pizza--><rect fill="#FEFECE" filter="url(#f1ouojmnquzp08)" height="73.6094" id="Pizza" style="stroke: #A80036; stroke-width: 1.5;" width="147" x="361.5" y="8"/><ellipse cx="415.75" cy="24" fill="#A9DCDF" rx="11" ry="11" style="stroke: #A80036; stroke-width: 1.0;"/><path d="M417.3281,25.8125 L413.2813,25.8125 L412.8906,26.7969 L413.2813,26.7969 C413.7344,26.7969 413.875,26.8281 414.0469,26.9531 C414.2656,27.125 414.3906,27.375 414.3906,27.6563 C414.3906,27.9375 414.25,28.2344 413.9844,28.375 C413.8594,28.4688 413.6406,28.5 413.2813,28.5 L411.0156,28.5 C410.2656,28.5 409.8906,28.2188 409.8906,27.6563 C409.8906,27.3594 410.0469,27.0781 410.2969,26.9219 C410.4531,26.8125 410.6094,26.7969 411.0313,26.7969 L413.6719,20.2813 L412.5938,20.2813 C412.1563,20.2813 411.9844,20.25 411.8125,20.1406 C411.5938,19.9688 411.4531,19.7188 411.4531,19.4375 C411.4531,19.1563 411.6094,18.875 411.8594,18.7031 C412.0156,18.6094 412.1406,18.5938 412.5938,18.5938 L416.2656,18.5938 L419.6563,26.7969 C420.125,26.7969 420.2813,26.8281 420.4531,26.9688 C420.6719,27.125 420.8125,27.375 420.8125,27.6563 C420.8125,27.9375 420.6563,28.2344 420.4063,28.375 C420.2656,28.4688 420.0469,28.5 419.6875,28.5 L417.3281,28.5 C416.9063,28.5 416.7031,28.4531 416.5625,28.3281 C416.3438,28.1719 416.2031,27.9219 416.2031,27.6563 C416.2031,27.3594 416.3594,27.0781 416.6094,26.9219 C416.7656,26.8125 416.875,26.7969 417.3281,26.7969 L417.7188,26.7969 Z M416.625,24.1094 L415.2969,20.8438 L413.9531,24.1094 Z "/><text fill="#000000" font-family="sans-serif" font-size="12" font-style="italic" lengthAdjust="spacingAndGlyphs" textLength="30" x="436.25" y="28.1543">Pizza</text><line style="stroke: #A80036; stroke-width: 1.5;" x1="362.5" x2="507.5" y1="40" y2="40"/><line style="stroke: #A80036; stroke-width: 1.5;" x1="362.5" x2="507.5" y1="48" y2="48"/><text fill="#000000" font-family="sans-serif" font-size="11" lengthAdjust="spacingAndGlyphs" textLength="89" x="367.5" y="62.2104">getCost() : float</text><text fill="#000000" font-family="sans-serif" font-size="11" lengthAdjust="spacingAndGlyphs" textLength="135" x="367.5" y="75.0151">getDescription() : string</text><!--class ToppingDecorator--><rect fill="#FEFECE" filter="url(#f1ouojmnquzp08)" height="86.4141" id="ToppingDecorator" style="stroke: #A80036; stroke-width: 1.5;" width="145" x="121.5" y="276"/><ellipse cx="136.5" cy="292" fill="#A9DCDF" rx="11" ry="11" style="stroke: #A80036; stroke-width: 1.0;"/><path d="M138.0781,293.8125 L134.0313,293.8125 L133.6406,294.7969 L134.0313,294.7969 C134.4844,294.7969 134.625,294.8281 134.7969,294.9531 C135.0156,295.125 135.1406,295.375 135.1406,295.6563 C135.1406,295.9375 135,296.2344 134.7344,296.375 C134.6094,296.4688 134.3906,296.5 134.0313,296.5 L131.7656,296.5 C131.0156,296.5 130.6406,296.2188 130.6406,295.6563 C130.6406,295.3594 130.7969,295.0781 131.0469,294.9219 C131.2031,294.8125 131.3594,294.7969 131.7813,294.7969 L134.4219,288.2813 L133.3438,288.2813 C132.9063,288.2813 132.7344,288.25 132.5625,288.1406 C132.3438,287.9688 132.2031,287.7188 132.2031,287.4375 C132.2031,287.1563 132.3594,286.875 132.6094,286.7031 C132.7656,286.6094 132.8906,286.5938 133.3438,286.5938 L137.0156,286.5938 L140.4063,294.7969 C140.875,294.7969 141.0313,294.8281 141.2031,294.9688 C141.4219,295.125 141.5625,295.375 141.5625,295.6563 C141.5625,295.9375 141.4063,296.2344 141.1563,296.375 C141.0156,296.4688 140.7969,296.5 140.4375,296.5 L138.0781,296.5 C137.6563,296.5 137.4531,296.4531 137.3125,296.3281 C137.0938,296.1719 136.9531,295.9219 136.9531,295.6563 C136.9531,295.3594 137.1094,295.0781 137.3594,294.9219 C137.5156,294.8125 137.625,294.7969 138.0781,294.7969 L138.4688,294.7969 Z M137.375,292.1094 L136.0469,288.8438 L134.7031,292.1094 Z "/><text fill="#000000" font-family="sans-serif" font-size="12" font-style="italic" lengthAdjust="spacingAndGlyphs" textLength="113" x="150.5" y="296.1543">ToppingDecorator</text><line style="stroke: #A80036; stroke-width: 1.5;" x1="122.5" x2="265.5" y1="308" y2="308"/><text fill="#000000" font-family="sans-serif" font-size="11" lengthAdjust="spacingAndGlyphs" textLength="115" x="127.5" y="322.2104">wrappedPizza : Pizza</text><line style="stroke: #A80036; stroke-width: 1.5;" x1="122.5" x2="265.5" y1="328.8047" y2="328.8047"/><text fill="#000000" font-family="sans-serif" font-size="11" lengthAdjust="spacingAndGlyphs" textLength="52" x="127.5" y="343.0151">getCost()</text><text fill="#000000" font-family="sans-serif" font-size="11" lengthAdjust="spacingAndGlyphs" textLength="90" x="127.5" y="355.8198">getDescription()</text><!--class Margherita--><rect fill="#FEFECE" filter="url(#f1ouojmnquzp08)" height="73.6094" id="Margherita" style="stroke: #A80036; stroke-width: 1.5;" width="102" x="247" y="142"/><ellipse cx="262.9" cy="158" fill="#ADD1B2" rx="11" ry="11" style="stroke: #A80036; stroke-width: 1.0;"/><path d="M265.2438,153.6719 L265.4156,153.75 C265.6344,153.4375 265.8375,153.3438 266.1344,153.3438 C266.4313,153.3438 266.7125,153.4844 266.8688,153.75 C266.9625,153.9063 266.9781,154.0313 266.9781,154.4688 L266.9781,155.8906 C266.9781,156.3125 266.9469,156.5 266.8375,156.6563 C266.6656,156.875 266.4,157.0156 266.1344,157.0156 C265.9156,157.0156 265.6813,156.9063 265.5406,156.7656 C265.4,156.6406 265.3688,156.5156 265.3063,156.1094 C265.2125,155.7031 265.0406,155.4844 264.5563,155.2031 C264.0875,154.9531 263.4781,154.7969 262.9,154.7969 C261.1656,154.7969 259.9156,156.1094 259.9156,157.8906 L259.9156,158.9844 C259.9156,160.6875 261.2125,161.7813 263.2594,161.7813 C264.025,161.7813 264.7125,161.6563 265.1344,161.3906 C265.3219,161.2969 265.3219,161.2969 265.775,160.8125 C265.9625,160.625 266.1656,160.5469 266.3844,160.5469 C266.8531,160.5469 267.2438,160.9375 267.2438,161.3906 C267.2438,161.7813 266.9156,162.2344 266.3375,162.6406 C265.5875,163.1875 264.4313,163.4844 263.2125,163.4844 C260.3219,163.4844 258.2125,161.5938 258.2125,159.0156 L258.2125,157.8906 C258.2125,155.1719 260.2125,153.0938 262.8375,153.0938 C263.7125,153.0938 264.3063,153.2344 265.2438,153.6719 Z "/><text fill="#000000" font-family="sans-serif" font-size="12" lengthAdjust="spacingAndGlyphs" textLength="68" x="277.1" y="162.1543">Margherita</text><line style="stroke: #A80036; stroke-width: 1.5;" x1="248" x2="348" y1="174" y2="174"/><line style="stroke: #A80036; stroke-width: 1.5;" x1="248" x2="348" y1="182" y2="182"/><text fill="#000000" font-family="sans-serif" font-size="11" lengthAdjust="spacingAndGlyphs" textLength="52" x="253" y="196.2104">getCost()</text><text fill="#000000" font-family="sans-serif" font-size="11" lengthAdjust="spacingAndGlyphs" textLength="90" x="253" y="209.0151">getDescription()</text><!--class Calzone--><rect fill="#FEFECE" filter="url(#f1ouojmnquzp08)" height="73.6094" id="Calzone" style="stroke: #A80036; stroke-width: 1.5;" width="102" x="384" y="142"/><ellipse cx="408.9" cy="158" fill="#ADD1B2" rx="11" ry="11" style="stroke: #A80036; stroke-width: 1.0;"/><path d="M411.2438,153.6719 L411.4156,153.75 C411.6344,153.4375 411.8375,153.3438 412.1344,153.3438 C412.4313,153.3438 412.7125,153.4844 412.8688,153.75 C412.9625,153.9063 412.9781,154.0313 412.9781,154.4688 L412.9781,155.8906 C412.9781,156.3125 412.9469,156.5 412.8375,156.6563 C412.6656,156.875 412.4,157.0156 412.1344,157.0156 C411.9156,157.0156 411.6813,156.9063 411.5406,156.7656 C411.4,156.6406 411.3688,156.5156 411.3063,156.1094 C411.2125,155.7031 411.0406,155.4844 410.5563,155.2031 C410.0875,154.9531 409.4781,154.7969 408.9,154.7969 C407.1656,154.7969 405.9156,156.1094 405.9156,157.8906 L405.9156,158.9844 C405.9156,160.6875 407.2125,161.7813 409.2594,161.7813 C410.025,161.7813 410.7125,161.6563 411.1344,161.3906 C411.3219,161.2969 411.3219,161.2969 411.775,160.8125 C411.9625,160.625 412.1656,160.5469 412.3844,160.5469 C412.8531,160.5469 413.2438,160.9375 413.2438,161.3906 C413.2438,161.7813 412.9156,162.2344 412.3375,162.6406 C411.5875,163.1875 410.4313,163.4844 409.2125,163.4844 C406.3219,163.4844 404.2125,161.5938 404.2125,159.0156 L404.2125,157.8906 C404.2125,155.1719 406.2125,153.0938 408.8375,153.0938 C409.7125,153.0938 410.3063,153.2344 411.2438,153.6719 Z "/><text fill="#000000" font-family="sans-serif" font-size="12" lengthAdjust="spacingAndGlyphs" textLength="48" x="425.1" y="162.1543">Calzone</text><line style="stroke: #A80036; stroke-width: 1.5;" x1="385" x2="485" y1="174" y2="174"/><line style="stroke: #A80036; stroke-width: 1.5;" x1="385" x2="485" y1="182" y2="182"/><text fill="#000000" font-family="sans-serif" font-size="11" lengthAdjust="spacingAndGlyphs" textLength="52" x="390" y="196.2104">getCost()</text><text fill="#000000" font-family="sans-serif" font-size="11" lengthAdjust="spacingAndGlyphs" textLength="90" x="390" y="209.0151">getDescription()</text><!--class FlatBread--><rect fill="#FEFECE" filter="url(#f1ouojmnquzp08)" height="73.6094" id="FlatBread" style="stroke: #A80036; stroke-width: 1.5;" width="102" x="521" y="142"/><ellipse cx="540.5" cy="158" fill="#ADD1B2" rx="11" ry="11" style="stroke: #A80036; stroke-width: 1.0;"/><path d="M542.8438,153.6719 L543.0156,153.75 C543.2344,153.4375 543.4375,153.3438 543.7344,153.3438 C544.0313,153.3438 544.3125,153.4844 544.4688,153.75 C544.5625,153.9063 544.5781,154.0313 544.5781,154.4688 L544.5781,155.8906 C544.5781,156.3125 544.5469,156.5 544.4375,156.6563 C544.2656,156.875 544,157.0156 543.7344,157.0156 C543.5156,157.0156 543.2813,156.9063 543.1406,156.7656 C543,156.6406 542.9688,156.5156 542.9063,156.1094 C542.8125,155.7031 542.6406,155.4844 542.1563,155.2031 C541.6875,154.9531 541.0781,154.7969 540.5,154.7969 C538.7656,154.7969 537.5156,156.1094 537.5156,157.8906 L537.5156,158.9844 C537.5156,160.6875 538.8125,161.7813 540.8594,161.7813 C541.625,161.7813 542.3125,161.6563 542.7344,161.3906 C542.9219,161.2969 542.9219,161.2969 543.375,160.8125 C543.5625,160.625 543.7656,160.5469 543.9844,160.5469 C544.4531,160.5469 544.8438,160.9375 544.8438,161.3906 C544.8438,161.7813 544.5156,162.2344 543.9375,162.6406 C543.1875,163.1875 542.0313,163.4844 540.8125,163.4844 C537.9219,163.4844 535.8125,161.5938 535.8125,159.0156 L535.8125,157.8906 C535.8125,155.1719 537.8125,153.0938 540.4375,153.0938 C541.3125,153.0938 541.9063,153.2344 542.8438,153.6719 Z "/><text fill="#000000" font-family="sans-serif" font-size="12" lengthAdjust="spacingAndGlyphs" textLength="60" x="555.5" y="162.1543">FlatBread</text><line style="stroke: #A80036; stroke-width: 1.5;" x1="522" x2="622" y1="174" y2="174"/><line style="stroke: #A80036; stroke-width: 1.5;" x1="522" x2="622" y1="182" y2="182"/><text fill="#000000" font-family="sans-serif" font-size="11" lengthAdjust="spacingAndGlyphs" textLength="52" x="527" y="196.2104">getCost()</text><text fill="#000000" font-family="sans-serif" font-size="11" lengthAdjust="spacingAndGlyphs" textLength="90" x="527" y="209.0151">getDescription()</text><!--class BasicPizza--><rect fill="#FEFECE" filter="url(#f1ouojmnquzp08)" height="73.6094" id="BasicPizza" style="stroke: #A80036; stroke-width: 1.5;" width="102" x="658" y="142"/><ellipse cx="676.6" cy="158" fill="#ADD1B2" rx="11" ry="11" style="stroke: #A80036; stroke-width: 1.0;"/><path d="M678.9438,153.6719 L679.1156,153.75 C679.3344,153.4375 679.5375,153.3438 679.8344,153.3438 C680.1313,153.3438 680.4125,153.4844 680.5688,153.75 C680.6625,153.9063 680.6781,154.0313 680.6781,154.4688 L680.6781,155.8906 C680.6781,156.3125 680.6469,156.5 680.5375,156.6563 C680.3656,156.875 680.1,157.0156 679.8344,157.0156 C679.6156,157.0156 679.3813,156.9063 679.2406,156.7656 C679.1,156.6406 679.0688,156.5156 679.0063,156.1094 C678.9125,155.7031 678.7406,155.4844 678.2563,155.2031 C677.7875,154.9531 677.1781,154.7969 676.6,154.7969 C674.8656,154.7969 673.6156,156.1094 673.6156,157.8906 L673.6156,158.9844 C673.6156,160.6875 674.9125,161.7813 676.9594,161.7813 C677.725,161.7813 678.4125,161.6563 678.8344,161.3906 C679.0219,161.2969 679.0219,161.2969 679.475,160.8125 C679.6625,160.625 679.8656,160.5469 680.0844,160.5469 C680.5531,160.5469 680.9438,160.9375 680.9438,161.3906 C680.9438,161.7813 680.6156,162.2344 680.0375,162.6406 C679.2875,163.1875 678.1313,163.4844 676.9125,163.4844 C674.0219,163.4844 671.9125,161.5938 671.9125,159.0156 L671.9125,157.8906 C671.9125,155.1719 673.9125,153.0938 676.5375,153.0938 C677.4125,153.0938 678.0063,153.2344 678.9438,153.6719 Z "/><text fill="#000000" font-family="sans-serif" font-size="12" lengthAdjust="spacingAndGlyphs" textLength="62" x="691.4" y="162.1543">BasicPizza</text><line style="stroke: #A80036; stroke-width: 1.5;" x1="659" x2="759" y1="174" y2="174"/><line style="stroke: #A80036; stroke-width: 1.5;" x1="659" x2="759" y1="182" y2="182"/><text fill="#000000" font-family="sans-serif" font-size="11" lengthAdjust="spacingAndGlyphs" textLength="52" x="664" y="196.2104">getCost()</text><text fill="#000000" font-family="sans-serif" font-size="11" lengthAdjust="spacingAndGlyphs" textLength="90" x="664" y="209.0151">getDescription()</text><!--class Pepperoni--><rect fill="#FEFECE" filter="url(#f1ouojmnquzp08)" height="73.6094" id="Pepperoni" style="stroke: #A80036; stroke-width: 1.5;" width="102" x="6" y="422"/><ellipse cx="23.7" cy="438" fill="#ADD1B2" rx="11" ry="11" style="stroke: #A80036; stroke-width: 1.0;"/><path d="M26.0438,433.6719 L26.2156,433.75 C26.4344,433.4375 26.6375,433.3438 26.9344,433.3438 C27.2313,433.3438 27.5125,433.4844 27.6688,433.75 C27.7625,433.9063 27.7781,434.0313 27.7781,434.4688 L27.7781,435.8906 C27.7781,436.3125 27.7469,436.5 27.6375,436.6563 C27.4656,436.875 27.2,437.0156 26.9344,437.0156 C26.7156,437.0156 26.4813,436.9063 26.3406,436.7656 C26.2,436.6406 26.1688,436.5156 26.1063,436.1094 C26.0125,435.7031 25.8406,435.4844 25.3563,435.2031 C24.8875,434.9531 24.2781,434.7969 23.7,434.7969 C21.9656,434.7969 20.7156,436.1094 20.7156,437.8906 L20.7156,438.9844 C20.7156,440.6875 22.0125,441.7813 24.0594,441.7813 C24.825,441.7813 25.5125,441.6563 25.9344,441.3906 C26.1219,441.2969 26.1219,441.2969 26.575,440.8125 C26.7625,440.625 26.9656,440.5469 27.1844,440.5469 C27.6531,440.5469 28.0438,440.9375 28.0438,441.3906 C28.0438,441.7813 27.7156,442.2344 27.1375,442.6406 C26.3875,443.1875 25.2313,443.4844 24.0125,443.4844 C21.1219,443.4844 19.0125,441.5938 19.0125,439.0156 L19.0125,437.8906 C19.0125,435.1719 21.0125,433.0938 23.6375,433.0938 C24.5125,433.0938 25.1063,433.2344 26.0438,433.6719 Z "/><text fill="#000000" font-family="sans-serif" font-size="12" lengthAdjust="spacingAndGlyphs" textLength="64" x="38.3" y="442.1543">Pepperoni</text><line style="stroke: #A80036; stroke-width: 1.5;" x1="7" x2="107" y1="454" y2="454"/><line style="stroke: #A80036; stroke-width: 1.5;" x1="7" x2="107" y1="462" y2="462"/><text fill="#000000" font-family="sans-serif" font-size="11" lengthAdjust="spacingAndGlyphs" textLength="52" x="12" y="476.2104">getCost()</text><text fill="#000000" font-family="sans-serif" font-size="11" lengthAdjust="spacingAndGlyphs" textLength="90" x="12" y="489.0151">getDescription()</text><!--class Mozzarella--><rect fill="#FEFECE" filter="url(#f1ouojmnquzp08)" height="73.6094" id="Mozzarella" style="stroke: #A80036; stroke-width: 1.5;" width="102" x="143" y="422"/><ellipse cx="161.15" cy="438" fill="#ADD1B2" rx="11" ry="11" style="stroke: #A80036; stroke-width: 1.0;"/><path d="M163.4938,433.6719 L163.6656,433.75 C163.8844,433.4375 164.0875,433.3438 164.3844,433.3438 C164.6813,433.3438 164.9625,433.4844 165.1188,433.75 C165.2125,433.9063 165.2281,434.0313 165.2281,434.4688 L165.2281,435.8906 C165.2281,436.3125 165.1969,436.5 165.0875,436.6563 C164.9156,436.875 164.65,437.0156 164.3844,437.0156 C164.1656,437.0156 163.9313,436.9063 163.7906,436.7656 C163.65,436.6406 163.6188,436.5156 163.5563,436.1094 C163.4625,435.7031 163.2906,435.4844 162.8063,435.2031 C162.3375,434.9531 161.7281,434.7969 161.15,434.7969 C159.4156,434.7969 158.1656,436.1094 158.1656,437.8906 L158.1656,438.9844 C158.1656,440.6875 159.4625,441.7813 161.5094,441.7813 C162.275,441.7813 162.9625,441.6563 163.3844,441.3906 C163.5719,441.2969 163.5719,441.2969 164.025,440.8125 C164.2125,440.625 164.4156,440.5469 164.6344,440.5469 C165.1031,440.5469 165.4938,440.9375 165.4938,441.3906 C165.4938,441.7813 165.1656,442.2344 164.5875,442.6406 C163.8375,443.1875 162.6813,443.4844 161.4625,443.4844 C158.5719,443.4844 156.4625,441.5938 156.4625,439.0156 L156.4625,437.8906 C156.4625,435.1719 158.4625,433.0938 161.0875,433.0938 C161.9625,433.0938 162.5563,433.2344 163.4938,433.6719 Z "/><text fill="#000000" font-family="sans-serif" font-size="12" lengthAdjust="spacingAndGlyphs" textLength="63" x="175.85" y="442.1543">Mozzarella</text><line style="stroke: #A80036; stroke-width: 1.5;" x1="144" x2="244" y1="454" y2="454"/><line style="stroke: #A80036; stroke-width: 1.5;" x1="144" x2="244" y1="462" y2="462"/><text fill="#000000" font-family="sans-serif" font-size="11" lengthAdjust="spacingAndGlyphs" textLength="52" x="149" y="476.2104">getCost()</text><text fill="#000000" font-family="sans-serif" font-size="11" lengthAdjust="spacingAndGlyphs" textLength="90" x="149" y="489.0151">getDescription()</text><!--class Arugula--><rect fill="#FEFECE" filter="url(#f1ouojmnquzp08)" height="73.6094" id="Arugula" style="stroke: #A80036; stroke-width: 1.5;" width="102" x="280" y="422"/><ellipse cx="304.9" cy="438" fill="#ADD1B2" rx="11" ry="11" style="stroke: #A80036; stroke-width: 1.0;"/><path d="M307.2438,433.6719 L307.4156,433.75 C307.6344,433.4375 307.8375,433.3438 308.1344,433.3438 C308.4313,433.3438 308.7125,433.4844 308.8688,433.75 C308.9625,433.9063 308.9781,434.0313 308.9781,434.4688 L308.9781,435.8906 C308.9781,436.3125 308.9469,436.5 308.8375,436.6563 C308.6656,436.875 308.4,437.0156 308.1344,437.0156 C307.9156,437.0156 307.6813,436.9063 307.5406,436.7656 C307.4,436.6406 307.3688,436.5156 307.3063,436.1094 C307.2125,435.7031 307.0406,435.4844 306.5563,435.2031 C306.0875,434.9531 305.4781,434.7969 304.9,434.7969 C303.1656,434.7969 301.9156,436.1094 301.9156,437.8906 L301.9156,438.9844 C301.9156,440.6875 303.2125,441.7813 305.2594,441.7813 C306.025,441.7813 306.7125,441.6563 307.1344,441.3906 C307.3219,441.2969 307.3219,441.2969 307.775,440.8125 C307.9625,440.625 308.1656,440.5469 308.3844,440.5469 C308.8531,440.5469 309.2438,440.9375 309.2438,441.3906 C309.2438,441.7813 308.9156,442.2344 308.3375,442.6406 C307.5875,443.1875 306.4313,443.4844 305.2125,443.4844 C302.3219,443.4844 300.2125,441.5938 300.2125,439.0156 L300.2125,437.8906 C300.2125,435.1719 302.2125,433.0938 304.8375,433.0938 C305.7125,433.0938 306.3063,433.2344 307.2438,433.6719 Z "/><text fill="#000000" font-family="sans-serif" font-size="12" lengthAdjust="spacingAndGlyphs" textLength="48" x="321.1" y="442.1543">Arugula</text><line style="stroke: #A80036; stroke-width: 1.5;" x1="281" x2="381" y1="454" y2="454"/><line style="stroke: #A80036; stroke-width: 1.5;" x1="281" x2="381" y1="462" y2="462"/><text fill="#000000" font-family="sans-serif" font-size="11" lengthAdjust="spacingAndGlyphs" textLength="52" x="286" y="476.2104">getCost()</text><text fill="#000000" font-family="sans-serif" font-size="11" lengthAdjust="spacingAndGlyphs" textLength="90" x="286" y="489.0151">getDescription()</text><!--link Pizza to Margherita--><path d="M382.901,96.197 C367.088,111.434 350.035,127.864 335.391,141.974 " fill="none" id="Pizza-Margherita" style="stroke: #A80036; stroke-width: 1.0;"/><polygon fill="none" points="378.305,90.906,397.564,82.07,388.019,100.987,378.305,90.906" style="stroke: #A80036; stroke-width: 1.0;"/><!--link Pizza to Calzone--><path d="M435,102.379 C435,115.796 435,129.755 435,141.974 " fill="none" id="Pizza-Calzone" style="stroke: #A80036; stroke-width: 1.0;"/><polygon fill="none" points="428,102.07,435,82.07,442,102.07,428,102.07" style="stroke: #A80036; stroke-width: 1.0;"/><!--link Pizza to FlatBread--><path d="M487.099,96.197 C502.912,111.434 519.965,127.864 534.609,141.974 " fill="none" id="Pizza-FlatBread" style="stroke: #A80036; stroke-width: 1.0;"/><polygon fill="none" points="481.981,100.987,472.436,82.07,491.695,90.906,481.981,100.987" style="stroke: #A80036; stroke-width: 1.0;"/><!--link Pizza to BasicPizza--><path d="M527.501,87.892 C563.165,104.361 604.165,123.682 641,142 C646.502,144.736 652.222,147.651 657.904,150.593 " fill="none" id="Pizza-BasicPizza" style="stroke: #A80036; stroke-width: 1.0;"/><polygon fill="none" points="524.091,94.029,508.845,79.312,529.94,81.309,524.091,94.029" style="stroke: #A80036; stroke-width: 1.0;"/><!--link Pizza to ToppingDecorator--><path d="M342.379,68.984 C302.169,83.527 257.966,106.504 230,142 C199.89,180.217 193.108,237.213 192.405,275.909 " fill="none" id="Pizza-ToppingDecorator" style="stroke: #A80036; stroke-width: 1.0;"/><polygon fill="none" points="340.218,62.326,361.406,62.599,344.672,75.599,340.218,62.326" style="stroke: #A80036; stroke-width: 1.0;"/><!--link ToppingDecorator to Mozzarella--><path d="M194,382.623 C194,396.0037 194,409.7071 194,421.697 " fill="none" id="ToppingDecorator-Mozzarella" style="stroke: #A80036; stroke-width: 1.0;"/><polygon fill="none" points="187,382.154,194,362.154,201,382.154,187,382.154" style="stroke: #A80036; stroke-width: 1.0;"/><!--link ToppingDecorator to Pepperoni--><path d="M137.968,376.441 C122.799,391.721 106.785,407.8515 93.0399,421.697 " fill="none" id="ToppingDecorator-Pepperoni" style="stroke: #A80036; stroke-width: 1.0;"/><polygon fill="none" points="133.093,371.416,152.151,362.154,143.028,381.28,133.093,371.416" style="stroke: #A80036; stroke-width: 1.0;"/><!--link ToppingDecorator to Arugula--><path d="M250.032,376.441 C265.201,391.721 281.215,407.8515 294.96,421.697 " fill="none" id="ToppingDecorator-Arugula" style="stroke: #A80036; stroke-width: 1.0;"/><polygon fill="none" points="244.972,381.28,235.849,362.154,254.907,371.416,244.972,381.28" style="stroke: #A80036; stroke-width: 1.0;"/><!--
@startuml
Abstract Pizza{
  getCost() : float
  getDescription() : string
}

Abstract ToppingDecorator{
  getCost()
  getDescription()
  wrappedPizza : Pizza
}

Class Margherita{
  getCost()
  getDescription()
}

Class Calzone{
  getCost()
  getDescription()
}

Class FlatBread{
  getCost()
  getDescription()
}

Class BasicPizza{
  getCost()
  getDescription()
}

Class Pepperoni{
  getCost()
  getDescription()
}

Class Mozzarella{
  getCost()
  getDescription()
}

Class Arugula{
  getCost()
  getDescription()
}

Pizza <|- - Margherita
Pizza <|- - Calzone
Pizza <|- - FlatBread
Pizza <|- - BasicPizza

Pizza <|- - - ToppingDecorator

ToppingDecorator <|- - Mozzarella
ToppingDecorator <|- - Pepperoni
ToppingDecorator <|- - Arugula
@enduml

PlantUML version 1.2018.02beta13(Unknown compile time)
(GPL source distribution)
Java Runtime: Java(TM) SE Runtime Environment
JVM: Java HotSpot(TM) 64-Bit Server VM
Java Version: 1.7.0_25-b15
Operating System: Linux
Default Encoding: UTF-8
Language: en
Country: US
--></g></svg>