<?xml version="1.0" encoding="UTF-8" standalone="no"?><svg xmlns="http://www.w3.org/2000/svg" xmlns:xlink="http://www.w3.org/1999/xlink" contentScriptType="application/ecmascript" contentStyleType="text/css" height="1095px" preserveAspectRatio="none" style="width:1058px;height:1095px;" version="1.1" viewBox="0 0 1058 1095" width="1058px" zoomAndPan="magnify"><defs><filter height="300%" id="f1qjywfapknxnl" width="300%" x="-1" y="-1"><feGaussianBlur result="blurOut" stdDeviation="2.0"/><feColorMatrix in="blurOut" result="blurOut2" type="matrix" values="0 0 0 0 0 0 0 0 0 0 0 0 0 0 0 0 0 0 .4 0"/><feOffset dx="4.0" dy="4.0" in="blurOut2" result="blurOut3"/><feBlend in="SourceGraphic" in2="blurOut3" mode="normal"/></filter></defs><g><!--cluster In Decorator Pattern Example--><polygon fill="#EDEDED" filter="url(#f1qjywfapknxnl)" points="328.5,544,565.5,544,572.5,566.2969,1036.5,566.2969,1036.5,1083,328.5,1083,328.5,544" style="stroke: #000000; stroke-width: 1.5;"/><line style="stroke: #000000; stroke-width: 1.5;" x1="328.5" x2="572.5" y1="566.2969" y2="566.2969"/><text fill="#000000" font-family="sans-serif" font-size="14" font-weight="bold" lengthAdjust="spacingAndGlyphs" textLength="231" x="332.5" y="558.9951">In Decorator Pattern Example</text><!--class Pizza--><rect fill="#FEFECE" filter="url(#f1qjywfapknxnl)" height="73.6094" id="Pizza" style="stroke: #A80036; stroke-width: 1.5;" width="147" x="622" y="579"/><ellipse cx="676.25" cy="595" fill="#A9DCDF" rx="11" ry="11" style="stroke: #A80036; stroke-width: 1.0;"/><path d="M677.8281,596.8125 L673.7813,596.8125 L673.3906,597.7969 L673.7813,597.7969 C674.2344,597.7969 674.375,597.8281 674.5469,597.9531 C674.7656,598.125 674.8906,598.375 674.8906,598.6563 C674.8906,598.9375 674.75,599.2344 674.4844,599.375 C674.3594,599.4688 674.1406,599.5 673.7813,599.5 L671.5156,599.5 C670.7656,599.5 670.3906,599.2188 670.3906,598.6563 C670.3906,598.3594 670.5469,598.0781 670.7969,597.9219 C670.9531,597.8125 671.1094,597.7969 671.5313,597.7969 L674.1719,591.2813 L673.0938,591.2813 C672.6563,591.2813 672.4844,591.25 672.3125,591.1406 C672.0938,590.9688 671.9531,590.7188 671.9531,590.4375 C671.9531,590.1563 672.1094,589.875 672.3594,589.7031 C672.5156,589.6094 672.6406,589.5938 673.0938,589.5938 L676.7656,589.5938 L680.1563,597.7969 C680.625,597.7969 680.7813,597.8281 680.9531,597.9688 C681.1719,598.125 681.3125,598.375 681.3125,598.6563 C681.3125,598.9375 681.1563,599.2344 680.9063,599.375 C680.7656,599.4688 680.5469,599.5 680.1875,599.5 L677.8281,599.5 C677.4063,599.5 677.2031,599.4531 677.0625,599.3281 C676.8438,599.1719 676.7031,598.9219 676.7031,598.6563 C676.7031,598.3594 676.8594,598.0781 677.1094,597.9219 C677.2656,597.8125 677.375,597.7969 677.8281,597.7969 L678.2188,597.7969 Z M677.125,595.1094 L675.7969,591.8438 L674.4531,595.1094 Z "/><text fill="#000000" font-family="sans-serif" font-size="12" font-style="italic" lengthAdjust="spacingAndGlyphs" textLength="30" x="696.75" y="599.1543">Pizza</text><line style="stroke: #A80036; stroke-width: 1.5;" x1="623" x2="768" y1="611" y2="611"/><line style="stroke: #A80036; stroke-width: 1.5;" x1="623" x2="768" y1="619" y2="619"/><text fill="#000000" font-family="sans-serif" font-size="11" lengthAdjust="spacingAndGlyphs" textLength="89" x="628" y="633.2104">getCost() : float</text><text fill="#000000" font-family="sans-serif" font-size="11" lengthAdjust="spacingAndGlyphs" textLength="135" x="628" y="646.0151">getDescription() : string</text><!--class PizzaDecorator--><rect fill="#FEFECE" filter="url(#f1qjywfapknxnl)" height="86.4141" id="PizzaDecorator" style="stroke: #A80036; stroke-width: 1.5;" width="127" x="345" y="713"/><ellipse cx="360.9" cy="729" fill="#A9DCDF" rx="11" ry="11" style="stroke: #A80036; stroke-width: 1.0;"/><path d="M362.4781,730.8125 L358.4313,730.8125 L358.0406,731.7969 L358.4313,731.7969 C358.8844,731.7969 359.025,731.8281 359.1969,731.9531 C359.4156,732.125 359.5406,732.375 359.5406,732.6563 C359.5406,732.9375 359.4,733.2344 359.1344,733.375 C359.0094,733.4688 358.7906,733.5 358.4313,733.5 L356.1656,733.5 C355.4156,733.5 355.0406,733.2188 355.0406,732.6563 C355.0406,732.3594 355.1969,732.0781 355.4469,731.9219 C355.6031,731.8125 355.7594,731.7969 356.1813,731.7969 L358.8219,725.2813 L357.7438,725.2813 C357.3063,725.2813 357.1344,725.25 356.9625,725.1406 C356.7438,724.9688 356.6031,724.7188 356.6031,724.4375 C356.6031,724.1563 356.7594,723.875 357.0094,723.7031 C357.1656,723.6094 357.2906,723.5938 357.7438,723.5938 L361.4156,723.5938 L364.8063,731.7969 C365.275,731.7969 365.4313,731.8281 365.6031,731.9688 C365.8219,732.125 365.9625,732.375 365.9625,732.6563 C365.9625,732.9375 365.8063,733.2344 365.5563,733.375 C365.4156,733.4688 365.1969,733.5 364.8375,733.5 L362.4781,733.5 C362.0563,733.5 361.8531,733.4531 361.7125,733.3281 C361.4938,733.1719 361.3531,732.9219 361.3531,732.6563 C361.3531,732.3594 361.5094,732.0781 361.7594,731.9219 C361.9156,731.8125 362.025,731.7969 362.4781,731.7969 L362.8688,731.7969 Z M361.775,729.1094 L360.4469,725.8438 L359.1031,729.1094 Z "/><text fill="#000000" font-family="sans-serif" font-size="12" font-style="italic" lengthAdjust="spacingAndGlyphs" textLength="93" x="375.1" y="733.1543">PizzaDecorator</text><line style="stroke: #A80036; stroke-width: 1.5;" x1="346" x2="471" y1="745" y2="745"/><text fill="#000000" font-family="sans-serif" font-size="11" lengthAdjust="spacingAndGlyphs" textLength="115" x="351" y="759.2104">wrappedPizza : Pizza</text><line style="stroke: #A80036; stroke-width: 1.5;" x1="346" x2="471" y1="765.8047" y2="765.8047"/><text fill="#000000" font-family="sans-serif" font-size="11" lengthAdjust="spacingAndGlyphs" textLength="52" x="351" y="780.0151">getCost()</text><text fill="#000000" font-family="sans-serif" font-size="11" lengthAdjust="spacingAndGlyphs" textLength="90" x="351" y="792.8198">getDescription()</text><!--class ToppingDecorator--><rect fill="#FEFECE" filter="url(#f1qjywfapknxnl)" height="73.6094" id="ToppingDecorator" style="stroke: #A80036; stroke-width: 1.5;" width="145" x="403" y="859"/><ellipse cx="418" cy="875" fill="#A9DCDF" rx="11" ry="11" style="stroke: #A80036; stroke-width: 1.0;"/><path d="M419.5781,876.8125 L415.5313,876.8125 L415.1406,877.7969 L415.5313,877.7969 C415.9844,877.7969 416.125,877.8281 416.2969,877.9531 C416.5156,878.125 416.6406,878.375 416.6406,878.6563 C416.6406,878.9375 416.5,879.2344 416.2344,879.375 C416.1094,879.4688 415.8906,879.5 415.5313,879.5 L413.2656,879.5 C412.5156,879.5 412.1406,879.2188 412.1406,878.6563 C412.1406,878.3594 412.2969,878.0781 412.5469,877.9219 C412.7031,877.8125 412.8594,877.7969 413.2813,877.7969 L415.9219,871.2813 L414.8438,871.2813 C414.4063,871.2813 414.2344,871.25 414.0625,871.1406 C413.8438,870.9688 413.7031,870.7188 413.7031,870.4375 C413.7031,870.1563 413.8594,869.875 414.1094,869.7031 C414.2656,869.6094 414.3906,869.5938 414.8438,869.5938 L418.5156,869.5938 L421.9063,877.7969 C422.375,877.7969 422.5313,877.8281 422.7031,877.9688 C422.9219,878.125 423.0625,878.375 423.0625,878.6563 C423.0625,878.9375 422.9063,879.2344 422.6563,879.375 C422.5156,879.4688 422.2969,879.5 421.9375,879.5 L419.5781,879.5 C419.1563,879.5 418.9531,879.4531 418.8125,879.3281 C418.5938,879.1719 418.4531,878.9219 418.4531,878.6563 C418.4531,878.3594 418.6094,878.0781 418.8594,877.9219 C419.0156,877.8125 419.125,877.7969 419.5781,877.7969 L419.9688,877.7969 Z M418.875,875.1094 L417.5469,871.8438 L416.2031,875.1094 Z "/><text fill="#000000" font-family="sans-serif" font-size="12" font-style="italic" lengthAdjust="spacingAndGlyphs" textLength="113" x="432" y="879.1543">ToppingDecorator</text><line style="stroke: #A80036; stroke-width: 1.5;" x1="404" x2="547" y1="891" y2="891"/><line style="stroke: #A80036; stroke-width: 1.5;" x1="404" x2="547" y1="899" y2="899"/><text fill="#000000" font-family="sans-serif" font-size="11" lengthAdjust="spacingAndGlyphs" textLength="52" x="409" y="913.2104">getCost()</text><text fill="#000000" font-family="sans-serif" font-size="11" lengthAdjust="spacingAndGlyphs" textLength="90" x="409" y="926.0151">getDescription()</text><!--class Margherita--><rect fill="#FEFECE" filter="url(#f1qjywfapknxnl)" height="73.6094" id="Margherita" style="stroke: #A80036; stroke-width: 1.5;" width="102" x="507.5" y="719"/><ellipse cx="523.4" cy="735" fill="#ADD1B2" rx="11" ry="11" style="stroke: #A80036; stroke-width: 1.0;"/><path d="M525.7438,730.6719 L525.9156,730.75 C526.1344,730.4375 526.3375,730.3438 526.6344,730.3438 C526.9313,730.3438 527.2125,730.4844 527.3688,730.75 C527.4625,730.9063 527.4781,731.0313 527.4781,731.4688 L527.4781,732.8906 C527.4781,733.3125 527.4469,733.5 527.3375,733.6563 C527.1656,733.875 526.9,734.0156 526.6344,734.0156 C526.4156,734.0156 526.1813,733.9063 526.0406,733.7656 C525.9,733.6406 525.8688,733.5156 525.8063,733.1094 C525.7125,732.7031 525.5406,732.4844 525.0563,732.2031 C524.5875,731.9531 523.9781,731.7969 523.4,731.7969 C521.6656,731.7969 520.4156,733.1094 520.4156,734.8906 L520.4156,735.9844 C520.4156,737.6875 521.7125,738.7813 523.7594,738.7813 C524.525,738.7813 525.2125,738.6563 525.6344,738.3906 C525.8219,738.2969 525.8219,738.2969 526.275,737.8125 C526.4625,737.625 526.6656,737.5469 526.8844,737.5469 C527.3531,737.5469 527.7438,737.9375 527.7438,738.3906 C527.7438,738.7813 527.4156,739.2344 526.8375,739.6406 C526.0875,740.1875 524.9313,740.4844 523.7125,740.4844 C520.8219,740.4844 518.7125,738.5938 518.7125,736.0156 L518.7125,734.8906 C518.7125,732.1719 520.7125,730.0938 523.3375,730.0938 C524.2125,730.0938 524.8063,730.2344 525.7438,730.6719 Z "/><text fill="#000000" font-family="sans-serif" font-size="12" lengthAdjust="spacingAndGlyphs" textLength="68" x="537.6" y="739.1543">Margherita</text><line style="stroke: #A80036; stroke-width: 1.5;" x1="508.5" x2="608.5" y1="751" y2="751"/><line style="stroke: #A80036; stroke-width: 1.5;" x1="508.5" x2="608.5" y1="759" y2="759"/><text fill="#000000" font-family="sans-serif" font-size="11" lengthAdjust="spacingAndGlyphs" textLength="52" x="513.5" y="773.2104">getCost()</text><text fill="#000000" font-family="sans-serif" font-size="11" lengthAdjust="spacingAndGlyphs" textLength="90" x="513.5" y="786.0151">getDescription()</text><!--class Calzone--><rect fill="#FEFECE" filter="url(#f1qjywfapknxnl)" height="73.6094" id="Calzone" style="stroke: #A80036; stroke-width: 1.5;" width="102" x="644.5" y="719"/><ellipse cx="669.4" cy="735" fill="#ADD1B2" rx="11" ry="11" style="stroke: #A80036; stroke-width: 1.0;"/><path d="M671.7438,730.6719 L671.9156,730.75 C672.1344,730.4375 672.3375,730.3438 672.6344,730.3438 C672.9313,730.3438 673.2125,730.4844 673.3688,730.75 C673.4625,730.9063 673.4781,731.0313 673.4781,731.4688 L673.4781,732.8906 C673.4781,733.3125 673.4469,733.5 673.3375,733.6563 C673.1656,733.875 672.9,734.0156 672.6344,734.0156 C672.4156,734.0156 672.1813,733.9063 672.0406,733.7656 C671.9,733.6406 671.8688,733.5156 671.8063,733.1094 C671.7125,732.7031 671.5406,732.4844 671.0563,732.2031 C670.5875,731.9531 669.9781,731.7969 669.4,731.7969 C667.6656,731.7969 666.4156,733.1094 666.4156,734.8906 L666.4156,735.9844 C666.4156,737.6875 667.7125,738.7813 669.7594,738.7813 C670.525,738.7813 671.2125,738.6563 671.6344,738.3906 C671.8219,738.2969 671.8219,738.2969 672.275,737.8125 C672.4625,737.625 672.6656,737.5469 672.8844,737.5469 C673.3531,737.5469 673.7438,737.9375 673.7438,738.3906 C673.7438,738.7813 673.4156,739.2344 672.8375,739.6406 C672.0875,740.1875 670.9313,740.4844 669.7125,740.4844 C666.8219,740.4844 664.7125,738.5938 664.7125,736.0156 L664.7125,734.8906 C664.7125,732.1719 666.7125,730.0938 669.3375,730.0938 C670.2125,730.0938 670.8063,730.2344 671.7438,730.6719 Z "/><text fill="#000000" font-family="sans-serif" font-size="12" lengthAdjust="spacingAndGlyphs" textLength="48" x="685.6" y="739.1543">Calzone</text><line style="stroke: #A80036; stroke-width: 1.5;" x1="645.5" x2="745.5" y1="751" y2="751"/><line style="stroke: #A80036; stroke-width: 1.5;" x1="645.5" x2="745.5" y1="759" y2="759"/><text fill="#000000" font-family="sans-serif" font-size="11" lengthAdjust="spacingAndGlyphs" textLength="52" x="650.5" y="773.2104">getCost()</text><text fill="#000000" font-family="sans-serif" font-size="11" lengthAdjust="spacingAndGlyphs" textLength="90" x="650.5" y="786.0151">getDescription()</text><!--class FlatBread--><rect fill="#FEFECE" filter="url(#f1qjywfapknxnl)" height="73.6094" id="FlatBread" style="stroke: #A80036; stroke-width: 1.5;" width="102" x="781.5" y="719"/><ellipse cx="801" cy="735" fill="#ADD1B2" rx="11" ry="11" style="stroke: #A80036; stroke-width: 1.0;"/><path d="M803.3438,730.6719 L803.5156,730.75 C803.7344,730.4375 803.9375,730.3438 804.2344,730.3438 C804.5313,730.3438 804.8125,730.4844 804.9688,730.75 C805.0625,730.9063 805.0781,731.0313 805.0781,731.4688 L805.0781,732.8906 C805.0781,733.3125 805.0469,733.5 804.9375,733.6563 C804.7656,733.875 804.5,734.0156 804.2344,734.0156 C804.0156,734.0156 803.7813,733.9063 803.6406,733.7656 C803.5,733.6406 803.4688,733.5156 803.4063,733.1094 C803.3125,732.7031 803.1406,732.4844 802.6563,732.2031 C802.1875,731.9531 801.5781,731.7969 801,731.7969 C799.2656,731.7969 798.0156,733.1094 798.0156,734.8906 L798.0156,735.9844 C798.0156,737.6875 799.3125,738.7813 801.3594,738.7813 C802.125,738.7813 802.8125,738.6563 803.2344,738.3906 C803.4219,738.2969 803.4219,738.2969 803.875,737.8125 C804.0625,737.625 804.2656,737.5469 804.4844,737.5469 C804.9531,737.5469 805.3438,737.9375 805.3438,738.3906 C805.3438,738.7813 805.0156,739.2344 804.4375,739.6406 C803.6875,740.1875 802.5313,740.4844 801.3125,740.4844 C798.4219,740.4844 796.3125,738.5938 796.3125,736.0156 L796.3125,734.8906 C796.3125,732.1719 798.3125,730.0938 800.9375,730.0938 C801.8125,730.0938 802.4063,730.2344 803.3438,730.6719 Z "/><text fill="#000000" font-family="sans-serif" font-size="12" lengthAdjust="spacingAndGlyphs" textLength="60" x="816" y="739.1543">FlatBread</text><line style="stroke: #A80036; stroke-width: 1.5;" x1="782.5" x2="882.5" y1="751" y2="751"/><line style="stroke: #A80036; stroke-width: 1.5;" x1="782.5" x2="882.5" y1="759" y2="759"/><text fill="#000000" font-family="sans-serif" font-size="11" lengthAdjust="spacingAndGlyphs" textLength="52" x="787.5" y="773.2104">getCost()</text><text fill="#000000" font-family="sans-serif" font-size="11" lengthAdjust="spacingAndGlyphs" textLength="90" x="787.5" y="786.0151">getDescription()</text><!--class BasicPizza--><rect fill="#FEFECE" filter="url(#f1qjywfapknxnl)" height="73.6094" id="BasicPizza" style="stroke: #A80036; stroke-width: 1.5;" width="102" x="918.5" y="719"/><ellipse cx="937.1" cy="735" fill="#ADD1B2" rx="11" ry="11" style="stroke: #A80036; stroke-width: 1.0;"/><path d="M939.4438,730.6719 L939.6156,730.75 C939.8344,730.4375 940.0375,730.3438 940.3344,730.3438 C940.6313,730.3438 940.9125,730.4844 941.0688,730.75 C941.1625,730.9063 941.1781,731.0313 941.1781,731.4688 L941.1781,732.8906 C941.1781,733.3125 941.1469,733.5 941.0375,733.6563 C940.8656,733.875 940.6,734.0156 940.3344,734.0156 C940.1156,734.0156 939.8813,733.9063 939.7406,733.7656 C939.6,733.6406 939.5688,733.5156 939.5063,733.1094 C939.4125,732.7031 939.2406,732.4844 938.7563,732.2031 C938.2875,731.9531 937.6781,731.7969 937.1,731.7969 C935.3656,731.7969 934.1156,733.1094 934.1156,734.8906 L934.1156,735.9844 C934.1156,737.6875 935.4125,738.7813 937.4594,738.7813 C938.225,738.7813 938.9125,738.6563 939.3344,738.3906 C939.5219,738.2969 939.5219,738.2969 939.975,737.8125 C940.1625,737.625 940.3656,737.5469 940.5844,737.5469 C941.0531,737.5469 941.4438,737.9375 941.4438,738.3906 C941.4438,738.7813 941.1156,739.2344 940.5375,739.6406 C939.7875,740.1875 938.6313,740.4844 937.4125,740.4844 C934.5219,740.4844 932.4125,738.5938 932.4125,736.0156 L932.4125,734.8906 C932.4125,732.1719 934.4125,730.0938 937.0375,730.0938 C937.9125,730.0938 938.5063,730.2344 939.4438,730.6719 Z "/><text fill="#000000" font-family="sans-serif" font-size="12" lengthAdjust="spacingAndGlyphs" textLength="62" x="951.9" y="739.1543">BasicPizza</text><line style="stroke: #A80036; stroke-width: 1.5;" x1="919.5" x2="1019.5" y1="751" y2="751"/><line style="stroke: #A80036; stroke-width: 1.5;" x1="919.5" x2="1019.5" y1="759" y2="759"/><text fill="#000000" font-family="sans-serif" font-size="11" lengthAdjust="spacingAndGlyphs" textLength="52" x="924.5" y="773.2104">getCost()</text><text fill="#000000" font-family="sans-serif" font-size="11" lengthAdjust="spacingAndGlyphs" textLength="90" x="924.5" y="786.0151">getDescription()</text><!--class Pepperoni--><rect fill="#FEFECE" filter="url(#f1qjywfapknxnl)" height="73.6094" id="Pepperoni" style="stroke: #A80036; stroke-width: 1.5;" width="102" x="344.5" y="993"/><ellipse cx="362.2" cy="1009" fill="#ADD1B2" rx="11" ry="11" style="stroke: #A80036; stroke-width: 1.0;"/><path d="M364.5438,1004.6719 L364.7156,1004.75 C364.9344,1004.4375 365.1375,1004.3438 365.4344,1004.3438 C365.7313,1004.3438 366.0125,1004.4844 366.1688,1004.75 C366.2625,1004.9063 366.2781,1005.0313 366.2781,1005.4688 L366.2781,1006.8906 C366.2781,1007.3125 366.2469,1007.5 366.1375,1007.6563 C365.9656,1007.875 365.7,1008.0156 365.4344,1008.0156 C365.2156,1008.0156 364.9813,1007.9063 364.8406,1007.7656 C364.7,1007.6406 364.6688,1007.5156 364.6063,1007.1094 C364.5125,1006.7031 364.3406,1006.4844 363.8563,1006.2031 C363.3875,1005.9531 362.7781,1005.7969 362.2,1005.7969 C360.4656,1005.7969 359.2156,1007.1094 359.2156,1008.8906 L359.2156,1009.9844 C359.2156,1011.6875 360.5125,1012.7813 362.5594,1012.7813 C363.325,1012.7813 364.0125,1012.6563 364.4344,1012.3906 C364.6219,1012.2969 364.6219,1012.2969 365.075,1011.8125 C365.2625,1011.625 365.4656,1011.5469 365.6844,1011.5469 C366.1531,1011.5469 366.5438,1011.9375 366.5438,1012.3906 C366.5438,1012.7813 366.2156,1013.2344 365.6375,1013.6406 C364.8875,1014.1875 363.7313,1014.4844 362.5125,1014.4844 C359.6219,1014.4844 357.5125,1012.5938 357.5125,1010.0156 L357.5125,1008.8906 C357.5125,1006.1719 359.5125,1004.0938 362.1375,1004.0938 C363.0125,1004.0938 363.6063,1004.2344 364.5438,1004.6719 Z "/><text fill="#000000" font-family="sans-serif" font-size="12" lengthAdjust="spacingAndGlyphs" textLength="64" x="376.8" y="1013.1543">Pepperoni</text><line style="stroke: #A80036; stroke-width: 1.5;" x1="345.5" x2="445.5" y1="1025" y2="1025"/><line style="stroke: #A80036; stroke-width: 1.5;" x1="345.5" x2="445.5" y1="1033" y2="1033"/><text fill="#000000" font-family="sans-serif" font-size="11" lengthAdjust="spacingAndGlyphs" textLength="52" x="350.5" y="1047.2104">getCost()</text><text fill="#000000" font-family="sans-serif" font-size="11" lengthAdjust="spacingAndGlyphs" textLength="90" x="350.5" y="1060.0151">getDescription()</text><!--class Mozzarella--><rect fill="#FEFECE" filter="url(#f1qjywfapknxnl)" height="73.6094" id="Mozzarella" style="stroke: #A80036; stroke-width: 1.5;" width="102" x="481.5" y="993"/><ellipse cx="499.65" cy="1009" fill="#ADD1B2" rx="11" ry="11" style="stroke: #A80036; stroke-width: 1.0;"/><path d="M501.9938,1004.6719 L502.1656,1004.75 C502.3844,1004.4375 502.5875,1004.3438 502.8844,1004.3438 C503.1813,1004.3438 503.4625,1004.4844 503.6188,1004.75 C503.7125,1004.9063 503.7281,1005.0313 503.7281,1005.4688 L503.7281,1006.8906 C503.7281,1007.3125 503.6969,1007.5 503.5875,1007.6563 C503.4156,1007.875 503.15,1008.0156 502.8844,1008.0156 C502.6656,1008.0156 502.4313,1007.9063 502.2906,1007.7656 C502.15,1007.6406 502.1188,1007.5156 502.0563,1007.1094 C501.9625,1006.7031 501.7906,1006.4844 501.3063,1006.2031 C500.8375,1005.9531 500.2281,1005.7969 499.65,1005.7969 C497.9156,1005.7969 496.6656,1007.1094 496.6656,1008.8906 L496.6656,1009.9844 C496.6656,1011.6875 497.9625,1012.7813 500.0094,1012.7813 C500.775,1012.7813 501.4625,1012.6563 501.8844,1012.3906 C502.0719,1012.2969 502.0719,1012.2969 502.525,1011.8125 C502.7125,1011.625 502.9156,1011.5469 503.1344,1011.5469 C503.6031,1011.5469 503.9938,1011.9375 503.9938,1012.3906 C503.9938,1012.7813 503.6656,1013.2344 503.0875,1013.6406 C502.3375,1014.1875 501.1813,1014.4844 499.9625,1014.4844 C497.0719,1014.4844 494.9625,1012.5938 494.9625,1010.0156 L494.9625,1008.8906 C494.9625,1006.1719 496.9625,1004.0938 499.5875,1004.0938 C500.4625,1004.0938 501.0563,1004.2344 501.9938,1004.6719 Z "/><text fill="#000000" font-family="sans-serif" font-size="12" lengthAdjust="spacingAndGlyphs" textLength="63" x="514.35" y="1013.1543">Mozzarella</text><line style="stroke: #A80036; stroke-width: 1.5;" x1="482.5" x2="582.5" y1="1025" y2="1025"/><line style="stroke: #A80036; stroke-width: 1.5;" x1="482.5" x2="582.5" y1="1033" y2="1033"/><text fill="#000000" font-family="sans-serif" font-size="11" lengthAdjust="spacingAndGlyphs" textLength="52" x="487.5" y="1047.2104">getCost()</text><text fill="#000000" font-family="sans-serif" font-size="11" lengthAdjust="spacingAndGlyphs" textLength="90" x="487.5" y="1060.0151">getDescription()</text><!--class Arugula--><rect fill="#FEFECE" filter="url(#f1qjywfapknxnl)" height="73.6094" id="Arugula" style="stroke: #A80036; stroke-width: 1.5;" width="102" x="618.5" y="993"/><ellipse cx="643.4" cy="1009" fill="#ADD1B2" rx="11" ry="11" style="stroke: #A80036; stroke-width: 1.0;"/><path d="M645.7438,1004.6719 L645.9156,1004.75 C646.1344,1004.4375 646.3375,1004.3438 646.6344,1004.3438 C646.9313,1004.3438 647.2125,1004.4844 647.3688,1004.75 C647.4625,1004.9063 647.4781,1005.0313 647.4781,1005.4688 L647.4781,1006.8906 C647.4781,1007.3125 647.4469,1007.5 647.3375,1007.6563 C647.1656,1007.875 646.9,1008.0156 646.6344,1008.0156 C646.4156,1008.0156 646.1813,1007.9063 646.0406,1007.7656 C645.9,1007.6406 645.8688,1007.5156 645.8063,1007.1094 C645.7125,1006.7031 645.5406,1006.4844 645.0563,1006.2031 C644.5875,1005.9531 643.9781,1005.7969 643.4,1005.7969 C641.6656,1005.7969 640.4156,1007.1094 640.4156,1008.8906 L640.4156,1009.9844 C640.4156,1011.6875 641.7125,1012.7813 643.7594,1012.7813 C644.525,1012.7813 645.2125,1012.6563 645.6344,1012.3906 C645.8219,1012.2969 645.8219,1012.2969 646.275,1011.8125 C646.4625,1011.625 646.6656,1011.5469 646.8844,1011.5469 C647.3531,1011.5469 647.7438,1011.9375 647.7438,1012.3906 C647.7438,1012.7813 647.4156,1013.2344 646.8375,1013.6406 C646.0875,1014.1875 644.9313,1014.4844 643.7125,1014.4844 C640.8219,1014.4844 638.7125,1012.5938 638.7125,1010.0156 L638.7125,1008.8906 C638.7125,1006.1719 640.7125,1004.0938 643.3375,1004.0938 C644.2125,1004.0938 644.8063,1004.2344 645.7438,1004.6719 Z "/><text fill="#000000" font-family="sans-serif" font-size="12" lengthAdjust="spacingAndGlyphs" textLength="48" x="659.6" y="1013.1543">Arugula</text><line style="stroke: #A80036; stroke-width: 1.5;" x1="619.5" x2="719.5" y1="1025" y2="1025"/><line style="stroke: #A80036; stroke-width: 1.5;" x1="619.5" x2="719.5" y1="1033" y2="1033"/><text fill="#000000" font-family="sans-serif" font-size="11" lengthAdjust="spacingAndGlyphs" textLength="52" x="624.5" y="1047.2104">getCost()</text><text fill="#000000" font-family="sans-serif" font-size="11" lengthAdjust="spacingAndGlyphs" textLength="90" x="624.5" y="1060.0151">getDescription()</text><!--class StyleDecorator--><rect fill="#FEFECE" filter="url(#f1qjywfapknxnl)" height="73.6094" id="StyleDecorator" style="stroke: #A80036; stroke-width: 1.5;" width="126" x="750.5" y="859"/><ellipse cx="765.5" cy="875" fill="#A9DCDF" rx="11" ry="11" style="stroke: #A80036; stroke-width: 1.0;"/><path d="M767.0781,876.8125 L763.0313,876.8125 L762.6406,877.7969 L763.0313,877.7969 C763.4844,877.7969 763.625,877.8281 763.7969,877.9531 C764.0156,878.125 764.1406,878.375 764.1406,878.6563 C764.1406,878.9375 764,879.2344 763.7344,879.375 C763.6094,879.4688 763.3906,879.5 763.0313,879.5 L760.7656,879.5 C760.0156,879.5 759.6406,879.2188 759.6406,878.6563 C759.6406,878.3594 759.7969,878.0781 760.0469,877.9219 C760.2031,877.8125 760.3594,877.7969 760.7813,877.7969 L763.4219,871.2813 L762.3438,871.2813 C761.9063,871.2813 761.7344,871.25 761.5625,871.1406 C761.3438,870.9688 761.2031,870.7188 761.2031,870.4375 C761.2031,870.1563 761.3594,869.875 761.6094,869.7031 C761.7656,869.6094 761.8906,869.5938 762.3438,869.5938 L766.0156,869.5938 L769.4063,877.7969 C769.875,877.7969 770.0313,877.8281 770.2031,877.9688 C770.4219,878.125 770.5625,878.375 770.5625,878.6563 C770.5625,878.9375 770.4063,879.2344 770.1563,879.375 C770.0156,879.4688 769.7969,879.5 769.4375,879.5 L767.0781,879.5 C766.6563,879.5 766.4531,879.4531 766.3125,879.3281 C766.0938,879.1719 765.9531,878.9219 765.9531,878.6563 C765.9531,878.3594 766.1094,878.0781 766.3594,877.9219 C766.5156,877.8125 766.625,877.7969 767.0781,877.7969 L767.4688,877.7969 Z M766.375,875.1094 L765.0469,871.8438 L763.7031,875.1094 Z "/><text fill="#000000" font-family="sans-serif" font-size="12" font-style="italic" lengthAdjust="spacingAndGlyphs" textLength="94" x="779.5" y="879.1543">StyleDecorator</text><line style="stroke: #A80036; stroke-width: 1.5;" x1="751.5" x2="875.5" y1="891" y2="891"/><line style="stroke: #A80036; stroke-width: 1.5;" x1="751.5" x2="875.5" y1="899" y2="899"/><text fill="#000000" font-family="sans-serif" font-size="11" lengthAdjust="spacingAndGlyphs" textLength="52" x="756.5" y="913.2104">getCost()</text><text fill="#000000" font-family="sans-serif" font-size="11" lengthAdjust="spacingAndGlyphs" textLength="90" x="756.5" y="926.0151">getDescription()</text><!--class NewYorkStyle--><rect fill="#FEFECE" filter="url(#f1qjywfapknxnl)" height="73.6094" id="NewYorkStyle" style="stroke: #A80036; stroke-width: 1.5;" width="115" x="756" y="993"/><ellipse cx="771" cy="1009" fill="#ADD1B2" rx="11" ry="11" style="stroke: #A80036; stroke-width: 1.0;"/><path d="M773.3438,1004.6719 L773.5156,1004.75 C773.7344,1004.4375 773.9375,1004.3438 774.2344,1004.3438 C774.5313,1004.3438 774.8125,1004.4844 774.9688,1004.75 C775.0625,1004.9063 775.0781,1005.0313 775.0781,1005.4688 L775.0781,1006.8906 C775.0781,1007.3125 775.0469,1007.5 774.9375,1007.6563 C774.7656,1007.875 774.5,1008.0156 774.2344,1008.0156 C774.0156,1008.0156 773.7813,1007.9063 773.6406,1007.7656 C773.5,1007.6406 773.4688,1007.5156 773.4063,1007.1094 C773.3125,1006.7031 773.1406,1006.4844 772.6563,1006.2031 C772.1875,1005.9531 771.5781,1005.7969 771,1005.7969 C769.2656,1005.7969 768.0156,1007.1094 768.0156,1008.8906 L768.0156,1009.9844 C768.0156,1011.6875 769.3125,1012.7813 771.3594,1012.7813 C772.125,1012.7813 772.8125,1012.6563 773.2344,1012.3906 C773.4219,1012.2969 773.4219,1012.2969 773.875,1011.8125 C774.0625,1011.625 774.2656,1011.5469 774.4844,1011.5469 C774.9531,1011.5469 775.3438,1011.9375 775.3438,1012.3906 C775.3438,1012.7813 775.0156,1013.2344 774.4375,1013.6406 C773.6875,1014.1875 772.5313,1014.4844 771.3125,1014.4844 C768.4219,1014.4844 766.3125,1012.5938 766.3125,1010.0156 L766.3125,1008.8906 C766.3125,1006.1719 768.3125,1004.0938 770.9375,1004.0938 C771.8125,1004.0938 772.4063,1004.2344 773.3438,1004.6719 Z "/><text fill="#000000" font-family="sans-serif" font-size="12" lengthAdjust="spacingAndGlyphs" textLength="83" x="785" y="1013.1543">NewYorkStyle</text><line style="stroke: #A80036; stroke-width: 1.5;" x1="757" x2="870" y1="1025" y2="1025"/><line style="stroke: #A80036; stroke-width: 1.5;" x1="757" x2="870" y1="1033" y2="1033"/><text fill="#000000" font-family="sans-serif" font-size="11" lengthAdjust="spacingAndGlyphs" textLength="52" x="762" y="1047.2104">getCost()</text><text fill="#000000" font-family="sans-serif" font-size="11" lengthAdjust="spacingAndGlyphs" textLength="90" x="762" y="1060.0151">getDescription()</text><!--class ChicagoStyle--><rect fill="#FEFECE" filter="url(#f1qjywfapknxnl)" height="73.6094" id="ChicagoStyle" style="stroke: #A80036; stroke-width: 1.5;" width="112" x="906.5" y="993"/><ellipse cx="921.5" cy="1009" fill="#ADD1B2" rx="11" ry="11" style="stroke: #A80036; stroke-width: 1.0;"/><path d="M923.8438,1004.6719 L924.0156,1004.75 C924.2344,1004.4375 924.4375,1004.3438 924.7344,1004.3438 C925.0313,1004.3438 925.3125,1004.4844 925.4688,1004.75 C925.5625,1004.9063 925.5781,1005.0313 925.5781,1005.4688 L925.5781,1006.8906 C925.5781,1007.3125 925.5469,1007.5 925.4375,1007.6563 C925.2656,1007.875 925,1008.0156 924.7344,1008.0156 C924.5156,1008.0156 924.2813,1007.9063 924.1406,1007.7656 C924,1007.6406 923.9688,1007.5156 923.9063,1007.1094 C923.8125,1006.7031 923.6406,1006.4844 923.1563,1006.2031 C922.6875,1005.9531 922.0781,1005.7969 921.5,1005.7969 C919.7656,1005.7969 918.5156,1007.1094 918.5156,1008.8906 L918.5156,1009.9844 C918.5156,1011.6875 919.8125,1012.7813 921.8594,1012.7813 C922.625,1012.7813 923.3125,1012.6563 923.7344,1012.3906 C923.9219,1012.2969 923.9219,1012.2969 924.375,1011.8125 C924.5625,1011.625 924.7656,1011.5469 924.9844,1011.5469 C925.4531,1011.5469 925.8438,1011.9375 925.8438,1012.3906 C925.8438,1012.7813 925.5156,1013.2344 924.9375,1013.6406 C924.1875,1014.1875 923.0313,1014.4844 921.8125,1014.4844 C918.9219,1014.4844 916.8125,1012.5938 916.8125,1010.0156 L916.8125,1008.8906 C916.8125,1006.1719 918.8125,1004.0938 921.4375,1004.0938 C922.3125,1004.0938 922.9063,1004.2344 923.8438,1004.6719 Z "/><text fill="#000000" font-family="sans-serif" font-size="12" lengthAdjust="spacingAndGlyphs" textLength="80" x="935.5" y="1013.1543">ChicagoStyle</text><line style="stroke: #A80036; stroke-width: 1.5;" x1="907.5" x2="1017.5" y1="1025" y2="1025"/><line style="stroke: #A80036; stroke-width: 1.5;" x1="907.5" x2="1017.5" y1="1033" y2="1033"/><text fill="#000000" font-family="sans-serif" font-size="11" lengthAdjust="spacingAndGlyphs" textLength="52" x="912.5" y="1047.2104">getCost()</text><text fill="#000000" font-family="sans-serif" font-size="11" lengthAdjust="spacingAndGlyphs" textLength="90" x="912.5" y="1060.0151">getDescription()</text><!--class PizzaStore--><rect fill="#FEFECE" filter="url(#f1qjywfapknxnl)" height="73.6094" id="PizzaStore" style="stroke: #A80036; stroke-width: 1.5;" width="131" x="294" y="8"/><ellipse cx="324.75" cy="24" fill="#A9DCDF" rx="11" ry="11" style="stroke: #A80036; stroke-width: 1.0;"/><path d="M326.3281,25.8125 L322.2813,25.8125 L321.8906,26.7969 L322.2813,26.7969 C322.7344,26.7969 322.875,26.8281 323.0469,26.9531 C323.2656,27.125 323.3906,27.375 323.3906,27.6563 C323.3906,27.9375 323.25,28.2344 322.9844,28.375 C322.8594,28.4688 322.6406,28.5 322.2813,28.5 L320.0156,28.5 C319.2656,28.5 318.8906,28.2188 318.8906,27.6563 C318.8906,27.3594 319.0469,27.0781 319.2969,26.9219 C319.4531,26.8125 319.6094,26.7969 320.0313,26.7969 L322.6719,20.2813 L321.5938,20.2813 C321.1563,20.2813 320.9844,20.25 320.8125,20.1406 C320.5938,19.9688 320.4531,19.7188 320.4531,19.4375 C320.4531,19.1563 320.6094,18.875 320.8594,18.7031 C321.0156,18.6094 321.1406,18.5938 321.5938,18.5938 L325.2656,18.5938 L328.6563,26.7969 C329.125,26.7969 329.2813,26.8281 329.4531,26.9688 C329.6719,27.125 329.8125,27.375 329.8125,27.6563 C329.8125,27.9375 329.6563,28.2344 329.4063,28.375 C329.2656,28.4688 329.0469,28.5 328.6875,28.5 L326.3281,28.5 C325.9063,28.5 325.7031,28.4531 325.5625,28.3281 C325.3438,28.1719 325.2031,27.9219 325.2031,27.6563 C325.2031,27.3594 325.3594,27.0781 325.6094,26.9219 C325.7656,26.8125 325.875,26.7969 326.3281,26.7969 L326.7188,26.7969 Z M325.625,24.1094 L324.2969,20.8438 L322.9531,24.1094 Z "/><text fill="#000000" font-family="sans-serif" font-size="12" font-style="italic" lengthAdjust="spacingAndGlyphs" textLength="64" x="342.25" y="28.1543">PizzaStore</text><line style="stroke: #A80036; stroke-width: 1.5;" x1="295" x2="424" y1="40" y2="40"/><text fill="#000000" font-family="sans-serif" font-size="11" lengthAdjust="spacingAndGlyphs" textLength="119" x="300" y="54.2104">factory : PizzaFactory</text><line style="stroke: #A80036; stroke-width: 1.5;" x1="295" x2="424" y1="60.8047" y2="60.8047"/><text fill="#000000" font-family="sans-serif" font-size="11" lengthAdjust="spacingAndGlyphs" textLength="66" x="300" y="75.0151">orderPizza()</text><!--class NewYorkStore--><rect fill="#FEFECE" filter="url(#f1qjywfapknxnl)" height="60.8047" id="NewYorkStore" style="stroke: #A80036; stroke-width: 1.5;" width="153" x="6" y="148.5"/><ellipse cx="36.3" cy="164.5" fill="#ADD1B2" rx="11" ry="11" style="stroke: #A80036; stroke-width: 1.0;"/><path d="M38.6438,160.1719 L38.8156,160.25 C39.0344,159.9375 39.2375,159.8438 39.5344,159.8438 C39.8313,159.8438 40.1125,159.9844 40.2688,160.25 C40.3625,160.4063 40.3781,160.5313 40.3781,160.9688 L40.3781,162.3906 C40.3781,162.8125 40.3469,163 40.2375,163.1563 C40.0656,163.375 39.8,163.5156 39.5344,163.5156 C39.3156,163.5156 39.0813,163.4063 38.9406,163.2656 C38.8,163.1406 38.7688,163.0156 38.7063,162.6094 C38.6125,162.2031 38.4406,161.9844 37.9563,161.7031 C37.4875,161.4531 36.8781,161.2969 36.3,161.2969 C34.5656,161.2969 33.3156,162.6094 33.3156,164.3906 L33.3156,165.4844 C33.3156,167.1875 34.6125,168.2813 36.6594,168.2813 C37.425,168.2813 38.1125,168.1563 38.5344,167.8906 C38.7219,167.7969 38.7219,167.7969 39.175,167.3125 C39.3625,167.125 39.5656,167.0469 39.7844,167.0469 C40.2531,167.0469 40.6438,167.4375 40.6438,167.8906 C40.6438,168.2813 40.3156,168.7344 39.7375,169.1406 C38.9875,169.6875 37.8313,169.9844 36.6125,169.9844 C33.7219,169.9844 31.6125,168.0938 31.6125,165.5156 L31.6125,164.3906 C31.6125,161.6719 33.6125,159.5938 36.2375,159.5938 C37.1125,159.5938 37.7063,159.7344 38.6438,160.1719 Z "/><text fill="#000000" font-family="sans-serif" font-size="12" lengthAdjust="spacingAndGlyphs" textLength="87" x="53.7" y="168.6543">NewYorkStore</text><line style="stroke: #A80036; stroke-width: 1.5;" x1="7" x2="158" y1="180.5" y2="180.5"/><text fill="#000000" font-family="sans-serif" font-size="11" lengthAdjust="spacingAndGlyphs" textLength="141" x="12" y="194.7104">factory : NewYorkFactory</text><line style="stroke: #A80036; stroke-width: 1.5;" x1="7" x2="158" y1="201.3047" y2="201.3047"/><!--class ChicagoStore--><rect fill="#FEFECE" filter="url(#f1qjywfapknxnl)" height="60.8047" id="ChicagoStore" style="stroke: #A80036; stroke-width: 1.5;" width="149" x="194" y="148.5"/><ellipse cx="223.85" cy="164.5" fill="#ADD1B2" rx="11" ry="11" style="stroke: #A80036; stroke-width: 1.0;"/><path d="M226.1938,160.1719 L226.3656,160.25 C226.5844,159.9375 226.7875,159.8438 227.0844,159.8438 C227.3813,159.8438 227.6625,159.9844 227.8188,160.25 C227.9125,160.4063 227.9281,160.5313 227.9281,160.9688 L227.9281,162.3906 C227.9281,162.8125 227.8969,163 227.7875,163.1563 C227.6156,163.375 227.35,163.5156 227.0844,163.5156 C226.8656,163.5156 226.6313,163.4063 226.4906,163.2656 C226.35,163.1406 226.3188,163.0156 226.2563,162.6094 C226.1625,162.2031 225.9906,161.9844 225.5063,161.7031 C225.0375,161.4531 224.4281,161.2969 223.85,161.2969 C222.1156,161.2969 220.8656,162.6094 220.8656,164.3906 L220.8656,165.4844 C220.8656,167.1875 222.1625,168.2813 224.2094,168.2813 C224.975,168.2813 225.6625,168.1563 226.0844,167.8906 C226.2719,167.7969 226.2719,167.7969 226.725,167.3125 C226.9125,167.125 227.1156,167.0469 227.3344,167.0469 C227.8031,167.0469 228.1938,167.4375 228.1938,167.8906 C228.1938,168.2813 227.8656,168.7344 227.2875,169.1406 C226.5375,169.6875 225.3813,169.9844 224.1625,169.9844 C221.2719,169.9844 219.1625,168.0938 219.1625,165.5156 L219.1625,164.3906 C219.1625,161.6719 221.1625,159.5938 223.7875,159.5938 C224.6625,159.5938 225.2563,159.7344 226.1938,160.1719 Z "/><text fill="#000000" font-family="sans-serif" font-size="12" lengthAdjust="spacingAndGlyphs" textLength="84" x="241.15" y="168.6543">ChicagoStore</text><line style="stroke: #A80036; stroke-width: 1.5;" x1="195" x2="342" y1="180.5" y2="180.5"/><text fill="#000000" font-family="sans-serif" font-size="11" lengthAdjust="spacingAndGlyphs" textLength="137" x="200" y="194.7104">factory : ChicagoFactory</text><line style="stroke: #A80036; stroke-width: 1.5;" x1="195" x2="342" y1="201.3047" y2="201.3047"/><!--class CustomStore--><rect fill="#FEFECE" filter="url(#f1qjywfapknxnl)" height="73.6094" id="CustomStore" style="stroke: #A80036; stroke-width: 1.5;" width="147" x="378" y="142"/><ellipse cx="408.3" cy="158" fill="#ADD1B2" rx="11" ry="11" style="stroke: #A80036; stroke-width: 1.0;"/><path d="M410.6438,153.6719 L410.8156,153.75 C411.0344,153.4375 411.2375,153.3438 411.5344,153.3438 C411.8313,153.3438 412.1125,153.4844 412.2688,153.75 C412.3625,153.9063 412.3781,154.0313 412.3781,154.4688 L412.3781,155.8906 C412.3781,156.3125 412.3469,156.5 412.2375,156.6563 C412.0656,156.875 411.8,157.0156 411.5344,157.0156 C411.3156,157.0156 411.0813,156.9063 410.9406,156.7656 C410.8,156.6406 410.7688,156.5156 410.7063,156.1094 C410.6125,155.7031 410.4406,155.4844 409.9563,155.2031 C409.4875,154.9531 408.8781,154.7969 408.3,154.7969 C406.5656,154.7969 405.3156,156.1094 405.3156,157.8906 L405.3156,158.9844 C405.3156,160.6875 406.6125,161.7813 408.6594,161.7813 C409.425,161.7813 410.1125,161.6563 410.5344,161.3906 C410.7219,161.2969 410.7219,161.2969 411.175,160.8125 C411.3625,160.625 411.5656,160.5469 411.7844,160.5469 C412.2531,160.5469 412.6438,160.9375 412.6438,161.3906 C412.6438,161.7813 412.3156,162.2344 411.7375,162.6406 C410.9875,163.1875 409.8313,163.4844 408.6125,163.4844 C405.7219,163.4844 403.6125,161.5938 403.6125,159.0156 L403.6125,157.8906 C403.6125,155.1719 405.6125,153.0938 408.2375,153.0938 C409.1125,153.0938 409.7063,153.2344 410.6438,153.6719 Z "/><text fill="#000000" font-family="sans-serif" font-size="12" lengthAdjust="spacingAndGlyphs" textLength="81" x="425.7" y="162.1543">CustomStore</text><line style="stroke: #A80036; stroke-width: 1.5;" x1="379" x2="524" y1="174" y2="174"/><text fill="#000000" font-family="sans-serif" font-size="11" lengthAdjust="spacingAndGlyphs" textLength="119" x="384" y="188.2104">factory : PizzaFactory</text><line style="stroke: #A80036; stroke-width: 1.5;" x1="379" x2="524" y1="194.8047" y2="194.8047"/><text fill="#000000" font-family="sans-serif" font-size="11" lengthAdjust="spacingAndGlyphs" textLength="135" x="384" y="209.0151">setFactory(PizzaFactory)</text><!--class PizzaFactory--><rect fill="#FEFECE" filter="url(#f1qjywfapknxnl)" height="60.8047" id="PizzaFactory" style="stroke: #A80036; stroke-width: 1.5;" width="109" x="524" y="337"/><ellipse cx="539" cy="353" fill="#B4A7E5" rx="11" ry="11" style="stroke: #A80036; stroke-width: 1.0;"/><path d="M539.9531,349.7813 L539.9531,356.2969 L541.6719,356.2969 C542.125,356.2969 542.2656,356.3281 542.4375,356.4531 C542.6719,356.625 542.7813,356.875 542.7813,357.1563 C542.7813,357.7188 542.4219,358 541.6719,358 L536.5313,358 C536.125,358 535.9219,357.9531 535.7656,357.8281 C535.5469,357.6719 535.4063,357.4063 535.4063,357.1563 C535.4063,356.8594 535.5625,356.5781 535.8125,356.4219 C535.9688,356.3125 536.0938,356.2969 536.5313,356.2969 L538.25,356.2969 L538.25,349.7813 L536.5313,349.7813 C536.1094,349.7813 535.9219,349.75 535.7656,349.6406 C535.5469,349.4688 535.4063,349.2188 535.4063,348.9375 C535.4063,348.6563 535.5625,348.3594 535.8125,348.2031 C535.9688,348.1094 536.0938,348.0938 536.5313,348.0938 L541.6719,348.0938 C542.125,348.0938 542.2656,348.125 542.4375,348.2344 C542.6719,348.4063 542.7813,348.6719 542.7813,348.9375 C542.7813,349.2344 542.6406,349.5156 542.375,349.6719 C542.25,349.75 542.0625,349.7813 541.6719,349.7813 Z "/><text fill="#000000" font-family="sans-serif" font-size="12" font-style="italic" lengthAdjust="spacingAndGlyphs" textLength="77" x="553" y="357.1543">PizzaFactory</text><line style="stroke: #A80036; stroke-width: 1.5;" x1="525" x2="632" y1="369" y2="369"/><line style="stroke: #A80036; stroke-width: 1.5;" x1="525" x2="632" y1="377" y2="377"/><text fill="#000000" font-family="sans-serif" font-size="11" lengthAdjust="spacingAndGlyphs" textLength="71" x="530" y="391.2104">createPizza()</text><!--class NewYorkFactory--><rect fill="#FEFECE" filter="url(#f1qjywfapknxnl)" height="60.8047" id="NewYorkFactory" style="stroke: #A80036; stroke-width: 1.5;" width="131" x="348" y="458"/><ellipse cx="363" cy="474" fill="#ADD1B2" rx="11" ry="11" style="stroke: #A80036; stroke-width: 1.0;"/><path d="M365.3438,469.6719 L365.5156,469.75 C365.7344,469.4375 365.9375,469.3438 366.2344,469.3438 C366.5313,469.3438 366.8125,469.4844 366.9688,469.75 C367.0625,469.9063 367.0781,470.0313 367.0781,470.4688 L367.0781,471.8906 C367.0781,472.3125 367.0469,472.5 366.9375,472.6563 C366.7656,472.875 366.5,473.0156 366.2344,473.0156 C366.0156,473.0156 365.7813,472.9063 365.6406,472.7656 C365.5,472.6406 365.4688,472.5156 365.4063,472.1094 C365.3125,471.7031 365.1406,471.4844 364.6563,471.2031 C364.1875,470.9531 363.5781,470.7969 363,470.7969 C361.2656,470.7969 360.0156,472.1094 360.0156,473.8906 L360.0156,474.9844 C360.0156,476.6875 361.3125,477.7813 363.3594,477.7813 C364.125,477.7813 364.8125,477.6563 365.2344,477.3906 C365.4219,477.2969 365.4219,477.2969 365.875,476.8125 C366.0625,476.625 366.2656,476.5469 366.4844,476.5469 C366.9531,476.5469 367.3438,476.9375 367.3438,477.3906 C367.3438,477.7813 367.0156,478.2344 366.4375,478.6406 C365.6875,479.1875 364.5313,479.4844 363.3125,479.4844 C360.4219,479.4844 358.3125,477.5938 358.3125,475.0156 L358.3125,473.8906 C358.3125,471.1719 360.3125,469.0938 362.9375,469.0938 C363.8125,469.0938 364.4063,469.2344 365.3438,469.6719 Z "/><text fill="#000000" font-family="sans-serif" font-size="12" lengthAdjust="spacingAndGlyphs" textLength="99" x="377" y="478.1543">NewYorkFactory</text><line style="stroke: #A80036; stroke-width: 1.5;" x1="349" x2="478" y1="490" y2="490"/><line style="stroke: #A80036; stroke-width: 1.5;" x1="349" x2="478" y1="498" y2="498"/><text fill="#000000" font-family="sans-serif" font-size="11" lengthAdjust="spacingAndGlyphs" textLength="71" x="354" y="512.2104">createPizza()</text><!--class ChicagoFactory--><rect fill="#FEFECE" filter="url(#f1qjywfapknxnl)" height="60.8047" id="ChicagoFactory" style="stroke: #A80036; stroke-width: 1.5;" width="128" x="514.5" y="458"/><ellipse cx="529.5" cy="474" fill="#ADD1B2" rx="11" ry="11" style="stroke: #A80036; stroke-width: 1.0;"/><path d="M531.8438,469.6719 L532.0156,469.75 C532.2344,469.4375 532.4375,469.3438 532.7344,469.3438 C533.0313,469.3438 533.3125,469.4844 533.4688,469.75 C533.5625,469.9063 533.5781,470.0313 533.5781,470.4688 L533.5781,471.8906 C533.5781,472.3125 533.5469,472.5 533.4375,472.6563 C533.2656,472.875 533,473.0156 532.7344,473.0156 C532.5156,473.0156 532.2813,472.9063 532.1406,472.7656 C532,472.6406 531.9688,472.5156 531.9063,472.1094 C531.8125,471.7031 531.6406,471.4844 531.1563,471.2031 C530.6875,470.9531 530.0781,470.7969 529.5,470.7969 C527.7656,470.7969 526.5156,472.1094 526.5156,473.8906 L526.5156,474.9844 C526.5156,476.6875 527.8125,477.7813 529.8594,477.7813 C530.625,477.7813 531.3125,477.6563 531.7344,477.3906 C531.9219,477.2969 531.9219,477.2969 532.375,476.8125 C532.5625,476.625 532.7656,476.5469 532.9844,476.5469 C533.4531,476.5469 533.8438,476.9375 533.8438,477.3906 C533.8438,477.7813 533.5156,478.2344 532.9375,478.6406 C532.1875,479.1875 531.0313,479.4844 529.8125,479.4844 C526.9219,479.4844 524.8125,477.5938 524.8125,475.0156 L524.8125,473.8906 C524.8125,471.1719 526.8125,469.0938 529.4375,469.0938 C530.3125,469.0938 530.9063,469.2344 531.8438,469.6719 Z "/><text fill="#000000" font-family="sans-serif" font-size="12" lengthAdjust="spacingAndGlyphs" textLength="96" x="543.5" y="478.1543">ChicagoFactory</text><line style="stroke: #A80036; stroke-width: 1.5;" x1="515.5" x2="641.5" y1="490" y2="490"/><line style="stroke: #A80036; stroke-width: 1.5;" x1="515.5" x2="641.5" y1="498" y2="498"/><text fill="#000000" font-family="sans-serif" font-size="11" lengthAdjust="spacingAndGlyphs" textLength="71" x="520.5" y="512.2104">createPizza()</text><!--link PizzaStore to NewYorkStore--><path d="M275.752,85.91 C233.642,105.976 183.483,129.878 144.821,148.302 " fill="none" id="PizzaStore-NewYorkStore" style="stroke: #A80036; stroke-width: 1.0;"/><polygon fill="none" points="272.789,79.57,293.855,77.28,278.811,92.21,272.789,79.57" style="stroke: #A80036; stroke-width: 1.0;"/><!--link PizzaStore to ChicagoStore--><path d="M323.189,98.67 C311.571,115.524 299.119,133.586 289.036,148.212 " fill="none" id="PizzaStore-ChicagoStore" style="stroke: #A80036; stroke-width: 1.0;"/><polygon fill="none" points="317.519,94.56,334.634,82.07,329.045,102.509,317.519,94.56" style="stroke: #A80036; stroke-width: 1.0;"/><!--link PizzaStore to CustomStore--><path d="M396.134,98.56 C406.282,113.122 417.064,128.592 426.391,141.974 " fill="none" id="PizzaStore-CustomStore" style="stroke: #A80036; stroke-width: 1.0;"/><polygon fill="none" points="390.333,102.48,384.639,82.07,401.818,94.47,390.333,102.48" style="stroke: #A80036; stroke-width: 1.0;"/><!--link PizzaFactory to NewYorkFactory--><path d="M520.806,410.11 C498.932,425.885 474.494,443.51 454.471,457.951 " fill="none" id="PizzaFactory-NewYorkFactory" style="stroke: #A80036; stroke-width: 1.0; stroke-dasharray: 7.0,7.0;"/><polygon fill="none" points="516.973,404.243,537.289,398.222,525.162,415.598,516.973,404.243" style="stroke: #A80036; stroke-width: 1.0;"/><!--link PizzaFactory to ChicagoFactory--><path d="M578.5,418.329 C578.5,431.735 578.5,445.814 578.5,457.745 " fill="none" id="PizzaFactory-ChicagoFactory" style="stroke: #A80036; stroke-width: 1.0; stroke-dasharray: 7.0,7.0;"/><polygon fill="none" points="571.5,418.222,578.5,398.222,585.5,418.222,571.5,418.222" style="stroke: #A80036; stroke-width: 1.0;"/><!--link PizzaStore to PizzaFactory--><path d="M425.001,63.87 C465.247,78.31 514.331,102.82 542.5,142 C584.783,200.812 584.946,290.659 581.647,336.832 " fill="none" id="PizzaStore-PizzaFactory" style="stroke: #A80036; stroke-width: 1.0;"/><!--link Pizza to Margherita--><path d="M645.181,667.687 C628.285,684.705 609.799,703.326 594.255,718.984 " fill="none" id="Pizza-Margherita" style="stroke: #A80036; stroke-width: 1.0;"/><polygon fill="none" points="640.446,662.52,659.505,653.258,650.382,672.383,640.446,662.52" style="stroke: #A80036; stroke-width: 1.0;"/><!--link Pizza to Calzone--><path d="M695.5,673.413 C695.5,688.807 695.5,705.066 695.5,718.984 " fill="none" id="Pizza-Calzone" style="stroke: #A80036; stroke-width: 1.0;"/><polygon fill="none" points="688.5,673.258,695.5,653.258,702.5,673.258,688.5,673.258" style="stroke: #A80036; stroke-width: 1.0;"/><!--link Pizza to FlatBread--><path d="M745.819,667.687 C762.715,684.705 781.201,703.326 796.745,718.984 " fill="none" id="Pizza-FlatBread" style="stroke: #A80036; stroke-width: 1.0;"/><polygon fill="none" points="740.618,672.383,731.495,653.258,750.554,662.52,740.618,672.383" style="stroke: #A80036; stroke-width: 1.0;"/><!--link Pizza to BasicPizza--><path d="M787.733,657.19 C823.699,673.584 864.979,693.299 901.5,713 C906.996,715.964 912.66,719.185 918.265,722.479 " fill="none" id="Pizza-BasicPizza" style="stroke: #A80036; stroke-width: 1.0;"/><polygon fill="none" points="784.808,663.55,769.463,648.938,790.571,650.791,784.808,663.55" style="stroke: #A80036; stroke-width: 1.0;"/><!--link Pizza to PizzaDecorator--><path d="M603.16,659.397 C567.789,675.858 527.144,695.042 490.5,713 C484.611,715.886 478.505,718.925 472.403,721.993 " fill="none" id="Pizza-PizzaDecorator" style="stroke: #A80036; stroke-width: 1.0;"/><polygon fill="none" points="600.578,652.878,621.666,650.808,606.472,665.577,600.578,652.878" style="stroke: #A80036; stroke-width: 1.0;"/><!--link PizzaDecorator to ToppingDecorator--><path d="M437.746,817.238 C444.605,831.366 451.707,845.993 457.875,858.697 " fill="none" id="PizzaDecorator-ToppingDecorator" style="stroke: #A80036; stroke-width: 1.0;"/><polygon fill="none" points="431.404,820.203,428.966,799.154,443.998,814.089,431.404,820.203" style="stroke: #A80036; stroke-width: 1.0;"/><!--link PizzaDecorator to StyleDecorator--><path d="M491.066,798.592 C590.753,837.617 688.315,864.304 750.417,879.934 " fill="none" id="PizzaDecorator-StyleDecorator" style="stroke: #A80036; stroke-width: 1.0;"/><polygon fill="none" points="488.42,805.073,472.436,791.162,493.606,792.069,488.42,805.073" style="stroke: #A80036; stroke-width: 1.0;"/><!--link StyleDecorator to NewYorkStyle--><path d="M813.5,953.379 C813.5,966.796 813.5,980.755 813.5,992.974 " fill="none" id="StyleDecorator-NewYorkStyle" style="stroke: #A80036; stroke-width: 1.0;"/><polygon fill="none" points="806.5,953.07,813.5,933.07,820.5,953.07,806.5,953.07" style="stroke: #A80036; stroke-width: 1.0;"/><!--link StyleDecorator to ChicagoStyle--><path d="M869.365,946.491 C886.787,961.925 905.661,978.646 921.834,992.974 " fill="none" id="StyleDecorator-ChicagoStyle" style="stroke: #A80036; stroke-width: 1.0;"/><polygon fill="none" points="864.543,951.572,854.215,933.07,873.827,941.092,864.543,951.572" style="stroke: #A80036; stroke-width: 1.0;"/><!--link ToppingDecorator to Mozzarella--><path d="M499.02,951.466 C505.063,965.463 511.416,980.173 516.943,992.974 " fill="none" id="ToppingDecorator-Mozzarella" style="stroke: #A80036; stroke-width: 1.0;"/><polygon fill="none" points="492.578,954.206,491.076,933.07,505.431,948.656,492.578,954.206" style="stroke: #A80036; stroke-width: 1.0;"/><!--link ToppingDecorator to Pepperoni--><path d="M443.068,950.513 C434.413,964.793 425.268,979.882 417.334,992.974 " fill="none" id="ToppingDecorator-Pepperoni" style="stroke: #A80036; stroke-width: 1.0;"/><polygon fill="none" points="437.287,946.545,453.64,933.07,449.26,953.802,437.287,946.545" style="stroke: #A80036; stroke-width: 1.0;"/><!--link ToppingDecorator to Arugula--><path d="M545.142,944.385 C569.268,960.801 595.852,978.889 618.227,994.113 " fill="none" id="ToppingDecorator-Arugula" style="stroke: #A80036; stroke-width: 1.0;"/><polygon fill="none" points="541.109,950.108,528.511,933.07,548.985,938.533,541.109,950.108" style="stroke: #A80036; stroke-width: 1.0;"/><!--link PizzaFactory to Pizza--><path d="M613.027,398.053 C629.75,414.157 648.713,435.388 660.5,458 C680.508,496.384 689.118,545.842 692.798,578.893 " fill="none" id="PizzaFactory-Pizza" style="stroke: #A80036; stroke-width: 1.0;"/><!--
@startuml
Abstract PizzaStore{
  factory : PizzaFactory
  orderPizza()
}

Class NewYorkStore{
  factory : NewYorkFactory
}

Class ChicagoStore{
  factory : ChicagoFactory
}

Class CustomStore{
  factory : PizzaFactory
  setFactory(PizzaFactory)
}

Interface PizzaFactory{
  createPizza()
}

Class NewYorkFactory{
  createPizza()
}

Class ChicagoFactory{
  createPizza()
}



PizzaStore <|- - NewYorkStore
PizzaStore <|- - ChicagoStore
PizzaStore <|- - CustomStore

PizzaFactory <|.. NewYorkFactory
PizzaFactory <|.. ChicagoFactory

PizzaStore - - - - PizzaFactory



package "In Decorator Pattern Example" #EDEDED {
  Abstract Pizza{
  getCost() : float
  getDescription() : string
}

Abstract PizzaDecorator{
  getCost()
  getDescription()
  wrappedPizza : Pizza
}

Abstract ToppingDecorator{
  getCost()
  getDescription()
}

Class Margherita{
  getCost()
  getDescription()
}

Class Calzone{
  getCost()
  getDescription()
}

Class FlatBread{
  getCost()
  getDescription()
}

Class BasicPizza{
  getCost()
  getDescription()
}

Class Pepperoni{
  getCost()
  getDescription()
}

Class Mozzarella{
  getCost()
  getDescription()
}

Class Arugula{
  getCost()
  getDescription()
}

Abstract StyleDecorator{
  getCost()
  getDescription()
}

Class NewYorkStyle{
  getCost()
  getDescription()
}

Class ChicagoStyle{
  getCost()
  getDescription()
}

Pizza <|- - Margherita
Pizza <|- - Calzone
Pizza <|- - FlatBread
Pizza <|- - BasicPizza

Pizza <|- - PizzaDecorator

PizzaDecorator <|- - ToppingDecorator

PizzaDecorator <|- - StyleDecorator

StyleDecorator <|- - NewYorkStyle
StyleDecorator <|- - ChicagoStyle

ToppingDecorator <|- - Mozzarella
ToppingDecorator <|- - Pepperoni
ToppingDecorator <|- - Arugula

}

PizzaFactory - - - Pizza
@enduml

PlantUML version 1.2018.02beta13(Unknown compile time)
(GPL source distribution)
Java Runtime: Java(TM) SE Runtime Environment
JVM: Java HotSpot(TM) 64-Bit Server VM
Java Version: 1.7.0_25-b15
Operating System: Linux
Default Encoding: UTF-8
Language: en
Country: US
--></g></svg>