<?xml version="1.0" encoding="UTF-8" standalone="no"?><svg xmlns="http://www.w3.org/2000/svg" xmlns:xlink="http://www.w3.org/1999/xlink" contentScriptType="application/ecmascript" contentStyleType="text/css" height="789px" preserveAspectRatio="none" style="width:932px;height:789px;" version="1.1" viewBox="0 0 932 789" width="932px" zoomAndPan="magnify"><defs><filter height="300%" id="fauuau3x2owu9" width="300%" x="-1" y="-1"><feGaussianBlur result="blurOut" stdDeviation="2.0"/><feColorMatrix in="blurOut" result="blurOut2" type="matrix" values="0 0 0 0 0 0 0 0 0 0 0 0 0 0 0 0 0 0 .4 0"/><feOffset dx="4.0" dy="4.0" in="blurOut2" result="blurOut3"/><feBlend in="SourceGraphic" in2="blurOut3" mode="normal"/></filter></defs><g><!--class BeatObserver--><rect fill="#FEFECE" filter="url(#fauuau3x2owu9)" height="60.8047" id="BeatObserver" style="stroke: #A80036; stroke-width: 1.5;" width="115" x="806.5" y="584.5"/><ellipse cx="821.5" cy="600.5" fill="#B4A7E5" rx="11" ry="11" style="stroke: #A80036; stroke-width: 1.0;"/><path d="M822.4531,597.2813 L822.4531,603.7969 L824.1719,603.7969 C824.625,603.7969 824.7656,603.8281 824.9375,603.9531 C825.1719,604.125 825.2813,604.375 825.2813,604.6563 C825.2813,605.2188 824.9219,605.5 824.1719,605.5 L819.0313,605.5 C818.625,605.5 818.4219,605.4531 818.2656,605.3281 C818.0469,605.1719 817.9063,604.9063 817.9063,604.6563 C817.9063,604.3594 818.0625,604.0781 818.3125,603.9219 C818.4688,603.8125 818.5938,603.7969 819.0313,603.7969 L820.75,603.7969 L820.75,597.2813 L819.0313,597.2813 C818.6094,597.2813 818.4219,597.25 818.2656,597.1406 C818.0469,596.9688 817.9063,596.7188 817.9063,596.4375 C817.9063,596.1563 818.0625,595.8594 818.3125,595.7031 C818.4688,595.6094 818.5938,595.5938 819.0313,595.5938 L824.1719,595.5938 C824.625,595.5938 824.7656,595.625 824.9375,595.7344 C825.1719,595.9063 825.2813,596.1719 825.2813,596.4375 C825.2813,596.7344 825.1406,597.0156 824.875,597.1719 C824.75,597.25 824.5625,597.2813 824.1719,597.2813 Z "/><text fill="#000000" font-family="sans-serif" font-size="12" font-style="italic" lengthAdjust="spacingAndGlyphs" textLength="83" x="835.5" y="604.6543">BeatObserver</text><line style="stroke: #A80036; stroke-width: 1.5;" x1="807.5" x2="920.5" y1="616.5" y2="616.5"/><line style="stroke: #A80036; stroke-width: 1.5;" x1="807.5" x2="920.5" y1="624.5" y2="624.5"/><ellipse cx="817.5" cy="636.4023" fill="#84BE84" rx="3" ry="3" style="stroke: #038048; stroke-width: 1.0;"/><text fill="#000000" font-family="sans-serif" font-size="11" lengthAdjust="spacingAndGlyphs" textLength="47" x="826.5" y="638.7104">update()</text><!--class BpmObserver--><rect fill="#FEFECE" filter="url(#fauuau3x2owu9)" height="60.8047" id="BpmObserver" style="stroke: #A80036; stroke-width: 1.5;" width="113" x="456.5" y="451"/><ellipse cx="471.5" cy="467" fill="#B4A7E5" rx="11" ry="11" style="stroke: #A80036; stroke-width: 1.0;"/><path d="M472.4531,463.7813 L472.4531,470.2969 L474.1719,470.2969 C474.625,470.2969 474.7656,470.3281 474.9375,470.4531 C475.1719,470.625 475.2813,470.875 475.2813,471.1563 C475.2813,471.7188 474.9219,472 474.1719,472 L469.0313,472 C468.625,472 468.4219,471.9531 468.2656,471.8281 C468.0469,471.6719 467.9063,471.4063 467.9063,471.1563 C467.9063,470.8594 468.0625,470.5781 468.3125,470.4219 C468.4688,470.3125 468.5938,470.2969 469.0313,470.2969 L470.75,470.2969 L470.75,463.7813 L469.0313,463.7813 C468.6094,463.7813 468.4219,463.75 468.2656,463.6406 C468.0469,463.4688 467.9063,463.2188 467.9063,462.9375 C467.9063,462.6563 468.0625,462.3594 468.3125,462.2031 C468.4688,462.1094 468.5938,462.0938 469.0313,462.0938 L474.1719,462.0938 C474.625,462.0938 474.7656,462.125 474.9375,462.2344 C475.1719,462.4063 475.2813,462.6719 475.2813,462.9375 C475.2813,463.2344 475.1406,463.5156 474.875,463.6719 C474.75,463.75 474.5625,463.7813 474.1719,463.7813 Z "/><text fill="#000000" font-family="sans-serif" font-size="12" font-style="italic" lengthAdjust="spacingAndGlyphs" textLength="81" x="485.5" y="471.1543">BpmObserver</text><line style="stroke: #A80036; stroke-width: 1.5;" x1="457.5" x2="568.5" y1="483" y2="483"/><line style="stroke: #A80036; stroke-width: 1.5;" x1="457.5" x2="568.5" y1="491" y2="491"/><ellipse cx="467.5" cy="502.9023" fill="#84BE84" rx="3" ry="3" style="stroke: #038048; stroke-width: 1.0;"/><text fill="#000000" font-family="sans-serif" font-size="11" lengthAdjust="spacingAndGlyphs" textLength="61" x="476.5" y="505.2104">update(int)</text><!--class BeatModelInterface--><rect fill="#FEFECE" filter="url(#fauuau3x2owu9)" height="150.4375" id="BeatModelInterface" style="stroke: #A80036; stroke-width: 1.5;" width="158" x="324" y="8"/><ellipse cx="340.35" cy="24" fill="#B4A7E5" rx="11" ry="11" style="stroke: #A80036; stroke-width: 1.0;"/><path d="M341.3031,20.7813 L341.3031,27.2969 L343.0219,27.2969 C343.475,27.2969 343.6156,27.3281 343.7875,27.4531 C344.0219,27.625 344.1313,27.875 344.1313,28.1563 C344.1313,28.7188 343.7719,29 343.0219,29 L337.8813,29 C337.475,29 337.2719,28.9531 337.1156,28.8281 C336.8969,28.6719 336.7563,28.4063 336.7563,28.1563 C336.7563,27.8594 336.9125,27.5781 337.1625,27.4219 C337.3188,27.3125 337.4438,27.2969 337.8813,27.2969 L339.6,27.2969 L339.6,20.7813 L337.8813,20.7813 C337.4594,20.7813 337.2719,20.75 337.1156,20.6406 C336.8969,20.4688 336.7563,20.2188 336.7563,19.9375 C336.7563,19.6563 336.9125,19.3594 337.1625,19.2031 C337.3188,19.1094 337.4438,19.0938 337.8813,19.0938 L343.0219,19.0938 C343.475,19.0938 343.6156,19.125 343.7875,19.2344 C344.0219,19.4063 344.1313,19.6719 344.1313,19.9375 C344.1313,20.2344 343.9906,20.5156 343.725,20.6719 C343.6,20.75 343.4125,20.7813 343.0219,20.7813 Z "/><text fill="#000000" font-family="sans-serif" font-size="12" font-style="italic" lengthAdjust="spacingAndGlyphs" textLength="123" x="354.65" y="28.1543">BeatModelInterface</text><line style="stroke: #A80036; stroke-width: 1.5;" x1="325" x2="481" y1="40" y2="40"/><line style="stroke: #A80036; stroke-width: 1.5;" x1="325" x2="481" y1="48" y2="48"/><ellipse cx="335" cy="59.9023" fill="#84BE84" rx="3" ry="3" style="stroke: #038048; stroke-width: 1.0;"/><text fill="#000000" font-family="sans-serif" font-size="11" lengthAdjust="spacingAndGlyphs" textLength="35" x="344" y="62.2104">start()</text><ellipse cx="335" cy="72.707" fill="#84BE84" rx="3" ry="3" style="stroke: #038048; stroke-width: 1.0;"/><text fill="#000000" font-family="sans-serif" font-size="11" lengthAdjust="spacingAndGlyphs" textLength="33" x="344" y="75.0151">stop()</text><ellipse cx="335" cy="85.5117" fill="#84BE84" rx="3" ry="3" style="stroke: #038048; stroke-width: 1.0;"/><text fill="#000000" font-family="sans-serif" font-size="11" lengthAdjust="spacingAndGlyphs" textLength="52" x="344" y="87.8198">getBpm()</text><ellipse cx="335" cy="98.3164" fill="#84BE84" rx="3" ry="3" style="stroke: #038048; stroke-width: 1.0;"/><text fill="#000000" font-family="sans-serif" font-size="11" lengthAdjust="spacingAndGlyphs" textLength="66" x="344" y="100.6245">setBpm(int)</text><ellipse cx="335" cy="111.1211" fill="#84BE84" rx="3" ry="3" style="stroke: #038048; stroke-width: 1.0;"/><text fill="#000000" font-family="sans-serif" font-size="11" lengthAdjust="spacingAndGlyphs" textLength="132" x="344" y="113.4292">registerBeatObserver()</text><ellipse cx="335" cy="123.9258" fill="#84BE84" rx="3" ry="3" style="stroke: #038048; stroke-width: 1.0;"/><text fill="#000000" font-family="sans-serif" font-size="11" lengthAdjust="spacingAndGlyphs" textLength="130" x="344" y="126.2339">removeBeatObserver()</text><ellipse cx="335" cy="136.7305" fill="#84BE84" rx="3" ry="3" style="stroke: #038048; stroke-width: 1.0;"/><text fill="#000000" font-family="sans-serif" font-size="11" lengthAdjust="spacingAndGlyphs" textLength="132" x="344" y="139.0386">registerBpmObserver()</text><ellipse cx="335" cy="149.5352" fill="#84BE84" rx="3" ry="3" style="stroke: #038048; stroke-width: 1.0;"/><text fill="#000000" font-family="sans-serif" font-size="11" lengthAdjust="spacingAndGlyphs" textLength="130" x="344" y="151.8433">removeBpmObserver()</text><!--class BeatModel--><rect fill="#FEFECE" filter="url(#fauuau3x2owu9)" height="86.4141" id="BeatModel" style="stroke: #A80036; stroke-width: 1.5;" width="123" x="517.5" y="40"/><ellipse cx="543.75" cy="56" fill="#ADD1B2" rx="11" ry="11" style="stroke: #A80036; stroke-width: 1.0;"/><path d="M546.0938,51.6719 L546.2656,51.75 C546.4844,51.4375 546.6875,51.3438 546.9844,51.3438 C547.2813,51.3438 547.5625,51.4844 547.7188,51.75 C547.8125,51.9063 547.8281,52.0313 547.8281,52.4688 L547.8281,53.8906 C547.8281,54.3125 547.7969,54.5 547.6875,54.6563 C547.5156,54.875 547.25,55.0156 546.9844,55.0156 C546.7656,55.0156 546.5313,54.9063 546.3906,54.7656 C546.25,54.6406 546.2188,54.5156 546.1563,54.1094 C546.0625,53.7031 545.8906,53.4844 545.4063,53.2031 C544.9375,52.9531 544.3281,52.7969 543.75,52.7969 C542.0156,52.7969 540.7656,54.1094 540.7656,55.8906 L540.7656,56.9844 C540.7656,58.6875 542.0625,59.7813 544.1094,59.7813 C544.875,59.7813 545.5625,59.6563 545.9844,59.3906 C546.1719,59.2969 546.1719,59.2969 546.625,58.8125 C546.8125,58.625 547.0156,58.5469 547.2344,58.5469 C547.7031,58.5469 548.0938,58.9375 548.0938,59.3906 C548.0938,59.7813 547.7656,60.2344 547.1875,60.6406 C546.4375,61.1875 545.2813,61.4844 544.0625,61.4844 C541.1719,61.4844 539.0625,59.5938 539.0625,57.0156 L539.0625,55.8906 C539.0625,53.1719 541.0625,51.0938 543.6875,51.0938 C544.5625,51.0938 545.1563,51.2344 546.0938,51.6719 Z "/><text fill="#000000" font-family="sans-serif" font-size="12" lengthAdjust="spacingAndGlyphs" textLength="66" x="560.25" y="60.1543">BeatModel</text><line style="stroke: #A80036; stroke-width: 1.5;" x1="518.5" x2="639.5" y1="72" y2="72"/><rect fill="none" height="6" style="stroke: #C82930; stroke-width: 1.0;" width="6" x="525.5" y="80.9023"/><text fill="#000000" font-family="sans-serif" font-size="11" lengthAdjust="spacingAndGlyphs" textLength="97" x="537.5" y="86.2104">beatObservers []</text><rect fill="none" height="6" style="stroke: #C82930; stroke-width: 1.0;" width="6" x="525.5" y="93.707"/><text fill="#000000" font-family="sans-serif" font-size="11" lengthAdjust="spacingAndGlyphs" textLength="97" x="537.5" y="99.0151">bpmObservers []</text><rect fill="none" height="6" style="stroke: #C82930; stroke-width: 1.0;" width="6" x="525.5" y="106.5117"/><text fill="#000000" font-family="sans-serif" font-size="11" lengthAdjust="spacingAndGlyphs" textLength="51" x="537.5" y="111.8198">bpm : int</text><line style="stroke: #A80036; stroke-width: 1.5;" x1="518.5" x2="639.5" y1="118.4141" y2="118.4141"/><!--class BpmView--><rect fill="#FEFECE" filter="url(#fauuau3x2owu9)" height="86.4141" id="BpmView" style="stroke: #A80036; stroke-width: 1.5;" width="143" x="386.5" y="572"/><ellipse cx="426.25" cy="588" fill="#A9DCDF" rx="11" ry="11" style="stroke: #A80036; stroke-width: 1.0;"/><path d="M427.8281,589.8125 L423.7813,589.8125 L423.3906,590.7969 L423.7813,590.7969 C424.2344,590.7969 424.375,590.8281 424.5469,590.9531 C424.7656,591.125 424.8906,591.375 424.8906,591.6563 C424.8906,591.9375 424.75,592.2344 424.4844,592.375 C424.3594,592.4688 424.1406,592.5 423.7813,592.5 L421.5156,592.5 C420.7656,592.5 420.3906,592.2188 420.3906,591.6563 C420.3906,591.3594 420.5469,591.0781 420.7969,590.9219 C420.9531,590.8125 421.1094,590.7969 421.5313,590.7969 L424.1719,584.2813 L423.0938,584.2813 C422.6563,584.2813 422.4844,584.25 422.3125,584.1406 C422.0938,583.9688 421.9531,583.7188 421.9531,583.4375 C421.9531,583.1563 422.1094,582.875 422.3594,582.7031 C422.5156,582.6094 422.6406,582.5938 423.0938,582.5938 L426.7656,582.5938 L430.1563,590.7969 C430.625,590.7969 430.7813,590.8281 430.9531,590.9688 C431.1719,591.125 431.3125,591.375 431.3125,591.6563 C431.3125,591.9375 431.1563,592.2344 430.9063,592.375 C430.7656,592.4688 430.5469,592.5 430.1875,592.5 L427.8281,592.5 C427.4063,592.5 427.2031,592.4531 427.0625,592.3281 C426.8438,592.1719 426.7031,591.9219 426.7031,591.6563 C426.7031,591.3594 426.8594,591.0781 427.1094,590.9219 C427.2656,590.8125 427.375,590.7969 427.8281,590.7969 L428.2188,590.7969 Z M427.125,588.1094 L425.7969,584.8438 L424.4531,588.1094 Z "/><text fill="#000000" font-family="sans-serif" font-size="12" font-style="italic" lengthAdjust="spacingAndGlyphs" textLength="56" x="445.75" y="592.1543">BpmView</text><line style="stroke: #A80036; stroke-width: 1.5;" x1="387.5" x2="528.5" y1="604" y2="604"/><rect fill="none" height="6" style="stroke: #C82930; stroke-width: 1.0;" width="6" x="394.5" y="612.9023"/><text fill="#000000" font-family="sans-serif" font-size="11" lengthAdjust="spacingAndGlyphs" textLength="117" x="406.5" y="618.2104">children : BpmView[]</text><rect fill="none" height="6" style="stroke: #C82930; stroke-width: 1.0;" width="6" x="394.5" y="625.707"/><text fill="#000000" font-family="sans-serif" font-size="11" lengthAdjust="spacingAndGlyphs" textLength="47" x="406.5" y="631.0151">bpm: int</text><rect fill="none" height="6" style="stroke: #C82930; stroke-width: 1.0;" width="6" x="394.5" y="638.5117"/><text fill="#000000" font-family="sans-serif" font-size="11" lengthAdjust="spacingAndGlyphs" textLength="54" x="406.5" y="643.8198">controller</text><line style="stroke: #A80036; stroke-width: 1.5;" x1="387.5" x2="528.5" y1="650.4141" y2="650.4141"/><!--class PlusButton--><rect fill="#FEFECE" filter="url(#fauuau3x2owu9)" height="60.8047" id="PlusButton" style="stroke: #A80036; stroke-width: 1.5;" width="100" x="6" y="718"/><ellipse cx="21" cy="734" fill="#ADD1B2" rx="11" ry="11" style="stroke: #A80036; stroke-width: 1.0;"/><path d="M23.3438,729.6719 L23.5156,729.75 C23.7344,729.4375 23.9375,729.3438 24.2344,729.3438 C24.5313,729.3438 24.8125,729.4844 24.9688,729.75 C25.0625,729.9063 25.0781,730.0313 25.0781,730.4688 L25.0781,731.8906 C25.0781,732.3125 25.0469,732.5 24.9375,732.6563 C24.7656,732.875 24.5,733.0156 24.2344,733.0156 C24.0156,733.0156 23.7813,732.9063 23.6406,732.7656 C23.5,732.6406 23.4688,732.5156 23.4063,732.1094 C23.3125,731.7031 23.1406,731.4844 22.6563,731.2031 C22.1875,730.9531 21.5781,730.7969 21,730.7969 C19.2656,730.7969 18.0156,732.1094 18.0156,733.8906 L18.0156,734.9844 C18.0156,736.6875 19.3125,737.7813 21.3594,737.7813 C22.125,737.7813 22.8125,737.6563 23.2344,737.3906 C23.4219,737.2969 23.4219,737.2969 23.875,736.8125 C24.0625,736.625 24.2656,736.5469 24.4844,736.5469 C24.9531,736.5469 25.3438,736.9375 25.3438,737.3906 C25.3438,737.7813 25.0156,738.2344 24.4375,738.6406 C23.6875,739.1875 22.5313,739.4844 21.3125,739.4844 C18.4219,739.4844 16.3125,737.5938 16.3125,735.0156 L16.3125,733.8906 C16.3125,731.1719 18.3125,729.0938 20.9375,729.0938 C21.8125,729.0938 22.4063,729.2344 23.3438,729.6719 Z "/><text fill="#000000" font-family="sans-serif" font-size="12" lengthAdjust="spacingAndGlyphs" textLength="68" x="35" y="738.1543">PlusButton</text><line style="stroke: #A80036; stroke-width: 1.5;" x1="7" x2="105" y1="750" y2="750"/><line style="stroke: #A80036; stroke-width: 1.5;" x1="7" x2="105" y1="758" y2="758"/><ellipse cx="17" cy="769.9023" fill="#84BE84" rx="3" ry="3" style="stroke: #038048; stroke-width: 1.0;"/><text fill="#000000" font-family="sans-serif" font-size="11" lengthAdjust="spacingAndGlyphs" textLength="32" x="26" y="772.2104">click()</text><!--class MinusButton--><rect fill="#FEFECE" filter="url(#fauuau3x2owu9)" height="60.8047" id="MinusButton" style="stroke: #A80036; stroke-width: 1.5;" width="110" x="141" y="718"/><ellipse cx="156" cy="734" fill="#ADD1B2" rx="11" ry="11" style="stroke: #A80036; stroke-width: 1.0;"/><path d="M158.3438,729.6719 L158.5156,729.75 C158.7344,729.4375 158.9375,729.3438 159.2344,729.3438 C159.5313,729.3438 159.8125,729.4844 159.9688,729.75 C160.0625,729.9063 160.0781,730.0313 160.0781,730.4688 L160.0781,731.8906 C160.0781,732.3125 160.0469,732.5 159.9375,732.6563 C159.7656,732.875 159.5,733.0156 159.2344,733.0156 C159.0156,733.0156 158.7813,732.9063 158.6406,732.7656 C158.5,732.6406 158.4688,732.5156 158.4063,732.1094 C158.3125,731.7031 158.1406,731.4844 157.6563,731.2031 C157.1875,730.9531 156.5781,730.7969 156,730.7969 C154.2656,730.7969 153.0156,732.1094 153.0156,733.8906 L153.0156,734.9844 C153.0156,736.6875 154.3125,737.7813 156.3594,737.7813 C157.125,737.7813 157.8125,737.6563 158.2344,737.3906 C158.4219,737.2969 158.4219,737.2969 158.875,736.8125 C159.0625,736.625 159.2656,736.5469 159.4844,736.5469 C159.9531,736.5469 160.3438,736.9375 160.3438,737.3906 C160.3438,737.7813 160.0156,738.2344 159.4375,738.6406 C158.6875,739.1875 157.5313,739.4844 156.3125,739.4844 C153.4219,739.4844 151.3125,737.5938 151.3125,735.0156 L151.3125,733.8906 C151.3125,731.1719 153.3125,729.0938 155.9375,729.0938 C156.8125,729.0938 157.4063,729.2344 158.3438,729.6719 Z "/><text fill="#000000" font-family="sans-serif" font-size="12" lengthAdjust="spacingAndGlyphs" textLength="78" x="170" y="738.1543">MinusButton</text><line style="stroke: #A80036; stroke-width: 1.5;" x1="142" x2="250" y1="750" y2="750"/><line style="stroke: #A80036; stroke-width: 1.5;" x1="142" x2="250" y1="758" y2="758"/><ellipse cx="152" cy="769.9023" fill="#84BE84" rx="3" ry="3" style="stroke: #038048; stroke-width: 1.0;"/><text fill="#000000" font-family="sans-serif" font-size="11" lengthAdjust="spacingAndGlyphs" textLength="32" x="161" y="772.2104">click()</text><!--class TextArea--><rect fill="#FEFECE" filter="url(#fauuau3x2owu9)" height="60.8047" id="TextArea" style="stroke: #A80036; stroke-width: 1.5;" width="87" x="286.5" y="718"/><ellipse cx="301.5" cy="734" fill="#ADD1B2" rx="11" ry="11" style="stroke: #A80036; stroke-width: 1.0;"/><path d="M303.8438,729.6719 L304.0156,729.75 C304.2344,729.4375 304.4375,729.3438 304.7344,729.3438 C305.0313,729.3438 305.3125,729.4844 305.4688,729.75 C305.5625,729.9063 305.5781,730.0313 305.5781,730.4688 L305.5781,731.8906 C305.5781,732.3125 305.5469,732.5 305.4375,732.6563 C305.2656,732.875 305,733.0156 304.7344,733.0156 C304.5156,733.0156 304.2813,732.9063 304.1406,732.7656 C304,732.6406 303.9688,732.5156 303.9063,732.1094 C303.8125,731.7031 303.6406,731.4844 303.1563,731.2031 C302.6875,730.9531 302.0781,730.7969 301.5,730.7969 C299.7656,730.7969 298.5156,732.1094 298.5156,733.8906 L298.5156,734.9844 C298.5156,736.6875 299.8125,737.7813 301.8594,737.7813 C302.625,737.7813 303.3125,737.6563 303.7344,737.3906 C303.9219,737.2969 303.9219,737.2969 304.375,736.8125 C304.5625,736.625 304.7656,736.5469 304.9844,736.5469 C305.4531,736.5469 305.8438,736.9375 305.8438,737.3906 C305.8438,737.7813 305.5156,738.2344 304.9375,738.6406 C304.1875,739.1875 303.0313,739.4844 301.8125,739.4844 C298.9219,739.4844 296.8125,737.5938 296.8125,735.0156 L296.8125,733.8906 C296.8125,731.1719 298.8125,729.0938 301.4375,729.0938 C302.3125,729.0938 302.9063,729.2344 303.8438,729.6719 Z "/><text fill="#000000" font-family="sans-serif" font-size="12" lengthAdjust="spacingAndGlyphs" textLength="55" x="315.5" y="738.1543">TextArea</text><line style="stroke: #A80036; stroke-width: 1.5;" x1="287.5" x2="372.5" y1="750" y2="750"/><line style="stroke: #A80036; stroke-width: 1.5;" x1="287.5" x2="372.5" y1="758" y2="758"/><ellipse cx="297.5" cy="769.9023" fill="#84BE84" rx="3" ry="3" style="stroke: #038048; stroke-width: 1.0;"/><text fill="#000000" font-family="sans-serif" font-size="11" lengthAdjust="spacingAndGlyphs" textLength="50" x="306.5" y="772.2104">setText()</text><!--class LedDisplay--><rect fill="#FEFECE" filter="url(#fauuau3x2owu9)" height="48" id="LedDisplay" style="stroke: #A80036; stroke-width: 1.5;" width="98" x="409" y="724.5"/><ellipse cx="424" cy="740.5" fill="#ADD1B2" rx="11" ry="11" style="stroke: #A80036; stroke-width: 1.0;"/><path d="M426.3438,736.1719 L426.5156,736.25 C426.7344,735.9375 426.9375,735.8438 427.2344,735.8438 C427.5313,735.8438 427.8125,735.9844 427.9688,736.25 C428.0625,736.4063 428.0781,736.5313 428.0781,736.9688 L428.0781,738.3906 C428.0781,738.8125 428.0469,739 427.9375,739.1563 C427.7656,739.375 427.5,739.5156 427.2344,739.5156 C427.0156,739.5156 426.7813,739.4063 426.6406,739.2656 C426.5,739.1406 426.4688,739.0156 426.4063,738.6094 C426.3125,738.2031 426.1406,737.9844 425.6563,737.7031 C425.1875,737.4531 424.5781,737.2969 424,737.2969 C422.2656,737.2969 421.0156,738.6094 421.0156,740.3906 L421.0156,741.4844 C421.0156,743.1875 422.3125,744.2813 424.3594,744.2813 C425.125,744.2813 425.8125,744.1563 426.2344,743.8906 C426.4219,743.7969 426.4219,743.7969 426.875,743.3125 C427.0625,743.125 427.2656,743.0469 427.4844,743.0469 C427.9531,743.0469 428.3438,743.4375 428.3438,743.8906 C428.3438,744.2813 428.0156,744.7344 427.4375,745.1406 C426.6875,745.6875 425.5313,745.9844 424.3125,745.9844 C421.4219,745.9844 419.3125,744.0938 419.3125,741.5156 L419.3125,740.3906 C419.3125,737.6719 421.3125,735.5938 423.9375,735.5938 C424.8125,735.5938 425.4063,735.7344 426.3438,736.1719 Z "/><text fill="#000000" font-family="sans-serif" font-size="12" lengthAdjust="spacingAndGlyphs" textLength="66" x="438" y="744.6543">LedDisplay</text><line style="stroke: #A80036; stroke-width: 1.5;" x1="410" x2="506" y1="756.5" y2="756.5"/><line style="stroke: #A80036; stroke-width: 1.5;" x1="410" x2="506" y1="764.5" y2="764.5"/><!--class StartButton--><rect fill="#FEFECE" filter="url(#fauuau3x2owu9)" height="60.8047" id="StartButton" style="stroke: #A80036; stroke-width: 1.5;" width="105" x="542.5" y="718"/><ellipse cx="557.5" cy="734" fill="#ADD1B2" rx="11" ry="11" style="stroke: #A80036; stroke-width: 1.0;"/><path d="M559.8438,729.6719 L560.0156,729.75 C560.2344,729.4375 560.4375,729.3438 560.7344,729.3438 C561.0313,729.3438 561.3125,729.4844 561.4688,729.75 C561.5625,729.9063 561.5781,730.0313 561.5781,730.4688 L561.5781,731.8906 C561.5781,732.3125 561.5469,732.5 561.4375,732.6563 C561.2656,732.875 561,733.0156 560.7344,733.0156 C560.5156,733.0156 560.2813,732.9063 560.1406,732.7656 C560,732.6406 559.9688,732.5156 559.9063,732.1094 C559.8125,731.7031 559.6406,731.4844 559.1563,731.2031 C558.6875,730.9531 558.0781,730.7969 557.5,730.7969 C555.7656,730.7969 554.5156,732.1094 554.5156,733.8906 L554.5156,734.9844 C554.5156,736.6875 555.8125,737.7813 557.8594,737.7813 C558.625,737.7813 559.3125,737.6563 559.7344,737.3906 C559.9219,737.2969 559.9219,737.2969 560.375,736.8125 C560.5625,736.625 560.7656,736.5469 560.9844,736.5469 C561.4531,736.5469 561.8438,736.9375 561.8438,737.3906 C561.8438,737.7813 561.5156,738.2344 560.9375,738.6406 C560.1875,739.1875 559.0313,739.4844 557.8125,739.4844 C554.9219,739.4844 552.8125,737.5938 552.8125,735.0156 L552.8125,733.8906 C552.8125,731.1719 554.8125,729.0938 557.4375,729.0938 C558.3125,729.0938 558.9063,729.2344 559.8438,729.6719 Z "/><text fill="#000000" font-family="sans-serif" font-size="12" lengthAdjust="spacingAndGlyphs" textLength="73" x="571.5" y="738.1543">StartButton</text><line style="stroke: #A80036; stroke-width: 1.5;" x1="543.5" x2="646.5" y1="750" y2="750"/><line style="stroke: #A80036; stroke-width: 1.5;" x1="543.5" x2="646.5" y1="758" y2="758"/><ellipse cx="553.5" cy="769.9023" fill="#84BE84" rx="3" ry="3" style="stroke: #038048; stroke-width: 1.0;"/><text fill="#000000" font-family="sans-serif" font-size="11" lengthAdjust="spacingAndGlyphs" textLength="32" x="562.5" y="772.2104">click()</text><!--class StopButton--><rect fill="#FEFECE" filter="url(#fauuau3x2owu9)" height="60.8047" id="StopButton" style="stroke: #A80036; stroke-width: 1.5;" width="103" x="682.5" y="718"/><ellipse cx="697.5" cy="734" fill="#ADD1B2" rx="11" ry="11" style="stroke: #A80036; stroke-width: 1.0;"/><path d="M699.8438,729.6719 L700.0156,729.75 C700.2344,729.4375 700.4375,729.3438 700.7344,729.3438 C701.0313,729.3438 701.3125,729.4844 701.4688,729.75 C701.5625,729.9063 701.5781,730.0313 701.5781,730.4688 L701.5781,731.8906 C701.5781,732.3125 701.5469,732.5 701.4375,732.6563 C701.2656,732.875 701,733.0156 700.7344,733.0156 C700.5156,733.0156 700.2813,732.9063 700.1406,732.7656 C700,732.6406 699.9688,732.5156 699.9063,732.1094 C699.8125,731.7031 699.6406,731.4844 699.1563,731.2031 C698.6875,730.9531 698.0781,730.7969 697.5,730.7969 C695.7656,730.7969 694.5156,732.1094 694.5156,733.8906 L694.5156,734.9844 C694.5156,736.6875 695.8125,737.7813 697.8594,737.7813 C698.625,737.7813 699.3125,737.6563 699.7344,737.3906 C699.9219,737.2969 699.9219,737.2969 700.375,736.8125 C700.5625,736.625 700.7656,736.5469 700.9844,736.5469 C701.4531,736.5469 701.8438,736.9375 701.8438,737.3906 C701.8438,737.7813 701.5156,738.2344 700.9375,738.6406 C700.1875,739.1875 699.0313,739.4844 697.8125,739.4844 C694.9219,739.4844 692.8125,737.5938 692.8125,735.0156 L692.8125,733.8906 C692.8125,731.1719 694.8125,729.0938 697.4375,729.0938 C698.3125,729.0938 698.9063,729.2344 699.8438,729.6719 Z "/><text fill="#000000" font-family="sans-serif" font-size="12" lengthAdjust="spacingAndGlyphs" textLength="71" x="711.5" y="738.1543">StopButton</text><line style="stroke: #A80036; stroke-width: 1.5;" x1="683.5" x2="784.5" y1="750" y2="750"/><line style="stroke: #A80036; stroke-width: 1.5;" x1="683.5" x2="784.5" y1="758" y2="758"/><ellipse cx="693.5" cy="769.9023" fill="#84BE84" rx="3" ry="3" style="stroke: #038048; stroke-width: 1.0;"/><text fill="#000000" font-family="sans-serif" font-size="11" lengthAdjust="spacingAndGlyphs" textLength="32" x="702.5" y="772.2104">click()</text><!--class BeepBox--><rect fill="#FEFECE" filter="url(#fauuau3x2owu9)" height="48" id="BeepBox" style="stroke: #A80036; stroke-width: 1.5;" width="86" x="821" y="724.5"/><ellipse cx="836" cy="740.5" fill="#ADD1B2" rx="11" ry="11" style="stroke: #A80036; stroke-width: 1.0;"/><path d="M838.3438,736.1719 L838.5156,736.25 C838.7344,735.9375 838.9375,735.8438 839.2344,735.8438 C839.5313,735.8438 839.8125,735.9844 839.9688,736.25 C840.0625,736.4063 840.0781,736.5313 840.0781,736.9688 L840.0781,738.3906 C840.0781,738.8125 840.0469,739 839.9375,739.1563 C839.7656,739.375 839.5,739.5156 839.2344,739.5156 C839.0156,739.5156 838.7813,739.4063 838.6406,739.2656 C838.5,739.1406 838.4688,739.0156 838.4063,738.6094 C838.3125,738.2031 838.1406,737.9844 837.6563,737.7031 C837.1875,737.4531 836.5781,737.2969 836,737.2969 C834.2656,737.2969 833.0156,738.6094 833.0156,740.3906 L833.0156,741.4844 C833.0156,743.1875 834.3125,744.2813 836.3594,744.2813 C837.125,744.2813 837.8125,744.1563 838.2344,743.8906 C838.4219,743.7969 838.4219,743.7969 838.875,743.3125 C839.0625,743.125 839.2656,743.0469 839.4844,743.0469 C839.9531,743.0469 840.3438,743.4375 840.3438,743.8906 C840.3438,744.2813 840.0156,744.7344 839.4375,745.1406 C838.6875,745.6875 837.5313,745.9844 836.3125,745.9844 C833.4219,745.9844 831.3125,744.0938 831.3125,741.5156 L831.3125,740.3906 C831.3125,737.6719 833.3125,735.5938 835.9375,735.5938 C836.8125,735.5938 837.4063,735.7344 838.3438,736.1719 Z "/><text fill="#000000" font-family="sans-serif" font-size="12" lengthAdjust="spacingAndGlyphs" textLength="54" x="850" y="744.6543">BeepBox</text><line style="stroke: #A80036; stroke-width: 1.5;" x1="822" x2="906" y1="756.5" y2="756.5"/><line style="stroke: #A80036; stroke-width: 1.5;" x1="822" x2="906" y1="764.5" y2="764.5"/><!--class BpmControllerInterface--><rect fill="#FEFECE" filter="url(#fauuau3x2owu9)" height="112.0234" id="BpmControllerInterface" style="stroke: #A80036; stroke-width: 1.5;" width="177" x="314.5" y="279"/><ellipse cx="329.5" cy="295" fill="#B4A7E5" rx="11" ry="11" style="stroke: #A80036; stroke-width: 1.0;"/><path d="M330.4531,291.7813 L330.4531,298.2969 L332.1719,298.2969 C332.625,298.2969 332.7656,298.3281 332.9375,298.4531 C333.1719,298.625 333.2813,298.875 333.2813,299.1563 C333.2813,299.7188 332.9219,300 332.1719,300 L327.0313,300 C326.625,300 326.4219,299.9531 326.2656,299.8281 C326.0469,299.6719 325.9063,299.4063 325.9063,299.1563 C325.9063,298.8594 326.0625,298.5781 326.3125,298.4219 C326.4688,298.3125 326.5938,298.2969 327.0313,298.2969 L328.75,298.2969 L328.75,291.7813 L327.0313,291.7813 C326.6094,291.7813 326.4219,291.75 326.2656,291.6406 C326.0469,291.4688 325.9063,291.2188 325.9063,290.9375 C325.9063,290.6563 326.0625,290.3594 326.3125,290.2031 C326.4688,290.1094 326.5938,290.0938 327.0313,290.0938 L332.1719,290.0938 C332.625,290.0938 332.7656,290.125 332.9375,290.2344 C333.1719,290.4063 333.2813,290.6719 333.2813,290.9375 C333.2813,291.2344 333.1406,291.5156 332.875,291.6719 C332.75,291.75 332.5625,291.7813 332.1719,291.7813 Z "/><text fill="#000000" font-family="sans-serif" font-size="12" font-style="italic" lengthAdjust="spacingAndGlyphs" textLength="145" x="343.5" y="299.1543">BpmControllerInterface</text><line style="stroke: #A80036; stroke-width: 1.5;" x1="315.5" x2="490.5" y1="311" y2="311"/><line style="stroke: #A80036; stroke-width: 1.5;" x1="315.5" x2="490.5" y1="319" y2="319"/><ellipse cx="325.5" cy="330.9023" fill="#84BE84" rx="3" ry="3" style="stroke: #038048; stroke-width: 1.0;"/><text fill="#000000" font-family="sans-serif" font-size="11" lengthAdjust="spacingAndGlyphs" textLength="66" x="334.5" y="333.2104">setBpm(int)</text><ellipse cx="325.5" cy="343.707" fill="#84BE84" rx="3" ry="3" style="stroke: #038048; stroke-width: 1.0;"/><text fill="#000000" font-family="sans-serif" font-size="11" lengthAdjust="spacingAndGlyphs" textLength="87" x="334.5" y="346.0151">decreaseBpm()</text><ellipse cx="325.5" cy="356.5117" fill="#84BE84" rx="3" ry="3" style="stroke: #038048; stroke-width: 1.0;"/><text fill="#000000" font-family="sans-serif" font-size="11" lengthAdjust="spacingAndGlyphs" textLength="83" x="334.5" y="358.8198">increaseBpm()</text><ellipse cx="325.5" cy="369.3164" fill="#84BE84" rx="3" ry="3" style="stroke: #038048; stroke-width: 1.0;"/><text fill="#000000" font-family="sans-serif" font-size="11" lengthAdjust="spacingAndGlyphs" textLength="35" x="334.5" y="371.6245">start()</text><ellipse cx="325.5" cy="382.1211" fill="#84BE84" rx="3" ry="3" style="stroke: #038048; stroke-width: 1.0;"/><text fill="#000000" font-family="sans-serif" font-size="11" lengthAdjust="spacingAndGlyphs" textLength="33" x="334.5" y="384.4292">stop()</text><!--class BpmController--><rect fill="#FEFECE" filter="url(#fauuau3x2owu9)" height="73.6094" id="BpmController" style="stroke: #A80036; stroke-width: 1.5;" width="120" x="527" y="298"/><ellipse cx="542" cy="314" fill="#ADD1B2" rx="11" ry="11" style="stroke: #A80036; stroke-width: 1.0;"/><path d="M544.3438,309.6719 L544.5156,309.75 C544.7344,309.4375 544.9375,309.3438 545.2344,309.3438 C545.5313,309.3438 545.8125,309.4844 545.9688,309.75 C546.0625,309.9063 546.0781,310.0313 546.0781,310.4688 L546.0781,311.8906 C546.0781,312.3125 546.0469,312.5 545.9375,312.6563 C545.7656,312.875 545.5,313.0156 545.2344,313.0156 C545.0156,313.0156 544.7813,312.9063 544.6406,312.7656 C544.5,312.6406 544.4688,312.5156 544.4063,312.1094 C544.3125,311.7031 544.1406,311.4844 543.6563,311.2031 C543.1875,310.9531 542.5781,310.7969 542,310.7969 C540.2656,310.7969 539.0156,312.1094 539.0156,313.8906 L539.0156,314.9844 C539.0156,316.6875 540.3125,317.7813 542.3594,317.7813 C543.125,317.7813 543.8125,317.6563 544.2344,317.3906 C544.4219,317.2969 544.4219,317.2969 544.875,316.8125 C545.0625,316.625 545.2656,316.5469 545.4844,316.5469 C545.9531,316.5469 546.3438,316.9375 546.3438,317.3906 C546.3438,317.7813 546.0156,318.2344 545.4375,318.6406 C544.6875,319.1875 543.5313,319.4844 542.3125,319.4844 C539.4219,319.4844 537.3125,317.5938 537.3125,315.0156 L537.3125,313.8906 C537.3125,311.1719 539.3125,309.0938 541.9375,309.0938 C542.8125,309.0938 543.4063,309.2344 544.3438,309.6719 Z "/><text fill="#000000" font-family="sans-serif" font-size="12" lengthAdjust="spacingAndGlyphs" textLength="88" x="556" y="318.1543">BpmController</text><line style="stroke: #A80036; stroke-width: 1.5;" x1="528" x2="646" y1="330" y2="330"/><rect fill="none" height="6" style="stroke: #C82930; stroke-width: 1.0;" width="6" x="535" y="338.9023"/><text fill="#000000" font-family="sans-serif" font-size="11" lengthAdjust="spacingAndGlyphs" textLength="35" x="547" y="344.2104">model</text><rect fill="none" height="6" style="stroke: #C82930; stroke-width: 1.0;" width="6" x="535" y="351.707"/><text fill="#000000" font-family="sans-serif" font-size="11" lengthAdjust="spacingAndGlyphs" textLength="25" x="547" y="357.0151">view</text><line style="stroke: #A80036; stroke-width: 1.5;" x1="528" x2="646" y1="363.6094" y2="363.6094"/><!--link BpmObserver to BpmView--><path d="M492.831,530.723 C487.189,544.212 481.103,558.762 475.621,571.869 " fill="none" id="BpmObserver-BpmView" style="stroke: #A80036; stroke-width: 1.0; stroke-dasharray: 7.0,7.0;"/><polygon fill="none" points="486.482,527.761,500.657,512.011,499.398,533.163,486.482,527.761" style="stroke: #A80036; stroke-width: 1.0;"/><!--link BpmView to PlusButton--><path d="M366.979,640.539 C299.047,659.616 204.323,687.8387 123,718 C117.518,720.033 111.844,722.2879 106.222,724.6193 " fill="none" id="BpmView-PlusButton" style="stroke: #A80036; stroke-width: 1.0;"/><polygon fill="none" points="365.129,633.787,386.274,635.163,368.886,647.274,365.129,633.787" style="stroke: #A80036; stroke-width: 1.0;"/><!--link BpmView to MinusButton--><path d="M368.412,660.965 C329.546,680.4719 285.26,702.6998 251.303,719.7428 " fill="none" id="BpmView-MinusButton" style="stroke: #A80036; stroke-width: 1.0;"/><polygon fill="none" points="365.392,654.648,386.407,651.933,371.673,667.161,365.392,654.648" style="stroke: #A80036; stroke-width: 1.0;"/><!--link BpmView to TextArea--><path d="M402.673,672.84 C387.618,688.3062 371.911,704.4425 358.968,717.7402 " fill="none" id="BpmView-TextArea" style="stroke: #A80036; stroke-width: 1.0;"/><polygon fill="none" points="397.829,667.78,416.795,658.331,407.861,677.545,397.829,667.78" style="stroke: #A80036; stroke-width: 1.0;"/><!--link BpmView to LedDisplay--><path d="M458,678.335 C458,694.782 458,711.5146 458,724.4016 " fill="none" id="BpmView-LedDisplay" style="stroke: #A80036; stroke-width: 1.0;"/><polygon fill="none" points="451,678.331,458,658.331,465,678.331,451,678.331" style="stroke: #A80036; stroke-width: 1.0;"/><!--link BpmView to StartButton--><path d="M516.719,672.362 C532.983,687.9731 549.999,704.3054 563.996,717.7402 " fill="none" id="BpmView-StartButton" style="stroke: #A80036; stroke-width: 1.0;"/><polygon fill="none" points="511.683,677.231,502.102,658.331,521.378,667.131,511.683,677.231" style="stroke: #A80036; stroke-width: 1.0;"/><!--link BpmView to StopButton--><path d="M547.993,658.877 C592.434,680.0512 644.464,704.8404 682.176,722.8087 " fill="none" id="BpmView-StopButton" style="stroke: #A80036; stroke-width: 1.0;"/><polygon fill="none" points="544.84,665.129,529.795,650.207,550.862,652.49,544.84,665.129" style="stroke: #A80036; stroke-width: 1.0;"/><!--link BpmView to BeepBox--><path d="M549.322,638.643 C619.657,657.122 718.78,685.4355 803,718 C808.815,720.2485 814.837,722.8304 820.731,725.5113 " fill="none" id="BpmView-BeepBox" style="stroke: #A80036; stroke-width: 1.0;"/><polygon fill="none" points="547.429,645.384,529.831,633.58,550.948,631.833,547.429,645.384" style="stroke: #A80036; stroke-width: 1.0;"/><!--link BeatObserver to BeepBox--><path d="M864,665.707 C864,685.7922 864,708.0045 864,724.207 " fill="none" id="BeatObserver-BeepBox" style="stroke: #A80036; stroke-width: 1.0; stroke-dasharray: 7.0,7.0;"/><polygon fill="none" points="857,665.511,864,645.511,871,665.511,857,665.511" style="stroke: #A80036; stroke-width: 1.0;"/><!--link BeatModelInterface to BeatModel--><path d="M502.146,83 C507.19,83 512.234,83 517.278,83 " fill="none" id="BeatModelInterface-BeatModel" style="stroke: #A80036; stroke-width: 1.0; stroke-dasharray: 7.0,7.0;"/><polygon fill="none" points="502.063,90,482.062,83,502.062,76,502.063,90" style="stroke: #A80036; stroke-width: 1.0;"/><!--link BpmControllerInterface to BpmController--><path d="M511.982,335 C516.9,335 521.817,335 526.734,335 " fill="none" id="BpmControllerInterface-BpmController" style="stroke: #A80036; stroke-width: 1.0; stroke-dasharray: 7.0,7.0;"/><polygon fill="none" points="511.766,342,491.766,335,511.766,328,511.766,342" style="stroke: #A80036; stroke-width: 1.0;"/><!--link BpmControllerInterface to BpmView--><path d="M413.932,391.256 C424.458,444.461 440.147,523.762 449.69,571.995 " fill="none" id="BpmControllerInterface-BpmView" style="stroke: #A80036; stroke-width: 1.0;"/><!--link BeatModelInterface to BpmControllerInterface--><path d="M403,158.331 C403,196.905 403,243.228 403,278.619 " fill="none" id="BeatModelInterface-BpmControllerInterface" style="stroke: #A80036; stroke-width: 1.0;"/><!--
@startuml
Interface BeatObserver{
  + update()
}

Interface BpmObserver{
  + update(int)
}

Interface BeatModelInterface{
  + start()
  + stop()
  + getBpm()
  + setBpm(int)
  + registerBeatObserver()
  + removeBeatObserver()
  + registerBpmObserver()
  + removeBpmObserver()
}

Class BeatModel{
  - beatObservers []
  - bpmObservers []
  - bpm : int

}

Abstract BpmView{
  - children : BpmView[]
  - bpm: int
  - controller
}

Class PlusButton{
  + click()
}

Class MinusButton{
  + click()
}

Class TextArea{
  + setText()
}

Class LedDisplay{

}

Class StartButton{
  + click()
}

Class StopButton{
  + click()
}

Class BeepBox{

}

Interface BpmControllerInterface{
  + setBpm(int)
  + decreaseBpm()
  + increaseBpm()
  + start()
  + stop()
}

Class BpmController{
  - model
  - view
}


BpmObserver <|.. BpmView

BpmView <|- - PlusButton
BpmView <|- - MinusButton
BpmView <|- - TextArea
BpmView <|- - LedDisplay
BpmView <|- - StartButton
BpmView <|- - StopButton
BpmView <|- - BeepBox

BeatObserver <|.. BeepBox


BeatModelInterface <|. BeatModel

BpmControllerInterface <|. BpmController

BpmControllerInterface - - - BpmView
BeatModelInterface - - - BpmControllerInterface
@enduml

PlantUML version 1.2018.02(Fri Mar 09 17:20:44 UTC 2018)
(GPL source distribution)
Java Runtime: Java(TM) SE Runtime Environment
JVM: Java HotSpot(TM) 64-Bit Server VM
Java Version: 1.7.0_25-b15
Operating System: Linux
Default Encoding: UTF-8
Language: en
Country: US
--></g></svg>