<?xml version="1.0" encoding="UTF-8" standalone="no"?><svg xmlns="http://www.w3.org/2000/svg" xmlns:xlink="http://www.w3.org/1999/xlink" contentScriptType="application/ecmascript" contentStyleType="text/css" height="105px" preserveAspectRatio="none" style="width:194px;height:105px;" version="1.1" viewBox="0 0 194 105" width="194px" zoomAndPan="magnify"><defs><filter height="300%" id="fhft8rpxg577i" width="300%" x="-1" y="-1"><feGaussianBlur result="blurOut" stdDeviation="2.0"/><feColorMatrix in="blurOut" result="blurOut2" type="matrix" values="0 0 0 0 0 0 0 0 0 0 0 0 0 0 0 0 0 0 .4 0"/><feOffset dx="4.0" dy="4.0" in="blurOut2" result="blurOut3"/><feBlend in="SourceGraphic" in2="blurOut3" mode="normal"/></filter></defs><g><!--class Singleton--><rect fill="#FEFECE" filter="url(#fhft8rpxg577i)" height="86.4141" id="Singleton" style="stroke: #A80036; stroke-width: 1.5;" width="177" x="6" y="8"/><ellipse cx="60.75" cy="24" fill="#ADD1B2" rx="11" ry="11" style="stroke: #A80036; stroke-width: 1.0;"/><path d="M63.0938,19.6719 L63.2656,19.75 C63.4844,19.4375 63.6875,19.3438 63.9844,19.3438 C64.2813,19.3438 64.5625,19.4844 64.7188,19.75 C64.8125,19.9063 64.8281,20.0313 64.8281,20.4688 L64.8281,21.8906 C64.8281,22.3125 64.7969,22.5 64.6875,22.6563 C64.5156,22.875 64.25,23.0156 63.9844,23.0156 C63.7656,23.0156 63.5313,22.9063 63.3906,22.7656 C63.25,22.6406 63.2188,22.5156 63.1563,22.1094 C63.0625,21.7031 62.8906,21.4844 62.4063,21.2031 C61.9375,20.9531 61.3281,20.7969 60.75,20.7969 C59.0156,20.7969 57.7656,22.1094 57.7656,23.8906 L57.7656,24.9844 C57.7656,26.6875 59.0625,27.7813 61.1094,27.7813 C61.875,27.7813 62.5625,27.6563 62.9844,27.3906 C63.1719,27.2969 63.1719,27.2969 63.625,26.8125 C63.8125,26.625 64.0156,26.5469 64.2344,26.5469 C64.7031,26.5469 65.0938,26.9375 65.0938,27.3906 C65.0938,27.7813 64.7656,28.2344 64.1875,28.6406 C63.4375,29.1875 62.2813,29.4844 61.0625,29.4844 C58.1719,29.4844 56.0625,27.5938 56.0625,25.0156 L56.0625,23.8906 C56.0625,21.1719 58.0625,19.0938 60.6875,19.0938 C61.5625,19.0938 62.1563,19.2344 63.0938,19.6719 Z "/><text fill="#000000" font-family="sans-serif" font-size="12" lengthAdjust="spacingAndGlyphs" textLength="59" x="81.25" y="28.1543">Singleton</text><line style="stroke: #A80036; stroke-width: 1.5;" x1="7" x2="182" y1="40" y2="40"/><rect fill="none" height="6" style="stroke: #C82930; stroke-width: 1.0;" width="6" x="14" y="48.9023"/><text fill="#000000" font-family="sans-serif" font-size="11" lengthAdjust="spacingAndGlyphs" text-decoration="underline" textLength="151" x="26" y="54.2104">uniqueInstance : Singleton</text><line style="stroke: #000000; stroke-width: 1.0;" x1="26" x2="177" y1="56.2104" y2="56.2104"/><line style="stroke: #A80036; stroke-width: 1.5;" x1="7" x2="182" y1="60.8047" y2="60.8047"/><rect fill="#F24D5C" height="6" style="stroke: #C82930; stroke-width: 1.0;" width="6" x="14" y="69.707"/><text fill="#000000" font-family="sans-serif" font-size="11" lengthAdjust="spacingAndGlyphs" textLength="61" x="26" y="75.0151">Singleton()</text><ellipse cx="17" cy="85.5117" fill="#84BE84" rx="3" ry="3" style="stroke: #038048; stroke-width: 1.0;"/><text fill="#000000" font-family="sans-serif" font-size="11" lengthAdjust="spacingAndGlyphs" text-decoration="underline" textLength="74" x="26" y="87.8198">getInstance()</text><line style="stroke: #000000; stroke-width: 1.0;" x1="26" x2="100" y1="89.8198" y2="89.8198"/><!--
@startuml
Class Singleton{
  - {static} uniqueInstance : Singleton
  - Singleton()
  + {static} getInstance()
}
@enduml

PlantUML version 1.2018.02beta13(Unknown compile time)
(GPL source distribution)
Java Runtime: Java(TM) SE Runtime Environment
JVM: Java HotSpot(TM) 64-Bit Server VM
Java Version: 1.7.0_25-b15
Operating System: Linux
Default Encoding: UTF-8
Language: en
Country: US
--></g></svg>