<?xml version="1.0" encoding="UTF-8" standalone="no"?><svg xmlns="http://www.w3.org/2000/svg" xmlns:xlink="http://www.w3.org/1999/xlink" contentScriptType="application/ecmascript" contentStyleType="text/css" height="776px" preserveAspectRatio="none" style="width:852px;height:776px;" version="1.1" viewBox="0 0 852 776" width="852px" zoomAndPan="magnify"><defs><filter height="300%" id="fh8h27xglduav" width="300%" x="-1" y="-1"><feGaussianBlur result="blurOut" stdDeviation="2.0"/><feColorMatrix in="blurOut" result="blurOut2" type="matrix" values="0 0 0 0 0 0 0 0 0 0 0 0 0 0 0 0 0 0 .4 0"/><feOffset dx="4.0" dy="4.0" in="blurOut2" result="blurOut3"/><feBlend in="SourceGraphic" in2="blurOut3" mode="normal"/></filter></defs><g><!--cluster Use Composition / Strategy Pattern--><rect fill="#FFFFFF" filter="url(#fh8h27xglduav)" height="99" style="stroke: #000000; stroke-width: 1.5;" width="488" x="197" y="380"/><text fill="#000000" font-family="sans-serif" font-size="14" font-weight="bold" lengthAdjust="spacingAndGlyphs" textLength="278" x="302" y="394.9951">Use Composition / Strategy Pattern</text><!--cluster Use Inheritance and Overriding--><rect fill="#FFFFFF" filter="url(#fh8h27xglduav)" height="137" style="stroke: #000000; stroke-width: 1.5;" width="355" x="280" y="24"/><text fill="#000000" font-family="sans-serif" font-size="14" font-weight="bold" lengthAdjust="spacingAndGlyphs" textLength="246" x="334.5" y="38.9951">Use Inheritance and Overriding</text><!--class IcedCoffee--><rect fill="#FEFECE" filter="url(#fh8h27xglduav)" height="48" id="IcedCoffee" style="stroke: #A80036; stroke-width: 1.5;" width="98" x="213" y="415"/><ellipse cx="228" cy="431" fill="#ADD1B2" rx="11" ry="11" style="stroke: #A80036; stroke-width: 1.0;"/><path d="M230.3438,426.6719 L230.5156,426.75 C230.7344,426.4375 230.9375,426.3438 231.2344,426.3438 C231.5313,426.3438 231.8125,426.4844 231.9688,426.75 C232.0625,426.9063 232.0781,427.0313 232.0781,427.4688 L232.0781,428.8906 C232.0781,429.3125 232.0469,429.5 231.9375,429.6563 C231.7656,429.875 231.5,430.0156 231.2344,430.0156 C231.0156,430.0156 230.7813,429.9063 230.6406,429.7656 C230.5,429.6406 230.4688,429.5156 230.4063,429.1094 C230.3125,428.7031 230.1406,428.4844 229.6563,428.2031 C229.1875,427.9531 228.5781,427.7969 228,427.7969 C226.2656,427.7969 225.0156,429.1094 225.0156,430.8906 L225.0156,431.9844 C225.0156,433.6875 226.3125,434.7813 228.3594,434.7813 C229.125,434.7813 229.8125,434.6563 230.2344,434.3906 C230.4219,434.2969 230.4219,434.2969 230.875,433.8125 C231.0625,433.625 231.2656,433.5469 231.4844,433.5469 C231.9531,433.5469 232.3438,433.9375 232.3438,434.3906 C232.3438,434.7813 232.0156,435.2344 231.4375,435.6406 C230.6875,436.1875 229.5313,436.4844 228.3125,436.4844 C225.4219,436.4844 223.3125,434.5938 223.3125,432.0156 L223.3125,430.8906 C223.3125,428.1719 225.3125,426.0938 227.9375,426.0938 C228.8125,426.0938 229.4063,426.2344 230.3438,426.6719 Z "/><text fill="#000000" font-family="sans-serif" font-size="12" lengthAdjust="spacingAndGlyphs" textLength="66" x="242" y="435.1543">IcedCoffee</text><line style="stroke: #A80036; stroke-width: 1.5;" x1="214" x2="310" y1="447" y2="447"/><line style="stroke: #A80036; stroke-width: 1.5;" x1="214" x2="310" y1="455" y2="455"/><!--class HotCoffee--><rect fill="#FEFECE" filter="url(#fh8h27xglduav)" height="48" id="HotCoffee" style="stroke: #A80036; stroke-width: 1.5;" width="94" x="346" y="415"/><ellipse cx="361" cy="431" fill="#ADD1B2" rx="11" ry="11" style="stroke: #A80036; stroke-width: 1.0;"/><path d="M363.3438,426.6719 L363.5156,426.75 C363.7344,426.4375 363.9375,426.3438 364.2344,426.3438 C364.5313,426.3438 364.8125,426.4844 364.9688,426.75 C365.0625,426.9063 365.0781,427.0313 365.0781,427.4688 L365.0781,428.8906 C365.0781,429.3125 365.0469,429.5 364.9375,429.6563 C364.7656,429.875 364.5,430.0156 364.2344,430.0156 C364.0156,430.0156 363.7813,429.9063 363.6406,429.7656 C363.5,429.6406 363.4688,429.5156 363.4063,429.1094 C363.3125,428.7031 363.1406,428.4844 362.6563,428.2031 C362.1875,427.9531 361.5781,427.7969 361,427.7969 C359.2656,427.7969 358.0156,429.1094 358.0156,430.8906 L358.0156,431.9844 C358.0156,433.6875 359.3125,434.7813 361.3594,434.7813 C362.125,434.7813 362.8125,434.6563 363.2344,434.3906 C363.4219,434.2969 363.4219,434.2969 363.875,433.8125 C364.0625,433.625 364.2656,433.5469 364.4844,433.5469 C364.9531,433.5469 365.3438,433.9375 365.3438,434.3906 C365.3438,434.7813 365.0156,435.2344 364.4375,435.6406 C363.6875,436.1875 362.5313,436.4844 361.3125,436.4844 C358.4219,436.4844 356.3125,434.5938 356.3125,432.0156 L356.3125,430.8906 C356.3125,428.1719 358.3125,426.0938 360.9375,426.0938 C361.8125,426.0938 362.4063,426.2344 363.3438,426.6719 Z "/><text fill="#000000" font-family="sans-serif" font-size="12" lengthAdjust="spacingAndGlyphs" textLength="62" x="375" y="435.1543">HotCoffee</text><line style="stroke: #A80036; stroke-width: 1.5;" x1="347" x2="439" y1="447" y2="447"/><line style="stroke: #A80036; stroke-width: 1.5;" x1="347" x2="439" y1="455" y2="455"/><!--class IcedTea--><rect fill="#FEFECE" filter="url(#fh8h27xglduav)" height="48" id="IcedTea" style="stroke: #A80036; stroke-width: 1.5;" width="81" x="475.5" y="415"/><ellipse cx="490.5" cy="431" fill="#ADD1B2" rx="11" ry="11" style="stroke: #A80036; stroke-width: 1.0;"/><path d="M492.8438,426.6719 L493.0156,426.75 C493.2344,426.4375 493.4375,426.3438 493.7344,426.3438 C494.0313,426.3438 494.3125,426.4844 494.4688,426.75 C494.5625,426.9063 494.5781,427.0313 494.5781,427.4688 L494.5781,428.8906 C494.5781,429.3125 494.5469,429.5 494.4375,429.6563 C494.2656,429.875 494,430.0156 493.7344,430.0156 C493.5156,430.0156 493.2813,429.9063 493.1406,429.7656 C493,429.6406 492.9688,429.5156 492.9063,429.1094 C492.8125,428.7031 492.6406,428.4844 492.1563,428.2031 C491.6875,427.9531 491.0781,427.7969 490.5,427.7969 C488.7656,427.7969 487.5156,429.1094 487.5156,430.8906 L487.5156,431.9844 C487.5156,433.6875 488.8125,434.7813 490.8594,434.7813 C491.625,434.7813 492.3125,434.6563 492.7344,434.3906 C492.9219,434.2969 492.9219,434.2969 493.375,433.8125 C493.5625,433.625 493.7656,433.5469 493.9844,433.5469 C494.4531,433.5469 494.8438,433.9375 494.8438,434.3906 C494.8438,434.7813 494.5156,435.2344 493.9375,435.6406 C493.1875,436.1875 492.0313,436.4844 490.8125,436.4844 C487.9219,436.4844 485.8125,434.5938 485.8125,432.0156 L485.8125,430.8906 C485.8125,428.1719 487.8125,426.0938 490.4375,426.0938 C491.3125,426.0938 491.9063,426.2344 492.8438,426.6719 Z "/><text fill="#000000" font-family="sans-serif" font-size="12" lengthAdjust="spacingAndGlyphs" textLength="49" x="504.5" y="435.1543">IcedTea</text><line style="stroke: #A80036; stroke-width: 1.5;" x1="476.5" x2="555.5" y1="447" y2="447"/><line style="stroke: #A80036; stroke-width: 1.5;" x1="476.5" x2="555.5" y1="455" y2="455"/><!--class HotTea--><rect fill="#FEFECE" filter="url(#fh8h27xglduav)" height="48" id="HotTea" style="stroke: #A80036; stroke-width: 1.5;" width="77" x="591.5" y="415"/><ellipse cx="606.5" cy="431" fill="#ADD1B2" rx="11" ry="11" style="stroke: #A80036; stroke-width: 1.0;"/><path d="M608.8438,426.6719 L609.0156,426.75 C609.2344,426.4375 609.4375,426.3438 609.7344,426.3438 C610.0313,426.3438 610.3125,426.4844 610.4688,426.75 C610.5625,426.9063 610.5781,427.0313 610.5781,427.4688 L610.5781,428.8906 C610.5781,429.3125 610.5469,429.5 610.4375,429.6563 C610.2656,429.875 610,430.0156 609.7344,430.0156 C609.5156,430.0156 609.2813,429.9063 609.1406,429.7656 C609,429.6406 608.9688,429.5156 608.9063,429.1094 C608.8125,428.7031 608.6406,428.4844 608.1563,428.2031 C607.6875,427.9531 607.0781,427.7969 606.5,427.7969 C604.7656,427.7969 603.5156,429.1094 603.5156,430.8906 L603.5156,431.9844 C603.5156,433.6875 604.8125,434.7813 606.8594,434.7813 C607.625,434.7813 608.3125,434.6563 608.7344,434.3906 C608.9219,434.2969 608.9219,434.2969 609.375,433.8125 C609.5625,433.625 609.7656,433.5469 609.9844,433.5469 C610.4531,433.5469 610.8438,433.9375 610.8438,434.3906 C610.8438,434.7813 610.5156,435.2344 609.9375,435.6406 C609.1875,436.1875 608.0313,436.4844 606.8125,436.4844 C603.9219,436.4844 601.8125,434.5938 601.8125,432.0156 L601.8125,430.8906 C601.8125,428.1719 603.8125,426.0938 606.4375,426.0938 C607.3125,426.0938 607.9063,426.2344 608.8438,426.6719 Z "/><text fill="#000000" font-family="sans-serif" font-size="12" lengthAdjust="spacingAndGlyphs" textLength="45" x="620.5" y="435.1543">HotTea</text><line style="stroke: #A80036; stroke-width: 1.5;" x1="592.5" x2="667.5" y1="447" y2="447"/><line style="stroke: #A80036; stroke-width: 1.5;" x1="592.5" x2="667.5" y1="455" y2="455"/><!--class TemplateHotCoffee--><rect fill="#FEFECE" filter="url(#fh8h27xglduav)" height="86.4141" id="TemplateHotCoffee" style="stroke: #A80036; stroke-width: 1.5;" width="152" x="467" y="59"/><ellipse cx="482" cy="75" fill="#ADD1B2" rx="11" ry="11" style="stroke: #A80036; stroke-width: 1.0;"/><path d="M484.3438,70.6719 L484.5156,70.75 C484.7344,70.4375 484.9375,70.3438 485.2344,70.3438 C485.5313,70.3438 485.8125,70.4844 485.9688,70.75 C486.0625,70.9063 486.0781,71.0313 486.0781,71.4688 L486.0781,72.8906 C486.0781,73.3125 486.0469,73.5 485.9375,73.6563 C485.7656,73.875 485.5,74.0156 485.2344,74.0156 C485.0156,74.0156 484.7813,73.9063 484.6406,73.7656 C484.5,73.6406 484.4688,73.5156 484.4063,73.1094 C484.3125,72.7031 484.1406,72.4844 483.6563,72.2031 C483.1875,71.9531 482.5781,71.7969 482,71.7969 C480.2656,71.7969 479.0156,73.1094 479.0156,74.8906 L479.0156,75.9844 C479.0156,77.6875 480.3125,78.7813 482.3594,78.7813 C483.125,78.7813 483.8125,78.6563 484.2344,78.3906 C484.4219,78.2969 484.4219,78.2969 484.875,77.8125 C485.0625,77.625 485.2656,77.5469 485.4844,77.5469 C485.9531,77.5469 486.3438,77.9375 486.3438,78.3906 C486.3438,78.7813 486.0156,79.2344 485.4375,79.6406 C484.6875,80.1875 483.5313,80.4844 482.3125,80.4844 C479.4219,80.4844 477.3125,78.5938 477.3125,76.0156 L477.3125,74.8906 C477.3125,72.1719 479.3125,70.0938 481.9375,70.0938 C482.8125,70.0938 483.4063,70.2344 484.3438,70.6719 Z "/><text fill="#000000" font-family="sans-serif" font-size="12" lengthAdjust="spacingAndGlyphs" textLength="120" x="496" y="79.1543">TemplateHotCoffee</text><line style="stroke: #A80036; stroke-width: 1.5;" x1="468" x2="618" y1="91" y2="91"/><line style="stroke: #A80036; stroke-width: 1.5;" x1="468" x2="618" y1="99" y2="99"/><polygon fill="#FFFF44" points="478,105.9023,482,109.9023,478,113.9023,474,109.9023" style="stroke: #B38D22; stroke-width: 1.0;"/><text fill="#000000" font-family="sans-serif" font-size="11" lengthAdjust="spacingAndGlyphs" textLength="61" x="487" y="113.2104">addWater()</text><polygon fill="#FFFF44" points="478,118.707,482,122.707,478,126.707,474,122.707" style="stroke: #B38D22; stroke-width: 1.0;"/><text fill="#000000" font-family="sans-serif" font-size="11" lengthAdjust="spacingAndGlyphs" textLength="36" x="487" y="126.0151">brew()</text><polygon fill="#FFFF44" points="478,131.5117,482,135.5117,478,139.5117,474,135.5117" style="stroke: #B38D22; stroke-width: 1.0;"/><text fill="#000000" font-family="sans-serif" font-size="11" lengthAdjust="spacingAndGlyphs" textLength="97" x="487" y="138.8198">addCondiments()</text><!--class TemplateHotTea--><rect fill="#FEFECE" filter="url(#fh8h27xglduav)" height="86.4141" id="TemplateHotTea" style="stroke: #A80036; stroke-width: 1.5;" width="135" x="296.5" y="59"/><ellipse cx="311.5" cy="75" fill="#ADD1B2" rx="11" ry="11" style="stroke: #A80036; stroke-width: 1.0;"/><path d="M313.8438,70.6719 L314.0156,70.75 C314.2344,70.4375 314.4375,70.3438 314.7344,70.3438 C315.0313,70.3438 315.3125,70.4844 315.4688,70.75 C315.5625,70.9063 315.5781,71.0313 315.5781,71.4688 L315.5781,72.8906 C315.5781,73.3125 315.5469,73.5 315.4375,73.6563 C315.2656,73.875 315,74.0156 314.7344,74.0156 C314.5156,74.0156 314.2813,73.9063 314.1406,73.7656 C314,73.6406 313.9688,73.5156 313.9063,73.1094 C313.8125,72.7031 313.6406,72.4844 313.1563,72.2031 C312.6875,71.9531 312.0781,71.7969 311.5,71.7969 C309.7656,71.7969 308.5156,73.1094 308.5156,74.8906 L308.5156,75.9844 C308.5156,77.6875 309.8125,78.7813 311.8594,78.7813 C312.625,78.7813 313.3125,78.6563 313.7344,78.3906 C313.9219,78.2969 313.9219,78.2969 314.375,77.8125 C314.5625,77.625 314.7656,77.5469 314.9844,77.5469 C315.4531,77.5469 315.8438,77.9375 315.8438,78.3906 C315.8438,78.7813 315.5156,79.2344 314.9375,79.6406 C314.1875,80.1875 313.0313,80.4844 311.8125,80.4844 C308.9219,80.4844 306.8125,78.5938 306.8125,76.0156 L306.8125,74.8906 C306.8125,72.1719 308.8125,70.0938 311.4375,70.0938 C312.3125,70.0938 312.9063,70.2344 313.8438,70.6719 Z "/><text fill="#000000" font-family="sans-serif" font-size="12" lengthAdjust="spacingAndGlyphs" textLength="103" x="325.5" y="79.1543">TemplateHotTea</text><line style="stroke: #A80036; stroke-width: 1.5;" x1="297.5" x2="430.5" y1="91" y2="91"/><line style="stroke: #A80036; stroke-width: 1.5;" x1="297.5" x2="430.5" y1="99" y2="99"/><polygon fill="#FFFF44" points="307.5,105.9023,311.5,109.9023,307.5,113.9023,303.5,109.9023" style="stroke: #B38D22; stroke-width: 1.0;"/><text fill="#000000" font-family="sans-serif" font-size="11" lengthAdjust="spacingAndGlyphs" textLength="61" x="316.5" y="113.2104">addWater()</text><polygon fill="#FFFF44" points="307.5,118.707,311.5,122.707,307.5,126.707,303.5,122.707" style="stroke: #B38D22; stroke-width: 1.0;"/><text fill="#000000" font-family="sans-serif" font-size="11" lengthAdjust="spacingAndGlyphs" textLength="36" x="316.5" y="126.0151">brew()</text><polygon fill="#FFFF44" points="307.5,131.5117,311.5,135.5117,307.5,139.5117,303.5,135.5117" style="stroke: #B38D22; stroke-width: 1.0;"/><text fill="#000000" font-family="sans-serif" font-size="11" lengthAdjust="spacingAndGlyphs" textLength="97" x="316.5" y="138.8198">addCondiments()</text><!--class HotWater--><rect fill="#FEFECE" filter="url(#fh8h27xglduav)" height="60.8047" id="HotWater" style="stroke: #A80036; stroke-width: 1.5;" width="91" x="160.5" y="584"/><ellipse cx="175.5" cy="600" fill="#ADD1B2" rx="11" ry="11" style="stroke: #A80036; stroke-width: 1.0;"/><path d="M177.8438,595.6719 L178.0156,595.75 C178.2344,595.4375 178.4375,595.3438 178.7344,595.3438 C179.0313,595.3438 179.3125,595.4844 179.4688,595.75 C179.5625,595.9063 179.5781,596.0313 179.5781,596.4688 L179.5781,597.8906 C179.5781,598.3125 179.5469,598.5 179.4375,598.6563 C179.2656,598.875 179,599.0156 178.7344,599.0156 C178.5156,599.0156 178.2813,598.9063 178.1406,598.7656 C178,598.6406 177.9688,598.5156 177.9063,598.1094 C177.8125,597.7031 177.6406,597.4844 177.1563,597.2031 C176.6875,596.9531 176.0781,596.7969 175.5,596.7969 C173.7656,596.7969 172.5156,598.1094 172.5156,599.8906 L172.5156,600.9844 C172.5156,602.6875 173.8125,603.7813 175.8594,603.7813 C176.625,603.7813 177.3125,603.6563 177.7344,603.3906 C177.9219,603.2969 177.9219,603.2969 178.375,602.8125 C178.5625,602.625 178.7656,602.5469 178.9844,602.5469 C179.4531,602.5469 179.8438,602.9375 179.8438,603.3906 C179.8438,603.7813 179.5156,604.2344 178.9375,604.6406 C178.1875,605.1875 177.0313,605.4844 175.8125,605.4844 C172.9219,605.4844 170.8125,603.5938 170.8125,601.0156 L170.8125,599.8906 C170.8125,597.1719 172.8125,595.0938 175.4375,595.0938 C176.3125,595.0938 176.9063,595.2344 177.8438,595.6719 Z "/><text fill="#000000" font-family="sans-serif" font-size="12" lengthAdjust="spacingAndGlyphs" textLength="59" x="189.5" y="604.1543">HotWater</text><line style="stroke: #A80036; stroke-width: 1.5;" x1="161.5" x2="250.5" y1="616" y2="616"/><line style="stroke: #A80036; stroke-width: 1.5;" x1="161.5" x2="250.5" y1="624" y2="624"/><text fill="#000000" font-family="sans-serif" font-size="11" lengthAdjust="spacingAndGlyphs" textLength="61" x="166.5" y="638.2104">addWater()</text><!--class IceWater--><rect fill="#FEFECE" filter="url(#fh8h27xglduav)" height="60.8047" id="IceWater" style="stroke: #A80036; stroke-width: 1.5;" width="87" x="38.5" y="584"/><ellipse cx="53.5" cy="600" fill="#ADD1B2" rx="11" ry="11" style="stroke: #A80036; stroke-width: 1.0;"/><path d="M55.8438,595.6719 L56.0156,595.75 C56.2344,595.4375 56.4375,595.3438 56.7344,595.3438 C57.0313,595.3438 57.3125,595.4844 57.4688,595.75 C57.5625,595.9063 57.5781,596.0313 57.5781,596.4688 L57.5781,597.8906 C57.5781,598.3125 57.5469,598.5 57.4375,598.6563 C57.2656,598.875 57,599.0156 56.7344,599.0156 C56.5156,599.0156 56.2813,598.9063 56.1406,598.7656 C56,598.6406 55.9688,598.5156 55.9063,598.1094 C55.8125,597.7031 55.6406,597.4844 55.1563,597.2031 C54.6875,596.9531 54.0781,596.7969 53.5,596.7969 C51.7656,596.7969 50.5156,598.1094 50.5156,599.8906 L50.5156,600.9844 C50.5156,602.6875 51.8125,603.7813 53.8594,603.7813 C54.625,603.7813 55.3125,603.6563 55.7344,603.3906 C55.9219,603.2969 55.9219,603.2969 56.375,602.8125 C56.5625,602.625 56.7656,602.5469 56.9844,602.5469 C57.4531,602.5469 57.8438,602.9375 57.8438,603.3906 C57.8438,603.7813 57.5156,604.2344 56.9375,604.6406 C56.1875,605.1875 55.0313,605.4844 53.8125,605.4844 C50.9219,605.4844 48.8125,603.5938 48.8125,601.0156 L48.8125,599.8906 C48.8125,597.1719 50.8125,595.0938 53.4375,595.0938 C54.3125,595.0938 54.9063,595.2344 55.8438,595.6719 Z "/><text fill="#000000" font-family="sans-serif" font-size="12" lengthAdjust="spacingAndGlyphs" textLength="55" x="67.5" y="604.1543">IceWater</text><line style="stroke: #A80036; stroke-width: 1.5;" x1="39.5" x2="124.5" y1="616" y2="616"/><line style="stroke: #A80036; stroke-width: 1.5;" x1="39.5" x2="124.5" y1="624" y2="624"/><text fill="#000000" font-family="sans-serif" font-size="11" lengthAdjust="spacingAndGlyphs" textLength="61" x="44.5" y="638.2104">addWater()</text><!--class CoffeeBrew--><rect fill="#FEFECE" filter="url(#fh8h27xglduav)" height="60.8047" id="CoffeeBrew" style="stroke: #A80036; stroke-width: 1.5;" width="102" x="309" y="584"/><ellipse cx="324" cy="600" fill="#ADD1B2" rx="11" ry="11" style="stroke: #A80036; stroke-width: 1.0;"/><path d="M326.3438,595.6719 L326.5156,595.75 C326.7344,595.4375 326.9375,595.3438 327.2344,595.3438 C327.5313,595.3438 327.8125,595.4844 327.9688,595.75 C328.0625,595.9063 328.0781,596.0313 328.0781,596.4688 L328.0781,597.8906 C328.0781,598.3125 328.0469,598.5 327.9375,598.6563 C327.7656,598.875 327.5,599.0156 327.2344,599.0156 C327.0156,599.0156 326.7813,598.9063 326.6406,598.7656 C326.5,598.6406 326.4688,598.5156 326.4063,598.1094 C326.3125,597.7031 326.1406,597.4844 325.6563,597.2031 C325.1875,596.9531 324.5781,596.7969 324,596.7969 C322.2656,596.7969 321.0156,598.1094 321.0156,599.8906 L321.0156,600.9844 C321.0156,602.6875 322.3125,603.7813 324.3594,603.7813 C325.125,603.7813 325.8125,603.6563 326.2344,603.3906 C326.4219,603.2969 326.4219,603.2969 326.875,602.8125 C327.0625,602.625 327.2656,602.5469 327.4844,602.5469 C327.9531,602.5469 328.3438,602.9375 328.3438,603.3906 C328.3438,603.7813 328.0156,604.2344 327.4375,604.6406 C326.6875,605.1875 325.5313,605.4844 324.3125,605.4844 C321.4219,605.4844 319.3125,603.5938 319.3125,601.0156 L319.3125,599.8906 C319.3125,597.1719 321.3125,595.0938 323.9375,595.0938 C324.8125,595.0938 325.4063,595.2344 326.3438,595.6719 Z "/><text fill="#000000" font-family="sans-serif" font-size="12" lengthAdjust="spacingAndGlyphs" textLength="70" x="338" y="604.1543">CoffeeBrew</text><line style="stroke: #A80036; stroke-width: 1.5;" x1="310" x2="410" y1="616" y2="616"/><line style="stroke: #A80036; stroke-width: 1.5;" x1="310" x2="410" y1="624" y2="624"/><text fill="#000000" font-family="sans-serif" font-size="11" lengthAdjust="spacingAndGlyphs" textLength="36" x="315" y="638.2104">brew()</text><!--class TeaBrew--><rect fill="#FEFECE" filter="url(#fh8h27xglduav)" height="60.8047" id="TeaBrew" style="stroke: #A80036; stroke-width: 1.5;" width="85" x="446.5" y="584"/><ellipse cx="461.5" cy="600" fill="#ADD1B2" rx="11" ry="11" style="stroke: #A80036; stroke-width: 1.0;"/><path d="M463.8438,595.6719 L464.0156,595.75 C464.2344,595.4375 464.4375,595.3438 464.7344,595.3438 C465.0313,595.3438 465.3125,595.4844 465.4688,595.75 C465.5625,595.9063 465.5781,596.0313 465.5781,596.4688 L465.5781,597.8906 C465.5781,598.3125 465.5469,598.5 465.4375,598.6563 C465.2656,598.875 465,599.0156 464.7344,599.0156 C464.5156,599.0156 464.2813,598.9063 464.1406,598.7656 C464,598.6406 463.9688,598.5156 463.9063,598.1094 C463.8125,597.7031 463.6406,597.4844 463.1563,597.2031 C462.6875,596.9531 462.0781,596.7969 461.5,596.7969 C459.7656,596.7969 458.5156,598.1094 458.5156,599.8906 L458.5156,600.9844 C458.5156,602.6875 459.8125,603.7813 461.8594,603.7813 C462.625,603.7813 463.3125,603.6563 463.7344,603.3906 C463.9219,603.2969 463.9219,603.2969 464.375,602.8125 C464.5625,602.625 464.7656,602.5469 464.9844,602.5469 C465.4531,602.5469 465.8438,602.9375 465.8438,603.3906 C465.8438,603.7813 465.5156,604.2344 464.9375,604.6406 C464.1875,605.1875 463.0313,605.4844 461.8125,605.4844 C458.9219,605.4844 456.8125,603.5938 456.8125,601.0156 L456.8125,599.8906 C456.8125,597.1719 458.8125,595.0938 461.4375,595.0938 C462.3125,595.0938 462.9063,595.2344 463.8438,595.6719 Z "/><text fill="#000000" font-family="sans-serif" font-size="12" lengthAdjust="spacingAndGlyphs" textLength="53" x="475.5" y="604.1543">TeaBrew</text><line style="stroke: #A80036; stroke-width: 1.5;" x1="447.5" x2="530.5" y1="616" y2="616"/><line style="stroke: #A80036; stroke-width: 1.5;" x1="447.5" x2="530.5" y1="624" y2="624"/><text fill="#000000" font-family="sans-serif" font-size="11" lengthAdjust="spacingAndGlyphs" textLength="36" x="452.5" y="638.2104">brew()</text><!--class MilkSugar--><rect fill="#FEFECE" filter="url(#fh8h27xglduav)" height="60.8047" id="MilkSugar" style="stroke: #A80036; stroke-width: 1.5;" width="109" x="588.5" y="584"/><ellipse cx="611.15" cy="600" fill="#ADD1B2" rx="11" ry="11" style="stroke: #A80036; stroke-width: 1.0;"/><path d="M613.4938,595.6719 L613.6656,595.75 C613.8844,595.4375 614.0875,595.3438 614.3844,595.3438 C614.6813,595.3438 614.9625,595.4844 615.1188,595.75 C615.2125,595.9063 615.2281,596.0313 615.2281,596.4688 L615.2281,597.8906 C615.2281,598.3125 615.1969,598.5 615.0875,598.6563 C614.9156,598.875 614.65,599.0156 614.3844,599.0156 C614.1656,599.0156 613.9313,598.9063 613.7906,598.7656 C613.65,598.6406 613.6188,598.5156 613.5563,598.1094 C613.4625,597.7031 613.2906,597.4844 612.8063,597.2031 C612.3375,596.9531 611.7281,596.7969 611.15,596.7969 C609.4156,596.7969 608.1656,598.1094 608.1656,599.8906 L608.1656,600.9844 C608.1656,602.6875 609.4625,603.7813 611.5094,603.7813 C612.275,603.7813 612.9625,603.6563 613.3844,603.3906 C613.5719,603.2969 613.5719,603.2969 614.025,602.8125 C614.2125,602.625 614.4156,602.5469 614.6344,602.5469 C615.1031,602.5469 615.4938,602.9375 615.4938,603.3906 C615.4938,603.7813 615.1656,604.2344 614.5875,604.6406 C613.8375,605.1875 612.6813,605.4844 611.4625,605.4844 C608.5719,605.4844 606.4625,603.5938 606.4625,601.0156 L606.4625,599.8906 C606.4625,597.1719 608.4625,595.0938 611.0875,595.0938 C611.9625,595.0938 612.5563,595.2344 613.4938,595.6719 Z "/><text fill="#000000" font-family="sans-serif" font-size="12" lengthAdjust="spacingAndGlyphs" textLength="60" x="626.85" y="604.1543">MilkSugar</text><line style="stroke: #A80036; stroke-width: 1.5;" x1="589.5" x2="696.5" y1="616" y2="616"/><line style="stroke: #A80036; stroke-width: 1.5;" x1="589.5" x2="696.5" y1="624" y2="624"/><text fill="#000000" font-family="sans-serif" font-size="11" lengthAdjust="spacingAndGlyphs" textLength="97" x="594.5" y="638.2104">addCondiments()</text><!--class Lemon--><rect fill="#FEFECE" filter="url(#fh8h27xglduav)" height="60.8047" id="Lemon" style="stroke: #A80036; stroke-width: 1.5;" width="109" x="732.5" y="584"/><ellipse cx="763.7" cy="600" fill="#ADD1B2" rx="11" ry="11" style="stroke: #A80036; stroke-width: 1.0;"/><path d="M766.0438,595.6719 L766.2156,595.75 C766.4344,595.4375 766.6375,595.3438 766.9344,595.3438 C767.2313,595.3438 767.5125,595.4844 767.6688,595.75 C767.7625,595.9063 767.7781,596.0313 767.7781,596.4688 L767.7781,597.8906 C767.7781,598.3125 767.7469,598.5 767.6375,598.6563 C767.4656,598.875 767.2,599.0156 766.9344,599.0156 C766.7156,599.0156 766.4813,598.9063 766.3406,598.7656 C766.2,598.6406 766.1688,598.5156 766.1063,598.1094 C766.0125,597.7031 765.8406,597.4844 765.3563,597.2031 C764.8875,596.9531 764.2781,596.7969 763.7,596.7969 C761.9656,596.7969 760.7156,598.1094 760.7156,599.8906 L760.7156,600.9844 C760.7156,602.6875 762.0125,603.7813 764.0594,603.7813 C764.825,603.7813 765.5125,603.6563 765.9344,603.3906 C766.1219,603.2969 766.1219,603.2969 766.575,602.8125 C766.7625,602.625 766.9656,602.5469 767.1844,602.5469 C767.6531,602.5469 768.0438,602.9375 768.0438,603.3906 C768.0438,603.7813 767.7156,604.2344 767.1375,604.6406 C766.3875,605.1875 765.2313,605.4844 764.0125,605.4844 C761.1219,605.4844 759.0125,603.5938 759.0125,601.0156 L759.0125,599.8906 C759.0125,597.1719 761.0125,595.0938 763.6375,595.0938 C764.5125,595.0938 765.1063,595.2344 766.0438,595.6719 Z "/><text fill="#000000" font-family="sans-serif" font-size="12" lengthAdjust="spacingAndGlyphs" textLength="41" x="781.3" y="604.1543">Lemon</text><line style="stroke: #A80036; stroke-width: 1.5;" x1="733.5" x2="840.5" y1="616" y2="616"/><line style="stroke: #A80036; stroke-width: 1.5;" x1="733.5" x2="840.5" y1="624" y2="624"/><text fill="#000000" font-family="sans-serif" font-size="11" lengthAdjust="spacingAndGlyphs" textLength="97" x="738.5" y="638.2104">addCondiments()</text><!--class Beverage--><rect fill="#FEFECE" filter="url(#fh8h27xglduav)" height="150.4375" id="Beverage" style="stroke: #A80036; stroke-width: 1.5;" width="135" x="386.5" y="205"/><ellipse cx="421.3" cy="221" fill="#A9DCDF" rx="11" ry="11" style="stroke: #A80036; stroke-width: 1.0;"/><path d="M422.8781,222.8125 L418.8313,222.8125 L418.4406,223.7969 L418.8313,223.7969 C419.2844,223.7969 419.425,223.8281 419.5969,223.9531 C419.8156,224.125 419.9406,224.375 419.9406,224.6563 C419.9406,224.9375 419.8,225.2344 419.5344,225.375 C419.4094,225.4688 419.1906,225.5 418.8313,225.5 L416.5656,225.5 C415.8156,225.5 415.4406,225.2188 415.4406,224.6563 C415.4406,224.3594 415.5969,224.0781 415.8469,223.9219 C416.0031,223.8125 416.1594,223.7969 416.5813,223.7969 L419.2219,217.2813 L418.1438,217.2813 C417.7063,217.2813 417.5344,217.25 417.3625,217.1406 C417.1438,216.9688 417.0031,216.7188 417.0031,216.4375 C417.0031,216.1563 417.1594,215.875 417.4094,215.7031 C417.5656,215.6094 417.6906,215.5938 418.1438,215.5938 L421.8156,215.5938 L425.2063,223.7969 C425.675,223.7969 425.8313,223.8281 426.0031,223.9688 C426.2219,224.125 426.3625,224.375 426.3625,224.6563 C426.3625,224.9375 426.2063,225.2344 425.9563,225.375 C425.8156,225.4688 425.5969,225.5 425.2375,225.5 L422.8781,225.5 C422.4563,225.5 422.2531,225.4531 422.1125,225.3281 C421.8938,225.1719 421.7531,224.9219 421.7531,224.6563 C421.7531,224.3594 421.9094,224.0781 422.1594,223.9219 C422.3156,223.8125 422.425,223.7969 422.8781,223.7969 L423.2688,223.7969 Z M422.175,221.1094 L420.8469,217.8438 L419.5031,221.1094 Z "/><text fill="#000000" font-family="sans-serif" font-size="12" font-style="italic" lengthAdjust="spacingAndGlyphs" textLength="59" x="439.7" y="225.1543">Beverage</text><line style="stroke: #A80036; stroke-width: 1.5;" x1="387.5" x2="520.5" y1="237" y2="237"/><polygon fill="none" points="397.5,243.9023,401.5,247.9023,397.5,251.9023,393.5,247.9023" style="stroke: #B38D22; stroke-width: 1.0;"/><text fill="#000000" font-family="sans-serif" font-size="11" lengthAdjust="spacingAndGlyphs" textLength="82" x="406.5" y="251.2104">waterBehavior</text><polygon fill="none" points="397.5,256.707,401.5,260.707,397.5,264.707,393.5,260.707" style="stroke: #B38D22; stroke-width: 1.0;"/><text fill="#000000" font-family="sans-serif" font-size="11" lengthAdjust="spacingAndGlyphs" textLength="78" x="406.5" y="264.0151">brewBehavior</text><polygon fill="none" points="397.5,269.5117,401.5,273.5117,397.5,277.5117,393.5,273.5117" style="stroke: #B38D22; stroke-width: 1.0;"/><text fill="#000000" font-family="sans-serif" font-size="11" lengthAdjust="spacingAndGlyphs" textLength="109" x="406.5" y="276.8198">condimentBehavior</text><line style="stroke: #A80036; stroke-width: 1.5;" x1="387.5" x2="520.5" y1="283.4141" y2="283.4141"/><ellipse cx="397.5" cy="295.3164" fill="#84BE84" rx="3" ry="3" style="stroke: #038048; stroke-width: 1.0;"/><text fill="#000000" font-family="sans-serif" font-size="11" lengthAdjust="spacingAndGlyphs" textLength="90" x="406.5" y="297.6245">prepareRecipe()</text><polygon fill="#FFFF44" points="397.5,303.1211,401.5,307.1211,397.5,311.1211,393.5,307.1211" style="stroke: #B38D22; stroke-width: 1.0;"/><text fill="#000000" font-family="sans-serif" font-size="11" lengthAdjust="spacingAndGlyphs" textLength="61" x="406.5" y="310.4292">addWater()</text><polygon fill="#FFFF44" points="397.5,315.9258,401.5,319.9258,397.5,323.9258,393.5,319.9258" style="stroke: #B38D22; stroke-width: 1.0;"/><text fill="#000000" font-family="sans-serif" font-size="11" lengthAdjust="spacingAndGlyphs" textLength="36" x="406.5" y="323.2339">brew()</text><polygon fill="#FFFF44" points="397.5,328.7305,401.5,332.7305,397.5,336.7305,393.5,332.7305" style="stroke: #B38D22; stroke-width: 1.0;"/><text fill="#000000" font-family="sans-serif" font-size="11" lengthAdjust="spacingAndGlyphs" textLength="34" x="406.5" y="336.0386">pour()</text><polygon fill="#FFFF44" points="397.5,341.5352,401.5,345.5352,397.5,349.5352,393.5,345.5352" style="stroke: #B38D22; stroke-width: 1.0;"/><text fill="#000000" font-family="sans-serif" font-size="11" lengthAdjust="spacingAndGlyphs" textLength="97" x="406.5" y="348.8433">addCondiments()</text><path d="M556.5,262.5 L556.5,271.0664 L496.5,293.8164 L556.5,279.0664 L556.5,287.6328 A0,0 0 0 0 556.5,287.6328 L757.5,287.6328 A0,0 0 0 0 757.5,287.6328 L757.5,272.5 L747.5,262.5 L556.5,262.5 A0,0 0 0 0 556.5,262.5 " fill="#FBFB77" filter="url(#fh8h27xglduav)" style="stroke: #A80036; stroke-width: 1.0;"/><path d="M747.5,262.5 L747.5,272.5 L757.5,272.5 L747.5,262.5 " fill="#FBFB77" style="stroke: #A80036; stroke-width: 1.0;"/><text fill="#000000" font-family="sans-serif" font-size="13" lengthAdjust="spacingAndGlyphs" textLength="180" x="562.5" y="279.5669">This is the Template Method</text><!--class WaterBehavior--><rect fill="#FEFECE" filter="url(#fh8h27xglduav)" height="60.8047" id="WaterBehavior" style="stroke: #A80036; stroke-width: 1.5;" width="124" x="112" y="705"/><ellipse cx="127" cy="721" fill="#B4A7E5" rx="11" ry="11" style="stroke: #A80036; stroke-width: 1.0;"/><path d="M127.9531,717.7813 L127.9531,724.2969 L129.6719,724.2969 C130.125,724.2969 130.2656,724.3281 130.4375,724.4531 C130.6719,724.625 130.7813,724.875 130.7813,725.1563 C130.7813,725.7188 130.4219,726 129.6719,726 L124.5313,726 C124.125,726 123.9219,725.9531 123.7656,725.8281 C123.5469,725.6719 123.4063,725.4063 123.4063,725.1563 C123.4063,724.8594 123.5625,724.5781 123.8125,724.4219 C123.9688,724.3125 124.0938,724.2969 124.5313,724.2969 L126.25,724.2969 L126.25,717.7813 L124.5313,717.7813 C124.1094,717.7813 123.9219,717.75 123.7656,717.6406 C123.5469,717.4688 123.4063,717.2188 123.4063,716.9375 C123.4063,716.6563 123.5625,716.3594 123.8125,716.2031 C123.9688,716.1094 124.0938,716.0938 124.5313,716.0938 L129.6719,716.0938 C130.125,716.0938 130.2656,716.125 130.4375,716.2344 C130.6719,716.4063 130.7813,716.6719 130.7813,716.9375 C130.7813,717.2344 130.6406,717.5156 130.375,717.6719 C130.25,717.75 130.0625,717.7813 129.6719,717.7813 Z "/><text fill="#000000" font-family="sans-serif" font-size="12" font-style="italic" lengthAdjust="spacingAndGlyphs" textLength="92" x="141" y="725.1543">WaterBehavior</text><line style="stroke: #A80036; stroke-width: 1.5;" x1="113" x2="235" y1="737" y2="737"/><line style="stroke: #A80036; stroke-width: 1.5;" x1="113" x2="235" y1="745" y2="745"/><text fill="#000000" font-family="sans-serif" font-size="11" lengthAdjust="spacingAndGlyphs" textLength="61" x="118" y="759.2104">addWater()</text><!--class BrewBehavior--><rect fill="#FEFECE" filter="url(#fh8h27xglduav)" height="60.8047" id="BrewBehavior" style="stroke: #A80036; stroke-width: 1.5;" width="117" x="332.5" y="705"/><ellipse cx="347.5" cy="721" fill="#B4A7E5" rx="11" ry="11" style="stroke: #A80036; stroke-width: 1.0;"/><path d="M348.4531,717.7813 L348.4531,724.2969 L350.1719,724.2969 C350.625,724.2969 350.7656,724.3281 350.9375,724.4531 C351.1719,724.625 351.2813,724.875 351.2813,725.1563 C351.2813,725.7188 350.9219,726 350.1719,726 L345.0313,726 C344.625,726 344.4219,725.9531 344.2656,725.8281 C344.0469,725.6719 343.9063,725.4063 343.9063,725.1563 C343.9063,724.8594 344.0625,724.5781 344.3125,724.4219 C344.4688,724.3125 344.5938,724.2969 345.0313,724.2969 L346.75,724.2969 L346.75,717.7813 L345.0313,717.7813 C344.6094,717.7813 344.4219,717.75 344.2656,717.6406 C344.0469,717.4688 343.9063,717.2188 343.9063,716.9375 C343.9063,716.6563 344.0625,716.3594 344.3125,716.2031 C344.4688,716.1094 344.5938,716.0938 345.0313,716.0938 L350.1719,716.0938 C350.625,716.0938 350.7656,716.125 350.9375,716.2344 C351.1719,716.4063 351.2813,716.6719 351.2813,716.9375 C351.2813,717.2344 351.1406,717.5156 350.875,717.6719 C350.75,717.75 350.5625,717.7813 350.1719,717.7813 Z "/><text fill="#000000" font-family="sans-serif" font-size="12" font-style="italic" lengthAdjust="spacingAndGlyphs" textLength="85" x="361.5" y="725.1543">BrewBehavior</text><line style="stroke: #A80036; stroke-width: 1.5;" x1="333.5" x2="448.5" y1="737" y2="737"/><line style="stroke: #A80036; stroke-width: 1.5;" x1="333.5" x2="448.5" y1="745" y2="745"/><text fill="#000000" font-family="sans-serif" font-size="11" lengthAdjust="spacingAndGlyphs" textLength="36" x="338.5" y="759.2104">brew()</text><!--class CondimentBehavior--><rect fill="#FEFECE" filter="url(#fh8h27xglduav)" height="60.8047" id="CondimentBehavior" style="stroke: #A80036; stroke-width: 1.5;" width="153" x="638.5" y="705"/><ellipse cx="653.5" cy="721" fill="#B4A7E5" rx="11" ry="11" style="stroke: #A80036; stroke-width: 1.0;"/><path d="M654.4531,717.7813 L654.4531,724.2969 L656.1719,724.2969 C656.625,724.2969 656.7656,724.3281 656.9375,724.4531 C657.1719,724.625 657.2813,724.875 657.2813,725.1563 C657.2813,725.7188 656.9219,726 656.1719,726 L651.0313,726 C650.625,726 650.4219,725.9531 650.2656,725.8281 C650.0469,725.6719 649.9063,725.4063 649.9063,725.1563 C649.9063,724.8594 650.0625,724.5781 650.3125,724.4219 C650.4688,724.3125 650.5938,724.2969 651.0313,724.2969 L652.75,724.2969 L652.75,717.7813 L651.0313,717.7813 C650.6094,717.7813 650.4219,717.75 650.2656,717.6406 C650.0469,717.4688 649.9063,717.2188 649.9063,716.9375 C649.9063,716.6563 650.0625,716.3594 650.3125,716.2031 C650.4688,716.1094 650.5938,716.0938 651.0313,716.0938 L656.1719,716.0938 C656.625,716.0938 656.7656,716.125 656.9375,716.2344 C657.1719,716.4063 657.2813,716.6719 657.2813,716.9375 C657.2813,717.2344 657.1406,717.5156 656.875,717.6719 C656.75,717.75 656.5625,717.7813 656.1719,717.7813 Z "/><text fill="#000000" font-family="sans-serif" font-size="12" font-style="italic" lengthAdjust="spacingAndGlyphs" textLength="121" x="667.5" y="725.1543">CondimentBehavior</text><line style="stroke: #A80036; stroke-width: 1.5;" x1="639.5" x2="790.5" y1="737" y2="737"/><line style="stroke: #A80036; stroke-width: 1.5;" x1="639.5" x2="790.5" y1="745" y2="745"/><text fill="#000000" font-family="sans-serif" font-size="11" lengthAdjust="spacingAndGlyphs" textLength="97" x="644.5" y="759.2104">addCondiments()</text><!--link Beverage to Beverage$$$RIGHT--><!--link Beverage to IcedCoffee--><path d="M369.853,338.902 C355.582,349.528 341.141,360.808 328,372 C312.332,385.343 295.967,401.691 283.451,414.778 " fill="none" id="Beverage-IcedCoffee" style="stroke: #A80036; stroke-width: 1.0;"/><polygon fill="none" points="366.164,332.928,386.44,326.773,374.428,344.229,366.164,332.928" style="stroke: #A80036; stroke-width: 1.0;"/><!--link Beverage to IcedTea--><path d="M490.728,374.004 C496.695,389.114 502.368,403.481 506.822,414.76 " fill="none" id="Beverage-IcedTea" style="stroke: #A80036; stroke-width: 1.0;"/><polygon fill="none" points="484.201,376.535,483.366,355.362,497.223,371.393,484.201,376.535" style="stroke: #A80036; stroke-width: 1.0;"/><!--link Beverage to HotCoffee--><path d="M417.671,374.502 C411.871,389.429 406.364,403.605 402.029,414.76 " fill="none" id="Beverage-HotCoffee" style="stroke: #A80036; stroke-width: 1.0;"/><polygon fill="none" points="411.34,371.469,425.108,355.362,424.389,376.54,411.34,371.469" style="stroke: #A80036; stroke-width: 1.0;"/><!--link Beverage to HotTea--><path d="M538.197,354.467 C538.464,354.645 538.732,354.823 539,355 C553.425,364.538 560.335,361.402 574,372 C589.555,384.064 603.855,401.064 614.11,414.789 " fill="none" id="Beverage-HotTea" style="stroke: #A80036; stroke-width: 1.0;"/><polygon fill="none" points="534.075,360.125,521.897,342.784,542.231,348.746,534.075,360.125" style="stroke: #A80036; stroke-width: 1.0;"/><!--link HotWater to WaterBehavior--><path d="M198.008,645.222 C194.762,657.291 190.925,671.5617 187.281,685.112 " fill="none" id="HotWater-WaterBehavior" style="stroke: #A80036; stroke-width: 1.0; stroke-dasharray: 7.0,7.0;"/><polygon fill="none" points="193.955,687.2486,182.001,704.7447,180.435,683.613,193.955,687.2486" style="stroke: #A80036; stroke-width: 1.0;"/><!--link IceWater to WaterBehavior--><path d="M104.9782,645.222 C115.187,658.426 127.434,674.2676 138.759,688.9164 " fill="none" id="IceWater-WaterBehavior" style="stroke: #A80036; stroke-width: 1.0; stroke-dasharray: 7.0,7.0;"/><polygon fill="none" points="144.301,684.6404,150.996,704.7447,133.225,693.2034,144.301,684.6404" style="stroke: #A80036; stroke-width: 1.0;"/><!--link CoffeeBrew to BrewBehavior--><path d="M367.743,645.222 C370.887,657.291 374.604,671.5617 378.134,685.112 " fill="none" id="CoffeeBrew-BrewBehavior" style="stroke: #A80036; stroke-width: 1.0; stroke-dasharray: 7.0,7.0;"/><polygon fill="none" points="384.981,683.626,383.249,704.7447,371.433,687.1553,384.981,683.626" style="stroke: #A80036; stroke-width: 1.0;"/><!--link TeaBrew to BrewBehavior--><path d="M464.523,645.222 C453.649,658.426 440.603,674.2676 428.539,688.9164 " fill="none" id="TeaBrew-BrewBehavior" style="stroke: #A80036; stroke-width: 1.0; stroke-dasharray: 7.0,7.0;"/><polygon fill="none" points="433.622,693.7561,415.504,704.7447,422.815,684.8561,433.622,693.7561" style="stroke: #A80036; stroke-width: 1.0;"/><!--link MilkSugar to CondimentBehavior--><path d="M660.983,645.222 C668.715,658.001 677.94,673.2483 686.56,687.4952 " fill="none" id="MilkSugar-CondimentBehavior" style="stroke: #A80036; stroke-width: 1.0; stroke-dasharray: 7.0,7.0;"/><polygon fill="none" points="692.633,684.0094,696.997,704.7447,680.654,691.2567,692.633,684.0094" style="stroke: #A80036; stroke-width: 1.0;"/><!--link Lemon to CondimentBehavior--><path d="M769.017,645.222 C761.285,658.001 752.06,673.2483 743.44,687.4952 " fill="none" id="Lemon-CondimentBehavior" style="stroke: #A80036; stroke-width: 1.0; stroke-dasharray: 7.0,7.0;"/><polygon fill="none" points="749.346,691.2567,733.003,704.7447,737.367,684.0094,749.346,691.2567" style="stroke: #A80036; stroke-width: 1.0;"/><!--link HotTea to HotWater--><path d="M597.148,471.635 C589.932,477.38 582.034,482.856 574,487 C459.322,546.151 411.71,509.425 293,560 C277.829,566.463 262.199,575.291 248.446,583.913 " fill="none" id="HotTea-HotWater" style="stroke: #A80036; stroke-width: 1.0;"/><polygon fill="#A80036" points="607.168,463.147,600.0043,463.9729,598.0115,470.9032,605.1751,470.0773,607.168,463.147" style="stroke: #A80036; stroke-width: 1.0;"/><!--link HotTea to TeaBrew--><path d="M602.986,473.241 C576.959,505.267 537.956,553.26 512.995,583.974 " fill="none" id="HotTea-TeaBrew" style="stroke: #A80036; stroke-width: 1.0;"/><polygon fill="#A80036" points="611.276,463.039,604.3876,465.1721,603.7072,472.351,610.5956,470.2179,611.276,463.039" style="stroke: #A80036; stroke-width: 1.0;"/><!--link HotTea to Lemon--><path d="M659.702,472.824 C688.682,504.849 732.368,553.126 760.282,583.974 " fill="none" id="HotTea-Lemon" style="stroke: #A80036; stroke-width: 1.0;"/><polygon fill="#A80036" points="650.848,463.039,651.9077,470.1718,658.8994,471.937,657.8397,464.8042,650.848,463.039" style="stroke: #A80036; stroke-width: 1.0;"/><!--link HotCoffee to HotWater--><path d="M358.515,471.996 C324.007,504.012 271.359,552.859 237.823,583.974 " fill="none" id="HotCoffee-HotWater" style="stroke: #A80036; stroke-width: 1.0;"/><polygon fill="#A80036" points="368.168,463.039,361.049,464.188,359.3715,471.2012,366.4905,470.0523,368.168,463.039" style="stroke: #A80036; stroke-width: 1.0;"/><!--link HotCoffee to CoffeeBrew--><path d="M386.113,476.208 C380.033,508.172 371.28,554.195 365.616,583.974 " fill="none" id="HotCoffee-CoffeeBrew" style="stroke: #A80036; stroke-width: 1.0;"/><polygon fill="#A80036" points="388.618,463.039,383.567,468.1856,386.375,474.8275,391.426,469.6809,388.618,463.039" style="stroke: #A80036; stroke-width: 1.0;"/><!--link HotCoffee to MilkSugar--><path d="M430.783,470.969 C439.359,476.937 448.694,482.67 458,487 C517.812,514.831 551.34,480.744 602,523 C620.412,538.358 630.917,563.719 636.674,583.692 " fill="none" id="HotCoffee-MilkSugar" style="stroke: #A80036; stroke-width: 1.0;"/><polygon fill="#A80036" points="420.012,463.085,422.4909,469.8566,429.6951,470.1729,427.2162,463.4013,420.012,463.085" style="stroke: #A80036; stroke-width: 1.0;"/><!--link IcedTea to IceWater--><path d="M481.762,471.399 C474.038,477.268 465.574,482.853 457,487 C328.021,549.391 270.467,494.575 143,560 C131.095,566.111 119.625,575.054 109.907,583.885 " fill="none" id="IcedTea-IceWater" style="stroke: #A80036; stroke-width: 1.0;"/><polygon fill="#A80036" points="492.125,463.03,484.944,463.688,482.7894,470.5697,489.9704,469.9117,492.125,463.03" style="stroke: #A80036; stroke-width: 1.0;"/><!--link IcedTea to TeaBrew--><path d="M510.365,476.208 C505.391,508.172 498.229,554.195 493.595,583.974 " fill="none" id="IcedTea-TeaBrew" style="stroke: #A80036; stroke-width: 1.0;"/><polygon fill="#A80036" points="512.415,463.039,507.5395,468.3521,510.5687,474.8961,515.4442,469.583,512.415,463.039" style="stroke: #A80036; stroke-width: 1.0;"/><!--link IcedTea to Lemon--><path d="M552.712,471.592 C559.603,476.986 566.883,482.343 574,487 C633.051,525.636 655.151,522.612 715,560 C726.623,567.261 738.763,575.852 749.691,584 " fill="none" id="IcedTea-Lemon" style="stroke: #A80036; stroke-width: 1.0;"/><polygon fill="#A80036" points="542.282,463.183,544.4425,470.0629,551.6241,470.7147,549.4636,463.8348,542.282,463.183" style="stroke: #A80036; stroke-width: 1.0;"/><!--link IcedCoffee to IceWater--><path d="M201.108,466.542 C174.788,480.371 145.225,499.373 124,523 C108.373,540.395 97.5476,564.611 90.8055,583.617 " fill="none" id="IcedCoffee-IceWater" style="stroke: #A80036; stroke-width: 1.0;"/><polygon fill="#A80036" points="212.932,460.554,205.7721,459.6958,202.2262,465.9748,209.386,466.833,212.932,460.554" style="stroke: #A80036; stroke-width: 1.0;"/><!--link IcedCoffee to CoffeeBrew--><path d="M281.488,474.502 C299.571,506.516 326.2,553.66 343.323,583.974 " fill="none" id="IcedCoffee-CoffeeBrew" style="stroke: #A80036; stroke-width: 1.0;"/><polygon fill="#A80036" points="275.014,463.039,274.4819,470.2304,280.9155,473.4876,281.4476,466.2961,275.014,463.039" style="stroke: #A80036; stroke-width: 1.0;"/><!--link IcedCoffee to MilkSugar--><path d="M301.166,470.758 C309.717,476.644 318.929,482.397 328,487 C419.868,533.62 453.793,518.309 548,560 C563.578,566.894 579.945,575.553 594.62,583.884 " fill="none" id="IcedCoffee-MilkSugar" style="stroke: #A80036; stroke-width: 1.0;"/><polygon fill="#A80036" points="290.375,463.03,292.9246,469.7753,300.1317,470.0162,297.5821,463.2709,290.375,463.03" style="stroke: #A80036; stroke-width: 1.0;"/><!--link TemplateHotCoffee to Beverage--><path d="M521.682,145.156 C515.318,157.741 508.077,172.061 500.754,186.543 " fill="none" id="TemplateHotCoffee-Beverage" style="stroke: #A80036; stroke-width: 1.0;"/><polygon fill="none" points="506.766,190.165,491.494,204.854,494.273,183.848,506.766,190.165" style="stroke: #A80036; stroke-width: 1.0;"/><!--link TemplateHotTea to Beverage--><path d="M385.557,145.156 C392.064,157.881 399.478,172.38 406.968,187.026 " fill="none" id="TemplateHotTea-Beverage" style="stroke: #A80036; stroke-width: 1.0;"/><polygon fill="none" points="413.211,183.86,416.085,204.854,400.746,190.234,413.211,183.86" style="stroke: #A80036; stroke-width: 1.0;"/><!--
@startuml
skinparam packageStyle rectangle

Abstract Beverage{
  # waterBehavior
  # brewBehavior
  # condimentBehavior
  + prepareRecipe()
  # addWater()
  # brew()
  # pour()
  # addCondiments()
}

note right of Beverage::prepareRecipe
  This is the Template Method
end note


package "Use Composition / Strategy Pattern" {

  Class IcedCoffee{

  }

  Class HotCoffee{

  }

  Class IcedTea{

  }

  Class HotTea{

  }
}

package "Use Inheritance and Overriding" {

  Class TemplateHotCoffee{
    # addWater()
    # brew()
    # addCondiments()
  }

  Class TemplateHotTea{
    # addWater()
    # brew()
    # addCondiments()
  }

}


Interface WaterBehavior{
  addWater()
}

Interface BrewBehavior{
  brew()
}

Interface CondimentBehavior{
  addCondiments()
}



together {
  Class HotWater{
  addWater()
  }

  Class IceWater{
    addWater()
  }
}

together {
  Class CoffeeBrew{
    brew()
  }

  Class TeaBrew{
    brew()
  }
}

together {
  Class MilkSugar{
    addCondiments()
  }

  Class Lemon{
    addCondiments()
  }
}


Beverage <|- - IcedCoffee
Beverage <|- - IcedTea

Beverage <|- - HotCoffee
Beverage <|- - HotTea

HotWater ..|> WaterBehavior
IceWater ..|> WaterBehavior

CoffeeBrew ..|> BrewBehavior
TeaBrew ..|> BrewBehavior

MilkSugar ..|> CondimentBehavior
Lemon ..|> CondimentBehavior



HotTea *- - - HotWater
HotTea *- - - TeaBrew
HotTea *- - - Lemon

HotCoffee *- - - HotWater
HotCoffee *- - - CoffeeBrew
HotCoffee *- - - MilkSugar

IcedTea *- - - IceWater
IcedTea *- - - TeaBrew
IcedTea *- - - Lemon

IcedCoffee *- - - IceWater
IcedCoffee *- - - CoffeeBrew
IcedCoffee *- - - MilkSugar

TemplateHotCoffee - -|> Beverage
TemplateHotTea - -|> Beverage
@enduml

PlantUML version 1.2018.02beta13(Unknown compile time)
(GPL source distribution)
Java Runtime: Java(TM) SE Runtime Environment
JVM: Java HotSpot(TM) 64-Bit Server VM
Java Version: 1.7.0_25-b15
Operating System: Linux
Default Encoding: UTF-8
Language: en
Country: US
--></g></svg>