<?xml version="1.0" encoding="UTF-8" standalone="no"?><svg xmlns="http://www.w3.org/2000/svg" xmlns:xlink="http://www.w3.org/1999/xlink" contentScriptType="application/ecmascript" contentStyleType="text/css" height="828px" preserveAspectRatio="none" style="width:971px;height:828px;" version="1.1" viewBox="0 0 971 828" width="971px" zoomAndPan="magnify"><defs><filter height="300%" id="f1gg22qn2gktbx" width="300%" x="-1" y="-1"><feGaussianBlur result="blurOut" stdDeviation="2.0"/><feColorMatrix in="blurOut" result="blurOut2" type="matrix" values="0 0 0 0 0 0 0 0 0 0 0 0 0 0 0 0 0 0 .4 0"/><feOffset dx="4.0" dy="4.0" in="blurOut2" result="blurOut3"/><feBlend in="SourceGraphic" in2="blurOut3" mode="normal"/></filter></defs><g><!--class Command--><rect fill="#FEFECE" filter="url(#f1gg22qn2gktbx)" height="86.4141" id="Command" style="stroke: #A80036; stroke-width: 1.5;" width="132" x="322" y="117"/><ellipse cx="354.1" cy="133" fill="#B4A7E5" rx="11" ry="11" style="stroke: #A80036; stroke-width: 1.0;"/><path d="M355.0531,129.7813 L355.0531,136.2969 L356.7719,136.2969 C357.225,136.2969 357.3656,136.3281 357.5375,136.4531 C357.7719,136.625 357.8813,136.875 357.8813,137.1563 C357.8813,137.7188 357.5219,138 356.7719,138 L351.6313,138 C351.225,138 351.0219,137.9531 350.8656,137.8281 C350.6469,137.6719 350.5063,137.4063 350.5063,137.1563 C350.5063,136.8594 350.6625,136.5781 350.9125,136.4219 C351.0688,136.3125 351.1938,136.2969 351.6313,136.2969 L353.35,136.2969 L353.35,129.7813 L351.6313,129.7813 C351.2094,129.7813 351.0219,129.75 350.8656,129.6406 C350.6469,129.4688 350.5063,129.2188 350.5063,128.9375 C350.5063,128.6563 350.6625,128.3594 350.9125,128.2031 C351.0688,128.1094 351.1938,128.0938 351.6313,128.0938 L356.7719,128.0938 C357.225,128.0938 357.3656,128.125 357.5375,128.2344 C357.7719,128.4063 357.8813,128.6719 357.8813,128.9375 C357.8813,129.2344 357.7406,129.5156 357.475,129.6719 C357.35,129.75 357.1625,129.7813 356.7719,129.7813 Z "/><text fill="#000000" font-family="sans-serif" font-size="12" font-style="italic" lengthAdjust="spacingAndGlyphs" textLength="62" x="371.9" y="137.1543">Command</text><line style="stroke: #A80036; stroke-width: 1.5;" x1="323" x2="453" y1="149" y2="149"/><rect fill="none" height="6" style="stroke: #C82930; stroke-width: 1.0;" width="6" x="330" y="157.9023"/><text fill="#000000" font-family="sans-serif" font-size="11" lengthAdjust="spacingAndGlyphs" textLength="106" x="342" y="163.2104">receiver : Receiver</text><line style="stroke: #A80036; stroke-width: 1.5;" x1="323" x2="453" y1="169.8047" y2="169.8047"/><ellipse cx="333" cy="181.707" fill="#84BE84" rx="3" ry="3" style="stroke: #038048; stroke-width: 1.0;"/><text fill="#000000" font-family="sans-serif" font-size="11" lengthAdjust="spacingAndGlyphs" textLength="52" x="342" y="184.0151">execute()</text><ellipse cx="333" cy="194.5117" fill="#84BE84" rx="3" ry="3" style="stroke: #038048; stroke-width: 1.0;"/><text fill="#000000" font-family="sans-serif" font-size="11" lengthAdjust="spacingAndGlyphs" textLength="36" x="342" y="196.8198">undo()</text><!--class Receiver--><rect fill="#FEFECE" filter="url(#f1gg22qn2gktbx)" height="48" id="Receiver" style="stroke: #A80036; stroke-width: 1.5;" width="85" x="594.5" y="136"/><ellipse cx="609.5" cy="152" fill="#B4A7E5" rx="11" ry="11" style="stroke: #A80036; stroke-width: 1.0;"/><path d="M610.4531,148.7813 L610.4531,155.2969 L612.1719,155.2969 C612.625,155.2969 612.7656,155.3281 612.9375,155.4531 C613.1719,155.625 613.2813,155.875 613.2813,156.1563 C613.2813,156.7188 612.9219,157 612.1719,157 L607.0313,157 C606.625,157 606.4219,156.9531 606.2656,156.8281 C606.0469,156.6719 605.9063,156.4063 605.9063,156.1563 C605.9063,155.8594 606.0625,155.5781 606.3125,155.4219 C606.4688,155.3125 606.5938,155.2969 607.0313,155.2969 L608.75,155.2969 L608.75,148.7813 L607.0313,148.7813 C606.6094,148.7813 606.4219,148.75 606.2656,148.6406 C606.0469,148.4688 605.9063,148.2188 605.9063,147.9375 C605.9063,147.6563 606.0625,147.3594 606.3125,147.2031 C606.4688,147.1094 606.5938,147.0938 607.0313,147.0938 L612.1719,147.0938 C612.625,147.0938 612.7656,147.125 612.9375,147.2344 C613.1719,147.4063 613.2813,147.6719 613.2813,147.9375 C613.2813,148.2344 613.1406,148.5156 612.875,148.6719 C612.75,148.75 612.5625,148.7813 612.1719,148.7813 Z "/><text fill="#000000" font-family="sans-serif" font-size="12" font-style="italic" lengthAdjust="spacingAndGlyphs" textLength="53" x="623.5" y="156.1543">Receiver</text><line style="stroke: #A80036; stroke-width: 1.5;" x1="595.5" x2="678.5" y1="168" y2="168"/><line style="stroke: #A80036; stroke-width: 1.5;" x1="595.5" x2="678.5" y1="176" y2="176"/><!--class Invoker--><rect fill="#FEFECE" filter="url(#f1gg22qn2gktbx)" height="48" id="Invoker" style="stroke: #A80036; stroke-width: 1.5;" width="78" x="77" y="136"/><ellipse cx="92" cy="152" fill="#B4A7E5" rx="11" ry="11" style="stroke: #A80036; stroke-width: 1.0;"/><path d="M92.9531,148.7813 L92.9531,155.2969 L94.6719,155.2969 C95.125,155.2969 95.2656,155.3281 95.4375,155.4531 C95.6719,155.625 95.7813,155.875 95.7813,156.1563 C95.7813,156.7188 95.4219,157 94.6719,157 L89.5313,157 C89.125,157 88.9219,156.9531 88.7656,156.8281 C88.5469,156.6719 88.4063,156.4063 88.4063,156.1563 C88.4063,155.8594 88.5625,155.5781 88.8125,155.4219 C88.9688,155.3125 89.0938,155.2969 89.5313,155.2969 L91.25,155.2969 L91.25,148.7813 L89.5313,148.7813 C89.1094,148.7813 88.9219,148.75 88.7656,148.6406 C88.5469,148.4688 88.4063,148.2188 88.4063,147.9375 C88.4063,147.6563 88.5625,147.3594 88.8125,147.2031 C88.9688,147.1094 89.0938,147.0938 89.5313,147.0938 L94.6719,147.0938 C95.125,147.0938 95.2656,147.125 95.4375,147.2344 C95.6719,147.4063 95.7813,147.6719 95.7813,147.9375 C95.7813,148.2344 95.6406,148.5156 95.375,148.6719 C95.25,148.75 95.0625,148.7813 94.6719,148.7813 Z "/><text fill="#000000" font-family="sans-serif" font-size="12" font-style="italic" lengthAdjust="spacingAndGlyphs" textLength="46" x="106" y="156.1543">Invoker</text><line style="stroke: #A80036; stroke-width: 1.5;" x1="78" x2="154" y1="168" y2="168"/><line style="stroke: #A80036; stroke-width: 1.5;" x1="78" x2="154" y1="176" y2="176"/><!--class Client--><rect fill="#FEFECE" filter="url(#f1gg22qn2gktbx)" height="48" id="Client" style="stroke: #A80036; stroke-width: 1.5;" width="67" x="354.5" y="8"/><ellipse cx="369.5" cy="24" fill="#B4A7E5" rx="11" ry="11" style="stroke: #A80036; stroke-width: 1.0;"/><path d="M370.4531,20.7813 L370.4531,27.2969 L372.1719,27.2969 C372.625,27.2969 372.7656,27.3281 372.9375,27.4531 C373.1719,27.625 373.2813,27.875 373.2813,28.1563 C373.2813,28.7188 372.9219,29 372.1719,29 L367.0313,29 C366.625,29 366.4219,28.9531 366.2656,28.8281 C366.0469,28.6719 365.9063,28.4063 365.9063,28.1563 C365.9063,27.8594 366.0625,27.5781 366.3125,27.4219 C366.4688,27.3125 366.5938,27.2969 367.0313,27.2969 L368.75,27.2969 L368.75,20.7813 L367.0313,20.7813 C366.6094,20.7813 366.4219,20.75 366.2656,20.6406 C366.0469,20.4688 365.9063,20.2188 365.9063,19.9375 C365.9063,19.6563 366.0625,19.3594 366.3125,19.2031 C366.4688,19.1094 366.5938,19.0938 367.0313,19.0938 L372.1719,19.0938 C372.625,19.0938 372.7656,19.125 372.9375,19.2344 C373.1719,19.4063 373.2813,19.6719 373.2813,19.9375 C373.2813,20.2344 373.1406,20.5156 372.875,20.6719 C372.75,20.75 372.5625,20.7813 372.1719,20.7813 Z "/><text fill="#000000" font-family="sans-serif" font-size="12" font-style="italic" lengthAdjust="spacingAndGlyphs" textLength="35" x="383.5" y="28.1543">Client</text><line style="stroke: #A80036; stroke-width: 1.5;" x1="355.5" x2="420.5" y1="40" y2="40"/><line style="stroke: #A80036; stroke-width: 1.5;" x1="355.5" x2="420.5" y1="48" y2="48"/><!--class RemoteControl--><rect fill="#FEFECE" filter="url(#f1gg22qn2gktbx)" height="150.4375" id="RemoteControl" style="stroke: #A80036; stroke-width: 1.5;" width="220" x="6" y="264"/><ellipse cx="65.25" cy="280" fill="#ADD1B2" rx="11" ry="11" style="stroke: #A80036; stroke-width: 1.0;"/><path d="M67.5938,275.6719 L67.7656,275.75 C67.9844,275.4375 68.1875,275.3438 68.4844,275.3438 C68.7813,275.3438 69.0625,275.4844 69.2188,275.75 C69.3125,275.9063 69.3281,276.0313 69.3281,276.4688 L69.3281,277.8906 C69.3281,278.3125 69.2969,278.5 69.1875,278.6563 C69.0156,278.875 68.75,279.0156 68.4844,279.0156 C68.2656,279.0156 68.0313,278.9063 67.8906,278.7656 C67.75,278.6406 67.7188,278.5156 67.6563,278.1094 C67.5625,277.7031 67.3906,277.4844 66.9063,277.2031 C66.4375,276.9531 65.8281,276.7969 65.25,276.7969 C63.5156,276.7969 62.2656,278.1094 62.2656,279.8906 L62.2656,280.9844 C62.2656,282.6875 63.5625,283.7813 65.6094,283.7813 C66.375,283.7813 67.0625,283.6563 67.4844,283.3906 C67.6719,283.2969 67.6719,283.2969 68.125,282.8125 C68.3125,282.625 68.5156,282.5469 68.7344,282.5469 C69.2031,282.5469 69.5938,282.9375 69.5938,283.3906 C69.5938,283.7813 69.2656,284.2344 68.6875,284.6406 C67.9375,285.1875 66.7813,285.4844 65.5625,285.4844 C62.6719,285.4844 60.5625,283.5938 60.5625,281.0156 L60.5625,279.8906 C60.5625,277.1719 62.5625,275.0938 65.1875,275.0938 C66.0625,275.0938 66.6563,275.2344 67.5938,275.6719 Z "/><text fill="#000000" font-family="sans-serif" font-size="12" lengthAdjust="spacingAndGlyphs" textLength="93" x="85.75" y="284.1543">RemoteControl</text><line style="stroke: #A80036; stroke-width: 1.5;" x1="7" x2="225" y1="296" y2="296"/><rect fill="none" height="6" style="stroke: #C82930; stroke-width: 1.0;" width="6" x="14" y="304.9023"/><text fill="#000000" font-family="sans-serif" font-size="11" lengthAdjust="spacingAndGlyphs" textLength="121" x="26" y="310.2104">onSlots : Command[]</text><rect fill="none" height="6" style="stroke: #C82930; stroke-width: 1.0;" width="6" x="14" y="317.707"/><text fill="#000000" font-family="sans-serif" font-size="11" lengthAdjust="spacingAndGlyphs" textLength="122" x="26" y="323.0151">offSlots : Command[]</text><rect fill="none" height="6" style="stroke: #C82930; stroke-width: 1.0;" width="6" x="14" y="330.5117"/><text fill="#000000" font-family="sans-serif" font-size="11" lengthAdjust="spacingAndGlyphs" textLength="149" x="26" y="335.8198">lastCommand : Command</text><line style="stroke: #A80036; stroke-width: 1.5;" x1="7" x2="225" y1="342.4141" y2="342.4141"/><ellipse cx="17" cy="354.3164" fill="#84BE84" rx="3" ry="3" style="stroke: #038048; stroke-width: 1.0;"/><text fill="#000000" font-family="sans-serif" font-size="11" lengthAdjust="spacingAndGlyphs" textLength="97" x="26" y="356.6245">pressOnBtn(int i)</text><ellipse cx="17" cy="367.1211" fill="#84BE84" rx="3" ry="3" style="stroke: #038048; stroke-width: 1.0;"/><text fill="#000000" font-family="sans-serif" font-size="11" lengthAdjust="spacingAndGlyphs" textLength="98" x="26" y="369.4292">pressOffBtn(int i)</text><ellipse cx="17" cy="379.9258" fill="#84BE84" rx="3" ry="3" style="stroke: #038048; stroke-width: 1.0;"/><text fill="#000000" font-family="sans-serif" font-size="11" lengthAdjust="spacingAndGlyphs" textLength="194" x="26" y="382.2339">setSlot(int, Command, Command)</text><ellipse cx="17" cy="392.7305" fill="#84BE84" rx="3" ry="3" style="stroke: #038048; stroke-width: 1.0;"/><text fill="#000000" font-family="sans-serif" font-size="11" lengthAdjust="spacingAndGlyphs" textLength="79" x="26" y="395.0386">clearSlot(int i)</text><ellipse cx="17" cy="405.5352" fill="#84BE84" rx="3" ry="3" style="stroke: #038048; stroke-width: 1.0;"/><text fill="#000000" font-family="sans-serif" font-size="11" lengthAdjust="spacingAndGlyphs" textLength="60" x="26" y="407.8433">undoLast()</text><!--class Light--><rect fill="#FEFECE" filter="url(#f1gg22qn2gktbx)" height="73.6094" id="Light" style="stroke: #A80036; stroke-width: 1.5;" width="62" x="486" y="302"/><ellipse cx="501" cy="318" fill="#ADD1B2" rx="11" ry="11" style="stroke: #A80036; stroke-width: 1.0;"/><path d="M503.3438,313.6719 L503.5156,313.75 C503.7344,313.4375 503.9375,313.3438 504.2344,313.3438 C504.5313,313.3438 504.8125,313.4844 504.9688,313.75 C505.0625,313.9063 505.0781,314.0313 505.0781,314.4688 L505.0781,315.8906 C505.0781,316.3125 505.0469,316.5 504.9375,316.6563 C504.7656,316.875 504.5,317.0156 504.2344,317.0156 C504.0156,317.0156 503.7813,316.9063 503.6406,316.7656 C503.5,316.6406 503.4688,316.5156 503.4063,316.1094 C503.3125,315.7031 503.1406,315.4844 502.6563,315.2031 C502.1875,314.9531 501.5781,314.7969 501,314.7969 C499.2656,314.7969 498.0156,316.1094 498.0156,317.8906 L498.0156,318.9844 C498.0156,320.6875 499.3125,321.7813 501.3594,321.7813 C502.125,321.7813 502.8125,321.6563 503.2344,321.3906 C503.4219,321.2969 503.4219,321.2969 503.875,320.8125 C504.0625,320.625 504.2656,320.5469 504.4844,320.5469 C504.9531,320.5469 505.3438,320.9375 505.3438,321.3906 C505.3438,321.7813 505.0156,322.2344 504.4375,322.6406 C503.6875,323.1875 502.5313,323.4844 501.3125,323.4844 C498.4219,323.4844 496.3125,321.5938 496.3125,319.0156 L496.3125,317.8906 C496.3125,315.1719 498.3125,313.0938 500.9375,313.0938 C501.8125,313.0938 502.4063,313.2344 503.3438,313.6719 Z "/><text fill="#000000" font-family="sans-serif" font-size="12" lengthAdjust="spacingAndGlyphs" textLength="30" x="515" y="322.1543">Light</text><line style="stroke: #A80036; stroke-width: 1.5;" x1="487" x2="547" y1="334" y2="334"/><line style="stroke: #A80036; stroke-width: 1.5;" x1="487" x2="547" y1="342" y2="342"/><ellipse cx="497" cy="353.9023" fill="#84BE84" rx="3" ry="3" style="stroke: #038048; stroke-width: 1.0;"/><text fill="#000000" font-family="sans-serif" font-size="11" lengthAdjust="spacingAndGlyphs" textLength="22" x="506" y="356.2104">on()</text><ellipse cx="497" cy="366.707" fill="#84BE84" rx="3" ry="3" style="stroke: #038048; stroke-width: 1.0;"/><text fill="#000000" font-family="sans-serif" font-size="11" lengthAdjust="spacingAndGlyphs" textLength="23" x="506" y="369.0151">off()</text><!--class GarageDoor--><rect fill="#FEFECE" filter="url(#f1gg22qn2gktbx)" height="73.6094" id="GarageDoor" style="stroke: #A80036; stroke-width: 1.5;" width="108" x="583" y="302"/><ellipse cx="598" cy="318" fill="#ADD1B2" rx="11" ry="11" style="stroke: #A80036; stroke-width: 1.0;"/><path d="M600.3438,313.6719 L600.5156,313.75 C600.7344,313.4375 600.9375,313.3438 601.2344,313.3438 C601.5313,313.3438 601.8125,313.4844 601.9688,313.75 C602.0625,313.9063 602.0781,314.0313 602.0781,314.4688 L602.0781,315.8906 C602.0781,316.3125 602.0469,316.5 601.9375,316.6563 C601.7656,316.875 601.5,317.0156 601.2344,317.0156 C601.0156,317.0156 600.7813,316.9063 600.6406,316.7656 C600.5,316.6406 600.4688,316.5156 600.4063,316.1094 C600.3125,315.7031 600.1406,315.4844 599.6563,315.2031 C599.1875,314.9531 598.5781,314.7969 598,314.7969 C596.2656,314.7969 595.0156,316.1094 595.0156,317.8906 L595.0156,318.9844 C595.0156,320.6875 596.3125,321.7813 598.3594,321.7813 C599.125,321.7813 599.8125,321.6563 600.2344,321.3906 C600.4219,321.2969 600.4219,321.2969 600.875,320.8125 C601.0625,320.625 601.2656,320.5469 601.4844,320.5469 C601.9531,320.5469 602.3438,320.9375 602.3438,321.3906 C602.3438,321.7813 602.0156,322.2344 601.4375,322.6406 C600.6875,323.1875 599.5313,323.4844 598.3125,323.4844 C595.4219,323.4844 593.3125,321.5938 593.3125,319.0156 L593.3125,317.8906 C593.3125,315.1719 595.3125,313.0938 597.9375,313.0938 C598.8125,313.0938 599.4063,313.2344 600.3438,313.6719 Z "/><text fill="#000000" font-family="sans-serif" font-size="12" lengthAdjust="spacingAndGlyphs" textLength="76" x="612" y="322.1543">GarageDoor</text><line style="stroke: #A80036; stroke-width: 1.5;" x1="584" x2="690" y1="334" y2="334"/><line style="stroke: #A80036; stroke-width: 1.5;" x1="584" x2="690" y1="342" y2="342"/><ellipse cx="594" cy="353.9023" fill="#84BE84" rx="3" ry="3" style="stroke: #038048; stroke-width: 1.0;"/><text fill="#000000" font-family="sans-serif" font-size="11" lengthAdjust="spacingAndGlyphs" textLength="36" x="603" y="356.2104">open()</text><ellipse cx="594" cy="366.707" fill="#84BE84" rx="3" ry="3" style="stroke: #038048; stroke-width: 1.0;"/><text fill="#000000" font-family="sans-serif" font-size="11" lengthAdjust="spacingAndGlyphs" textLength="38" x="603" y="369.0151">close()</text><!--class CeilingFan--><rect fill="#FEFECE" filter="url(#f1gg22qn2gktbx)" height="86.4141" id="CeilingFan" style="stroke: #A80036; stroke-width: 1.5;" width="96" x="726" y="296"/><ellipse cx="741" cy="312" fill="#ADD1B2" rx="11" ry="11" style="stroke: #A80036; stroke-width: 1.0;"/><path d="M743.3438,307.6719 L743.5156,307.75 C743.7344,307.4375 743.9375,307.3438 744.2344,307.3438 C744.5313,307.3438 744.8125,307.4844 744.9688,307.75 C745.0625,307.9063 745.0781,308.0313 745.0781,308.4688 L745.0781,309.8906 C745.0781,310.3125 745.0469,310.5 744.9375,310.6563 C744.7656,310.875 744.5,311.0156 744.2344,311.0156 C744.0156,311.0156 743.7813,310.9063 743.6406,310.7656 C743.5,310.6406 743.4688,310.5156 743.4063,310.1094 C743.3125,309.7031 743.1406,309.4844 742.6563,309.2031 C742.1875,308.9531 741.5781,308.7969 741,308.7969 C739.2656,308.7969 738.0156,310.1094 738.0156,311.8906 L738.0156,312.9844 C738.0156,314.6875 739.3125,315.7813 741.3594,315.7813 C742.125,315.7813 742.8125,315.6563 743.2344,315.3906 C743.4219,315.2969 743.4219,315.2969 743.875,314.8125 C744.0625,314.625 744.2656,314.5469 744.4844,314.5469 C744.9531,314.5469 745.3438,314.9375 745.3438,315.3906 C745.3438,315.7813 745.0156,316.2344 744.4375,316.6406 C743.6875,317.1875 742.5313,317.4844 741.3125,317.4844 C738.4219,317.4844 736.3125,315.5938 736.3125,313.0156 L736.3125,311.8906 C736.3125,309.1719 738.3125,307.0938 740.9375,307.0938 C741.8125,307.0938 742.4063,307.2344 743.3438,307.6719 Z "/><text fill="#000000" font-family="sans-serif" font-size="12" lengthAdjust="spacingAndGlyphs" textLength="64" x="755" y="316.1543">CeilingFan</text><line style="stroke: #A80036; stroke-width: 1.5;" x1="727" x2="821" y1="328" y2="328"/><line style="stroke: #A80036; stroke-width: 1.5;" x1="727" x2="821" y1="336" y2="336"/><ellipse cx="737" cy="347.9023" fill="#84BE84" rx="3" ry="3" style="stroke: #038048; stroke-width: 1.0;"/><text fill="#000000" font-family="sans-serif" font-size="11" lengthAdjust="spacingAndGlyphs" textLength="32" x="746" y="350.2104">high()</text><ellipse cx="737" cy="360.707" fill="#84BE84" rx="3" ry="3" style="stroke: #038048; stroke-width: 1.0;"/><text fill="#000000" font-family="sans-serif" font-size="11" lengthAdjust="spacingAndGlyphs" textLength="27" x="746" y="363.0151">low()</text><ellipse cx="737" cy="373.5117" fill="#84BE84" rx="3" ry="3" style="stroke: #038048; stroke-width: 1.0;"/><text fill="#000000" font-family="sans-serif" font-size="11" lengthAdjust="spacingAndGlyphs" textLength="23" x="746" y="375.8198">off()</text><!--class NullCommand--><rect fill="#FEFECE" filter="url(#f1gg22qn2gktbx)" height="73.6094" id="NullCommand" style="stroke: #A80036; stroke-width: 1.5;" width="117" x="93.5" y="487.5"/><ellipse cx="108.5" cy="503.5" fill="#ADD1B2" rx="11" ry="11" style="stroke: #A80036; stroke-width: 1.0;"/><path d="M110.8438,499.1719 L111.0156,499.25 C111.2344,498.9375 111.4375,498.8438 111.7344,498.8438 C112.0313,498.8438 112.3125,498.9844 112.4688,499.25 C112.5625,499.4063 112.5781,499.5313 112.5781,499.9688 L112.5781,501.3906 C112.5781,501.8125 112.5469,502 112.4375,502.1563 C112.2656,502.375 112,502.5156 111.7344,502.5156 C111.5156,502.5156 111.2813,502.4063 111.1406,502.2656 C111,502.1406 110.9688,502.0156 110.9063,501.6094 C110.8125,501.2031 110.6406,500.9844 110.1563,500.7031 C109.6875,500.4531 109.0781,500.2969 108.5,500.2969 C106.7656,500.2969 105.5156,501.6094 105.5156,503.3906 L105.5156,504.4844 C105.5156,506.1875 106.8125,507.2813 108.8594,507.2813 C109.625,507.2813 110.3125,507.1563 110.7344,506.8906 C110.9219,506.7969 110.9219,506.7969 111.375,506.3125 C111.5625,506.125 111.7656,506.0469 111.9844,506.0469 C112.4531,506.0469 112.8438,506.4375 112.8438,506.8906 C112.8438,507.2813 112.5156,507.7344 111.9375,508.1406 C111.1875,508.6875 110.0313,508.9844 108.8125,508.9844 C105.9219,508.9844 103.8125,507.0938 103.8125,504.5156 L103.8125,503.3906 C103.8125,500.6719 105.8125,498.5938 108.4375,498.5938 C109.3125,498.5938 109.9063,498.7344 110.8438,499.1719 Z "/><text fill="#000000" font-family="sans-serif" font-size="12" lengthAdjust="spacingAndGlyphs" textLength="85" x="122.5" y="507.6543">NullCommand</text><line style="stroke: #A80036; stroke-width: 1.5;" x1="94.5" x2="209.5" y1="519.5" y2="519.5"/><line style="stroke: #A80036; stroke-width: 1.5;" x1="94.5" x2="209.5" y1="527.5" y2="527.5"/><ellipse cx="104.5" cy="539.4023" fill="#84BE84" rx="3" ry="3" style="stroke: #038048; stroke-width: 1.0;"/><text fill="#000000" font-family="sans-serif" font-size="11" lengthAdjust="spacingAndGlyphs" textLength="52" x="113.5" y="541.7104">execute()</text><ellipse cx="104.5" cy="552.207" fill="#84BE84" rx="3" ry="3" style="stroke: #038048; stroke-width: 1.0;"/><text fill="#000000" font-family="sans-serif" font-size="11" lengthAdjust="spacingAndGlyphs" textLength="36" x="113.5" y="554.5151">undo()</text><!--class LightCmd--><rect fill="#FEFECE" filter="url(#f1gg22qn2gktbx)" height="99.2188" id="LightCmd" style="stroke: #A80036; stroke-width: 1.5;" width="114" x="246" y="475"/><ellipse cx="271.8" cy="491" fill="#A9DCDF" rx="11" ry="11" style="stroke: #A80036; stroke-width: 1.0;"/><path d="M273.3781,492.8125 L269.3313,492.8125 L268.9406,493.7969 L269.3313,493.7969 C269.7844,493.7969 269.925,493.8281 270.0969,493.9531 C270.3156,494.125 270.4406,494.375 270.4406,494.6563 C270.4406,494.9375 270.3,495.2344 270.0344,495.375 C269.9094,495.4688 269.6906,495.5 269.3313,495.5 L267.0656,495.5 C266.3156,495.5 265.9406,495.2188 265.9406,494.6563 C265.9406,494.3594 266.0969,494.0781 266.3469,493.9219 C266.5031,493.8125 266.6594,493.7969 267.0813,493.7969 L269.7219,487.2813 L268.6438,487.2813 C268.2063,487.2813 268.0344,487.25 267.8625,487.1406 C267.6438,486.9688 267.5031,486.7188 267.5031,486.4375 C267.5031,486.1563 267.6594,485.875 267.9094,485.7031 C268.0656,485.6094 268.1906,485.5938 268.6438,485.5938 L272.3156,485.5938 L275.7063,493.7969 C276.175,493.7969 276.3313,493.8281 276.5031,493.9688 C276.7219,494.125 276.8625,494.375 276.8625,494.6563 C276.8625,494.9375 276.7063,495.2344 276.4563,495.375 C276.3156,495.4688 276.0969,495.5 275.7375,495.5 L273.3781,495.5 C272.9563,495.5 272.7531,495.4531 272.6125,495.3281 C272.3938,495.1719 272.2531,494.9219 272.2531,494.6563 C272.2531,494.3594 272.4094,494.0781 272.6594,493.9219 C272.8156,493.8125 272.925,493.7969 273.3781,493.7969 L273.7688,493.7969 Z M272.675,491.1094 L271.3469,487.8438 L270.0031,491.1094 Z "/><text fill="#000000" font-family="sans-serif" font-size="12" font-style="italic" lengthAdjust="spacingAndGlyphs" textLength="58" x="288.2" y="495.1543">LightCmd</text><line style="stroke: #A80036; stroke-width: 1.5;" x1="247" x2="359" y1="507" y2="507"/><rect fill="none" height="6" style="stroke: #C82930; stroke-width: 1.0;" width="6" x="254" y="515.9023"/><text fill="#000000" font-family="sans-serif" font-size="11" lengthAdjust="spacingAndGlyphs" textLength="85" x="266" y="521.2104">receiver : Light</text><line style="stroke: #A80036; stroke-width: 1.5;" x1="247" x2="359" y1="527.8047" y2="527.8047"/><ellipse cx="257" cy="539.707" fill="#84BE84" rx="3" ry="3" style="stroke: #038048; stroke-width: 1.0;"/><text fill="#000000" font-family="sans-serif" font-size="11" lengthAdjust="spacingAndGlyphs" textLength="88" x="266" y="542.0151">LightCmd(Light)</text><ellipse cx="257" cy="552.5117" fill="#84BE84" rx="3" ry="3" style="stroke: #038048; stroke-width: 1.0;"/><text fill="#000000" font-family="sans-serif" font-size="11" lengthAdjust="spacingAndGlyphs" textLength="52" x="266" y="554.8198">execute()</text><ellipse cx="257" cy="565.3164" fill="#84BE84" rx="3" ry="3" style="stroke: #038048; stroke-width: 1.0;"/><text fill="#000000" font-family="sans-serif" font-size="11" lengthAdjust="spacingAndGlyphs" textLength="36" x="266" y="567.6245">undo()</text><!--class LightOnCmd--><rect fill="#FEFECE" filter="url(#f1gg22qn2gktbx)" height="60.8047" id="LightOnCmd" style="stroke: #A80036; stroke-width: 1.5;" width="106" x="109" y="635"/><ellipse cx="124" cy="651" fill="#ADD1B2" rx="11" ry="11" style="stroke: #A80036; stroke-width: 1.0;"/><path d="M126.3438,646.6719 L126.5156,646.75 C126.7344,646.4375 126.9375,646.3438 127.2344,646.3438 C127.5313,646.3438 127.8125,646.4844 127.9688,646.75 C128.0625,646.9063 128.0781,647.0313 128.0781,647.4688 L128.0781,648.8906 C128.0781,649.3125 128.0469,649.5 127.9375,649.6563 C127.7656,649.875 127.5,650.0156 127.2344,650.0156 C127.0156,650.0156 126.7813,649.9063 126.6406,649.7656 C126.5,649.6406 126.4688,649.5156 126.4063,649.1094 C126.3125,648.7031 126.1406,648.4844 125.6563,648.2031 C125.1875,647.9531 124.5781,647.7969 124,647.7969 C122.2656,647.7969 121.0156,649.1094 121.0156,650.8906 L121.0156,651.9844 C121.0156,653.6875 122.3125,654.7813 124.3594,654.7813 C125.125,654.7813 125.8125,654.6563 126.2344,654.3906 C126.4219,654.2969 126.4219,654.2969 126.875,653.8125 C127.0625,653.625 127.2656,653.5469 127.4844,653.5469 C127.9531,653.5469 128.3438,653.9375 128.3438,654.3906 C128.3438,654.7813 128.0156,655.2344 127.4375,655.6406 C126.6875,656.1875 125.5313,656.4844 124.3125,656.4844 C121.4219,656.4844 119.3125,654.5938 119.3125,652.0156 L119.3125,650.8906 C119.3125,648.1719 121.3125,646.0938 123.9375,646.0938 C124.8125,646.0938 125.4063,646.2344 126.3438,646.6719 Z "/><text fill="#000000" font-family="sans-serif" font-size="12" lengthAdjust="spacingAndGlyphs" textLength="74" x="138" y="655.1543">LightOnCmd</text><line style="stroke: #A80036; stroke-width: 1.5;" x1="110" x2="214" y1="667" y2="667"/><line style="stroke: #A80036; stroke-width: 1.5;" x1="110" x2="214" y1="675" y2="675"/><ellipse cx="120" cy="686.9023" fill="#84BE84" rx="3" ry="3" style="stroke: #038048; stroke-width: 1.0;"/><text fill="#000000" font-family="sans-serif" font-size="11" lengthAdjust="spacingAndGlyphs" textLength="52" x="129" y="689.2104">execute()</text><!--class LightOffCmd--><rect fill="#FEFECE" filter="url(#f1gg22qn2gktbx)" height="60.8047" id="LightOffCmd" style="stroke: #A80036; stroke-width: 1.5;" width="106" x="250" y="635"/><ellipse cx="265" cy="651" fill="#ADD1B2" rx="11" ry="11" style="stroke: #A80036; stroke-width: 1.0;"/><path d="M267.3438,646.6719 L267.5156,646.75 C267.7344,646.4375 267.9375,646.3438 268.2344,646.3438 C268.5313,646.3438 268.8125,646.4844 268.9688,646.75 C269.0625,646.9063 269.0781,647.0313 269.0781,647.4688 L269.0781,648.8906 C269.0781,649.3125 269.0469,649.5 268.9375,649.6563 C268.7656,649.875 268.5,650.0156 268.2344,650.0156 C268.0156,650.0156 267.7813,649.9063 267.6406,649.7656 C267.5,649.6406 267.4688,649.5156 267.4063,649.1094 C267.3125,648.7031 267.1406,648.4844 266.6563,648.2031 C266.1875,647.9531 265.5781,647.7969 265,647.7969 C263.2656,647.7969 262.0156,649.1094 262.0156,650.8906 L262.0156,651.9844 C262.0156,653.6875 263.3125,654.7813 265.3594,654.7813 C266.125,654.7813 266.8125,654.6563 267.2344,654.3906 C267.4219,654.2969 267.4219,654.2969 267.875,653.8125 C268.0625,653.625 268.2656,653.5469 268.4844,653.5469 C268.9531,653.5469 269.3438,653.9375 269.3438,654.3906 C269.3438,654.7813 269.0156,655.2344 268.4375,655.6406 C267.6875,656.1875 266.5313,656.4844 265.3125,656.4844 C262.4219,656.4844 260.3125,654.5938 260.3125,652.0156 L260.3125,650.8906 C260.3125,648.1719 262.3125,646.0938 264.9375,646.0938 C265.8125,646.0938 266.4063,646.2344 267.3438,646.6719 Z "/><text fill="#000000" font-family="sans-serif" font-size="12" lengthAdjust="spacingAndGlyphs" textLength="74" x="279" y="655.1543">LightOffCmd</text><line style="stroke: #A80036; stroke-width: 1.5;" x1="251" x2="355" y1="667" y2="667"/><line style="stroke: #A80036; stroke-width: 1.5;" x1="251" x2="355" y1="675" y2="675"/><ellipse cx="261" cy="686.9023" fill="#84BE84" rx="3" ry="3" style="stroke: #038048; stroke-width: 1.0;"/><text fill="#000000" font-family="sans-serif" font-size="11" lengthAdjust="spacingAndGlyphs" textLength="52" x="270" y="689.2104">execute()</text><!--class DoorCmd--><rect fill="#FEFECE" filter="url(#f1gg22qn2gktbx)" height="99.2188" id="DoorCmd" style="stroke: #A80036; stroke-width: 1.5;" width="156" x="395" y="475"/><ellipse cx="440.25" cy="491" fill="#A9DCDF" rx="11" ry="11" style="stroke: #A80036; stroke-width: 1.0;"/><path d="M441.8281,492.8125 L437.7813,492.8125 L437.3906,493.7969 L437.7813,493.7969 C438.2344,493.7969 438.375,493.8281 438.5469,493.9531 C438.7656,494.125 438.8906,494.375 438.8906,494.6563 C438.8906,494.9375 438.75,495.2344 438.4844,495.375 C438.3594,495.4688 438.1406,495.5 437.7813,495.5 L435.5156,495.5 C434.7656,495.5 434.3906,495.2188 434.3906,494.6563 C434.3906,494.3594 434.5469,494.0781 434.7969,493.9219 C434.9531,493.8125 435.1094,493.7969 435.5313,493.7969 L438.1719,487.2813 L437.0938,487.2813 C436.6563,487.2813 436.4844,487.25 436.3125,487.1406 C436.0938,486.9688 435.9531,486.7188 435.9531,486.4375 C435.9531,486.1563 436.1094,485.875 436.3594,485.7031 C436.5156,485.6094 436.6406,485.5938 437.0938,485.5938 L440.7656,485.5938 L444.1563,493.7969 C444.625,493.7969 444.7813,493.8281 444.9531,493.9688 C445.1719,494.125 445.3125,494.375 445.3125,494.6563 C445.3125,494.9375 445.1563,495.2344 444.9063,495.375 C444.7656,495.4688 444.5469,495.5 444.1875,495.5 L441.8281,495.5 C441.4063,495.5 441.2031,495.4531 441.0625,495.3281 C440.8438,495.1719 440.7031,494.9219 440.7031,494.6563 C440.7031,494.3594 440.8594,494.0781 441.1094,493.9219 C441.2656,493.8125 441.375,493.7969 441.8281,493.7969 L442.2188,493.7969 Z M441.125,491.1094 L439.7969,487.8438 L438.4531,491.1094 Z "/><text fill="#000000" font-family="sans-serif" font-size="12" font-style="italic" lengthAdjust="spacingAndGlyphs" textLength="57" x="460.75" y="495.1543">DoorCmd</text><line style="stroke: #A80036; stroke-width: 1.5;" x1="396" x2="550" y1="507" y2="507"/><rect fill="none" height="6" style="stroke: #C82930; stroke-width: 1.0;" width="6" x="403" y="515.9023"/><text fill="#000000" font-family="sans-serif" font-size="11" lengthAdjust="spacingAndGlyphs" textLength="127" x="415" y="521.2104">receiver : GarageDoor</text><line style="stroke: #A80036; stroke-width: 1.5;" x1="396" x2="550" y1="527.8047" y2="527.8047"/><ellipse cx="406" cy="539.707" fill="#84BE84" rx="3" ry="3" style="stroke: #038048; stroke-width: 1.0;"/><text fill="#000000" font-family="sans-serif" font-size="11" lengthAdjust="spacingAndGlyphs" textLength="130" x="415" y="542.0151">DoorCmd(GarageDoor)</text><ellipse cx="406" cy="552.5117" fill="#84BE84" rx="3" ry="3" style="stroke: #038048; stroke-width: 1.0;"/><text fill="#000000" font-family="sans-serif" font-size="11" lengthAdjust="spacingAndGlyphs" textLength="52" x="415" y="554.8198">execute()</text><ellipse cx="406" cy="565.3164" fill="#84BE84" rx="3" ry="3" style="stroke: #038048; stroke-width: 1.0;"/><text fill="#000000" font-family="sans-serif" font-size="11" lengthAdjust="spacingAndGlyphs" textLength="36" x="415" y="567.6245">undo()</text><!--class DoorOpenCmd--><rect fill="#FEFECE" filter="url(#f1gg22qn2gktbx)" height="60.8047" id="DoorOpenCmd" style="stroke: #A80036; stroke-width: 1.5;" width="122" x="326" y="757"/><ellipse cx="341" cy="773" fill="#ADD1B2" rx="11" ry="11" style="stroke: #A80036; stroke-width: 1.0;"/><path d="M343.3438,768.6719 L343.5156,768.75 C343.7344,768.4375 343.9375,768.3438 344.2344,768.3438 C344.5313,768.3438 344.8125,768.4844 344.9688,768.75 C345.0625,768.9063 345.0781,769.0313 345.0781,769.4688 L345.0781,770.8906 C345.0781,771.3125 345.0469,771.5 344.9375,771.6563 C344.7656,771.875 344.5,772.0156 344.2344,772.0156 C344.0156,772.0156 343.7813,771.9063 343.6406,771.7656 C343.5,771.6406 343.4688,771.5156 343.4063,771.1094 C343.3125,770.7031 343.1406,770.4844 342.6563,770.2031 C342.1875,769.9531 341.5781,769.7969 341,769.7969 C339.2656,769.7969 338.0156,771.1094 338.0156,772.8906 L338.0156,773.9844 C338.0156,775.6875 339.3125,776.7813 341.3594,776.7813 C342.125,776.7813 342.8125,776.6563 343.2344,776.3906 C343.4219,776.2969 343.4219,776.2969 343.875,775.8125 C344.0625,775.625 344.2656,775.5469 344.4844,775.5469 C344.9531,775.5469 345.3438,775.9375 345.3438,776.3906 C345.3438,776.7813 345.0156,777.2344 344.4375,777.6406 C343.6875,778.1875 342.5313,778.4844 341.3125,778.4844 C338.4219,778.4844 336.3125,776.5938 336.3125,774.0156 L336.3125,772.8906 C336.3125,770.1719 338.3125,768.0938 340.9375,768.0938 C341.8125,768.0938 342.4063,768.2344 343.3438,768.6719 Z "/><text fill="#000000" font-family="sans-serif" font-size="12" lengthAdjust="spacingAndGlyphs" textLength="90" x="355" y="777.1543">DoorOpenCmd</text><line style="stroke: #A80036; stroke-width: 1.5;" x1="327" x2="447" y1="789" y2="789"/><line style="stroke: #A80036; stroke-width: 1.5;" x1="327" x2="447" y1="797" y2="797"/><ellipse cx="337" cy="808.9023" fill="#84BE84" rx="3" ry="3" style="stroke: #038048; stroke-width: 1.0;"/><text fill="#000000" font-family="sans-serif" font-size="11" lengthAdjust="spacingAndGlyphs" textLength="52" x="346" y="811.2104">execute()</text><!--class DoorCloseCmd--><rect fill="#FEFECE" filter="url(#f1gg22qn2gktbx)" height="60.8047" id="DoorCloseCmd" style="stroke: #A80036; stroke-width: 1.5;" width="123" x="483.5" y="757"/><ellipse cx="498.5" cy="773" fill="#ADD1B2" rx="11" ry="11" style="stroke: #A80036; stroke-width: 1.0;"/><path d="M500.8438,768.6719 L501.0156,768.75 C501.2344,768.4375 501.4375,768.3438 501.7344,768.3438 C502.0313,768.3438 502.3125,768.4844 502.4688,768.75 C502.5625,768.9063 502.5781,769.0313 502.5781,769.4688 L502.5781,770.8906 C502.5781,771.3125 502.5469,771.5 502.4375,771.6563 C502.2656,771.875 502,772.0156 501.7344,772.0156 C501.5156,772.0156 501.2813,771.9063 501.1406,771.7656 C501,771.6406 500.9688,771.5156 500.9063,771.1094 C500.8125,770.7031 500.6406,770.4844 500.1563,770.2031 C499.6875,769.9531 499.0781,769.7969 498.5,769.7969 C496.7656,769.7969 495.5156,771.1094 495.5156,772.8906 L495.5156,773.9844 C495.5156,775.6875 496.8125,776.7813 498.8594,776.7813 C499.625,776.7813 500.3125,776.6563 500.7344,776.3906 C500.9219,776.2969 500.9219,776.2969 501.375,775.8125 C501.5625,775.625 501.7656,775.5469 501.9844,775.5469 C502.4531,775.5469 502.8438,775.9375 502.8438,776.3906 C502.8438,776.7813 502.5156,777.2344 501.9375,777.6406 C501.1875,778.1875 500.0313,778.4844 498.8125,778.4844 C495.9219,778.4844 493.8125,776.5938 493.8125,774.0156 L493.8125,772.8906 C493.8125,770.1719 495.8125,768.0938 498.4375,768.0938 C499.3125,768.0938 499.9063,768.2344 500.8438,768.6719 Z "/><text fill="#000000" font-family="sans-serif" font-size="12" lengthAdjust="spacingAndGlyphs" textLength="91" x="512.5" y="777.1543">DoorCloseCmd</text><line style="stroke: #A80036; stroke-width: 1.5;" x1="484.5" x2="605.5" y1="789" y2="789"/><line style="stroke: #A80036; stroke-width: 1.5;" x1="484.5" x2="605.5" y1="797" y2="797"/><ellipse cx="494.5" cy="808.9023" fill="#84BE84" rx="3" ry="3" style="stroke: #038048; stroke-width: 1.0;"/><text fill="#000000" font-family="sans-serif" font-size="11" lengthAdjust="spacingAndGlyphs" textLength="52" x="503.5" y="811.2104">execute()</text><!--class FanCmd--><rect fill="#FEFECE" filter="url(#f1gg22qn2gktbx)" height="99.2188" id="FanCmd" style="stroke: #A80036; stroke-width: 1.5;" width="142" x="666" y="475"/><ellipse cx="708" cy="491" fill="#A9DCDF" rx="11" ry="11" style="stroke: #A80036; stroke-width: 1.0;"/><path d="M709.5781,492.8125 L705.5313,492.8125 L705.1406,493.7969 L705.5313,493.7969 C705.9844,493.7969 706.125,493.8281 706.2969,493.9531 C706.5156,494.125 706.6406,494.375 706.6406,494.6563 C706.6406,494.9375 706.5,495.2344 706.2344,495.375 C706.1094,495.4688 705.8906,495.5 705.5313,495.5 L703.2656,495.5 C702.5156,495.5 702.1406,495.2188 702.1406,494.6563 C702.1406,494.3594 702.2969,494.0781 702.5469,493.9219 C702.7031,493.8125 702.8594,493.7969 703.2813,493.7969 L705.9219,487.2813 L704.8438,487.2813 C704.4063,487.2813 704.2344,487.25 704.0625,487.1406 C703.8438,486.9688 703.7031,486.7188 703.7031,486.4375 C703.7031,486.1563 703.8594,485.875 704.1094,485.7031 C704.2656,485.6094 704.3906,485.5938 704.8438,485.5938 L708.5156,485.5938 L711.9063,493.7969 C712.375,493.7969 712.5313,493.8281 712.7031,493.9688 C712.9219,494.125 713.0625,494.375 713.0625,494.6563 C713.0625,494.9375 712.9063,495.2344 712.6563,495.375 C712.5156,495.4688 712.2969,495.5 711.9375,495.5 L709.5781,495.5 C709.1563,495.5 708.9531,495.4531 708.8125,495.3281 C708.5938,495.1719 708.4531,494.9219 708.4531,494.6563 C708.4531,494.3594 708.6094,494.0781 708.8594,493.9219 C709.0156,493.8125 709.125,493.7969 709.5781,493.7969 L709.9688,493.7969 Z M708.875,491.1094 L707.5469,487.8438 L706.2031,491.1094 Z "/><text fill="#000000" font-family="sans-serif" font-size="12" font-style="italic" lengthAdjust="spacingAndGlyphs" textLength="50" x="728" y="495.1543">FanCmd</text><line style="stroke: #A80036; stroke-width: 1.5;" x1="667" x2="807" y1="507" y2="507"/><rect fill="none" height="6" style="stroke: #C82930; stroke-width: 1.0;" width="6" x="674" y="515.9023"/><text fill="#000000" font-family="sans-serif" font-size="11" lengthAdjust="spacingAndGlyphs" textLength="116" x="686" y="521.2104">receiver : CeilingFan</text><line style="stroke: #A80036; stroke-width: 1.5;" x1="667" x2="807" y1="527.8047" y2="527.8047"/><ellipse cx="677" cy="539.707" fill="#84BE84" rx="3" ry="3" style="stroke: #038048; stroke-width: 1.0;"/><text fill="#000000" font-family="sans-serif" font-size="11" lengthAdjust="spacingAndGlyphs" textLength="112" x="686" y="542.0151">FanCmd(CeilingFan)</text><ellipse cx="677" cy="552.5117" fill="#84BE84" rx="3" ry="3" style="stroke: #038048; stroke-width: 1.0;"/><text fill="#000000" font-family="sans-serif" font-size="11" lengthAdjust="spacingAndGlyphs" textLength="52" x="686" y="554.8198">execute()</text><ellipse cx="677" cy="565.3164" fill="#84BE84" rx="3" ry="3" style="stroke: #038048; stroke-width: 1.0;"/><text fill="#000000" font-family="sans-serif" font-size="11" lengthAdjust="spacingAndGlyphs" textLength="36" x="686" y="567.6245">undo()</text><!--class FanHighCmd--><rect fill="#FEFECE" filter="url(#f1gg22qn2gktbx)" height="60.8047" id="FanHighCmd" style="stroke: #A80036; stroke-width: 1.5;" width="110" x="576" y="635"/><ellipse cx="591" cy="651" fill="#ADD1B2" rx="11" ry="11" style="stroke: #A80036; stroke-width: 1.0;"/><path d="M593.3438,646.6719 L593.5156,646.75 C593.7344,646.4375 593.9375,646.3438 594.2344,646.3438 C594.5313,646.3438 594.8125,646.4844 594.9688,646.75 C595.0625,646.9063 595.0781,647.0313 595.0781,647.4688 L595.0781,648.8906 C595.0781,649.3125 595.0469,649.5 594.9375,649.6563 C594.7656,649.875 594.5,650.0156 594.2344,650.0156 C594.0156,650.0156 593.7813,649.9063 593.6406,649.7656 C593.5,649.6406 593.4688,649.5156 593.4063,649.1094 C593.3125,648.7031 593.1406,648.4844 592.6563,648.2031 C592.1875,647.9531 591.5781,647.7969 591,647.7969 C589.2656,647.7969 588.0156,649.1094 588.0156,650.8906 L588.0156,651.9844 C588.0156,653.6875 589.3125,654.7813 591.3594,654.7813 C592.125,654.7813 592.8125,654.6563 593.2344,654.3906 C593.4219,654.2969 593.4219,654.2969 593.875,653.8125 C594.0625,653.625 594.2656,653.5469 594.4844,653.5469 C594.9531,653.5469 595.3438,653.9375 595.3438,654.3906 C595.3438,654.7813 595.0156,655.2344 594.4375,655.6406 C593.6875,656.1875 592.5313,656.4844 591.3125,656.4844 C588.4219,656.4844 586.3125,654.5938 586.3125,652.0156 L586.3125,650.8906 C586.3125,648.1719 588.3125,646.0938 590.9375,646.0938 C591.8125,646.0938 592.4063,646.2344 593.3438,646.6719 Z "/><text fill="#000000" font-family="sans-serif" font-size="12" lengthAdjust="spacingAndGlyphs" textLength="78" x="605" y="655.1543">FanHighCmd</text><line style="stroke: #A80036; stroke-width: 1.5;" x1="577" x2="685" y1="667" y2="667"/><line style="stroke: #A80036; stroke-width: 1.5;" x1="577" x2="685" y1="675" y2="675"/><ellipse cx="587" cy="686.9023" fill="#84BE84" rx="3" ry="3" style="stroke: #038048; stroke-width: 1.0;"/><text fill="#000000" font-family="sans-serif" font-size="11" lengthAdjust="spacingAndGlyphs" textLength="52" x="596" y="689.2104">execute()</text><!--class FanLowCmd--><rect fill="#FEFECE" filter="url(#f1gg22qn2gktbx)" height="60.8047" id="FanLowCmd" style="stroke: #A80036; stroke-width: 1.5;" width="105" x="721.5" y="635"/><ellipse cx="736.5" cy="651" fill="#ADD1B2" rx="11" ry="11" style="stroke: #A80036; stroke-width: 1.0;"/><path d="M738.8438,646.6719 L739.0156,646.75 C739.2344,646.4375 739.4375,646.3438 739.7344,646.3438 C740.0313,646.3438 740.3125,646.4844 740.4688,646.75 C740.5625,646.9063 740.5781,647.0313 740.5781,647.4688 L740.5781,648.8906 C740.5781,649.3125 740.5469,649.5 740.4375,649.6563 C740.2656,649.875 740,650.0156 739.7344,650.0156 C739.5156,650.0156 739.2813,649.9063 739.1406,649.7656 C739,649.6406 738.9688,649.5156 738.9063,649.1094 C738.8125,648.7031 738.6406,648.4844 738.1563,648.2031 C737.6875,647.9531 737.0781,647.7969 736.5,647.7969 C734.7656,647.7969 733.5156,649.1094 733.5156,650.8906 L733.5156,651.9844 C733.5156,653.6875 734.8125,654.7813 736.8594,654.7813 C737.625,654.7813 738.3125,654.6563 738.7344,654.3906 C738.9219,654.2969 738.9219,654.2969 739.375,653.8125 C739.5625,653.625 739.7656,653.5469 739.9844,653.5469 C740.4531,653.5469 740.8438,653.9375 740.8438,654.3906 C740.8438,654.7813 740.5156,655.2344 739.9375,655.6406 C739.1875,656.1875 738.0313,656.4844 736.8125,656.4844 C733.9219,656.4844 731.8125,654.5938 731.8125,652.0156 L731.8125,650.8906 C731.8125,648.1719 733.8125,646.0938 736.4375,646.0938 C737.3125,646.0938 737.9063,646.2344 738.8438,646.6719 Z "/><text fill="#000000" font-family="sans-serif" font-size="12" lengthAdjust="spacingAndGlyphs" textLength="73" x="750.5" y="655.1543">FanLowCmd</text><line style="stroke: #A80036; stroke-width: 1.5;" x1="722.5" x2="825.5" y1="667" y2="667"/><line style="stroke: #A80036; stroke-width: 1.5;" x1="722.5" x2="825.5" y1="675" y2="675"/><ellipse cx="732.5" cy="686.9023" fill="#84BE84" rx="3" ry="3" style="stroke: #038048; stroke-width: 1.0;"/><text fill="#000000" font-family="sans-serif" font-size="11" lengthAdjust="spacingAndGlyphs" textLength="52" x="741.5" y="689.2104">execute()</text><!--class FanOffCmd--><rect fill="#FEFECE" filter="url(#f1gg22qn2gktbx)" height="60.8047" id="FanOffCmd" style="stroke: #A80036; stroke-width: 1.5;" width="99" x="861.5" y="635"/><ellipse cx="876.5" cy="651" fill="#ADD1B2" rx="11" ry="11" style="stroke: #A80036; stroke-width: 1.0;"/><path d="M878.8438,646.6719 L879.0156,646.75 C879.2344,646.4375 879.4375,646.3438 879.7344,646.3438 C880.0313,646.3438 880.3125,646.4844 880.4688,646.75 C880.5625,646.9063 880.5781,647.0313 880.5781,647.4688 L880.5781,648.8906 C880.5781,649.3125 880.5469,649.5 880.4375,649.6563 C880.2656,649.875 880,650.0156 879.7344,650.0156 C879.5156,650.0156 879.2813,649.9063 879.1406,649.7656 C879,649.6406 878.9688,649.5156 878.9063,649.1094 C878.8125,648.7031 878.6406,648.4844 878.1563,648.2031 C877.6875,647.9531 877.0781,647.7969 876.5,647.7969 C874.7656,647.7969 873.5156,649.1094 873.5156,650.8906 L873.5156,651.9844 C873.5156,653.6875 874.8125,654.7813 876.8594,654.7813 C877.625,654.7813 878.3125,654.6563 878.7344,654.3906 C878.9219,654.2969 878.9219,654.2969 879.375,653.8125 C879.5625,653.625 879.7656,653.5469 879.9844,653.5469 C880.4531,653.5469 880.8438,653.9375 880.8438,654.3906 C880.8438,654.7813 880.5156,655.2344 879.9375,655.6406 C879.1875,656.1875 878.0313,656.4844 876.8125,656.4844 C873.9219,656.4844 871.8125,654.5938 871.8125,652.0156 L871.8125,650.8906 C871.8125,648.1719 873.8125,646.0938 876.4375,646.0938 C877.3125,646.0938 877.9063,646.2344 878.8438,646.6719 Z "/><text fill="#000000" font-family="sans-serif" font-size="12" lengthAdjust="spacingAndGlyphs" textLength="67" x="890.5" y="655.1543">FanOffCmd</text><line style="stroke: #A80036; stroke-width: 1.5;" x1="862.5" x2="959.5" y1="667" y2="667"/><line style="stroke: #A80036; stroke-width: 1.5;" x1="862.5" x2="959.5" y1="675" y2="675"/><ellipse cx="872.5" cy="686.9023" fill="#84BE84" rx="3" ry="3" style="stroke: #038048; stroke-width: 1.0;"/><text fill="#000000" font-family="sans-serif" font-size="11" lengthAdjust="spacingAndGlyphs" textLength="52" x="881.5" y="689.2104">execute()</text><polygon fill="#FEFECE" filter="url(#f1gg22qn2gktbx)" points="388,327,400,339,388,351,376,339,388,327" style="stroke: #A80036; stroke-width: 1.5;"/><!--link Client to Command--><path d="M388,56.11 C388,71.631 388,92.639 388,111.625 " fill="none" id="Client-Command" style="stroke: #A80036; stroke-width: 1.0;"/><polygon fill="#A80036" points="388,116.921,392,107.921,388,111.921,384,107.921,388,116.921" style="stroke: #A80036; stroke-width: 1.0;"/><!--link Client to Invoker--><path d="M354.375,48.576 C305.395,71.266 214.365,113.434 160.075,138.583 " fill="none" id="Client-Invoker" style="stroke: #A80036; stroke-width: 1.0;"/><polygon fill="#A80036" points="155.262,140.812,165.1097,140.6591,159.799,138.7106,161.7475,133.4,155.262,140.812" style="stroke: #A80036; stroke-width: 1.0;"/><!--link Client to Receiver--><path d="M421.581,49.993 C464.919,71.923 540.574,110.206 589.713,135.071 " fill="none" id="Client-Receiver" style="stroke: #A80036; stroke-width: 1.0;"/><polygon fill="#A80036" points="594.383,137.435,588.158,129.8029,589.9215,135.1778,584.5465,136.9413,594.383,137.435" style="stroke: #A80036; stroke-width: 1.0;"/><!--link Invoker to Command--><path d="M155.261,160 C197.362,160 265.108,160 316.68,160 " fill="none" id="Invoker-Command" style="stroke: #A80036; stroke-width: 1.0;"/><polygon fill="#A80036" points="321.934,160,312.934,156,316.934,160,312.934,164,321.934,160" style="stroke: #A80036; stroke-width: 1.0;"/><text fill="#000000" font-family="sans-serif" font-size="13" lengthAdjust="spacingAndGlyphs" textLength="130" x="173.5" y="153.0669">command.execute()</text><!--link Command to Receiver--><path d="M454.074,160 C496.543,160 550.742,160 589.089,160 " fill="none" id="Command-Receiver" style="stroke: #A80036; stroke-width: 1.0;"/><polygon fill="#A80036" points="594.156,160,585.156,156,589.156,160,585.156,164,594.156,160" style="stroke: #A80036; stroke-width: 1.0;"/><text fill="#000000" font-family="sans-serif" font-size="13" lengthAdjust="spacingAndGlyphs" textLength="104" x="472.25" y="153.0669">receiver.action()</text><!--link Invoker to RemoteControl--><path d="M116,204.376 C116,222.306 116,243.609 116,263.878 " fill="none" id="Invoker-RemoteControl" style="stroke: #A80036; stroke-width: 1.0; stroke-dasharray: 7.0,7.0;"/><polygon fill="none" points="109,204.14,116,184.14,123,204.14,109,204.14" style="stroke: #A80036; stroke-width: 1.0;"/><!--link Receiver to Light--><path d="M608.825,200.621 C595.398,219.676 579.205,242.911 565,264 C556.788,276.193 547.984,289.647 540.189,301.703 " fill="none" id="Receiver-Light" style="stroke: #A80036; stroke-width: 1.0; stroke-dasharray: 7.0,7.0;"/><polygon fill="none" points="603.205,196.445,620.469,184.158,614.635,204.529,603.205,196.445" style="stroke: #A80036; stroke-width: 1.0;"/><!--link Receiver to GarageDoor--><path d="M637,204.438 C637,234.396 637,273.751 637,301.968 " fill="none" id="Receiver-GarageDoor" style="stroke: #A80036; stroke-width: 1.0; stroke-dasharray: 7.0,7.0;"/><polygon fill="none" points="630,204.14,637,184.14,644,204.14,630,204.14" style="stroke: #A80036; stroke-width: 1.0;"/><!--link Receiver to CeilingFan--><path d="M667.454,200.346 C689.396,228.694 718.965,266.897 741.386,295.864 " fill="none" id="Receiver-CeilingFan" style="stroke: #A80036; stroke-width: 1.0; stroke-dasharray: 7.0,7.0;"/><polygon fill="none" points="661.616,204.24,654.91,184.14,672.688,195.671,661.616,204.24" style="stroke: #A80036; stroke-width: 1.0;"/><!--link Command to PLACEHOLDER1--><path d="M388,223.491 C388,261.307 388,306.076 388,326.64 " fill="none" id="Command-PLACEHOLDER1" style="stroke: #A80036; stroke-width: 1.0; stroke-dasharray: 7.0,7.0;"/><polygon fill="none" points="381,223.396,388,203.396,395,223.396,381,223.396" style="stroke: #A80036; stroke-width: 1.0;"/><!--link PLACEHOLDER1 to LightCmd--><path d="M384.348,347.885 C374.37,369.425 346.034,430.596 325.611,474.687 " fill="none" id="PLACEHOLDER1-LightCmd" style="stroke: #A80036; stroke-width: 1.0; stroke-dasharray: 7.0,7.0;"/><!--link LightCmd to LightOnCmd--><path d="M238.946,588.645 C222.645,604.715 205.881,621.242 192.178,634.75 " fill="none" id="LightCmd-LightOnCmd" style="stroke: #A80036; stroke-width: 1.0;"/><polygon fill="none" points="234.528,583.171,253.685,574.115,244.357,593.141,234.528,583.171" style="stroke: #A80036; stroke-width: 1.0;"/><!--link LightCmd to LightOffCmd--><path d="M303,594.563 C303,608.717 303,622.896 303,634.75 " fill="none" id="LightCmd-LightOffCmd" style="stroke: #A80036; stroke-width: 1.0;"/><polygon fill="none" points="296,594.115,303,574.115,310,594.115,296,594.115" style="stroke: #A80036; stroke-width: 1.0;"/><!--link PLACEHOLDER1 to FanCmd--><path d="M393.226,346.159 C405.203,359.949 436.072,393.692 468,414 C530.435,453.713 609.684,483.878 665.954,502.392 " fill="none" id="PLACEHOLDER1-FanCmd" style="stroke: #A80036; stroke-width: 1.0; stroke-dasharray: 7.0,7.0;"/><!--link FanCmd to FanHighCmd--><path d="M687.72,590.122 C675.822,605.724 663.673,621.655 653.687,634.75 " fill="none" id="FanCmd-FanHighCmd" style="stroke: #A80036; stroke-width: 1.0;"/><polygon fill="none" points="682.232,585.774,699.926,574.115,693.365,594.264,682.232,585.774" style="stroke: #A80036; stroke-width: 1.0;"/><!--link FanCmd to FanLowCmd--><path d="M755.121,593.575 C758.975,608.056 762.852,622.62 766.081,634.75 " fill="none" id="FanCmd-FanLowCmd" style="stroke: #A80036; stroke-width: 1.0;"/><polygon fill="none" points="748.321,595.243,749.941,574.115,761.85,591.642,748.321,595.243" style="stroke: #A80036; stroke-width: 1.0;"/><!--link FanCmd to FanOffCmd--><path d="M813.647,586.73 C834.611,603.476 856.388,620.873 874.016,634.955 " fill="none" id="FanCmd-FanOffCmd" style="stroke: #A80036; stroke-width: 1.0;"/><polygon fill="none" points="809.114,592.068,797.857,574.115,817.852,581.129,809.114,592.068" style="stroke: #A80036; stroke-width: 1.0;"/><!--link PLACEHOLDER1 to DoorCmd--><path d="M391.652,347.885 C401.63,369.425 429.966,430.596 450.389,474.687 " fill="none" id="PLACEHOLDER1-DoorCmd" style="stroke: #A80036; stroke-width: 1.0; stroke-dasharray: 7.0,7.0;"/><!--link DoorCmd to DoorOpenCmd--><path d="M450.571,593.568 C433.153,646.43 409.843,717.173 396.835,756.6509 " fill="none" id="DoorCmd-DoorOpenCmd" style="stroke: #A80036; stroke-width: 1.0;"/><polygon fill="none" points="444.017,591.091,456.925,574.286,457.314,595.472,444.017,591.091" style="stroke: #A80036; stroke-width: 1.0;"/><!--link DoorCmd to DoorCloseCmd--><path d="M491.777,593.568 C506.36,646.43 525.875,717.173 536.766,756.6509 " fill="none" id="DoorCmd-DoorCloseCmd" style="stroke: #A80036; stroke-width: 1.0;"/><polygon fill="none" points="485.029,595.427,486.458,574.286,498.525,591.704,485.029,595.427" style="stroke: #A80036; stroke-width: 1.0;"/><!--link PLACEHOLDER1 to NullCommand--><path d="M381.688,344.908 C355.995,364.885 257.839,441.205 198.473,487.365 " fill="none" id="PLACEHOLDER1-NullCommand" style="stroke: #A80036; stroke-width: 1.0; stroke-dasharray: 7.0,7.0;"/><!--
@startuml
Interface Command{
  + execute()
  + undo()
  - receiver : Receiver
}

Interface Receiver{
}

Interface Invoker{

}

Interface Client{

}

Class RemoteControl{
  - onSlots : Command[]
  - offSlots : Command[]
  - lastCommand : Command
  + pressOnBtn(int i)
  + pressOffBtn(int i)
  + setSlot(int, Command, Command)
  + clearSlot(int i)
  + undoLast()
}

Class Light{
  + on()
  + off()
}

Class GarageDoor{
  + open()
  + close()
}

Class CeilingFan{
  + high()
  + low()
  + off()
}

Class NullCommand{
  +execute()
  +undo()
}

Abstract LightCmd{
  + LightCmd(Light)
  + execute()
  + undo()
  - receiver : Light
}

Class LightOnCmd{
  + execute()
}

Class LightOffCmd{
  + execute()
}

Abstract DoorCmd{
  + DoorCmd(GarageDoor)
  + execute()
  + undo()
  - receiver : GarageDoor
}

Class DoorOpenCmd{
  + execute()
}

Class DoorCloseCmd{
  + execute()
}

Abstract FanCmd{
  + FanCmd(CeilingFan)
  + execute()
  + undo()
  - receiver : CeilingFan
}

Class FanHighCmd{
  + execute()
}

Class FanLowCmd{
  + execute()
}

Class FanOffCmd{
  + execute()
}




Client - -> Command
Client - -> Invoker
Client - -> Receiver

Invoker -> Command : command.execute()
Command -> Receiver : receiver.action()

Invoker <|.. RemoteControl

Receiver <|.. Light
Receiver <|.. GarageDoor
Receiver <|.. CeilingFan

<> PLACEHOLDER1

Command <|.. PLACEHOLDER1

PLACEHOLDER1 .. LightCmd
LightCmd <|- - LightOnCmd
LightCmd <|- - LightOffCmd

PLACEHOLDER1 .. FanCmd
FanCmd <|- - FanHighCmd
FanCmd <|- - FanLowCmd
FanCmd <|- - FanOffCmd

PLACEHOLDER1 .. DoorCmd
DoorCmd <|- - - DoorOpenCmd
DoorCmd <|- - - DoorCloseCmd

PLACEHOLDER1 .. NullCommand
@enduml

PlantUML version 1.2018.02beta13(Unknown compile time)
(GPL source distribution)
Java Runtime: Java(TM) SE Runtime Environment
JVM: Java HotSpot(TM) 64-Bit Server VM
Java Version: 1.7.0_25-b15
Operating System: Linux
Default Encoding: UTF-8
Language: en
Country: US
--></g></svg>