<?xml version="1.0" encoding="UTF-8" standalone="no"?><svg xmlns="http://www.w3.org/2000/svg" xmlns:xlink="http://www.w3.org/1999/xlink" contentScriptType="application/ecmascript" contentStyleType="text/css" height="327px" preserveAspectRatio="none" style="width:589px;height:327px;" version="1.1" viewBox="0 0 589 327" width="589px" zoomAndPan="magnify"><defs><filter height="300%" id="f4u3mqvc5v7f6" width="300%" x="-1" y="-1"><feGaussianBlur result="blurOut" stdDeviation="2.0"/><feColorMatrix in="blurOut" result="blurOut2" type="matrix" values="0 0 0 0 0 0 0 0 0 0 0 0 0 0 0 0 0 0 .4 0"/><feOffset dx="4.0" dy="4.0" in="blurOut2" result="blurOut3"/><feBlend in="SourceGraphic" in2="blurOut3" mode="normal"/></filter></defs><g><!--cluster In Strategy Pattern Example--><polygon fill="#EDEDED" filter="url(#f4u3mqvc5v7f6)" points="89.25,24,314.25,24,321.25,46.2969,325.25,46.2969,325.25,315,89.25,315,89.25,24" style="stroke: #000000; stroke-width: 1.5;"/><line style="stroke: #000000; stroke-width: 1.5;" x1="89.25" x2="321.25" y1="46.2969" y2="46.2969"/><text fill="#000000" font-family="sans-serif" font-size="14" font-weight="bold" lengthAdjust="spacingAndGlyphs" textLength="219" x="93.25" y="38.9951">In Strategy Pattern Example</text><!--class Duck--><rect fill="#FEFECE" filter="url(#f4u3mqvc5v7f6)" height="86.4141" id="Duck" style="stroke: #A80036; stroke-width: 1.5;" width="74" x="170.25" y="60"/><ellipse cx="190.2" cy="76" fill="#B4A7E5" rx="11" ry="11" style="stroke: #A80036; stroke-width: 1.0;"/><path d="M191.1531,72.7813 L191.1531,79.2969 L192.8719,79.2969 C193.325,79.2969 193.4656,79.3281 193.6375,79.4531 C193.8719,79.625 193.9813,79.875 193.9813,80.1563 C193.9813,80.7188 193.6219,81 192.8719,81 L187.7313,81 C187.325,81 187.1219,80.9531 186.9656,80.8281 C186.7469,80.6719 186.6063,80.4063 186.6063,80.1563 C186.6063,79.8594 186.7625,79.5781 187.0125,79.4219 C187.1688,79.3125 187.2938,79.2969 187.7313,79.2969 L189.45,79.2969 L189.45,72.7813 L187.7313,72.7813 C187.3094,72.7813 187.1219,72.75 186.9656,72.6406 C186.7469,72.4688 186.6063,72.2188 186.6063,71.9375 C186.6063,71.6563 186.7625,71.3594 187.0125,71.2031 C187.1688,71.1094 187.2938,71.0938 187.7313,71.0938 L192.8719,71.0938 C193.325,71.0938 193.4656,71.125 193.6375,71.2344 C193.8719,71.4063 193.9813,71.6719 193.9813,71.9375 C193.9813,72.2344 193.8406,72.5156 193.575,72.6719 C193.45,72.75 193.2625,72.7813 192.8719,72.7813 Z "/><text fill="#000000" font-family="sans-serif" font-size="12" font-style="italic" lengthAdjust="spacingAndGlyphs" textLength="31" x="205.3" y="80.1543">Duck</text><line style="stroke: #A80036; stroke-width: 1.5;" x1="171.25" x2="243.25" y1="92" y2="92"/><line style="stroke: #A80036; stroke-width: 1.5;" x1="171.25" x2="243.25" y1="100" y2="100"/><ellipse cx="181.25" cy="111.9023" fill="#84BE84" rx="3" ry="3" style="stroke: #038048; stroke-width: 1.0;"/><text fill="#000000" font-family="sans-serif" font-size="11" lengthAdjust="spacingAndGlyphs" textLength="48" x="190.25" y="114.2104">display()</text><ellipse cx="181.25" cy="124.707" fill="#84BE84" rx="3" ry="3" style="stroke: #038048; stroke-width: 1.0;"/><text fill="#000000" font-family="sans-serif" font-size="11" lengthAdjust="spacingAndGlyphs" textLength="41" x="190.25" y="127.0151">quack()</text><ellipse cx="181.25" cy="137.5117" fill="#84BE84" rx="3" ry="3" style="stroke: #038048; stroke-width: 1.0;"/><text fill="#000000" font-family="sans-serif" font-size="11" lengthAdjust="spacingAndGlyphs" textLength="21" x="190.25" y="139.8198">fly()</text><!--class MallardDuck--><rect fill="#FEFECE" filter="url(#f4u3mqvc5v7f6)" height="86.4141" id="MallardDuck" style="stroke: #A80036; stroke-width: 1.5;" width="108" x="153.25" y="213"/><ellipse cx="168.25" cy="229" fill="#ADD1B2" rx="11" ry="11" style="stroke: #A80036; stroke-width: 1.0;"/><path d="M170.5938,224.6719 L170.7656,224.75 C170.9844,224.4375 171.1875,224.3438 171.4844,224.3438 C171.7813,224.3438 172.0625,224.4844 172.2188,224.75 C172.3125,224.9063 172.3281,225.0313 172.3281,225.4688 L172.3281,226.8906 C172.3281,227.3125 172.2969,227.5 172.1875,227.6563 C172.0156,227.875 171.75,228.0156 171.4844,228.0156 C171.2656,228.0156 171.0313,227.9063 170.8906,227.7656 C170.75,227.6406 170.7188,227.5156 170.6563,227.1094 C170.5625,226.7031 170.3906,226.4844 169.9063,226.2031 C169.4375,225.9531 168.8281,225.7969 168.25,225.7969 C166.5156,225.7969 165.2656,227.1094 165.2656,228.8906 L165.2656,229.9844 C165.2656,231.6875 166.5625,232.7813 168.6094,232.7813 C169.375,232.7813 170.0625,232.6563 170.4844,232.3906 C170.6719,232.2969 170.6719,232.2969 171.125,231.8125 C171.3125,231.625 171.5156,231.5469 171.7344,231.5469 C172.2031,231.5469 172.5938,231.9375 172.5938,232.3906 C172.5938,232.7813 172.2656,233.2344 171.6875,233.6406 C170.9375,234.1875 169.7813,234.4844 168.5625,234.4844 C165.6719,234.4844 163.5625,232.5938 163.5625,230.0156 L163.5625,228.8906 C163.5625,226.1719 165.5625,224.0938 168.1875,224.0938 C169.0625,224.0938 169.6563,224.2344 170.5938,224.6719 Z "/><text fill="#000000" font-family="sans-serif" font-size="12" lengthAdjust="spacingAndGlyphs" textLength="76" x="182.25" y="233.1543">MallardDuck</text><line style="stroke: #A80036; stroke-width: 1.5;" x1="154.25" x2="260.25" y1="245" y2="245"/><line style="stroke: #A80036; stroke-width: 1.5;" x1="154.25" x2="260.25" y1="253" y2="253"/><ellipse cx="164.25" cy="264.9023" fill="#84BE84" rx="3" ry="3" style="stroke: #038048; stroke-width: 1.0;"/><text fill="#000000" font-family="sans-serif" font-size="11" lengthAdjust="spacingAndGlyphs" textLength="48" x="173.25" y="267.2104">display()</text><ellipse cx="164.25" cy="277.707" fill="#84BE84" rx="3" ry="3" style="stroke: #038048; stroke-width: 1.0;"/><text fill="#000000" font-family="sans-serif" font-size="11" lengthAdjust="spacingAndGlyphs" textLength="41" x="173.25" y="280.0151">quack()</text><ellipse cx="164.25" cy="290.5117" fill="#84BE84" rx="3" ry="3" style="stroke: #038048; stroke-width: 1.0;"/><text fill="#000000" font-family="sans-serif" font-size="11" lengthAdjust="spacingAndGlyphs" textLength="21" x="173.25" y="292.8198">fly()</text><!--class Client--><rect fill="#FEFECE" filter="url(#f4u3mqvc5v7f6)" height="48" id="Client" style="stroke: #A80036; stroke-width: 1.5;" width="67" x="6" y="79"/><ellipse cx="21" cy="95" fill="#ADD1B2" rx="11" ry="11" style="stroke: #A80036; stroke-width: 1.0;"/><path d="M23.3438,90.6719 L23.5156,90.75 C23.7344,90.4375 23.9375,90.3438 24.2344,90.3438 C24.5313,90.3438 24.8125,90.4844 24.9688,90.75 C25.0625,90.9063 25.0781,91.0313 25.0781,91.4688 L25.0781,92.8906 C25.0781,93.3125 25.0469,93.5 24.9375,93.6563 C24.7656,93.875 24.5,94.0156 24.2344,94.0156 C24.0156,94.0156 23.7813,93.9063 23.6406,93.7656 C23.5,93.6406 23.4688,93.5156 23.4063,93.1094 C23.3125,92.7031 23.1406,92.4844 22.6563,92.2031 C22.1875,91.9531 21.5781,91.7969 21,91.7969 C19.2656,91.7969 18.0156,93.1094 18.0156,94.8906 L18.0156,95.9844 C18.0156,97.6875 19.3125,98.7813 21.3594,98.7813 C22.125,98.7813 22.8125,98.6563 23.2344,98.3906 C23.4219,98.2969 23.4219,98.2969 23.875,97.8125 C24.0625,97.625 24.2656,97.5469 24.4844,97.5469 C24.9531,97.5469 25.3438,97.9375 25.3438,98.3906 C25.3438,98.7813 25.0156,99.2344 24.4375,99.6406 C23.6875,100.1875 22.5313,100.4844 21.3125,100.4844 C18.4219,100.4844 16.3125,98.5938 16.3125,96.0156 L16.3125,94.8906 C16.3125,92.1719 18.3125,90.0938 20.9375,90.0938 C21.8125,90.0938 22.4063,90.2344 23.3438,90.6719 Z "/><text fill="#000000" font-family="sans-serif" font-size="12" lengthAdjust="spacingAndGlyphs" textLength="35" x="35" y="99.1543">Client</text><line style="stroke: #A80036; stroke-width: 1.5;" x1="7" x2="72" y1="111" y2="111"/><line style="stroke: #A80036; stroke-width: 1.5;" x1="7" x2="72" y1="119" y2="119"/><!--class Turkey--><rect fill="#FEFECE" filter="url(#f4u3mqvc5v7f6)" height="73.6094" id="Turkey" style="stroke: #A80036; stroke-width: 1.5;" width="79" x="490" y="66"/><ellipse cx="507.25" cy="82" fill="#B4A7E5" rx="11" ry="11" style="stroke: #A80036; stroke-width: 1.0;"/><path d="M508.2031,78.7813 L508.2031,85.2969 L509.9219,85.2969 C510.375,85.2969 510.5156,85.3281 510.6875,85.4531 C510.9219,85.625 511.0313,85.875 511.0313,86.1563 C511.0313,86.7188 510.6719,87 509.9219,87 L504.7813,87 C504.375,87 504.1719,86.9531 504.0156,86.8281 C503.7969,86.6719 503.6563,86.4063 503.6563,86.1563 C503.6563,85.8594 503.8125,85.5781 504.0625,85.4219 C504.2188,85.3125 504.3438,85.2969 504.7813,85.2969 L506.5,85.2969 L506.5,78.7813 L504.7813,78.7813 C504.3594,78.7813 504.1719,78.75 504.0156,78.6406 C503.7969,78.4688 503.6563,78.2188 503.6563,77.9375 C503.6563,77.6563 503.8125,77.3594 504.0625,77.2031 C504.2188,77.1094 504.3438,77.0938 504.7813,77.0938 L509.9219,77.0938 C510.375,77.0938 510.5156,77.125 510.6875,77.2344 C510.9219,77.4063 511.0313,77.6719 511.0313,77.9375 C511.0313,78.2344 510.8906,78.5156 510.625,78.6719 C510.5,78.75 510.3125,78.7813 509.9219,78.7813 Z "/><text fill="#000000" font-family="sans-serif" font-size="12" font-style="italic" lengthAdjust="spacingAndGlyphs" textLength="42" x="521.75" y="86.1543">Turkey</text><line style="stroke: #A80036; stroke-width: 1.5;" x1="491" x2="568" y1="98" y2="98"/><line style="stroke: #A80036; stroke-width: 1.5;" x1="491" x2="568" y1="106" y2="106"/><ellipse cx="501" cy="117.9023" fill="#84BE84" rx="3" ry="3" style="stroke: #038048; stroke-width: 1.0;"/><text fill="#000000" font-family="sans-serif" font-size="11" lengthAdjust="spacingAndGlyphs" textLength="46" x="510" y="120.2104">gobble()</text><ellipse cx="501" cy="130.707" fill="#84BE84" rx="3" ry="3" style="stroke: #038048; stroke-width: 1.0;"/><text fill="#000000" font-family="sans-serif" font-size="11" lengthAdjust="spacingAndGlyphs" textLength="53" x="510" y="133.0151">shortFly()</text><!--class WildTurkey--><rect fill="#FEFECE" filter="url(#f4u3mqvc5v7f6)" height="73.6094" id="WildTurkey" style="stroke: #A80036; stroke-width: 1.5;" width="98" x="480.25" y="219"/><ellipse cx="495.25" cy="235" fill="#ADD1B2" rx="11" ry="11" style="stroke: #A80036; stroke-width: 1.0;"/><path d="M497.5938,230.6719 L497.7656,230.75 C497.9844,230.4375 498.1875,230.3438 498.4844,230.3438 C498.7813,230.3438 499.0625,230.4844 499.2188,230.75 C499.3125,230.9063 499.3281,231.0313 499.3281,231.4688 L499.3281,232.8906 C499.3281,233.3125 499.2969,233.5 499.1875,233.6563 C499.0156,233.875 498.75,234.0156 498.4844,234.0156 C498.2656,234.0156 498.0313,233.9063 497.8906,233.7656 C497.75,233.6406 497.7188,233.5156 497.6563,233.1094 C497.5625,232.7031 497.3906,232.4844 496.9063,232.2031 C496.4375,231.9531 495.8281,231.7969 495.25,231.7969 C493.5156,231.7969 492.2656,233.1094 492.2656,234.8906 L492.2656,235.9844 C492.2656,237.6875 493.5625,238.7813 495.6094,238.7813 C496.375,238.7813 497.0625,238.6563 497.4844,238.3906 C497.6719,238.2969 497.6719,238.2969 498.125,237.8125 C498.3125,237.625 498.5156,237.5469 498.7344,237.5469 C499.2031,237.5469 499.5938,237.9375 499.5938,238.3906 C499.5938,238.7813 499.2656,239.2344 498.6875,239.6406 C497.9375,240.1875 496.7813,240.4844 495.5625,240.4844 C492.6719,240.4844 490.5625,238.5938 490.5625,236.0156 L490.5625,234.8906 C490.5625,232.1719 492.5625,230.0938 495.1875,230.0938 C496.0625,230.0938 496.6563,230.2344 497.5938,230.6719 Z "/><text fill="#000000" font-family="sans-serif" font-size="12" lengthAdjust="spacingAndGlyphs" textLength="66" x="509.25" y="239.1543">WildTurkey</text><line style="stroke: #A80036; stroke-width: 1.5;" x1="481.25" x2="577.25" y1="251" y2="251"/><line style="stroke: #A80036; stroke-width: 1.5;" x1="481.25" x2="577.25" y1="259" y2="259"/><ellipse cx="491.25" cy="270.9023" fill="#84BE84" rx="3" ry="3" style="stroke: #038048; stroke-width: 1.0;"/><text fill="#000000" font-family="sans-serif" font-size="11" lengthAdjust="spacingAndGlyphs" textLength="46" x="500.25" y="273.2104">gobble()</text><ellipse cx="491.25" cy="283.707" fill="#84BE84" rx="3" ry="3" style="stroke: #038048; stroke-width: 1.0;"/><text fill="#000000" font-family="sans-serif" font-size="11" lengthAdjust="spacingAndGlyphs" textLength="53" x="500.25" y="286.0151">shortFly()</text><!--class DuckAdapter--><rect fill="#FEFECE" filter="url(#f4u3mqvc5v7f6)" height="99.2188" id="DuckAdapter" style="stroke: #A80036; stroke-width: 1.5;" width="113" x="342" y="53.5"/><ellipse cx="357" cy="69.5" fill="#ADD1B2" rx="11" ry="11" style="stroke: #A80036; stroke-width: 1.0;"/><path d="M359.3438,65.1719 L359.5156,65.25 C359.7344,64.9375 359.9375,64.8438 360.2344,64.8438 C360.5313,64.8438 360.8125,64.9844 360.9688,65.25 C361.0625,65.4063 361.0781,65.5313 361.0781,65.9688 L361.0781,67.3906 C361.0781,67.8125 361.0469,68 360.9375,68.1563 C360.7656,68.375 360.5,68.5156 360.2344,68.5156 C360.0156,68.5156 359.7813,68.4063 359.6406,68.2656 C359.5,68.1406 359.4688,68.0156 359.4063,67.6094 C359.3125,67.2031 359.1406,66.9844 358.6563,66.7031 C358.1875,66.4531 357.5781,66.2969 357,66.2969 C355.2656,66.2969 354.0156,67.6094 354.0156,69.3906 L354.0156,70.4844 C354.0156,72.1875 355.3125,73.2813 357.3594,73.2813 C358.125,73.2813 358.8125,73.1563 359.2344,72.8906 C359.4219,72.7969 359.4219,72.7969 359.875,72.3125 C360.0625,72.125 360.2656,72.0469 360.4844,72.0469 C360.9531,72.0469 361.3438,72.4375 361.3438,72.8906 C361.3438,73.2813 361.0156,73.7344 360.4375,74.1406 C359.6875,74.6875 358.5313,74.9844 357.3125,74.9844 C354.4219,74.9844 352.3125,73.0938 352.3125,70.5156 L352.3125,69.3906 C352.3125,66.6719 354.3125,64.5938 356.9375,64.5938 C357.8125,64.5938 358.4063,64.7344 359.3438,65.1719 Z "/><text fill="#000000" font-family="sans-serif" font-size="12" lengthAdjust="spacingAndGlyphs" textLength="81" x="371" y="73.6543">DuckAdapter</text><line style="stroke: #A80036; stroke-width: 1.5;" x1="343" x2="454" y1="85.5" y2="85.5"/><rect fill="none" height="6" style="stroke: #C82930; stroke-width: 1.0;" width="6" x="350" y="94.4023"/><text fill="#000000" font-family="sans-serif" font-size="11" lengthAdjust="spacingAndGlyphs" textLength="85" x="362" y="99.7104">turkey : Turkey</text><line style="stroke: #A80036; stroke-width: 1.5;" x1="343" x2="454" y1="106.3047" y2="106.3047"/><ellipse cx="353" cy="118.207" fill="#84BE84" rx="3" ry="3" style="stroke: #038048; stroke-width: 1.0;"/><text fill="#000000" font-family="sans-serif" font-size="11" lengthAdjust="spacingAndGlyphs" textLength="48" x="362" y="120.5151">display()</text><ellipse cx="353" cy="131.0117" fill="#84BE84" rx="3" ry="3" style="stroke: #038048; stroke-width: 1.0;"/><text fill="#000000" font-family="sans-serif" font-size="11" lengthAdjust="spacingAndGlyphs" textLength="41" x="362" y="133.3198">quack()</text><ellipse cx="353" cy="143.8164" fill="#84BE84" rx="3" ry="3" style="stroke: #038048; stroke-width: 1.0;"/><text fill="#000000" font-family="sans-serif" font-size="11" lengthAdjust="spacingAndGlyphs" textLength="21" x="362" y="146.1245">fly()</text><!--link Client to Duck--><path d="M72.7188,103 C105.213,103 137.707,103 170.201,103 " fill="none" id="Client-Duck" style="stroke: #A80036; stroke-width: 1.0;"/><!--link Duck to MallardDuck--><path d="M207.25,166.073 C207.25,181.832 207.25,198.397 207.25,212.902 " fill="none" id="Duck-MallardDuck" style="stroke: #A80036; stroke-width: 1.0; stroke-dasharray: 7.0,7.0;"/><polygon fill="none" points="200.25,166.062,207.25,146.062,214.25,166.062,200.25,166.062" style="stroke: #A80036; stroke-width: 1.0;"/><!--link Turkey to WildTurkey--><path d="M529.25,160.411 C529.25,179.979 529.25,201.378 529.25,218.865 " fill="none" id="Turkey-WildTurkey" style="stroke: #A80036; stroke-width: 1.0; stroke-dasharray: 7.0,7.0;"/><polygon fill="none" points="522.25,160.168,529.25,140.168,536.25,160.168,522.25,160.168" style="stroke: #A80036; stroke-width: 1.0;"/><!--link Duck to DuckAdapter--><path d="M264.691,103 C290.399,103 316.107,103 341.815,103 " fill="none" id="Duck-DuckAdapter" style="stroke: #A80036; stroke-width: 1.0; stroke-dasharray: 7.0,7.0;"/><polygon fill="none" points="264.555,110,244.555,103,264.555,96,264.555,110" style="stroke: #A80036; stroke-width: 1.0;"/><!--link DuckAdapter to Turkey--><path d="M454.539,103 C464.563,103 474.586,103 484.61,103 " fill="none" id="DuckAdapter-Turkey" style="stroke: #A80036; stroke-width: 1.0;"/><polygon fill="#A80036" points="489.852,103,480.852,99,484.852,103,480.852,107,489.852,103" style="stroke: #A80036; stroke-width: 1.0;"/><!--
@startuml
Class Client{

}

package "In Strategy Pattern Example" #EDEDED {

  Interface Duck{
    + display()
    + quack()
    + fly()
  }

  Class MallardDuck{
    + display()
    + quack()
    + fly()
  }

}

Interface Turkey{
  + gobble()
  + shortFly()
}

Class WildTurkey{
  + gobble()
  + shortFly()
}

Class DuckAdapter{
  - turkey : Turkey
  + display()
  + quack()
  + fly()
}


Client - Duck

Duck <|.. MallardDuck

Turkey <|.. WildTurkey

Duck <|. DuckAdapter

DuckAdapter -> Turkey
@enduml

PlantUML version 1.2018.02beta13(Unknown compile time)
(GPL source distribution)
Java Runtime: Java(TM) SE Runtime Environment
JVM: Java HotSpot(TM) 64-Bit Server VM
Java Version: 1.7.0_25-b15
Operating System: Linux
Default Encoding: UTF-8
Language: en
Country: US
--></g></svg>