<?xml version="1.0" encoding="UTF-8" standalone="no"?><svg xmlns="http://www.w3.org/2000/svg" xmlns:xlink="http://www.w3.org/1999/xlink" contentScriptType="application/ecmascript" contentStyleType="text/css" height="328px" preserveAspectRatio="none" style="width:618px;height:328px;" version="1.1" viewBox="0 0 618 328" width="618px" zoomAndPan="magnify"><defs><filter height="300%" id="f2883t6i7v72z" width="300%" x="-1" y="-1"><feGaussianBlur result="blurOut" stdDeviation="2.0"/><feColorMatrix in="blurOut" result="blurOut2" type="matrix" values="0 0 0 0 0 0 0 0 0 0 0 0 0 0 0 0 0 0 .4 0"/><feOffset dx="4.0" dy="4.0" in="blurOut2" result="blurOut3"/><feBlend in="SourceGraphic" in2="blurOut3" mode="normal"/></filter></defs><g><!--class BallgumMachine--><rect fill="#FEFECE" filter="url(#f2883t6i7v72z)" height="150.4375" id="BallgumMachine" style="stroke: #A80036; stroke-width: 1.5;" width="139" x="60" y="8"/><ellipse cx="77.7" cy="24" fill="#ADD1B2" rx="11" ry="11" style="stroke: #A80036; stroke-width: 1.0;"/><path d="M80.0438,19.6719 L80.2156,19.75 C80.4344,19.4375 80.6375,19.3438 80.9344,19.3438 C81.2313,19.3438 81.5125,19.4844 81.6688,19.75 C81.7625,19.9063 81.7781,20.0313 81.7781,20.4688 L81.7781,21.8906 C81.7781,22.3125 81.7469,22.5 81.6375,22.6563 C81.4656,22.875 81.2,23.0156 80.9344,23.0156 C80.7156,23.0156 80.4813,22.9063 80.3406,22.7656 C80.2,22.6406 80.1688,22.5156 80.1063,22.1094 C80.0125,21.7031 79.8406,21.4844 79.3563,21.2031 C78.8875,20.9531 78.2781,20.7969 77.7,20.7969 C75.9656,20.7969 74.7156,22.1094 74.7156,23.8906 L74.7156,24.9844 C74.7156,26.6875 76.0125,27.7813 78.0594,27.7813 C78.825,27.7813 79.5125,27.6563 79.9344,27.3906 C80.1219,27.2969 80.1219,27.2969 80.575,26.8125 C80.7625,26.625 80.9656,26.5469 81.1844,26.5469 C81.6531,26.5469 82.0438,26.9375 82.0438,27.3906 C82.0438,27.7813 81.7156,28.2344 81.1375,28.6406 C80.3875,29.1875 79.2313,29.4844 78.0125,29.4844 C75.1219,29.4844 73.0125,27.5938 73.0125,25.0156 L73.0125,23.8906 C73.0125,21.1719 75.0125,19.0938 77.6375,19.0938 C78.5125,19.0938 79.1063,19.2344 80.0438,19.6719 Z "/><text fill="#000000" font-family="sans-serif" font-size="12" lengthAdjust="spacingAndGlyphs" textLength="101" x="92.3" y="28.1543">BallgumMachine</text><line style="stroke: #A80036; stroke-width: 1.5;" x1="61" x2="198" y1="40" y2="40"/><rect fill="none" height="6" style="stroke: #C82930; stroke-width: 1.0;" width="6" x="68" y="48.9023"/><text fill="#000000" font-family="sans-serif" font-size="11" lengthAdjust="spacingAndGlyphs" textLength="113" x="80" y="54.2104">state: MachineState</text><rect fill="none" height="6" style="stroke: #C82930; stroke-width: 1.0;" width="6" x="68" y="61.707"/><text fill="#000000" font-family="sans-serif" font-size="11" lengthAdjust="spacingAndGlyphs" textLength="88" x="80" y="67.0151">noQuarterState</text><rect fill="none" height="6" style="stroke: #C82930; stroke-width: 1.0;" width="6" x="68" y="74.5117"/><text fill="#000000" font-family="sans-serif" font-size="11" lengthAdjust="spacingAndGlyphs" textLength="95" x="80" y="79.8198">hasQuarterState</text><rect fill="none" height="6" style="stroke: #C82930; stroke-width: 1.0;" width="6" x="68" y="87.3164"/><text fill="#000000" font-family="sans-serif" font-size="11" lengthAdjust="spacingAndGlyphs" textLength="74" x="80" y="92.6245">soldOutState</text><rect fill="none" height="6" style="stroke: #C82930; stroke-width: 1.0;" width="6" x="68" y="100.1211"/><text fill="#000000" font-family="sans-serif" font-size="11" lengthAdjust="spacingAndGlyphs" textLength="54" x="80" y="105.4292">soldState</text><line style="stroke: #A80036; stroke-width: 1.5;" x1="61" x2="198" y1="112.0234" y2="112.0234"/><ellipse cx="71" cy="123.9258" fill="#84BE84" rx="3" ry="3" style="stroke: #038048; stroke-width: 1.0;"/><text fill="#000000" font-family="sans-serif" font-size="11" lengthAdjust="spacingAndGlyphs" textLength="85" x="80" y="126.2339">insertQuarter()</text><ellipse cx="71" cy="136.7305" fill="#84BE84" rx="3" ry="3" style="stroke: #038048; stroke-width: 1.0;"/><text fill="#000000" font-family="sans-serif" font-size="11" lengthAdjust="spacingAndGlyphs" textLength="72" x="80" y="139.0386">ejectQarter()</text><ellipse cx="71" cy="149.5352" fill="#84BE84" rx="3" ry="3" style="stroke: #038048; stroke-width: 1.0;"/><text fill="#000000" font-family="sans-serif" font-size="11" lengthAdjust="spacingAndGlyphs" textLength="64" x="80" y="151.8433">turnCrank()</text><!--class MachineState--><rect fill="#FEFECE" filter="url(#f2883t6i7v72z)" height="112.0234" id="MachineState" style="stroke: #A80036; stroke-width: 1.5;" width="176" x="234.5" y="27"/><ellipse cx="275.6" cy="43" fill="#B4A7E5" rx="11" ry="11" style="stroke: #A80036; stroke-width: 1.0;"/><path d="M276.5531,39.7813 L276.5531,46.2969 L278.2719,46.2969 C278.725,46.2969 278.8656,46.3281 279.0375,46.4531 C279.2719,46.625 279.3813,46.875 279.3813,47.1563 C279.3813,47.7188 279.0219,48 278.2719,48 L273.1313,48 C272.725,48 272.5219,47.9531 272.3656,47.8281 C272.1469,47.6719 272.0063,47.4063 272.0063,47.1563 C272.0063,46.8594 272.1625,46.5781 272.4125,46.4219 C272.5688,46.3125 272.6938,46.2969 273.1313,46.2969 L274.85,46.2969 L274.85,39.7813 L273.1313,39.7813 C272.7094,39.7813 272.5219,39.75 272.3656,39.6406 C272.1469,39.4688 272.0063,39.2188 272.0063,38.9375 C272.0063,38.6563 272.1625,38.3594 272.4125,38.2031 C272.5688,38.1094 272.6938,38.0938 273.1313,38.0938 L278.2719,38.0938 C278.725,38.0938 278.8656,38.125 279.0375,38.2344 C279.2719,38.4063 279.3813,38.6719 279.3813,38.9375 C279.3813,39.2344 279.2406,39.5156 278.975,39.6719 C278.85,39.75 278.6625,39.7813 278.2719,39.7813 Z "/><text fill="#000000" font-family="sans-serif" font-size="12" font-style="italic" lengthAdjust="spacingAndGlyphs" textLength="86" x="295.4" y="47.1543">MachineState</text><line style="stroke: #A80036; stroke-width: 1.5;" x1="235.5" x2="409.5" y1="59" y2="59"/><rect fill="none" height="6" style="stroke: #C82930; stroke-width: 1.0;" width="6" x="242.5" y="67.9023"/><text fill="#000000" font-family="sans-serif" font-size="11" lengthAdjust="spacingAndGlyphs" textLength="150" x="254.5" y="73.2104">BallgumMachine *machine</text><line style="stroke: #A80036; stroke-width: 1.5;" x1="235.5" x2="409.5" y1="79.8047" y2="79.8047"/><ellipse cx="245.5" cy="91.707" fill="#84BE84" rx="3" ry="3" style="stroke: #038048; stroke-width: 1.0;"/><text fill="#000000" font-family="sans-serif" font-size="11" lengthAdjust="spacingAndGlyphs" textLength="85" x="254.5" y="94.0151">insertQuarter()</text><ellipse cx="245.5" cy="104.5117" fill="#84BE84" rx="3" ry="3" style="stroke: #038048; stroke-width: 1.0;"/><text fill="#000000" font-family="sans-serif" font-size="11" lengthAdjust="spacingAndGlyphs" textLength="72" x="254.5" y="106.8198">ejectQarter()</text><ellipse cx="245.5" cy="117.3164" fill="#84BE84" rx="3" ry="3" style="stroke: #038048; stroke-width: 1.0;"/><text fill="#000000" font-family="sans-serif" font-size="11" lengthAdjust="spacingAndGlyphs" textLength="64" x="254.5" y="119.6245">turnCrank()</text><ellipse cx="245.5" cy="130.1211" fill="#84BE84" rx="3" ry="3" style="stroke: #038048; stroke-width: 1.0;"/><text fill="#000000" font-family="sans-serif" font-size="11" lengthAdjust="spacingAndGlyphs" textLength="60" x="254.5" y="132.4292">dispense()</text><!--class NoQuarterState--><rect fill="#FEFECE" filter="url(#f2883t6i7v72z)" height="99.2188" id="NoQuarterState" style="stroke: #A80036; stroke-width: 1.5;" width="131" x="6" y="218"/><ellipse cx="21" cy="234" fill="#ADD1B2" rx="11" ry="11" style="stroke: #A80036; stroke-width: 1.0;"/><path d="M23.3438,229.6719 L23.5156,229.75 C23.7344,229.4375 23.9375,229.3438 24.2344,229.3438 C24.5313,229.3438 24.8125,229.4844 24.9688,229.75 C25.0625,229.9063 25.0781,230.0313 25.0781,230.4688 L25.0781,231.8906 C25.0781,232.3125 25.0469,232.5 24.9375,232.6563 C24.7656,232.875 24.5,233.0156 24.2344,233.0156 C24.0156,233.0156 23.7813,232.9063 23.6406,232.7656 C23.5,232.6406 23.4688,232.5156 23.4063,232.1094 C23.3125,231.7031 23.1406,231.4844 22.6563,231.2031 C22.1875,230.9531 21.5781,230.7969 21,230.7969 C19.2656,230.7969 18.0156,232.1094 18.0156,233.8906 L18.0156,234.9844 C18.0156,236.6875 19.3125,237.7813 21.3594,237.7813 C22.125,237.7813 22.8125,237.6563 23.2344,237.3906 C23.4219,237.2969 23.4219,237.2969 23.875,236.8125 C24.0625,236.625 24.2656,236.5469 24.4844,236.5469 C24.9531,236.5469 25.3438,236.9375 25.3438,237.3906 C25.3438,237.7813 25.0156,238.2344 24.4375,238.6406 C23.6875,239.1875 22.5313,239.4844 21.3125,239.4844 C18.4219,239.4844 16.3125,237.5938 16.3125,235.0156 L16.3125,233.8906 C16.3125,231.1719 18.3125,229.0938 20.9375,229.0938 C21.8125,229.0938 22.4063,229.2344 23.3438,229.6719 Z "/><text fill="#000000" font-family="sans-serif" font-size="12" lengthAdjust="spacingAndGlyphs" textLength="99" x="35" y="238.1543">NoQuarterState</text><line style="stroke: #A80036; stroke-width: 1.5;" x1="7" x2="136" y1="250" y2="250"/><line style="stroke: #A80036; stroke-width: 1.5;" x1="7" x2="136" y1="258" y2="258"/><ellipse cx="17" cy="269.9023" fill="#84BE84" rx="3" ry="3" style="stroke: #038048; stroke-width: 1.0;"/><text fill="#000000" font-family="sans-serif" font-size="11" lengthAdjust="spacingAndGlyphs" textLength="85" x="26" y="272.2104">insertQuarter()</text><ellipse cx="17" cy="282.707" fill="#84BE84" rx="3" ry="3" style="stroke: #038048; stroke-width: 1.0;"/><text fill="#000000" font-family="sans-serif" font-size="11" lengthAdjust="spacingAndGlyphs" textLength="72" x="26" y="285.0151">ejectQarter()</text><ellipse cx="17" cy="295.5117" fill="#84BE84" rx="3" ry="3" style="stroke: #038048; stroke-width: 1.0;"/><text fill="#000000" font-family="sans-serif" font-size="11" lengthAdjust="spacingAndGlyphs" textLength="64" x="26" y="297.8198">turnCrank()</text><ellipse cx="17" cy="308.3164" fill="#84BE84" rx="3" ry="3" style="stroke: #038048; stroke-width: 1.0;"/><text fill="#000000" font-family="sans-serif" font-size="11" lengthAdjust="spacingAndGlyphs" textLength="60" x="26" y="310.6245">dispense()</text><!--class HasQuarterState--><rect fill="#FEFECE" filter="url(#f2883t6i7v72z)" height="99.2188" id="HasQuarterState" style="stroke: #A80036; stroke-width: 1.5;" width="138" x="172.5" y="218"/><ellipse cx="187.5" cy="234" fill="#ADD1B2" rx="11" ry="11" style="stroke: #A80036; stroke-width: 1.0;"/><path d="M189.8438,229.6719 L190.0156,229.75 C190.2344,229.4375 190.4375,229.3438 190.7344,229.3438 C191.0313,229.3438 191.3125,229.4844 191.4688,229.75 C191.5625,229.9063 191.5781,230.0313 191.5781,230.4688 L191.5781,231.8906 C191.5781,232.3125 191.5469,232.5 191.4375,232.6563 C191.2656,232.875 191,233.0156 190.7344,233.0156 C190.5156,233.0156 190.2813,232.9063 190.1406,232.7656 C190,232.6406 189.9688,232.5156 189.9063,232.1094 C189.8125,231.7031 189.6406,231.4844 189.1563,231.2031 C188.6875,230.9531 188.0781,230.7969 187.5,230.7969 C185.7656,230.7969 184.5156,232.1094 184.5156,233.8906 L184.5156,234.9844 C184.5156,236.6875 185.8125,237.7813 187.8594,237.7813 C188.625,237.7813 189.3125,237.6563 189.7344,237.3906 C189.9219,237.2969 189.9219,237.2969 190.375,236.8125 C190.5625,236.625 190.7656,236.5469 190.9844,236.5469 C191.4531,236.5469 191.8438,236.9375 191.8438,237.3906 C191.8438,237.7813 191.5156,238.2344 190.9375,238.6406 C190.1875,239.1875 189.0313,239.4844 187.8125,239.4844 C184.9219,239.4844 182.8125,237.5938 182.8125,235.0156 L182.8125,233.8906 C182.8125,231.1719 184.8125,229.0938 187.4375,229.0938 C188.3125,229.0938 188.9063,229.2344 189.8438,229.6719 Z "/><text fill="#000000" font-family="sans-serif" font-size="12" lengthAdjust="spacingAndGlyphs" textLength="106" x="201.5" y="238.1543">HasQuarterState</text><line style="stroke: #A80036; stroke-width: 1.5;" x1="173.5" x2="309.5" y1="250" y2="250"/><line style="stroke: #A80036; stroke-width: 1.5;" x1="173.5" x2="309.5" y1="258" y2="258"/><ellipse cx="183.5" cy="269.9023" fill="#84BE84" rx="3" ry="3" style="stroke: #038048; stroke-width: 1.0;"/><text fill="#000000" font-family="sans-serif" font-size="11" lengthAdjust="spacingAndGlyphs" textLength="85" x="192.5" y="272.2104">insertQuarter()</text><ellipse cx="183.5" cy="282.707" fill="#84BE84" rx="3" ry="3" style="stroke: #038048; stroke-width: 1.0;"/><text fill="#000000" font-family="sans-serif" font-size="11" lengthAdjust="spacingAndGlyphs" textLength="72" x="192.5" y="285.0151">ejectQarter()</text><ellipse cx="183.5" cy="295.5117" fill="#84BE84" rx="3" ry="3" style="stroke: #038048; stroke-width: 1.0;"/><text fill="#000000" font-family="sans-serif" font-size="11" lengthAdjust="spacingAndGlyphs" textLength="64" x="192.5" y="297.8198">turnCrank()</text><ellipse cx="183.5" cy="308.3164" fill="#84BE84" rx="3" ry="3" style="stroke: #038048; stroke-width: 1.0;"/><text fill="#000000" font-family="sans-serif" font-size="11" lengthAdjust="spacingAndGlyphs" textLength="60" x="192.5" y="310.6245">dispense()</text><!--class SoldOutState--><rect fill="#FEFECE" filter="url(#f2883t6i7v72z)" height="99.2188" id="SoldOutState" style="stroke: #A80036; stroke-width: 1.5;" width="115" x="346" y="218"/><ellipse cx="361" cy="234" fill="#ADD1B2" rx="11" ry="11" style="stroke: #A80036; stroke-width: 1.0;"/><path d="M363.3438,229.6719 L363.5156,229.75 C363.7344,229.4375 363.9375,229.3438 364.2344,229.3438 C364.5313,229.3438 364.8125,229.4844 364.9688,229.75 C365.0625,229.9063 365.0781,230.0313 365.0781,230.4688 L365.0781,231.8906 C365.0781,232.3125 365.0469,232.5 364.9375,232.6563 C364.7656,232.875 364.5,233.0156 364.2344,233.0156 C364.0156,233.0156 363.7813,232.9063 363.6406,232.7656 C363.5,232.6406 363.4688,232.5156 363.4063,232.1094 C363.3125,231.7031 363.1406,231.4844 362.6563,231.2031 C362.1875,230.9531 361.5781,230.7969 361,230.7969 C359.2656,230.7969 358.0156,232.1094 358.0156,233.8906 L358.0156,234.9844 C358.0156,236.6875 359.3125,237.7813 361.3594,237.7813 C362.125,237.7813 362.8125,237.6563 363.2344,237.3906 C363.4219,237.2969 363.4219,237.2969 363.875,236.8125 C364.0625,236.625 364.2656,236.5469 364.4844,236.5469 C364.9531,236.5469 365.3438,236.9375 365.3438,237.3906 C365.3438,237.7813 365.0156,238.2344 364.4375,238.6406 C363.6875,239.1875 362.5313,239.4844 361.3125,239.4844 C358.4219,239.4844 356.3125,237.5938 356.3125,235.0156 L356.3125,233.8906 C356.3125,231.1719 358.3125,229.0938 360.9375,229.0938 C361.8125,229.0938 362.4063,229.2344 363.3438,229.6719 Z "/><text fill="#000000" font-family="sans-serif" font-size="12" lengthAdjust="spacingAndGlyphs" textLength="83" x="375" y="238.1543">SoldOutState</text><line style="stroke: #A80036; stroke-width: 1.5;" x1="347" x2="460" y1="250" y2="250"/><line style="stroke: #A80036; stroke-width: 1.5;" x1="347" x2="460" y1="258" y2="258"/><ellipse cx="357" cy="269.9023" fill="#84BE84" rx="3" ry="3" style="stroke: #038048; stroke-width: 1.0;"/><text fill="#000000" font-family="sans-serif" font-size="11" lengthAdjust="spacingAndGlyphs" textLength="85" x="366" y="272.2104">insertQuarter()</text><ellipse cx="357" cy="282.707" fill="#84BE84" rx="3" ry="3" style="stroke: #038048; stroke-width: 1.0;"/><text fill="#000000" font-family="sans-serif" font-size="11" lengthAdjust="spacingAndGlyphs" textLength="72" x="366" y="285.0151">ejectQarter()</text><ellipse cx="357" cy="295.5117" fill="#84BE84" rx="3" ry="3" style="stroke: #038048; stroke-width: 1.0;"/><text fill="#000000" font-family="sans-serif" font-size="11" lengthAdjust="spacingAndGlyphs" textLength="64" x="366" y="297.8198">turnCrank()</text><ellipse cx="357" cy="308.3164" fill="#84BE84" rx="3" ry="3" style="stroke: #038048; stroke-width: 1.0;"/><text fill="#000000" font-family="sans-serif" font-size="11" lengthAdjust="spacingAndGlyphs" textLength="60" x="366" y="310.6245">dispense()</text><!--class SoldState--><rect fill="#FEFECE" filter="url(#f2883t6i7v72z)" height="99.2188" id="SoldState" style="stroke: #A80036; stroke-width: 1.5;" width="111" x="496" y="218"/><ellipse cx="519.1" cy="234" fill="#ADD1B2" rx="11" ry="11" style="stroke: #A80036; stroke-width: 1.0;"/><path d="M521.4438,229.6719 L521.6156,229.75 C521.8344,229.4375 522.0375,229.3438 522.3344,229.3438 C522.6313,229.3438 522.9125,229.4844 523.0688,229.75 C523.1625,229.9063 523.1781,230.0313 523.1781,230.4688 L523.1781,231.8906 C523.1781,232.3125 523.1469,232.5 523.0375,232.6563 C522.8656,232.875 522.6,233.0156 522.3344,233.0156 C522.1156,233.0156 521.8813,232.9063 521.7406,232.7656 C521.6,232.6406 521.5688,232.5156 521.5063,232.1094 C521.4125,231.7031 521.2406,231.4844 520.7563,231.2031 C520.2875,230.9531 519.6781,230.7969 519.1,230.7969 C517.3656,230.7969 516.1156,232.1094 516.1156,233.8906 L516.1156,234.9844 C516.1156,236.6875 517.4125,237.7813 519.4594,237.7813 C520.225,237.7813 520.9125,237.6563 521.3344,237.3906 C521.5219,237.2969 521.5219,237.2969 521.975,236.8125 C522.1625,236.625 522.3656,236.5469 522.5844,236.5469 C523.0531,236.5469 523.4438,236.9375 523.4438,237.3906 C523.4438,237.7813 523.1156,238.2344 522.5375,238.6406 C521.7875,239.1875 520.6313,239.4844 519.4125,239.4844 C516.5219,239.4844 514.4125,237.5938 514.4125,235.0156 L514.4125,233.8906 C514.4125,231.1719 516.4125,229.0938 519.0375,229.0938 C519.9125,229.0938 520.5063,229.2344 521.4438,229.6719 Z "/><text fill="#000000" font-family="sans-serif" font-size="12" lengthAdjust="spacingAndGlyphs" textLength="61" x="534.9" y="238.1543">SoldState</text><line style="stroke: #A80036; stroke-width: 1.5;" x1="497" x2="606" y1="250" y2="250"/><line style="stroke: #A80036; stroke-width: 1.5;" x1="497" x2="606" y1="258" y2="258"/><ellipse cx="507" cy="269.9023" fill="#84BE84" rx="3" ry="3" style="stroke: #038048; stroke-width: 1.0;"/><text fill="#000000" font-family="sans-serif" font-size="11" lengthAdjust="spacingAndGlyphs" textLength="85" x="516" y="272.2104">insertQuarter()</text><ellipse cx="507" cy="282.707" fill="#84BE84" rx="3" ry="3" style="stroke: #038048; stroke-width: 1.0;"/><text fill="#000000" font-family="sans-serif" font-size="11" lengthAdjust="spacingAndGlyphs" textLength="72" x="516" y="285.0151">ejectQarter()</text><ellipse cx="507" cy="295.5117" fill="#84BE84" rx="3" ry="3" style="stroke: #038048; stroke-width: 1.0;"/><text fill="#000000" font-family="sans-serif" font-size="11" lengthAdjust="spacingAndGlyphs" textLength="64" x="516" y="297.8198">turnCrank()</text><ellipse cx="507" cy="308.3164" fill="#84BE84" rx="3" ry="3" style="stroke: #038048; stroke-width: 1.0;"/><text fill="#000000" font-family="sans-serif" font-size="11" lengthAdjust="spacingAndGlyphs" textLength="60" x="516" y="310.6245">dispense()</text><!--link MachineState to NoQuarterState--><path d="M230.506,150.888 C199.575,173.378 165.714,197.998 137.218,218.717 " fill="none" id="MachineState-NoQuarterState" style="stroke: #A80036; stroke-width: 1.0; stroke-dasharray: 7.0,7.0;"/><polygon fill="none" points="226.559,145.103,246.851,139.004,234.792,156.427,226.559,145.103" style="stroke: #A80036; stroke-width: 1.0;"/><!--link MachineState to HasQuarterState--><path d="M289.753,157.782 C280.762,178.038 271.242,199.488 263.056,217.9332 " fill="none" id="MachineState-HasQuarterState" style="stroke: #A80036; stroke-width: 1.0; stroke-dasharray: 7.0,7.0;"/><polygon fill="none" points="283.466,154.692,297.978,139.251,296.262,160.371,283.466,154.692" style="stroke: #A80036; stroke-width: 1.0;"/><!--link MachineState to SoldOutState--><path d="M355.247,157.782 C364.238,178.038 373.758,199.488 381.944,217.9332 " fill="none" id="MachineState-SoldOutState" style="stroke: #A80036; stroke-width: 1.0; stroke-dasharray: 7.0,7.0;"/><polygon fill="none" points="348.738,160.371,347.022,139.251,361.534,154.692,348.738,160.371" style="stroke: #A80036; stroke-width: 1.0;"/><!--link MachineState to SoldState--><path d="M407.531,151.765 C436.969,175.225 469.195,200.908 495.681,222.0155 " fill="none" id="MachineState-SoldState" style="stroke: #A80036; stroke-width: 1.0; stroke-dasharray: 7.0,7.0;"/><polygon fill="none" points="402.796,156.943,391.518,139.004,411.521,145.994,402.796,156.943" style="stroke: #A80036; stroke-width: 1.0;"/><!--link BallgumMachine to MachineState--><path d="M199.236,83 C210.953,83 222.669,83 234.386,83 " fill="none" id="BallgumMachine-MachineState" style="stroke: #A80036; stroke-width: 1.0;"/><!--
@startuml
Class BallgumMachine{
  + insertQuarter()
  + ejectQarter()
  + turnCrank()
  - state: MachineState
  - noQuarterState
  - hasQuarterState
  - soldOutState
  - soldState
}

Interface MachineState{
  - BallgumMachine *machine
  + insertQuarter()
  + ejectQarter()
  + turnCrank()
  + dispense()
}

Class NoQuarterState{
  + insertQuarter()
  + ejectQarter()
  + turnCrank()
  + dispense()
}

Class HasQuarterState{
  + insertQuarter()
  + ejectQarter()
  + turnCrank()
  + dispense()
}

Class SoldOutState{
  + insertQuarter()
  + ejectQarter()
  + turnCrank()
  + dispense()
}

Class SoldState{
  + insertQuarter()
  + ejectQarter()
  + turnCrank()
  + dispense()
}


MachineState <|.. NoQuarterState
MachineState <|.. HasQuarterState
MachineState <|.. SoldOutState
MachineState <|.. SoldState

BallgumMachine - MachineState
@enduml

PlantUML version 1.2018.02beta13(Unknown compile time)
(GPL source distribution)
Java Runtime: Java(TM) SE Runtime Environment
JVM: Java HotSpot(TM) 64-Bit Server VM
Java Version: 1.7.0_25-b15
Operating System: Linux
Default Encoding: UTF-8
Language: en
Country: US
--></g></svg>